G04 #@! TF.GenerationSoftware,KiCad,Pcbnew,(5.1.5)-3*
G04 #@! TF.CreationDate,2020-03-25T11:39:43-07:00*
G04 #@! TF.ProjectId,UPduino_v3.0,55506475-696e-46f5-9f76-332e302e6b69,3.0*
G04 #@! TF.SameCoordinates,PX5f5e100PY5f5e100*
G04 #@! TF.FileFunction,Legend,Bot*
G04 #@! TF.FilePolarity,Positive*
%FSLAX46Y46*%
G04 Gerber Fmt 4.6, Leading zero omitted, Abs format (unit mm)*
G04 Created by KiCad (PCBNEW (5.1.5)-3) date 2020-03-25 11:39:43*
%MOMM*%
%LPD*%
G04 APERTURE LIST*
%ADD10C,0.127000*%
%ADD11C,0.050000*%
%ADD12C,0.150000*%
%ADD13C,0.120000*%
%ADD14C,0.010000*%
G04 APERTURE END LIST*
D10*
X30313333Y21746667D02*
X30280000Y21780000D01*
X30213333Y21813334D01*
X30046666Y21813334D01*
X29980000Y21780000D01*
X29946666Y21746667D01*
X29913333Y21680000D01*
X29913333Y21613334D01*
X29946666Y21513334D01*
X30346666Y21113334D01*
X29913333Y21113334D01*
X29313333Y21813334D02*
X29446666Y21813334D01*
X29513333Y21780000D01*
X29546666Y21746667D01*
X29613333Y21646667D01*
X29646666Y21513334D01*
X29646666Y21246667D01*
X29613333Y21180000D01*
X29580000Y21146667D01*
X29513333Y21113334D01*
X29380000Y21113334D01*
X29313333Y21146667D01*
X29280000Y21180000D01*
X29246666Y21246667D01*
X29246666Y21413334D01*
X29280000Y21480000D01*
X29313333Y21513334D01*
X29380000Y21546667D01*
X29513333Y21546667D01*
X29580000Y21513334D01*
X29613333Y21480000D01*
X29646666Y21413334D01*
X2303333Y21691667D02*
X2270000Y21725000D01*
X2203333Y21758334D01*
X2036666Y21758334D01*
X1970000Y21725000D01*
X1936666Y21691667D01*
X1903333Y21625000D01*
X1903333Y21558334D01*
X1936666Y21458334D01*
X2336666Y21058334D01*
X1903333Y21058334D01*
X1503333Y21458334D02*
X1570000Y21491667D01*
X1603333Y21525000D01*
X1636666Y21591667D01*
X1636666Y21625000D01*
X1603333Y21691667D01*
X1570000Y21725000D01*
X1503333Y21758334D01*
X1370000Y21758334D01*
X1303333Y21725000D01*
X1270000Y21691667D01*
X1236666Y21625000D01*
X1236666Y21591667D01*
X1270000Y21525000D01*
X1303333Y21491667D01*
X1370000Y21458334D01*
X1503333Y21458334D01*
X1570000Y21425000D01*
X1603333Y21391667D01*
X1636666Y21325000D01*
X1636666Y21191667D01*
X1603333Y21125000D01*
X1570000Y21091667D01*
X1503333Y21058334D01*
X1370000Y21058334D01*
X1303333Y21091667D01*
X1270000Y21125000D01*
X1236666Y21191667D01*
X1236666Y21325000D01*
X1270000Y21391667D01*
X1303333Y21425000D01*
X1370000Y21458334D01*
X47396666Y21740000D02*
X47463333Y21773334D01*
X47563333Y21773334D01*
X47663333Y21740000D01*
X47730000Y21673334D01*
X47763333Y21606667D01*
X47796666Y21473334D01*
X47796666Y21373334D01*
X47763333Y21240000D01*
X47730000Y21173334D01*
X47663333Y21106667D01*
X47563333Y21073334D01*
X47496666Y21073334D01*
X47396666Y21106667D01*
X47363333Y21140000D01*
X47363333Y21373334D01*
X47496666Y21373334D01*
X35433333Y21746667D02*
X35400000Y21780000D01*
X35333333Y21813334D01*
X35166666Y21813334D01*
X35100000Y21780000D01*
X35066666Y21746667D01*
X35033333Y21680000D01*
X35033333Y21613334D01*
X35066666Y21513334D01*
X35466666Y21113334D01*
X35033333Y21113334D01*
X34800000Y21813334D02*
X34366666Y21813334D01*
X34600000Y21546667D01*
X34500000Y21546667D01*
X34433333Y21513334D01*
X34400000Y21480000D01*
X34366666Y21413334D01*
X34366666Y21246667D01*
X34400000Y21180000D01*
X34433333Y21146667D01*
X34500000Y21113334D01*
X34700000Y21113334D01*
X34766666Y21146667D01*
X34800000Y21180000D01*
X42668333Y21813334D02*
X43001666Y21813334D01*
X43035000Y21480000D01*
X43001666Y21513334D01*
X42935000Y21546667D01*
X42768333Y21546667D01*
X42701666Y21513334D01*
X42668333Y21480000D01*
X42635000Y21413334D01*
X42635000Y21246667D01*
X42668333Y21180000D01*
X42701666Y21146667D01*
X42768333Y21113334D01*
X42935000Y21113334D01*
X43001666Y21146667D01*
X43035000Y21180000D01*
X42435000Y21813334D02*
X42201666Y21113334D01*
X41968333Y21813334D01*
X55663333Y21093334D02*
X55896666Y21426667D01*
X56063333Y21093334D02*
X56063333Y21793334D01*
X55796666Y21793334D01*
X55730000Y21760000D01*
X55696666Y21726667D01*
X55663333Y21660000D01*
X55663333Y21560000D01*
X55696666Y21493334D01*
X55730000Y21460000D01*
X55796666Y21426667D01*
X56063333Y21426667D01*
X55396666Y21126667D02*
X55296666Y21093334D01*
X55130000Y21093334D01*
X55063333Y21126667D01*
X55030000Y21160000D01*
X54996666Y21226667D01*
X54996666Y21293334D01*
X55030000Y21360000D01*
X55063333Y21393334D01*
X55130000Y21426667D01*
X55263333Y21460000D01*
X55330000Y21493334D01*
X55363333Y21526667D01*
X55396666Y21593334D01*
X55396666Y21660000D01*
X55363333Y21726667D01*
X55330000Y21760000D01*
X55263333Y21793334D01*
X55096666Y21793334D01*
X54996666Y21760000D01*
X54796666Y21793334D02*
X54396666Y21793334D01*
X54596666Y21093334D02*
X54596666Y21793334D01*
X44985000Y21480000D02*
X44885000Y21446667D01*
X44851666Y21413334D01*
X44818333Y21346667D01*
X44818333Y21246667D01*
X44851666Y21180000D01*
X44885000Y21146667D01*
X44951666Y21113334D01*
X45218333Y21113334D01*
X45218333Y21813334D01*
X44985000Y21813334D01*
X44918333Y21780000D01*
X44885000Y21746667D01*
X44851666Y21680000D01*
X44851666Y21613334D01*
X44885000Y21546667D01*
X44918333Y21513334D01*
X44985000Y21480000D01*
X45218333Y21480000D01*
X27763333Y21736667D02*
X27730000Y21770000D01*
X27663333Y21803334D01*
X27496666Y21803334D01*
X27430000Y21770000D01*
X27396666Y21736667D01*
X27363333Y21670000D01*
X27363333Y21603334D01*
X27396666Y21503334D01*
X27796666Y21103334D01*
X27363333Y21103334D01*
X27130000Y21803334D02*
X26663333Y21803334D01*
X26963333Y21103334D01*
X17686666Y21843334D02*
X17253333Y21843334D01*
X17486666Y21576667D01*
X17386666Y21576667D01*
X17320000Y21543334D01*
X17286666Y21510000D01*
X17253333Y21443334D01*
X17253333Y21276667D01*
X17286666Y21210000D01*
X17320000Y21176667D01*
X17386666Y21143334D01*
X17586666Y21143334D01*
X17653333Y21176667D01*
X17686666Y21210000D01*
X17020000Y21843334D02*
X16553333Y21843334D01*
X16853333Y21143334D01*
X60803333Y21790000D02*
X60870000Y21823334D01*
X60970000Y21823334D01*
X61070000Y21790000D01*
X61136666Y21723334D01*
X61170000Y21656667D01*
X61203333Y21523334D01*
X61203333Y21423334D01*
X61170000Y21290000D01*
X61136666Y21223334D01*
X61070000Y21156667D01*
X60970000Y21123334D01*
X60903333Y21123334D01*
X60803333Y21156667D01*
X60770000Y21190000D01*
X60770000Y21423334D01*
X60903333Y21423334D01*
X60470000Y21123334D02*
X60470000Y21823334D01*
X60070000Y21123334D01*
X60070000Y21823334D01*
X59736666Y21123334D02*
X59736666Y21823334D01*
X59570000Y21823334D01*
X59470000Y21790000D01*
X59403333Y21723334D01*
X59370000Y21656667D01*
X59336666Y21523334D01*
X59336666Y21423334D01*
X59370000Y21290000D01*
X59403333Y21223334D01*
X59470000Y21156667D01*
X59570000Y21123334D01*
X59736666Y21123334D01*
X49943333Y21083334D02*
X50176666Y21416667D01*
X50343333Y21083334D02*
X50343333Y21783334D01*
X50076666Y21783334D01*
X50010000Y21750000D01*
X49976666Y21716667D01*
X49943333Y21650000D01*
X49943333Y21550000D01*
X49976666Y21483334D01*
X50010000Y21450000D01*
X50076666Y21416667D01*
X50343333Y21416667D01*
X20236666Y21793334D02*
X19803333Y21793334D01*
X20036666Y21526667D01*
X19936666Y21526667D01*
X19870000Y21493334D01*
X19836666Y21460000D01*
X19803333Y21393334D01*
X19803333Y21226667D01*
X19836666Y21160000D01*
X19870000Y21126667D01*
X19936666Y21093334D01*
X20136666Y21093334D01*
X20203333Y21126667D01*
X20236666Y21160000D01*
X19136666Y21093334D02*
X19536666Y21093334D01*
X19336666Y21093334D02*
X19336666Y21793334D01*
X19403333Y21693334D01*
X19470000Y21626667D01*
X19536666Y21593334D01*
X32883333Y21736667D02*
X32850000Y21770000D01*
X32783333Y21803334D01*
X32616666Y21803334D01*
X32550000Y21770000D01*
X32516666Y21736667D01*
X32483333Y21670000D01*
X32483333Y21603334D01*
X32516666Y21503334D01*
X32916666Y21103334D01*
X32483333Y21103334D01*
X31850000Y21803334D02*
X32183333Y21803334D01*
X32216666Y21470000D01*
X32183333Y21503334D01*
X32116666Y21536667D01*
X31950000Y21536667D01*
X31883333Y21503334D01*
X31850000Y21470000D01*
X31816666Y21403334D01*
X31816666Y21236667D01*
X31850000Y21170000D01*
X31883333Y21136667D01*
X31950000Y21103334D01*
X32116666Y21103334D01*
X32183333Y21136667D01*
X32216666Y21170000D01*
X53823333Y21123334D02*
X53823333Y21823334D01*
X53656666Y21823334D01*
X53556666Y21790000D01*
X53490000Y21723334D01*
X53456666Y21656667D01*
X53423333Y21523334D01*
X53423333Y21423334D01*
X53456666Y21290000D01*
X53490000Y21223334D01*
X53556666Y21156667D01*
X53656666Y21123334D01*
X53823333Y21123334D01*
X52990000Y21823334D02*
X52856666Y21823334D01*
X52790000Y21790000D01*
X52723333Y21723334D01*
X52690000Y21590000D01*
X52690000Y21356667D01*
X52723333Y21223334D01*
X52790000Y21156667D01*
X52856666Y21123334D01*
X52990000Y21123334D01*
X53056666Y21156667D01*
X53123333Y21223334D01*
X53156666Y21356667D01*
X53156666Y21590000D01*
X53123333Y21723334D01*
X53056666Y21790000D01*
X52990000Y21823334D01*
X52390000Y21123334D02*
X52390000Y21823334D01*
X51990000Y21123334D01*
X51990000Y21823334D01*
X51656666Y21490000D02*
X51423333Y21490000D01*
X51323333Y21123334D02*
X51656666Y21123334D01*
X51656666Y21823334D01*
X51323333Y21823334D01*
X10036666Y21823334D02*
X9603333Y21823334D01*
X9836666Y21556667D01*
X9736666Y21556667D01*
X9670000Y21523334D01*
X9636666Y21490000D01*
X9603333Y21423334D01*
X9603333Y21256667D01*
X9636666Y21190000D01*
X9670000Y21156667D01*
X9736666Y21123334D01*
X9936666Y21123334D01*
X10003333Y21156667D01*
X10036666Y21190000D01*
X9003333Y21823334D02*
X9136666Y21823334D01*
X9203333Y21790000D01*
X9236666Y21756667D01*
X9303333Y21656667D01*
X9336666Y21523334D01*
X9336666Y21256667D01*
X9303333Y21190000D01*
X9270000Y21156667D01*
X9203333Y21123334D01*
X9070000Y21123334D01*
X9003333Y21156667D01*
X8970000Y21190000D01*
X8936666Y21256667D01*
X8936666Y21423334D01*
X8970000Y21490000D01*
X9003333Y21523334D01*
X9070000Y21556667D01*
X9203333Y21556667D01*
X9270000Y21523334D01*
X9303333Y21490000D01*
X9336666Y21423334D01*
X4936666Y21813334D02*
X4503333Y21813334D01*
X4736666Y21546667D01*
X4636666Y21546667D01*
X4570000Y21513334D01*
X4536666Y21480000D01*
X4503333Y21413334D01*
X4503333Y21246667D01*
X4536666Y21180000D01*
X4570000Y21146667D01*
X4636666Y21113334D01*
X4836666Y21113334D01*
X4903333Y21146667D01*
X4936666Y21180000D01*
X4103333Y21513334D02*
X4170000Y21546667D01*
X4203333Y21580000D01*
X4236666Y21646667D01*
X4236666Y21680000D01*
X4203333Y21746667D01*
X4170000Y21780000D01*
X4103333Y21813334D01*
X3970000Y21813334D01*
X3903333Y21780000D01*
X3870000Y21746667D01*
X3836666Y21680000D01*
X3836666Y21646667D01*
X3870000Y21580000D01*
X3903333Y21546667D01*
X3970000Y21513334D01*
X4103333Y21513334D01*
X4170000Y21480000D01*
X4203333Y21446667D01*
X4236666Y21380000D01*
X4236666Y21246667D01*
X4203333Y21180000D01*
X4170000Y21146667D01*
X4103333Y21113334D01*
X3970000Y21113334D01*
X3903333Y21146667D01*
X3870000Y21180000D01*
X3836666Y21246667D01*
X3836666Y21380000D01*
X3870000Y21446667D01*
X3903333Y21480000D01*
X3970000Y21513334D01*
X22736666Y21833334D02*
X22303333Y21833334D01*
X22536666Y21566667D01*
X22436666Y21566667D01*
X22370000Y21533334D01*
X22336666Y21500000D01*
X22303333Y21433334D01*
X22303333Y21266667D01*
X22336666Y21200000D01*
X22370000Y21166667D01*
X22436666Y21133334D01*
X22636666Y21133334D01*
X22703333Y21166667D01*
X22736666Y21200000D01*
X21670000Y21833334D02*
X22003333Y21833334D01*
X22036666Y21500000D01*
X22003333Y21533334D01*
X21936666Y21566667D01*
X21770000Y21566667D01*
X21703333Y21533334D01*
X21670000Y21500000D01*
X21636666Y21433334D01*
X21636666Y21266667D01*
X21670000Y21200000D01*
X21703333Y21166667D01*
X21770000Y21133334D01*
X21936666Y21133334D01*
X22003333Y21166667D01*
X22036666Y21200000D01*
X15126666Y21823334D02*
X14693333Y21823334D01*
X14926666Y21556667D01*
X14826666Y21556667D01*
X14760000Y21523334D01*
X14726666Y21490000D01*
X14693333Y21423334D01*
X14693333Y21256667D01*
X14726666Y21190000D01*
X14760000Y21156667D01*
X14826666Y21123334D01*
X15026666Y21123334D01*
X15093333Y21156667D01*
X15126666Y21190000D01*
X14093333Y21590000D02*
X14093333Y21123334D01*
X14260000Y21856667D02*
X14426666Y21356667D01*
X13993333Y21356667D01*
X7110000Y21560000D02*
X7110000Y21093334D01*
X7276666Y21826667D02*
X7443333Y21326667D01*
X7010000Y21326667D01*
X6776666Y21726667D02*
X6743333Y21760000D01*
X6676666Y21793334D01*
X6510000Y21793334D01*
X6443333Y21760000D01*
X6410000Y21726667D01*
X6376666Y21660000D01*
X6376666Y21593334D01*
X6410000Y21493334D01*
X6810000Y21093334D01*
X6376666Y21093334D01*
X25286666Y21793334D02*
X24853333Y21793334D01*
X25086666Y21526667D01*
X24986666Y21526667D01*
X24920000Y21493334D01*
X24886666Y21460000D01*
X24853333Y21393334D01*
X24853333Y21226667D01*
X24886666Y21160000D01*
X24920000Y21126667D01*
X24986666Y21093334D01*
X25186666Y21093334D01*
X25253333Y21126667D01*
X25286666Y21160000D01*
X24586666Y21726667D02*
X24553333Y21760000D01*
X24486666Y21793334D01*
X24320000Y21793334D01*
X24253333Y21760000D01*
X24220000Y21726667D01*
X24186666Y21660000D01*
X24186666Y21593334D01*
X24220000Y21493334D01*
X24620000Y21093334D01*
X24186666Y21093334D01*
X58486666Y21833334D02*
X58253333Y21133334D01*
X58020000Y21833334D01*
X57786666Y21133334D02*
X57786666Y21833334D01*
X57320000Y21833334D02*
X57186666Y21833334D01*
X57120000Y21800000D01*
X57053333Y21733334D01*
X57020000Y21600000D01*
X57020000Y21366667D01*
X57053333Y21233334D01*
X57120000Y21166667D01*
X57186666Y21133334D01*
X57320000Y21133334D01*
X57386666Y21166667D01*
X57453333Y21233334D01*
X57486666Y21366667D01*
X57486666Y21600000D01*
X57453333Y21733334D01*
X57386666Y21800000D01*
X57320000Y21833334D01*
X12190000Y21580000D02*
X12190000Y21113334D01*
X12356666Y21846667D02*
X12523333Y21346667D01*
X12090000Y21346667D01*
X11890000Y21813334D02*
X11456666Y21813334D01*
X11690000Y21546667D01*
X11590000Y21546667D01*
X11523333Y21513334D01*
X11490000Y21480000D01*
X11456666Y21413334D01*
X11456666Y21246667D01*
X11490000Y21180000D01*
X11523333Y21146667D01*
X11590000Y21113334D01*
X11790000Y21113334D01*
X11856666Y21146667D01*
X11890000Y21180000D01*
X37903333Y21780000D02*
X37970000Y21813334D01*
X38070000Y21813334D01*
X38170000Y21780000D01*
X38236666Y21713334D01*
X38270000Y21646667D01*
X38303333Y21513334D01*
X38303333Y21413334D01*
X38270000Y21280000D01*
X38236666Y21213334D01*
X38170000Y21146667D01*
X38070000Y21113334D01*
X38003333Y21113334D01*
X37903333Y21146667D01*
X37870000Y21180000D01*
X37870000Y21413334D01*
X38003333Y21413334D01*
X37570000Y21113334D02*
X37570000Y21813334D01*
X37170000Y21113334D01*
X37170000Y21813334D01*
X36836666Y21113334D02*
X36836666Y21813334D01*
X36670000Y21813334D01*
X36570000Y21780000D01*
X36503333Y21713334D01*
X36470000Y21646667D01*
X36436666Y21513334D01*
X36436666Y21413334D01*
X36470000Y21280000D01*
X36503333Y21213334D01*
X36570000Y21146667D01*
X36670000Y21113334D01*
X36836666Y21113334D01*
X40876666Y21813334D02*
X40443333Y21813334D01*
X40676666Y21546667D01*
X40576666Y21546667D01*
X40510000Y21513334D01*
X40476666Y21480000D01*
X40443333Y21413334D01*
X40443333Y21246667D01*
X40476666Y21180000D01*
X40510000Y21146667D01*
X40576666Y21113334D01*
X40776666Y21113334D01*
X40843333Y21146667D01*
X40876666Y21180000D01*
X40243333Y21813334D02*
X40010000Y21113334D01*
X39776666Y21813334D01*
X39610000Y21813334D02*
X39176666Y21813334D01*
X39410000Y21546667D01*
X39310000Y21546667D01*
X39243333Y21513334D01*
X39210000Y21480000D01*
X39176666Y21413334D01*
X39176666Y21246667D01*
X39210000Y21180000D01*
X39243333Y21146667D01*
X39310000Y21113334D01*
X39510000Y21113334D01*
X39576666Y21146667D01*
X39610000Y21180000D01*
X19910000Y820000D02*
X19910000Y353334D01*
X20076666Y1086667D02*
X20243333Y586667D01*
X19810000Y586667D01*
X19243333Y820000D02*
X19243333Y353334D01*
X19410000Y1086667D02*
X19576666Y586667D01*
X19143333Y586667D01*
X24913333Y373334D02*
X24780000Y373334D01*
X24713333Y406667D01*
X24680000Y440000D01*
X24613333Y540000D01*
X24580000Y673334D01*
X24580000Y940000D01*
X24613333Y1006667D01*
X24646666Y1040000D01*
X24713333Y1073334D01*
X24846666Y1073334D01*
X24913333Y1040000D01*
X24946666Y1006667D01*
X24980000Y940000D01*
X24980000Y773334D01*
X24946666Y706667D01*
X24913333Y673334D01*
X24846666Y640000D01*
X24713333Y640000D01*
X24646666Y673334D01*
X24613333Y706667D01*
X24580000Y773334D01*
X12250000Y810000D02*
X12250000Y343334D01*
X12416666Y1076667D02*
X12583333Y576667D01*
X12150000Y576667D01*
X11783333Y743334D02*
X11850000Y776667D01*
X11883333Y810000D01*
X11916666Y876667D01*
X11916666Y910000D01*
X11883333Y976667D01*
X11850000Y1010000D01*
X11783333Y1043334D01*
X11650000Y1043334D01*
X11583333Y1010000D01*
X11550000Y976667D01*
X11516666Y910000D01*
X11516666Y876667D01*
X11550000Y810000D01*
X11583333Y776667D01*
X11650000Y743334D01*
X11783333Y743334D01*
X11850000Y710000D01*
X11883333Y676667D01*
X11916666Y610000D01*
X11916666Y476667D01*
X11883333Y410000D01*
X11850000Y376667D01*
X11783333Y343334D01*
X11650000Y343334D01*
X11583333Y376667D01*
X11550000Y410000D01*
X11516666Y476667D01*
X11516666Y610000D01*
X11550000Y676667D01*
X11583333Y710000D01*
X11650000Y743334D01*
X38083333Y976667D02*
X38050000Y1010000D01*
X37983333Y1043334D01*
X37816666Y1043334D01*
X37750000Y1010000D01*
X37716666Y976667D01*
X37683333Y910000D01*
X37683333Y843334D01*
X37716666Y743334D01*
X38116666Y343334D01*
X37683333Y343334D01*
X37016666Y343334D02*
X37416666Y343334D01*
X37216666Y343334D02*
X37216666Y1043334D01*
X37283333Y943334D01*
X37350000Y876667D01*
X37416666Y843334D01*
X14903333Y1043334D02*
X14470000Y1043334D01*
X14703333Y776667D01*
X14603333Y776667D01*
X14536666Y743334D01*
X14503333Y710000D01*
X14470000Y643334D01*
X14470000Y476667D01*
X14503333Y410000D01*
X14536666Y376667D01*
X14603333Y343334D01*
X14803333Y343334D01*
X14870000Y376667D01*
X14903333Y410000D01*
X9740000Y860000D02*
X9740000Y393334D01*
X9906666Y1126667D02*
X10073333Y626667D01*
X9640000Y626667D01*
X9040000Y1093334D02*
X9373333Y1093334D01*
X9406666Y760000D01*
X9373333Y793334D01*
X9306666Y826667D01*
X9140000Y826667D01*
X9073333Y793334D01*
X9040000Y760000D01*
X9006666Y693334D01*
X9006666Y526667D01*
X9040000Y460000D01*
X9073333Y426667D01*
X9140000Y393334D01*
X9306666Y393334D01*
X9373333Y426667D01*
X9406666Y460000D01*
X32513333Y333334D02*
X32913333Y333334D01*
X32713333Y333334D02*
X32713333Y1033334D01*
X32780000Y933334D01*
X32846666Y866667D01*
X32913333Y833334D01*
X32180000Y333334D02*
X32046666Y333334D01*
X31980000Y366667D01*
X31946666Y400000D01*
X31880000Y500000D01*
X31846666Y633334D01*
X31846666Y900000D01*
X31880000Y966667D01*
X31913333Y1000000D01*
X31980000Y1033334D01*
X32113333Y1033334D01*
X32180000Y1000000D01*
X32213333Y966667D01*
X32246666Y900000D01*
X32246666Y733334D01*
X32213333Y666667D01*
X32180000Y633334D01*
X32113333Y600000D01*
X31980000Y600000D01*
X31913333Y633334D01*
X31880000Y666667D01*
X31846666Y733334D01*
X7210000Y860000D02*
X7210000Y393334D01*
X7376666Y1126667D02*
X7543333Y626667D01*
X7110000Y626667D01*
X6910000Y1093334D02*
X6443333Y1093334D01*
X6743333Y393334D01*
X4680000Y840000D02*
X4680000Y373334D01*
X4846666Y1106667D02*
X5013333Y606667D01*
X4580000Y606667D01*
X4013333Y1073334D02*
X4146666Y1073334D01*
X4213333Y1040000D01*
X4246666Y1006667D01*
X4313333Y906667D01*
X4346666Y773334D01*
X4346666Y506667D01*
X4313333Y440000D01*
X4280000Y406667D01*
X4213333Y373334D01*
X4080000Y373334D01*
X4013333Y406667D01*
X3980000Y440000D01*
X3946666Y506667D01*
X3946666Y673334D01*
X3980000Y740000D01*
X4013333Y773334D01*
X4080000Y806667D01*
X4213333Y806667D01*
X4280000Y773334D01*
X4313333Y740000D01*
X4346666Y673334D01*
X40133333Y353334D02*
X40533333Y353334D01*
X40333333Y353334D02*
X40333333Y1053334D01*
X40400000Y953334D01*
X40466666Y886667D01*
X40533333Y853334D01*
X39866666Y986667D02*
X39833333Y1020000D01*
X39766666Y1053334D01*
X39600000Y1053334D01*
X39533333Y1020000D01*
X39500000Y986667D01*
X39466666Y920000D01*
X39466666Y853334D01*
X39500000Y753334D01*
X39900000Y353334D01*
X39466666Y353334D01*
X29943333Y353334D02*
X30343333Y353334D01*
X30143333Y353334D02*
X30143333Y1053334D01*
X30210000Y953334D01*
X30276666Y886667D01*
X30343333Y853334D01*
X29543333Y753334D02*
X29610000Y786667D01*
X29643333Y820000D01*
X29676666Y886667D01*
X29676666Y920000D01*
X29643333Y986667D01*
X29610000Y1020000D01*
X29543333Y1053334D01*
X29410000Y1053334D01*
X29343333Y1020000D01*
X29310000Y986667D01*
X29276666Y920000D01*
X29276666Y886667D01*
X29310000Y820000D01*
X29343333Y786667D01*
X29410000Y753334D01*
X29543333Y753334D01*
X29610000Y720000D01*
X29643333Y686667D01*
X29676666Y620000D01*
X29676666Y486667D01*
X29643333Y420000D01*
X29610000Y386667D01*
X29543333Y353334D01*
X29410000Y353334D01*
X29343333Y386667D01*
X29310000Y420000D01*
X29276666Y486667D01*
X29276666Y620000D01*
X29310000Y686667D01*
X29343333Y720000D01*
X29410000Y753334D01*
X35033333Y363334D02*
X35433333Y363334D01*
X35233333Y363334D02*
X35233333Y1063334D01*
X35300000Y963334D01*
X35366666Y896667D01*
X35433333Y863334D01*
X34800000Y1063334D02*
X34366666Y1063334D01*
X34600000Y796667D01*
X34500000Y796667D01*
X34433333Y763334D01*
X34400000Y730000D01*
X34366666Y663334D01*
X34366666Y496667D01*
X34400000Y430000D01*
X34433333Y396667D01*
X34500000Y363334D01*
X34700000Y363334D01*
X34766666Y396667D01*
X34800000Y430000D01*
X17026666Y880000D02*
X17026666Y413334D01*
X17193333Y1146667D02*
X17360000Y646667D01*
X16926666Y646667D01*
X2130000Y986667D02*
X2096666Y1020000D01*
X2030000Y1053334D01*
X1863333Y1053334D01*
X1796666Y1020000D01*
X1763333Y986667D01*
X1730000Y920000D01*
X1730000Y853334D01*
X1763333Y753334D01*
X2163333Y353334D01*
X1730000Y353334D01*
X22146666Y1063334D02*
X22280000Y1063334D01*
X22346666Y1030000D01*
X22380000Y996667D01*
X22446666Y896667D01*
X22480000Y763334D01*
X22480000Y496667D01*
X22446666Y430000D01*
X22413333Y396667D01*
X22346666Y363334D01*
X22213333Y363334D01*
X22146666Y396667D01*
X22113333Y430000D01*
X22080000Y496667D01*
X22080000Y663334D01*
X22113333Y730000D01*
X22146666Y763334D01*
X22213333Y796667D01*
X22346666Y796667D01*
X22413333Y763334D01*
X22446666Y730000D01*
X22480000Y663334D01*
X27483333Y363334D02*
X27883333Y363334D01*
X27683333Y363334D02*
X27683333Y1063334D01*
X27750000Y963334D01*
X27816666Y896667D01*
X27883333Y863334D01*
X26816666Y363334D02*
X27216666Y363334D01*
X27016666Y363334D02*
X27016666Y1063334D01*
X27083333Y963334D01*
X27150000Y896667D01*
X27216666Y863334D01*
X43053333Y1020000D02*
X43120000Y1053334D01*
X43220000Y1053334D01*
X43320000Y1020000D01*
X43386666Y953334D01*
X43420000Y886667D01*
X43453333Y753334D01*
X43453333Y653334D01*
X43420000Y520000D01*
X43386666Y453334D01*
X43320000Y386667D01*
X43220000Y353334D01*
X43153333Y353334D01*
X43053333Y386667D01*
X43020000Y420000D01*
X43020000Y653334D01*
X43153333Y653334D01*
X42720000Y353334D02*
X42720000Y1053334D01*
X42320000Y353334D01*
X42320000Y1053334D01*
X41986666Y353334D02*
X41986666Y1053334D01*
X41820000Y1053334D01*
X41720000Y1020000D01*
X41653333Y953334D01*
X41620000Y886667D01*
X41586666Y753334D01*
X41586666Y653334D01*
X41620000Y520000D01*
X41653333Y453334D01*
X41720000Y386667D01*
X41820000Y353334D01*
X41986666Y353334D01*
X55556666Y406667D02*
X55456666Y373334D01*
X55290000Y373334D01*
X55223333Y406667D01*
X55190000Y440000D01*
X55156666Y506667D01*
X55156666Y573334D01*
X55190000Y640000D01*
X55223333Y673334D01*
X55290000Y706667D01*
X55423333Y740000D01*
X55490000Y773334D01*
X55523333Y806667D01*
X55556666Y873334D01*
X55556666Y940000D01*
X55523333Y1006667D01*
X55490000Y1040000D01*
X55423333Y1073334D01*
X55256666Y1073334D01*
X55156666Y1040000D01*
X54856666Y373334D02*
X54856666Y1073334D01*
X53336666Y386667D02*
X53236666Y353334D01*
X53070000Y353334D01*
X53003333Y386667D01*
X52970000Y420000D01*
X52936666Y486667D01*
X52936666Y553334D01*
X52970000Y620000D01*
X53003333Y653334D01*
X53070000Y686667D01*
X53203333Y720000D01*
X53270000Y753334D01*
X53303333Y786667D01*
X53336666Y853334D01*
X53336666Y920000D01*
X53303333Y986667D01*
X53270000Y1020000D01*
X53203333Y1053334D01*
X53036666Y1053334D01*
X52936666Y1020000D01*
X52503333Y1053334D02*
X52370000Y1053334D01*
X52303333Y1020000D01*
X52236666Y953334D01*
X52203333Y820000D01*
X52203333Y586667D01*
X52236666Y453334D01*
X52303333Y386667D01*
X52370000Y353334D01*
X52503333Y353334D01*
X52570000Y386667D01*
X52636666Y453334D01*
X52670000Y586667D01*
X52670000Y820000D01*
X52636666Y953334D01*
X52570000Y1020000D01*
X52503333Y1053334D01*
X45733333Y363334D02*
X46133333Y363334D01*
X45933333Y363334D02*
X45933333Y1063334D01*
X46000000Y963334D01*
X46066666Y896667D01*
X46133333Y863334D01*
X45466666Y996667D02*
X45433333Y1030000D01*
X45366666Y1063334D01*
X45200000Y1063334D01*
X45133333Y1030000D01*
X45100000Y996667D01*
X45066666Y930000D01*
X45066666Y863334D01*
X45100000Y763334D01*
X45500000Y363334D01*
X45066666Y363334D01*
X44766666Y363334D02*
X44766666Y1063334D01*
X44533333Y563334D01*
X44300000Y1063334D01*
X44300000Y363334D01*
X47813333Y393334D02*
X48213333Y393334D01*
X48013333Y393334D02*
X48013333Y1093334D01*
X48080000Y993334D01*
X48146666Y926667D01*
X48213333Y893334D01*
X47380000Y1093334D02*
X47313333Y1093334D01*
X47246666Y1060000D01*
X47213333Y1026667D01*
X47180000Y960000D01*
X47146666Y826667D01*
X47146666Y660000D01*
X47180000Y526667D01*
X47213333Y460000D01*
X47246666Y426667D01*
X47313333Y393334D01*
X47380000Y393334D01*
X47446666Y426667D01*
X47480000Y460000D01*
X47513333Y526667D01*
X47546666Y660000D01*
X47546666Y826667D01*
X47513333Y960000D01*
X47480000Y1026667D01*
X47446666Y1060000D01*
X47380000Y1093334D01*
X60863333Y456667D02*
X60763333Y423334D01*
X60596666Y423334D01*
X60530000Y456667D01*
X60496666Y490000D01*
X60463333Y556667D01*
X60463333Y623334D01*
X60496666Y690000D01*
X60530000Y723334D01*
X60596666Y756667D01*
X60730000Y790000D01*
X60796666Y823334D01*
X60830000Y856667D01*
X60863333Y923334D01*
X60863333Y990000D01*
X60830000Y1056667D01*
X60796666Y1090000D01*
X60730000Y1123334D01*
X60563333Y1123334D01*
X60463333Y1090000D01*
X60196666Y456667D02*
X60096666Y423334D01*
X59930000Y423334D01*
X59863333Y456667D01*
X59830000Y490000D01*
X59796666Y556667D01*
X59796666Y623334D01*
X59830000Y690000D01*
X59863333Y723334D01*
X59930000Y756667D01*
X60063333Y790000D01*
X60130000Y823334D01*
X60163333Y856667D01*
X60196666Y923334D01*
X60196666Y990000D01*
X60163333Y1056667D01*
X60130000Y1090000D01*
X60063333Y1123334D01*
X59896666Y1123334D01*
X59796666Y1090000D01*
X58690000Y416667D02*
X58590000Y383334D01*
X58423333Y383334D01*
X58356666Y416667D01*
X58323333Y450000D01*
X58290000Y516667D01*
X58290000Y583334D01*
X58323333Y650000D01*
X58356666Y683334D01*
X58423333Y716667D01*
X58556666Y750000D01*
X58623333Y783334D01*
X58656666Y816667D01*
X58690000Y883334D01*
X58690000Y950000D01*
X58656666Y1016667D01*
X58623333Y1050000D01*
X58556666Y1083334D01*
X58390000Y1083334D01*
X58290000Y1050000D01*
X57590000Y450000D02*
X57623333Y416667D01*
X57723333Y383334D01*
X57790000Y383334D01*
X57890000Y416667D01*
X57956666Y483334D01*
X57990000Y550000D01*
X58023333Y683334D01*
X58023333Y783334D01*
X57990000Y916667D01*
X57956666Y983334D01*
X57890000Y1050000D01*
X57790000Y1083334D01*
X57723333Y1083334D01*
X57623333Y1050000D01*
X57590000Y1016667D01*
X57290000Y383334D02*
X57290000Y1083334D01*
X56890000Y383334D02*
X57190000Y783334D01*
X56890000Y1083334D02*
X57290000Y683334D01*
X50773333Y976667D02*
X50740000Y1010000D01*
X50673333Y1043334D01*
X50506666Y1043334D01*
X50440000Y1010000D01*
X50406666Y976667D01*
X50373333Y910000D01*
X50373333Y843334D01*
X50406666Y743334D01*
X50806666Y343334D01*
X50373333Y343334D01*
X49940000Y1043334D02*
X49873333Y1043334D01*
X49806666Y1010000D01*
X49773333Y976667D01*
X49740000Y910000D01*
X49706666Y776667D01*
X49706666Y610000D01*
X49740000Y476667D01*
X49773333Y410000D01*
X49806666Y376667D01*
X49873333Y343334D01*
X49940000Y343334D01*
X50006666Y376667D01*
X50040000Y410000D01*
X50073333Y476667D01*
X50106666Y610000D01*
X50106666Y776667D01*
X50073333Y910000D01*
X50040000Y976667D01*
X50006666Y1010000D01*
X49940000Y1043334D01*
D11*
X0Y21520000D02*
G75*
G02X700000Y22220000I700000J0D01*
G01*
X61300000Y22220000D02*
G75*
G02X62000000Y21520000I0J-700000D01*
G01*
X62000000Y700000D02*
G75*
G02X61300000Y0I-700000J0D01*
G01*
X700000Y0D02*
G75*
G02X0Y700000I0J700000D01*
G01*
D12*
X40357619Y4547620D02*
X40357619Y5547620D01*
X40024285Y4833334D01*
X39690952Y5547620D01*
X39690952Y4547620D01*
X38786190Y4547620D02*
X38786190Y5071429D01*
X38833809Y5166667D01*
X38929047Y5214286D01*
X39119523Y5214286D01*
X39214761Y5166667D01*
X38786190Y4595239D02*
X38881428Y4547620D01*
X39119523Y4547620D01*
X39214761Y4595239D01*
X39262380Y4690477D01*
X39262380Y4785715D01*
X39214761Y4880953D01*
X39119523Y4928572D01*
X38881428Y4928572D01*
X38786190Y4976191D01*
X37881428Y4547620D02*
X37881428Y5547620D01*
X37881428Y4595239D02*
X37976666Y4547620D01*
X38167142Y4547620D01*
X38262380Y4595239D01*
X38310000Y4642858D01*
X38357619Y4738096D01*
X38357619Y5023810D01*
X38310000Y5119048D01*
X38262380Y5166667D01*
X38167142Y5214286D01*
X37976666Y5214286D01*
X37881428Y5166667D01*
X37024285Y4595239D02*
X37119523Y4547620D01*
X37310000Y4547620D01*
X37405238Y4595239D01*
X37452857Y4690477D01*
X37452857Y5071429D01*
X37405238Y5166667D01*
X37310000Y5214286D01*
X37119523Y5214286D01*
X37024285Y5166667D01*
X36976666Y5071429D01*
X36976666Y4976191D01*
X37452857Y4880953D01*
X35786190Y4547620D02*
X35786190Y5214286D01*
X35786190Y5547620D02*
X35833809Y5500000D01*
X35786190Y5452381D01*
X35738571Y5500000D01*
X35786190Y5547620D01*
X35786190Y5452381D01*
X35310000Y5214286D02*
X35310000Y4547620D01*
X35310000Y5119048D02*
X35262380Y5166667D01*
X35167142Y5214286D01*
X35024285Y5214286D01*
X34929047Y5166667D01*
X34881428Y5071429D01*
X34881428Y4547620D01*
X33643333Y5547620D02*
X33643333Y4738096D01*
X33595714Y4642858D01*
X33548095Y4595239D01*
X33452857Y4547620D01*
X33262380Y4547620D01*
X33167142Y4595239D01*
X33119523Y4642858D01*
X33071904Y4738096D01*
X33071904Y5547620D01*
X32643333Y4595239D02*
X32500476Y4547620D01*
X32262380Y4547620D01*
X32167142Y4595239D01*
X32119523Y4642858D01*
X32071904Y4738096D01*
X32071904Y4833334D01*
X32119523Y4928572D01*
X32167142Y4976191D01*
X32262380Y5023810D01*
X32452857Y5071429D01*
X32548095Y5119048D01*
X32595714Y5166667D01*
X32643333Y5261905D01*
X32643333Y5357143D01*
X32595714Y5452381D01*
X32548095Y5500000D01*
X32452857Y5547620D01*
X32214761Y5547620D01*
X32071904Y5500000D01*
X31690952Y4833334D02*
X31214761Y4833334D01*
X31786190Y4547620D02*
X31452857Y5547620D01*
X31119523Y4547620D01*
D13*
X55702000Y13894000D02*
X55702000Y12370000D01*
X52654000Y13894000D02*
X55702000Y13894000D01*
X52654000Y12370000D02*
X52654000Y13894000D01*
X54100000Y12400000D02*
X52654000Y12370000D01*
X53162000Y12370000D02*
X51892000Y9576000D01*
D12*
X12801238Y6438096D02*
X12801238Y7238096D01*
X12077428Y6476191D02*
X12153619Y6438096D01*
X12306000Y6438096D01*
X12382190Y6476191D01*
X12420285Y6514286D01*
X12458380Y6590477D01*
X12458380Y6819048D01*
X12420285Y6895239D01*
X12382190Y6933334D01*
X12306000Y6971429D01*
X12153619Y6971429D01*
X12077428Y6933334D01*
X11620285Y6438096D02*
X11696476Y6476191D01*
X11734571Y6514286D01*
X11772666Y6590477D01*
X11772666Y6819048D01*
X11734571Y6895239D01*
X11696476Y6933334D01*
X11620285Y6971429D01*
X11506000Y6971429D01*
X11429809Y6933334D01*
X11391714Y6895239D01*
X11353619Y6819048D01*
X11353619Y6590477D01*
X11391714Y6514286D01*
X11429809Y6476191D01*
X11506000Y6438096D01*
X11620285Y6438096D01*
X11010761Y6438096D02*
X11010761Y6971429D01*
X11010761Y6819048D02*
X10972666Y6895239D01*
X10934571Y6933334D01*
X10858380Y6971429D01*
X10782190Y6971429D01*
X10210761Y6476191D02*
X10286952Y6438096D01*
X10439333Y6438096D01*
X10515523Y6476191D01*
X10553619Y6552381D01*
X10553619Y6857143D01*
X10515523Y6933334D01*
X10439333Y6971429D01*
X10286952Y6971429D01*
X10210761Y6933334D01*
X10172666Y6857143D01*
X10172666Y6780953D01*
X10553619Y6704762D01*
X54702380Y9071429D02*
X54397619Y9071429D01*
X54588095Y9338096D02*
X54588095Y8652381D01*
X54550000Y8576191D01*
X54473809Y8538096D01*
X54397619Y8538096D01*
X54130952Y8538096D02*
X54130952Y9071429D01*
X54130952Y9338096D02*
X54169047Y9300000D01*
X54130952Y9261905D01*
X54092857Y9300000D01*
X54130952Y9338096D01*
X54130952Y9261905D01*
X53750000Y9071429D02*
X53750000Y8538096D01*
X53750000Y8995239D02*
X53711904Y9033334D01*
X53635714Y9071429D01*
X53521428Y9071429D01*
X53445238Y9033334D01*
X53407142Y8957143D01*
X53407142Y8538096D01*
X53102380Y9071429D02*
X52911904Y8538096D01*
X52721428Y9071429D02*
X52911904Y8538096D01*
X52988095Y8347620D01*
X53026190Y8309524D01*
X53102380Y8271429D01*
X52150000Y8957143D02*
X52035714Y8919048D01*
X51997619Y8880953D01*
X51959523Y8804762D01*
X51959523Y8690477D01*
X51997619Y8614286D01*
X52035714Y8576191D01*
X52111904Y8538096D01*
X52416666Y8538096D01*
X52416666Y9338096D01*
X52150000Y9338096D01*
X52073809Y9300000D01*
X52035714Y9261905D01*
X51997619Y9185715D01*
X51997619Y9109524D01*
X52035714Y9033334D01*
X52073809Y8995239D01*
X52150000Y8957143D01*
X52416666Y8957143D01*
X51464285Y9338096D02*
X51311904Y9338096D01*
X51235714Y9300000D01*
X51159523Y9223810D01*
X51121428Y9071429D01*
X51121428Y8804762D01*
X51159523Y8652381D01*
X51235714Y8576191D01*
X51311904Y8538096D01*
X51464285Y8538096D01*
X51540476Y8576191D01*
X51616666Y8652381D01*
X51654761Y8804762D01*
X51654761Y9071429D01*
X51616666Y9223810D01*
X51540476Y9300000D01*
X51464285Y9338096D01*
X50626190Y9338096D02*
X50473809Y9338096D01*
X50397619Y9300000D01*
X50321428Y9223810D01*
X50283333Y9071429D01*
X50283333Y8804762D01*
X50321428Y8652381D01*
X50397619Y8576191D01*
X50473809Y8538096D01*
X50626190Y8538096D01*
X50702380Y8576191D01*
X50778571Y8652381D01*
X50816666Y8804762D01*
X50816666Y9071429D01*
X50778571Y9223810D01*
X50702380Y9300000D01*
X50626190Y9338096D01*
X50054761Y9338096D02*
X49597619Y9338096D01*
X49826190Y8538096D02*
X49826190Y9338096D01*
D13*
X50850000Y10750000D02*
G75*
G03X50850000Y10750000I-125000J0D01*
G01*
D11*
X62000000Y6800000D02*
X61000000Y6800000D01*
X62000000Y15500000D02*
X61000000Y15500000D01*
X61000000Y6800000D02*
X61000000Y15500000D01*
X62000000Y700000D02*
X62000000Y6800000D01*
X0Y21520000D02*
X0Y700000D01*
X61300000Y22220000D02*
X700000Y22220000D01*
X62000000Y15500000D02*
X62000000Y21520000D01*
X700000Y0D02*
X61300000Y0D01*
D14*
G36*
X25885570Y10845152D02*
G01*
X25886189Y10758069D01*
X26337914Y10299109D01*
X26789639Y9840148D01*
X26789968Y9629529D01*
X26790297Y9418911D01*
X27065390Y9418911D01*
X27072478Y9365470D01*
X27075162Y9341112D01*
X27079687Y9295241D01*
X27085809Y9230595D01*
X27093288Y9149909D01*
X27101881Y9055919D01*
X27111346Y8951363D01*
X27121442Y8838975D01*
X27131926Y8721493D01*
X27142556Y8601652D01*
X27153091Y8482189D01*
X27163287Y8365841D01*
X27172905Y8255343D01*
X27181700Y8153431D01*
X27189432Y8062842D01*
X27195858Y7986313D01*
X27200737Y7926579D01*
X27203825Y7886376D01*
X27204883Y7868441D01*
X27204882Y7868356D01*
X27197173Y7853965D01*
X27174019Y7824252D01*
X27135105Y7778869D01*
X27080116Y7717471D01*
X27008736Y7639712D01*
X26920651Y7545246D01*
X26815546Y7433728D01*
X26693105Y7304812D01*
X26658690Y7268713D01*
X26112863Y6696584D01*
X26201119Y6608564D01*
X26272515Y6686242D01*
X26298634Y6714314D01*
X26339434Y6757726D01*
X26392223Y6813634D01*
X26454309Y6879192D01*
X26523000Y6951559D01*
X26595604Y7027888D01*
X26639040Y7073476D01*
X26720584Y7158881D01*
X26786496Y7227290D01*
X26838456Y7279947D01*
X26878145Y7318095D01*
X26907243Y7342980D01*
X26927431Y7355844D01*
X26940390Y7357932D01*
X26947800Y7350487D01*
X26951342Y7334754D01*
X26952697Y7311977D01*
X26952879Y7305761D01*
X26962297Y7262939D01*
X26985503Y7211181D01*
X27017864Y7158672D01*
X27054748Y7113597D01*
X27069507Y7099672D01*
X27145233Y7050953D01*
X27233692Y7023694D01*
X27311900Y7017227D01*
X27400532Y7029424D01*
X27482388Y7065187D01*
X27554836Y7123278D01*
X27568203Y7137738D01*
X27617082Y7193267D01*
X28462674Y7193267D01*
X28462674Y7017227D01*
X28689010Y7017227D01*
X28689010Y7099469D01*
X28691850Y7155614D01*
X28701393Y7194584D01*
X28712991Y7215781D01*
X28721277Y7230948D01*
X28728373Y7252938D01*
X28734748Y7285013D01*
X28740872Y7330431D01*
X28747216Y7392452D01*
X28754250Y7474338D01*
X28759066Y7535254D01*
X28781161Y7820657D01*
X29323565Y7271195D01*
X29421637Y7171772D01*
X29515784Y7076185D01*
X29604285Y6986190D01*
X29685420Y6903543D01*
X29757469Y6829999D01*
X29818712Y6767316D01*
X29867427Y6717248D01*
X29901896Y6681552D01*
X29920379Y6662005D01*
X29950743Y6631056D01*
X29976071Y6609470D01*
X29989695Y6602277D01*
X30007095Y6610703D01*
X30032460Y6631755D01*
X30041058Y6640329D01*
X30077514Y6678380D01*
X29876802Y6882342D01*
X29825596Y6934301D01*
X29759569Y7001180D01*
X29681618Y7080050D01*
X29594638Y7167986D01*
X29501526Y7262059D01*
X29405179Y7359342D01*
X29308492Y7456907D01*
X29239134Y7526855D01*
X29133703Y7633450D01*
X29045129Y7723693D01*
X28972281Y7798808D01*
X28914023Y7860014D01*
X28869225Y7908534D01*
X28847021Y7933871D01*
X28668724Y7933871D01*
X28646401Y7648445D01*
X28639669Y7564781D01*
X28633157Y7488273D01*
X28627234Y7422919D01*
X28622268Y7372719D01*
X28618629Y7341671D01*
X28617458Y7334727D01*
X28610838Y7306435D01*
X27661364Y7306435D01*
X27655026Y7385394D01*
X27635890Y7478685D01*
X27595846Y7561209D01*
X27537418Y7629962D01*
X27463129Y7681937D01*
X27379748Y7713137D01*
X27352698Y7727772D01*
X27339156Y7759181D01*
X27338872Y7760566D01*
X27337247Y7773826D01*
X27339256Y7787405D01*
X27346858Y7803819D01*
X27362016Y7825589D01*
X27386688Y7855233D01*
X27422836Y7895268D01*
X27472420Y7948215D01*
X27537401Y8016591D01*
X27541599Y8020995D01*
X27611493Y8094389D01*
X27685800Y8172563D01*
X27759414Y8250136D01*
X27827229Y8321725D01*
X27884140Y8381949D01*
X27896832Y8395413D01*
X27945487Y8446180D01*
X27988709Y8489625D01*
X28023395Y8522759D01*
X28046444Y8542595D01*
X28054182Y8546954D01*
X28065722Y8537830D01*
X28092710Y8512800D01*
X28133021Y8473948D01*
X28184529Y8423357D01*
X28245109Y8363112D01*
X28312636Y8295296D01*
X28367826Y8239435D01*
X28668724Y7933871D01*
X28847021Y7933871D01*
X28836751Y7945589D01*
X28815471Y7972401D01*
X28804251Y7990192D01*
X28801754Y7998430D01*
X28802700Y8016410D01*
X28805573Y8057108D01*
X28810187Y8118181D01*
X28816358Y8197287D01*
X28823898Y8292086D01*
X28832621Y8400233D01*
X28842343Y8519388D01*
X28852876Y8647209D01*
X28861365Y8749365D01*
X28909396Y9325326D01*
X28785805Y9325326D01*
X28785273Y9312896D01*
X28782769Y9277890D01*
X28778496Y9222785D01*
X28772653Y9150057D01*
X28765443Y9062186D01*
X28757066Y8961649D01*
X28747723Y8850923D01*
X28738758Y8745795D01*
X28728602Y8626517D01*
X28719142Y8513920D01*
X28710596Y8410695D01*
X28703179Y8319527D01*
X28697108Y8243105D01*
X28692601Y8184117D01*
X28689873Y8145251D01*
X28689116Y8130156D01*
X28687935Y8120762D01*
X28683256Y8117034D01*
X28673276Y8120529D01*
X28656190Y8132801D01*
X28630196Y8155406D01*
X28593490Y8189900D01*
X28544267Y8237838D01*
X28480726Y8300776D01*
X28413305Y8368032D01*
X28137601Y8643523D01*
X28139533Y8645594D01*
X27957290Y8645594D01*
X27948984Y8634220D01*
X27925733Y8607437D01*
X27889865Y8567708D01*
X27843713Y8517493D01*
X27789606Y8459254D01*
X27729874Y8395453D01*
X27666848Y8328551D01*
X27602858Y8261010D01*
X27540236Y8195290D01*
X27481310Y8133854D01*
X27428412Y8079163D01*
X27383872Y8033678D01*
X27350020Y7999862D01*
X27329188Y7980174D01*
X27323506Y7976163D01*
X27321634Y7989109D01*
X27317746Y8024866D01*
X27312057Y8081196D01*
X27304781Y8155860D01*
X27296131Y8246620D01*
X27286322Y8351238D01*
X27275566Y8467474D01*
X27264079Y8593092D01*
X27254907Y8694382D01*
X27243174Y8825721D01*
X27232335Y8949448D01*
X27222570Y9063319D01*
X27214063Y9165089D01*
X27206995Y9252513D01*
X27201549Y9323347D01*
X27197908Y9375347D01*
X27196253Y9406268D01*
X27196442Y9414297D01*
X27206334Y9407146D01*
X27231524Y9384159D01*
X27269810Y9347561D01*
X27318989Y9299578D01*
X27376861Y9242434D01*
X27441222Y9178353D01*
X27509871Y9109562D01*
X27580605Y9038284D01*
X27651222Y8966745D01*
X27719520Y8897170D01*
X27783296Y8831783D01*
X27840350Y8772809D01*
X27888478Y8722473D01*
X27925478Y8683001D01*
X27949148Y8656617D01*
X27957290Y8645594D01*
X28139533Y8645594D01*
X28240409Y8753705D01*
X28292768Y8809623D01*
X28351535Y8872052D01*
X28414385Y8938557D01*
X28478995Y9006702D01*
X28543042Y9074052D01*
X28604203Y9138172D01*
X28660153Y9196628D01*
X28708570Y9246982D01*
X28747130Y9286802D01*
X28773509Y9313650D01*
X28785384Y9325092D01*
X28785805Y9325326D01*
X28909396Y9325326D01*
X28921401Y9469274D01*
X29521938Y10100842D01*
X30122475Y10732411D01*
X30122034Y10820685D01*
X30121592Y10908960D01*
X30024583Y10805334D01*
X29970291Y10747537D01*
X29906192Y10679632D01*
X29834016Y10603428D01*
X29755492Y10520731D01*
X29672349Y10433347D01*
X29586319Y10343085D01*
X29499130Y10251750D01*
X29412513Y10161151D01*
X29328197Y10073093D01*
X29247912Y9989385D01*
X29173387Y9911833D01*
X29106354Y9842243D01*
X29048541Y9782424D01*
X29001679Y9734182D01*
X28967496Y9699324D01*
X28947724Y9679657D01*
X28943390Y9675884D01*
X28943092Y9689008D01*
X28944731Y9722611D01*
X28948023Y9772120D01*
X28952682Y9832963D01*
X28954682Y9857268D01*
X28969577Y10035049D01*
X28852955Y10035049D01*
X28846934Y10006757D01*
X28843863Y9984382D01*
X28839548Y9942283D01*
X28834488Y9885822D01*
X28829181Y9820365D01*
X28827344Y9796138D01*
X28821927Y9726579D01*
X28816459Y9661982D01*
X28811488Y9608452D01*
X28807561Y9572090D01*
X28806675Y9565491D01*
X28803334Y9551944D01*
X28796101Y9536086D01*
X28783440Y9516139D01*
X28763811Y9490327D01*
X28735678Y9456871D01*
X28697502Y9413993D01*
X28647746Y9359917D01*
X28584871Y9292864D01*
X28507341Y9211057D01*
X28428251Y9128050D01*
X28349564Y9045906D01*
X28276112Y8969831D01*
X28209724Y8901675D01*
X28152227Y8843288D01*
X28105451Y8796519D01*
X28071224Y8763218D01*
X28051373Y8745233D01*
X28047140Y8742558D01*
X28036003Y8752259D01*
X28009971Y8777559D01*
X27971570Y8815918D01*
X27923328Y8864800D01*
X27867770Y8921666D01*
X27827592Y8963094D01*
X27617831Y9180000D01*
X28236337Y9180000D01*
X28236337Y9418911D01*
X27481881Y9418911D01*
X27481881Y9312458D01*
X27343565Y9450346D01*
X27245447Y9548160D01*
X27054357Y9548160D01*
X27052529Y9532730D01*
X27043277Y9524133D01*
X27020950Y9520387D01*
X26979895Y9519511D01*
X26972624Y9519505D01*
X26890891Y9519505D01*
X26890891Y9738828D01*
X26972624Y9657821D01*
X27018730Y9608572D01*
X27046306Y9570841D01*
X27054357Y9548160D01*
X27245447Y9548160D01*
X27205248Y9588234D01*
X27205248Y9711048D01*
X27204863Y9767550D01*
X27203100Y9803495D01*
X27199050Y9823470D01*
X27191801Y9832063D01*
X27180870Y9833861D01*
X27168712Y9836502D01*
X27159727Y9847088D01*
X27152826Y9869619D01*
X27146924Y9908091D01*
X27140935Y9966502D01*
X27139013Y9987896D01*
X27134852Y10035049D01*
X28852955Y10035049D01*
X28969577Y10035049D01*
X29129109Y10035049D01*
X29129109Y10148218D01*
X29061314Y10148218D01*
X29021662Y10149304D01*
X29000116Y10154546D01*
X28997480Y10157666D01*
X28858616Y10157666D01*
X28851308Y10150538D01*
X28825993Y10148338D01*
X28808908Y10148218D01*
X28751881Y10148218D01*
X28539221Y10148218D01*
X27124698Y10148218D01*
X27172542Y10197214D01*
X27246850Y10257676D01*
X27338816Y10304309D01*
X27449998Y10337751D01*
X27560471Y10356247D01*
X27632773Y10364878D01*
X27632773Y10273960D01*
X28211188Y10273960D01*
X28211188Y10377107D01*
X28296065Y10368504D01*
X28355368Y10361244D01*
X28418551Y10351621D01*
X28456386Y10344748D01*
X28531832Y10329593D01*
X28535526Y10238905D01*
X28539221Y10148218D01*
X28751881Y10148218D01*
X28751881Y10198515D01*
X28753544Y10230024D01*
X28757697Y10247537D01*
X28759371Y10248812D01*
X28777987Y10240746D01*
X28805183Y10221180D01*
X28832448Y10197056D01*
X28851267Y10175318D01*
X28852943Y10172492D01*
X28858616Y10157666D01*
X28997480Y10157666D01*
X28989662Y10166919D01*
X28985442Y10180396D01*
X28968219Y10215373D01*
X28935138Y10257421D01*
X28891893Y10300644D01*
X28844174Y10339146D01*
X28812830Y10359199D01*
X28777123Y10381149D01*
X28758819Y10399589D01*
X28752388Y10421332D01*
X28751894Y10434282D01*
X28751894Y10437425D01*
X28110594Y10437425D01*
X28110594Y10374554D01*
X27733367Y10374554D01*
X27733367Y10437425D01*
X28110594Y10437425D01*
X28751894Y10437425D01*
X28751881Y10475148D01*
X28646048Y10475148D01*
X28597355Y10473971D01*
X28559405Y10470835D01*
X28538308Y10466329D01*
X28536023Y10464505D01*
X28522641Y10461705D01*
X28490074Y10462852D01*
X28443916Y10467607D01*
X28412376Y10471997D01*
X28355188Y10480622D01*
X28302886Y10488409D01*
X28263582Y10494153D01*
X28252055Y10495785D01*
X28221937Y10505112D01*
X28211188Y10519728D01*
X28207920Y10525680D01*
X28196230Y10530222D01*
X28173288Y10533530D01*
X28136265Y10535785D01*
X28082332Y10537166D01*
X28008660Y10537850D01*
X27921980Y10538020D01*
X27829471Y10537923D01*
X27759094Y10537470D01*
X27707836Y10536410D01*
X27672680Y10534497D01*
X27650611Y10531481D01*
X27638615Y10527115D01*
X27633676Y10521151D01*
X27632773Y10514216D01*
X27625079Y10492205D01*
X27599879Y10479679D01*
X27553991Y10475212D01*
X27545736Y10475148D01*
X27468027Y10467132D01*
X27379767Y10445064D01*
X27288915Y10411916D01*
X27203430Y10370661D01*
X27131274Y10324269D01*
X27121928Y10316918D01*
X27091467Y10293002D01*
X27073428Y10283424D01*
X27060831Y10286520D01*
X27047900Y10299296D01*
X27009707Y10324322D01*
X26960002Y10333929D01*
X26906476Y10328933D01*
X26856822Y10310149D01*
X26818733Y10278394D01*
X26815975Y10274703D01*
X26787474Y10215425D01*
X26782172Y10154066D01*
X26799482Y10095573D01*
X26838820Y10044896D01*
X26843630Y10040711D01*
X26871560Y10020833D01*
X26899898Y10012079D01*
X26939737Y10011447D01*
X26949689Y10012008D01*
X26988668Y10013438D01*
X27008746Y10010161D01*
X27016015Y10000272D01*
X27016760Y9991039D01*
X27018284Y9964256D01*
X27022065Y9923975D01*
X27024782Y9899876D01*
X27028723Y9861599D01*
X27027084Y9842004D01*
X27017579Y9834842D01*
X27000649Y9833861D01*
X26990608Y9837099D01*
X26974410Y9847580D01*
X26950855Y9866452D01*
X26918743Y9894865D01*
X26876872Y9933965D01*
X26824043Y9984903D01*
X26759055Y10048827D01*
X26680709Y10126886D01*
X26587803Y10220228D01*
X26479137Y10330002D01*
X26426769Y10383048D01*
X25884951Y10932233D01*
X25885570Y10845152D01*
G37*
X25885570Y10845152D02*
X25886189Y10758069D01*
X26337914Y10299109D01*
X26789639Y9840148D01*
X26789968Y9629529D01*
X26790297Y9418911D01*
X27065390Y9418911D01*
X27072478Y9365470D01*
X27075162Y9341112D01*
X27079687Y9295241D01*
X27085809Y9230595D01*
X27093288Y9149909D01*
X27101881Y9055919D01*
X27111346Y8951363D01*
X27121442Y8838975D01*
X27131926Y8721493D01*
X27142556Y8601652D01*
X27153091Y8482189D01*
X27163287Y8365841D01*
X27172905Y8255343D01*
X27181700Y8153431D01*
X27189432Y8062842D01*
X27195858Y7986313D01*
X27200737Y7926579D01*
X27203825Y7886376D01*
X27204883Y7868441D01*
X27204882Y7868356D01*
X27197173Y7853965D01*
X27174019Y7824252D01*
X27135105Y7778869D01*
X27080116Y7717471D01*
X27008736Y7639712D01*
X26920651Y7545246D01*
X26815546Y7433728D01*
X26693105Y7304812D01*
X26658690Y7268713D01*
X26112863Y6696584D01*
X26201119Y6608564D01*
X26272515Y6686242D01*
X26298634Y6714314D01*
X26339434Y6757726D01*
X26392223Y6813634D01*
X26454309Y6879192D01*
X26523000Y6951559D01*
X26595604Y7027888D01*
X26639040Y7073476D01*
X26720584Y7158881D01*
X26786496Y7227290D01*
X26838456Y7279947D01*
X26878145Y7318095D01*
X26907243Y7342980D01*
X26927431Y7355844D01*
X26940390Y7357932D01*
X26947800Y7350487D01*
X26951342Y7334754D01*
X26952697Y7311977D01*
X26952879Y7305761D01*
X26962297Y7262939D01*
X26985503Y7211181D01*
X27017864Y7158672D01*
X27054748Y7113597D01*
X27069507Y7099672D01*
X27145233Y7050953D01*
X27233692Y7023694D01*
X27311900Y7017227D01*
X27400532Y7029424D01*
X27482388Y7065187D01*
X27554836Y7123278D01*
X27568203Y7137738D01*
X27617082Y7193267D01*
X28462674Y7193267D01*
X28462674Y7017227D01*
X28689010Y7017227D01*
X28689010Y7099469D01*
X28691850Y7155614D01*
X28701393Y7194584D01*
X28712991Y7215781D01*
X28721277Y7230948D01*
X28728373Y7252938D01*
X28734748Y7285013D01*
X28740872Y7330431D01*
X28747216Y7392452D01*
X28754250Y7474338D01*
X28759066Y7535254D01*
X28781161Y7820657D01*
X29323565Y7271195D01*
X29421637Y7171772D01*
X29515784Y7076185D01*
X29604285Y6986190D01*
X29685420Y6903543D01*
X29757469Y6829999D01*
X29818712Y6767316D01*
X29867427Y6717248D01*
X29901896Y6681552D01*
X29920379Y6662005D01*
X29950743Y6631056D01*
X29976071Y6609470D01*
X29989695Y6602277D01*
X30007095Y6610703D01*
X30032460Y6631755D01*
X30041058Y6640329D01*
X30077514Y6678380D01*
X29876802Y6882342D01*
X29825596Y6934301D01*
X29759569Y7001180D01*
X29681618Y7080050D01*
X29594638Y7167986D01*
X29501526Y7262059D01*
X29405179Y7359342D01*
X29308492Y7456907D01*
X29239134Y7526855D01*
X29133703Y7633450D01*
X29045129Y7723693D01*
X28972281Y7798808D01*
X28914023Y7860014D01*
X28869225Y7908534D01*
X28847021Y7933871D01*
X28668724Y7933871D01*
X28646401Y7648445D01*
X28639669Y7564781D01*
X28633157Y7488273D01*
X28627234Y7422919D01*
X28622268Y7372719D01*
X28618629Y7341671D01*
X28617458Y7334727D01*
X28610838Y7306435D01*
X27661364Y7306435D01*
X27655026Y7385394D01*
X27635890Y7478685D01*
X27595846Y7561209D01*
X27537418Y7629962D01*
X27463129Y7681937D01*
X27379748Y7713137D01*
X27352698Y7727772D01*
X27339156Y7759181D01*
X27338872Y7760566D01*
X27337247Y7773826D01*
X27339256Y7787405D01*
X27346858Y7803819D01*
X27362016Y7825589D01*
X27386688Y7855233D01*
X27422836Y7895268D01*
X27472420Y7948215D01*
X27537401Y8016591D01*
X27541599Y8020995D01*
X27611493Y8094389D01*
X27685800Y8172563D01*
X27759414Y8250136D01*
X27827229Y8321725D01*
X27884140Y8381949D01*
X27896832Y8395413D01*
X27945487Y8446180D01*
X27988709Y8489625D01*
X28023395Y8522759D01*
X28046444Y8542595D01*
X28054182Y8546954D01*
X28065722Y8537830D01*
X28092710Y8512800D01*
X28133021Y8473948D01*
X28184529Y8423357D01*
X28245109Y8363112D01*
X28312636Y8295296D01*
X28367826Y8239435D01*
X28668724Y7933871D01*
X28847021Y7933871D01*
X28836751Y7945589D01*
X28815471Y7972401D01*
X28804251Y7990192D01*
X28801754Y7998430D01*
X28802700Y8016410D01*
X28805573Y8057108D01*
X28810187Y8118181D01*
X28816358Y8197287D01*
X28823898Y8292086D01*
X28832621Y8400233D01*
X28842343Y8519388D01*
X28852876Y8647209D01*
X28861365Y8749365D01*
X28909396Y9325326D01*
X28785805Y9325326D01*
X28785273Y9312896D01*
X28782769Y9277890D01*
X28778496Y9222785D01*
X28772653Y9150057D01*
X28765443Y9062186D01*
X28757066Y8961649D01*
X28747723Y8850923D01*
X28738758Y8745795D01*
X28728602Y8626517D01*
X28719142Y8513920D01*
X28710596Y8410695D01*
X28703179Y8319527D01*
X28697108Y8243105D01*
X28692601Y8184117D01*
X28689873Y8145251D01*
X28689116Y8130156D01*
X28687935Y8120762D01*
X28683256Y8117034D01*
X28673276Y8120529D01*
X28656190Y8132801D01*
X28630196Y8155406D01*
X28593490Y8189900D01*
X28544267Y8237838D01*
X28480726Y8300776D01*
X28413305Y8368032D01*
X28137601Y8643523D01*
X28139533Y8645594D01*
X27957290Y8645594D01*
X27948984Y8634220D01*
X27925733Y8607437D01*
X27889865Y8567708D01*
X27843713Y8517493D01*
X27789606Y8459254D01*
X27729874Y8395453D01*
X27666848Y8328551D01*
X27602858Y8261010D01*
X27540236Y8195290D01*
X27481310Y8133854D01*
X27428412Y8079163D01*
X27383872Y8033678D01*
X27350020Y7999862D01*
X27329188Y7980174D01*
X27323506Y7976163D01*
X27321634Y7989109D01*
X27317746Y8024866D01*
X27312057Y8081196D01*
X27304781Y8155860D01*
X27296131Y8246620D01*
X27286322Y8351238D01*
X27275566Y8467474D01*
X27264079Y8593092D01*
X27254907Y8694382D01*
X27243174Y8825721D01*
X27232335Y8949448D01*
X27222570Y9063319D01*
X27214063Y9165089D01*
X27206995Y9252513D01*
X27201549Y9323347D01*
X27197908Y9375347D01*
X27196253Y9406268D01*
X27196442Y9414297D01*
X27206334Y9407146D01*
X27231524Y9384159D01*
X27269810Y9347561D01*
X27318989Y9299578D01*
X27376861Y9242434D01*
X27441222Y9178353D01*
X27509871Y9109562D01*
X27580605Y9038284D01*
X27651222Y8966745D01*
X27719520Y8897170D01*
X27783296Y8831783D01*
X27840350Y8772809D01*
X27888478Y8722473D01*
X27925478Y8683001D01*
X27949148Y8656617D01*
X27957290Y8645594D01*
X28139533Y8645594D01*
X28240409Y8753705D01*
X28292768Y8809623D01*
X28351535Y8872052D01*
X28414385Y8938557D01*
X28478995Y9006702D01*
X28543042Y9074052D01*
X28604203Y9138172D01*
X28660153Y9196628D01*
X28708570Y9246982D01*
X28747130Y9286802D01*
X28773509Y9313650D01*
X28785384Y9325092D01*
X28785805Y9325326D01*
X28909396Y9325326D01*
X28921401Y9469274D01*
X29521938Y10100842D01*
X30122475Y10732411D01*
X30122034Y10820685D01*
X30121592Y10908960D01*
X30024583Y10805334D01*
X29970291Y10747537D01*
X29906192Y10679632D01*
X29834016Y10603428D01*
X29755492Y10520731D01*
X29672349Y10433347D01*
X29586319Y10343085D01*
X29499130Y10251750D01*
X29412513Y10161151D01*
X29328197Y10073093D01*
X29247912Y9989385D01*
X29173387Y9911833D01*
X29106354Y9842243D01*
X29048541Y9782424D01*
X29001679Y9734182D01*
X28967496Y9699324D01*
X28947724Y9679657D01*
X28943390Y9675884D01*
X28943092Y9689008D01*
X28944731Y9722611D01*
X28948023Y9772120D01*
X28952682Y9832963D01*
X28954682Y9857268D01*
X28969577Y10035049D01*
X28852955Y10035049D01*
X28846934Y10006757D01*
X28843863Y9984382D01*
X28839548Y9942283D01*
X28834488Y9885822D01*
X28829181Y9820365D01*
X28827344Y9796138D01*
X28821927Y9726579D01*
X28816459Y9661982D01*
X28811488Y9608452D01*
X28807561Y9572090D01*
X28806675Y9565491D01*
X28803334Y9551944D01*
X28796101Y9536086D01*
X28783440Y9516139D01*
X28763811Y9490327D01*
X28735678Y9456871D01*
X28697502Y9413993D01*
X28647746Y9359917D01*
X28584871Y9292864D01*
X28507341Y9211057D01*
X28428251Y9128050D01*
X28349564Y9045906D01*
X28276112Y8969831D01*
X28209724Y8901675D01*
X28152227Y8843288D01*
X28105451Y8796519D01*
X28071224Y8763218D01*
X28051373Y8745233D01*
X28047140Y8742558D01*
X28036003Y8752259D01*
X28009971Y8777559D01*
X27971570Y8815918D01*
X27923328Y8864800D01*
X27867770Y8921666D01*
X27827592Y8963094D01*
X27617831Y9180000D01*
X28236337Y9180000D01*
X28236337Y9418911D01*
X27481881Y9418911D01*
X27481881Y9312458D01*
X27343565Y9450346D01*
X27245447Y9548160D01*
X27054357Y9548160D01*
X27052529Y9532730D01*
X27043277Y9524133D01*
X27020950Y9520387D01*
X26979895Y9519511D01*
X26972624Y9519505D01*
X26890891Y9519505D01*
X26890891Y9738828D01*
X26972624Y9657821D01*
X27018730Y9608572D01*
X27046306Y9570841D01*
X27054357Y9548160D01*
X27245447Y9548160D01*
X27205248Y9588234D01*
X27205248Y9711048D01*
X27204863Y9767550D01*
X27203100Y9803495D01*
X27199050Y9823470D01*
X27191801Y9832063D01*
X27180870Y9833861D01*
X27168712Y9836502D01*
X27159727Y9847088D01*
X27152826Y9869619D01*
X27146924Y9908091D01*
X27140935Y9966502D01*
X27139013Y9987896D01*
X27134852Y10035049D01*
X28852955Y10035049D01*
X28969577Y10035049D01*
X29129109Y10035049D01*
X29129109Y10148218D01*
X29061314Y10148218D01*
X29021662Y10149304D01*
X29000116Y10154546D01*
X28997480Y10157666D01*
X28858616Y10157666D01*
X28851308Y10150538D01*
X28825993Y10148338D01*
X28808908Y10148218D01*
X28751881Y10148218D01*
X28539221Y10148218D01*
X27124698Y10148218D01*
X27172542Y10197214D01*
X27246850Y10257676D01*
X27338816Y10304309D01*
X27449998Y10337751D01*
X27560471Y10356247D01*
X27632773Y10364878D01*
X27632773Y10273960D01*
X28211188Y10273960D01*
X28211188Y10377107D01*
X28296065Y10368504D01*
X28355368Y10361244D01*
X28418551Y10351621D01*
X28456386Y10344748D01*
X28531832Y10329593D01*
X28535526Y10238905D01*
X28539221Y10148218D01*
X28751881Y10148218D01*
X28751881Y10198515D01*
X28753544Y10230024D01*
X28757697Y10247537D01*
X28759371Y10248812D01*
X28777987Y10240746D01*
X28805183Y10221180D01*
X28832448Y10197056D01*
X28851267Y10175318D01*
X28852943Y10172492D01*
X28858616Y10157666D01*
X28997480Y10157666D01*
X28989662Y10166919D01*
X28985442Y10180396D01*
X28968219Y10215373D01*
X28935138Y10257421D01*
X28891893Y10300644D01*
X28844174Y10339146D01*
X28812830Y10359199D01*
X28777123Y10381149D01*
X28758819Y10399589D01*
X28752388Y10421332D01*
X28751894Y10434282D01*
X28751894Y10437425D01*
X28110594Y10437425D01*
X28110594Y10374554D01*
X27733367Y10374554D01*
X27733367Y10437425D01*
X28110594Y10437425D01*
X28751894Y10437425D01*
X28751881Y10475148D01*
X28646048Y10475148D01*
X28597355Y10473971D01*
X28559405Y10470835D01*
X28538308Y10466329D01*
X28536023Y10464505D01*
X28522641Y10461705D01*
X28490074Y10462852D01*
X28443916Y10467607D01*
X28412376Y10471997D01*
X28355188Y10480622D01*
X28302886Y10488409D01*
X28263582Y10494153D01*
X28252055Y10495785D01*
X28221937Y10505112D01*
X28211188Y10519728D01*
X28207920Y10525680D01*
X28196230Y10530222D01*
X28173288Y10533530D01*
X28136265Y10535785D01*
X28082332Y10537166D01*
X28008660Y10537850D01*
X27921980Y10538020D01*
X27829471Y10537923D01*
X27759094Y10537470D01*
X27707836Y10536410D01*
X27672680Y10534497D01*
X27650611Y10531481D01*
X27638615Y10527115D01*
X27633676Y10521151D01*
X27632773Y10514216D01*
X27625079Y10492205D01*
X27599879Y10479679D01*
X27553991Y10475212D01*
X27545736Y10475148D01*
X27468027Y10467132D01*
X27379767Y10445064D01*
X27288915Y10411916D01*
X27203430Y10370661D01*
X27131274Y10324269D01*
X27121928Y10316918D01*
X27091467Y10293002D01*
X27073428Y10283424D01*
X27060831Y10286520D01*
X27047900Y10299296D01*
X27009707Y10324322D01*
X26960002Y10333929D01*
X26906476Y10328933D01*
X26856822Y10310149D01*
X26818733Y10278394D01*
X26815975Y10274703D01*
X26787474Y10215425D01*
X26782172Y10154066D01*
X26799482Y10095573D01*
X26838820Y10044896D01*
X26843630Y10040711D01*
X26871560Y10020833D01*
X26899898Y10012079D01*
X26939737Y10011447D01*
X26949689Y10012008D01*
X26988668Y10013438D01*
X27008746Y10010161D01*
X27016015Y10000272D01*
X27016760Y9991039D01*
X27018284Y9964256D01*
X27022065Y9923975D01*
X27024782Y9899876D01*
X27028723Y9861599D01*
X27027084Y9842004D01*
X27017579Y9834842D01*
X27000649Y9833861D01*
X26990608Y9837099D01*
X26974410Y9847580D01*
X26950855Y9866452D01*
X26918743Y9894865D01*
X26876872Y9933965D01*
X26824043Y9984903D01*
X26759055Y10048827D01*
X26680709Y10126886D01*
X26587803Y10220228D01*
X26479137Y10330002D01*
X26426769Y10383048D01*
X25884951Y10932233D01*
X25885570Y10845152D01*
G36*
X26262178Y4892178D02*
G01*
X29782971Y4892178D01*
X29782971Y5759802D01*
X26262178Y5759802D01*
X26262178Y4892178D01*
G37*
X26262178Y4892178D02*
X29782971Y4892178D01*
X29782971Y5759802D01*
X26262178Y5759802D01*
X26262178Y4892178D01*
G36*
X40223335Y12456406D02*
G01*
X39928985Y12456695D01*
X39827010Y12457120D01*
X39746355Y12458408D01*
X39681888Y12460914D01*
X39628476Y12464996D01*
X39580988Y12471008D01*
X39534289Y12479308D01*
X39500389Y12486436D01*
X39270549Y12549754D01*
X39051232Y12636012D01*
X38844201Y12744009D01*
X38651220Y12872544D01*
X38474049Y13020418D01*
X38314453Y13186430D01*
X38174193Y13369379D01*
X38149554Y13406449D01*
X38097756Y13493402D01*
X38044855Y13594820D01*
X37993836Y13703866D01*
X37947682Y13813702D01*
X37909375Y13917488D01*
X37881898Y14008388D01*
X37875804Y14033984D01*
X37866439Y14076979D01*
X39628021Y14076979D01*
X39628021Y15016250D01*
X37866439Y15016250D01*
X37875804Y15059244D01*
X37900864Y15150611D01*
X37938352Y15256469D01*
X37985185Y15369878D01*
X38038282Y15483892D01*
X38094560Y15591569D01*
X38150936Y15685967D01*
X38160392Y15700319D01*
X38304134Y15891791D01*
X38465333Y16063630D01*
X38642990Y16215163D01*
X38836109Y16345719D01*
X39043691Y16454624D01*
X39264738Y16541206D01*
X39498255Y16604794D01*
X39503956Y16606021D01*
X39556538Y16616622D01*
X39604958Y16624513D01*
X39654609Y16630078D01*
X39710881Y16633702D01*
X39779168Y16635769D01*
X39864859Y16636664D01*
X39935599Y16636799D01*
X40223333Y16636776D01*
X40223333Y17569479D01*
X39935599Y17567762D01*
X39843624Y17566709D01*
X39753891Y17564766D01*
X39672158Y17562126D01*
X39604179Y17558981D01*
X39555711Y17555526D01*
X39548646Y17554789D01*
X39323237Y17518594D01*
X39091386Y17461376D01*
X38859425Y17385284D01*
X38633685Y17292465D01*
X38420499Y17185068D01*
X38364697Y17153135D01*
X38201156Y17047667D01*
X38035214Y16923545D01*
X37873427Y16786431D01*
X37722350Y16641982D01*
X37588540Y16495859D01*
X37551993Y16451607D01*
X37390673Y16230012D01*
X37249348Y15992378D01*
X37129025Y15741089D01*
X37030711Y15478532D01*
X36955412Y15207092D01*
X36904135Y14929155D01*
X36901590Y14910416D01*
X36894641Y14838751D01*
X36889708Y14748046D01*
X36886792Y14644923D01*
X36885895Y14536009D01*
X36887019Y14427925D01*
X36890166Y14327298D01*
X36895338Y14240752D01*
X36901383Y14182812D01*
X36953339Y13897894D01*
X37028569Y13622354D01*
X37126391Y13357809D01*
X37246121Y13105877D01*
X37387076Y12868177D01*
X37548573Y12646325D01*
X37551993Y12642079D01*
X37732280Y12439121D01*
X37931422Y12252656D01*
X38146973Y12084214D01*
X38376485Y11935325D01*
X38617509Y11807517D01*
X38867600Y11702322D01*
X39124309Y11621267D01*
X39224619Y11596769D01*
X39348530Y11570938D01*
X39463700Y11551592D01*
X39577520Y11537981D01*
X39697385Y11529356D01*
X39830687Y11524968D01*
X39942213Y11524008D01*
X40223333Y11523750D01*
X40223335Y12456406D01*
G37*
X40223335Y12456406D02*
X39928985Y12456695D01*
X39827010Y12457120D01*
X39746355Y12458408D01*
X39681888Y12460914D01*
X39628476Y12464996D01*
X39580988Y12471008D01*
X39534289Y12479308D01*
X39500389Y12486436D01*
X39270549Y12549754D01*
X39051232Y12636012D01*
X38844201Y12744009D01*
X38651220Y12872544D01*
X38474049Y13020418D01*
X38314453Y13186430D01*
X38174193Y13369379D01*
X38149554Y13406449D01*
X38097756Y13493402D01*
X38044855Y13594820D01*
X37993836Y13703866D01*
X37947682Y13813702D01*
X37909375Y13917488D01*
X37881898Y14008388D01*
X37875804Y14033984D01*
X37866439Y14076979D01*
X39628021Y14076979D01*
X39628021Y15016250D01*
X37866439Y15016250D01*
X37875804Y15059244D01*
X37900864Y15150611D01*
X37938352Y15256469D01*
X37985185Y15369878D01*
X38038282Y15483892D01*
X38094560Y15591569D01*
X38150936Y15685967D01*
X38160392Y15700319D01*
X38304134Y15891791D01*
X38465333Y16063630D01*
X38642990Y16215163D01*
X38836109Y16345719D01*
X39043691Y16454624D01*
X39264738Y16541206D01*
X39498255Y16604794D01*
X39503956Y16606021D01*
X39556538Y16616622D01*
X39604958Y16624513D01*
X39654609Y16630078D01*
X39710881Y16633702D01*
X39779168Y16635769D01*
X39864859Y16636664D01*
X39935599Y16636799D01*
X40223333Y16636776D01*
X40223333Y17569479D01*
X39935599Y17567762D01*
X39843624Y17566709D01*
X39753891Y17564766D01*
X39672158Y17562126D01*
X39604179Y17558981D01*
X39555711Y17555526D01*
X39548646Y17554789D01*
X39323237Y17518594D01*
X39091386Y17461376D01*
X38859425Y17385284D01*
X38633685Y17292465D01*
X38420499Y17185068D01*
X38364697Y17153135D01*
X38201156Y17047667D01*
X38035214Y16923545D01*
X37873427Y16786431D01*
X37722350Y16641982D01*
X37588540Y16495859D01*
X37551993Y16451607D01*
X37390673Y16230012D01*
X37249348Y15992378D01*
X37129025Y15741089D01*
X37030711Y15478532D01*
X36955412Y15207092D01*
X36904135Y14929155D01*
X36901590Y14910416D01*
X36894641Y14838751D01*
X36889708Y14748046D01*
X36886792Y14644923D01*
X36885895Y14536009D01*
X36887019Y14427925D01*
X36890166Y14327298D01*
X36895338Y14240752D01*
X36901383Y14182812D01*
X36953339Y13897894D01*
X37028569Y13622354D01*
X37126391Y13357809D01*
X37246121Y13105877D01*
X37387076Y12868177D01*
X37548573Y12646325D01*
X37551993Y12642079D01*
X37732280Y12439121D01*
X37931422Y12252656D01*
X38146973Y12084214D01*
X38376485Y11935325D01*
X38617509Y11807517D01*
X38867600Y11702322D01*
X39124309Y11621267D01*
X39224619Y11596769D01*
X39348530Y11570938D01*
X39463700Y11551592D01*
X39577520Y11537981D01*
X39697385Y11529356D01*
X39830687Y11524968D01*
X39942213Y11524008D01*
X40223333Y11523750D01*
X40223335Y12456406D01*
G36*
X34929187Y11524315D02*
G01*
X34993670Y11525975D01*
X35040303Y11528945D01*
X35060651Y11532088D01*
X35090417Y11540065D01*
X35090417Y12460530D01*
X34880881Y12453259D01*
X34671047Y12453523D01*
X34476859Y12470382D01*
X34292420Y12505075D01*
X34111832Y12558839D01*
X33929197Y12632911D01*
X33853489Y12668879D01*
X33672938Y12767977D01*
X33510298Y12879326D01*
X33357901Y13008408D01*
X33298622Y13065705D01*
X33141985Y13240861D01*
X33006473Y13431520D01*
X32892766Y13636394D01*
X32801544Y13854193D01*
X32733485Y14083629D01*
X32713326Y14176197D01*
X32701177Y14260244D01*
X32693066Y14363234D01*
X32688985Y14477965D01*
X32688926Y14597234D01*
X32692884Y14713837D01*
X32700851Y14820571D01*
X32712819Y14910233D01*
X32714057Y14917031D01*
X32769911Y15145759D01*
X32849299Y15363965D01*
X32950931Y15570177D01*
X33073522Y15762928D01*
X33215781Y15940748D01*
X33376421Y16102168D01*
X33554155Y16245719D01*
X33747693Y16369931D01*
X33955748Y16473336D01*
X34139237Y16542535D01*
X34242377Y16574118D01*
X34337107Y16598129D01*
X34429870Y16615463D01*
X34527106Y16627016D01*
X34635258Y16633680D01*
X34760767Y16636352D01*
X34815911Y16636504D01*
X35090417Y16636186D01*
X35090417Y17553164D01*
X35060651Y17561141D01*
X35035251Y17564138D01*
X34988256Y17566203D01*
X34924510Y17567382D01*
X34848858Y17567723D01*
X34766146Y17567274D01*
X34681217Y17566083D01*
X34598917Y17564197D01*
X34524091Y17561663D01*
X34461583Y17558531D01*
X34416238Y17554847D01*
X34415729Y17554789D01*
X34302729Y17538341D01*
X34175128Y17513706D01*
X34042662Y17483083D01*
X33915066Y17448667D01*
X33833984Y17423536D01*
X33569447Y17322498D01*
X33318723Y17199513D01*
X33082805Y17055777D01*
X32862680Y16892487D01*
X32659340Y16710838D01*
X32473773Y16512026D01*
X32306970Y16297247D01*
X32159921Y16067698D01*
X32033615Y15824573D01*
X31929042Y15569070D01*
X31847192Y15302383D01*
X31789055Y15025709D01*
X31775838Y14936875D01*
X31767382Y14852107D01*
X31761563Y14748118D01*
X31758382Y14632009D01*
X31757839Y14510887D01*
X31759934Y14391854D01*
X31764666Y14282014D01*
X31772037Y14188472D01*
X31775838Y14156354D01*
X31826759Y13873706D01*
X31902205Y13600614D01*
X32001919Y13337714D01*
X32125646Y13085637D01*
X32273128Y12845017D01*
X32351952Y12734218D01*
X32530230Y12516723D01*
X32726233Y12318344D01*
X32938598Y12139882D01*
X33165959Y11982133D01*
X33406953Y11845897D01*
X33660213Y11731971D01*
X33924377Y11641153D01*
X34198079Y11574241D01*
X34388880Y11542813D01*
X34441354Y11537490D01*
X34510218Y11532930D01*
X34590581Y11529212D01*
X34677550Y11526413D01*
X34766236Y11524612D01*
X34851745Y11523887D01*
X34929187Y11524315D01*
G37*
X34929187Y11524315D02*
X34993670Y11525975D01*
X35040303Y11528945D01*
X35060651Y11532088D01*
X35090417Y11540065D01*
X35090417Y12460530D01*
X34880881Y12453259D01*
X34671047Y12453523D01*
X34476859Y12470382D01*
X34292420Y12505075D01*
X34111832Y12558839D01*
X33929197Y12632911D01*
X33853489Y12668879D01*
X33672938Y12767977D01*
X33510298Y12879326D01*
X33357901Y13008408D01*
X33298622Y13065705D01*
X33141985Y13240861D01*
X33006473Y13431520D01*
X32892766Y13636394D01*
X32801544Y13854193D01*
X32733485Y14083629D01*
X32713326Y14176197D01*
X32701177Y14260244D01*
X32693066Y14363234D01*
X32688985Y14477965D01*
X32688926Y14597234D01*
X32692884Y14713837D01*
X32700851Y14820571D01*
X32712819Y14910233D01*
X32714057Y14917031D01*
X32769911Y15145759D01*
X32849299Y15363965D01*
X32950931Y15570177D01*
X33073522Y15762928D01*
X33215781Y15940748D01*
X33376421Y16102168D01*
X33554155Y16245719D01*
X33747693Y16369931D01*
X33955748Y16473336D01*
X34139237Y16542535D01*
X34242377Y16574118D01*
X34337107Y16598129D01*
X34429870Y16615463D01*
X34527106Y16627016D01*
X34635258Y16633680D01*
X34760767Y16636352D01*
X34815911Y16636504D01*
X35090417Y16636186D01*
X35090417Y17553164D01*
X35060651Y17561141D01*
X35035251Y17564138D01*
X34988256Y17566203D01*
X34924510Y17567382D01*
X34848858Y17567723D01*
X34766146Y17567274D01*
X34681217Y17566083D01*
X34598917Y17564197D01*
X34524091Y17561663D01*
X34461583Y17558531D01*
X34416238Y17554847D01*
X34415729Y17554789D01*
X34302729Y17538341D01*
X34175128Y17513706D01*
X34042662Y17483083D01*
X33915066Y17448667D01*
X33833984Y17423536D01*
X33569447Y17322498D01*
X33318723Y17199513D01*
X33082805Y17055777D01*
X32862680Y16892487D01*
X32659340Y16710838D01*
X32473773Y16512026D01*
X32306970Y16297247D01*
X32159921Y16067698D01*
X32033615Y15824573D01*
X31929042Y15569070D01*
X31847192Y15302383D01*
X31789055Y15025709D01*
X31775838Y14936875D01*
X31767382Y14852107D01*
X31761563Y14748118D01*
X31758382Y14632009D01*
X31757839Y14510887D01*
X31759934Y14391854D01*
X31764666Y14282014D01*
X31772037Y14188472D01*
X31775838Y14156354D01*
X31826759Y13873706D01*
X31902205Y13600614D01*
X32001919Y13337714D01*
X32125646Y13085637D01*
X32273128Y12845017D01*
X32351952Y12734218D01*
X32530230Y12516723D01*
X32726233Y12318344D01*
X32938598Y12139882D01*
X33165959Y11982133D01*
X33406953Y11845897D01*
X33660213Y11731971D01*
X33924377Y11641153D01*
X34198079Y11574241D01*
X34388880Y11542813D01*
X34441354Y11537490D01*
X34510218Y11532930D01*
X34590581Y11529212D01*
X34677550Y11526413D01*
X34766236Y11524612D01*
X34851745Y11523887D01*
X34929187Y11524315D01*
D13*
X54262779Y12590000D02*
X53937221Y12590000D01*
X54262779Y13610000D02*
X53937221Y13610000D01*
X19153721Y8562000D02*
X19479279Y8562000D01*
X19153721Y7542000D02*
X19479279Y7542000D01*
X45912779Y11352000D02*
X45587221Y11352000D01*
X45912779Y12372000D02*
X45587221Y12372000D01*
X48560000Y8212779D02*
X48560000Y7887221D01*
X47540000Y8212779D02*
X47540000Y7887221D01*
X22988600Y16559600D02*
X22988600Y12659600D01*
X24988600Y16559600D02*
X24988600Y12659600D01*
X22988600Y16559600D02*
X24988600Y16559600D01*
X5962779Y12622000D02*
X5637221Y12622000D01*
X5962779Y13642000D02*
X5637221Y13642000D01*
X26583221Y16496000D02*
X26908779Y16496000D01*
X26583221Y15476000D02*
X26908779Y15476000D01*
X10190000Y10137221D02*
X10190000Y10462779D01*
X11210000Y10137221D02*
X11210000Y10462779D01*
X45912779Y8340000D02*
X45587221Y8340000D01*
X45912779Y9360000D02*
X45587221Y9360000D01*
X58968221Y18468000D02*
X59293779Y18468000D01*
X58968221Y17448000D02*
X59293779Y17448000D01*
X2199221Y10848000D02*
X2524779Y10848000D01*
X2199221Y9828000D02*
X2524779Y9828000D01*
X4590000Y10137221D02*
X4590000Y10462779D01*
X5610000Y10137221D02*
X5610000Y10462779D01*
X2862779Y15290000D02*
X2537221Y15290000D01*
X2862779Y16310000D02*
X2537221Y16310000D01*
X26583221Y13194000D02*
X26908779Y13194000D01*
X26583221Y12174000D02*
X26908779Y12174000D01*
X16482400Y8692221D02*
X16482400Y9017779D01*
X17502400Y8692221D02*
X17502400Y9017779D01*
X20507979Y11443800D02*
X20182421Y11443800D01*
X20507979Y12463800D02*
X20182421Y12463800D01*
X45912779Y9828000D02*
X45587221Y9828000D01*
X45912779Y10848000D02*
X45587221Y10848000D01*
X18416800Y14310779D02*
X18416800Y13985221D01*
X17396800Y14310779D02*
X17396800Y13985221D01*
X19890000Y14310779D02*
X19890000Y13985221D01*
X18870000Y14310779D02*
X18870000Y13985221D01*
X14958400Y8692221D02*
X14958400Y9017779D01*
X15978400Y8692221D02*
X15978400Y9017779D01*
X16842000Y14310779D02*
X16842000Y13985221D01*
X15822000Y14310779D02*
X15822000Y13985221D01*
X56900000Y11200000D02*
X56900000Y12400000D01*
X54100000Y11200000D02*
X56900000Y11200000D01*
X54100000Y12400000D02*
X54100000Y11200000D01*
X56900000Y12400000D02*
X54100000Y12400000D01*
X56900000Y11100000D02*
X54100000Y11100000D01*
X54100000Y11100000D02*
X54100000Y9900000D01*
X54100000Y9900000D02*
X56900000Y9900000D01*
X56900000Y9900000D02*
X56900000Y11100000D01*
X15318000Y14310779D02*
X15318000Y13985221D01*
X14298000Y14310779D02*
X14298000Y13985221D01*
X20495279Y10848000D02*
X20169721Y10848000D01*
X20495279Y9828000D02*
X20169721Y9828000D01*
X14302000Y8651221D02*
X14302000Y8976779D01*
X13282000Y8651221D02*
X13282000Y8976779D01*
X52160000Y12912779D02*
X52160000Y12587221D01*
X51140000Y12912779D02*
X51140000Y12587221D01*
X48696500Y14105000D02*
X48696500Y11905000D01*
X50896500Y14105000D02*
X50896500Y11105000D01*
X10174000Y4750000D02*
G75*
G03X10174000Y4750000I-700000J0D01*
G01*
X50560000Y4750000D02*
G75*
G03X50560000Y4750000I-700000J0D01*
G01*
X56656000Y4750000D02*
G75*
G03X56656000Y4750000I-700000J0D01*
G01*
X48020000Y4750000D02*
G75*
G03X48020000Y4750000I-700000J0D01*
G01*
X45480000Y4750000D02*
G75*
G03X45480000Y4750000I-700000J0D01*
G01*
X42940000Y4750000D02*
G75*
G03X42940000Y4750000I-700000J0D01*
G01*
X11790000Y10462779D02*
X11790000Y10137221D01*
X12810000Y10462779D02*
X12810000Y10137221D01*
X4110000Y13900000D02*
X4110000Y12100000D01*
X890000Y12100000D02*
X890000Y14550000D01*
X8800000Y8890000D02*
X6350000Y8890000D01*
X7000000Y12110000D02*
X8800000Y12110000D01*
X33600000Y6950000D02*
X36400000Y6950000D01*
X36400000Y6950000D02*
X36400000Y8250000D01*
X36400000Y8250000D02*
X33600000Y8250000D01*
X33600000Y8250000D02*
X33600000Y6950000D01*
X12906000Y7402000D02*
X12906000Y8702000D01*
X10106000Y7402000D02*
X12906000Y7402000D01*
X10106000Y8702000D02*
X10106000Y7402000D01*
X12906000Y8702000D02*
X10106000Y8702000D01*
D12*
X56214285Y14138096D02*
X56480952Y14519048D01*
X56671428Y14138096D02*
X56671428Y14938096D01*
X56366666Y14938096D01*
X56290476Y14900000D01*
X56252380Y14861905D01*
X56214285Y14785715D01*
X56214285Y14671429D01*
X56252380Y14595239D01*
X56290476Y14557143D01*
X56366666Y14519048D01*
X56671428Y14519048D01*
X55909523Y14861905D02*
X55871428Y14900000D01*
X55795238Y14938096D01*
X55604761Y14938096D01*
X55528571Y14900000D01*
X55490476Y14861905D01*
X55452380Y14785715D01*
X55452380Y14709524D01*
X55490476Y14595239D01*
X55947619Y14138096D01*
X55452380Y14138096D01*
X54690476Y14138096D02*
X55147619Y14138096D01*
X54919047Y14138096D02*
X54919047Y14938096D01*
X54995238Y14823810D01*
X55071428Y14747620D01*
X55147619Y14709524D01*
X58914285Y11578096D02*
X59180952Y11959048D01*
X59371428Y11578096D02*
X59371428Y12378096D01*
X59066666Y12378096D01*
X58990476Y12340000D01*
X58952380Y12301905D01*
X58914285Y12225715D01*
X58914285Y12111429D01*
X58952380Y12035239D01*
X58990476Y11997143D01*
X59066666Y11959048D01*
X59371428Y11959048D01*
X58609523Y12301905D02*
X58571428Y12340000D01*
X58495238Y12378096D01*
X58304761Y12378096D01*
X58228571Y12340000D01*
X58190476Y12301905D01*
X58152380Y12225715D01*
X58152380Y12149524D01*
X58190476Y12035239D01*
X58647619Y11578096D01*
X58152380Y11578096D01*
X57847619Y12301905D02*
X57809523Y12340000D01*
X57733333Y12378096D01*
X57542857Y12378096D01*
X57466666Y12340000D01*
X57428571Y12301905D01*
X57390476Y12225715D01*
X57390476Y12149524D01*
X57428571Y12035239D01*
X57885714Y11578096D01*
X57390476Y11578096D01*
X58894285Y10108096D02*
X59160952Y10489048D01*
X59351428Y10108096D02*
X59351428Y10908096D01*
X59046666Y10908096D01*
X58970476Y10870000D01*
X58932380Y10831905D01*
X58894285Y10755715D01*
X58894285Y10641429D01*
X58932380Y10565239D01*
X58970476Y10527143D01*
X59046666Y10489048D01*
X59351428Y10489048D01*
X58589523Y10831905D02*
X58551428Y10870000D01*
X58475238Y10908096D01*
X58284761Y10908096D01*
X58208571Y10870000D01*
X58170476Y10831905D01*
X58132380Y10755715D01*
X58132380Y10679524D01*
X58170476Y10565239D01*
X58627619Y10108096D01*
X58132380Y10108096D01*
X57865714Y10908096D02*
X57370476Y10908096D01*
X57637142Y10603334D01*
X57522857Y10603334D01*
X57446666Y10565239D01*
X57408571Y10527143D01*
X57370476Y10450953D01*
X57370476Y10260477D01*
X57408571Y10184286D01*
X57446666Y10146191D01*
X57522857Y10108096D01*
X57751428Y10108096D01*
X57827619Y10146191D01*
X57865714Y10184286D01*
X38722857Y7207620D02*
X39056190Y7683810D01*
X39294285Y7207620D02*
X39294285Y8207620D01*
X38913333Y8207620D01*
X38818095Y8160000D01*
X38770476Y8112381D01*
X38722857Y8017143D01*
X38722857Y7874286D01*
X38770476Y7779048D01*
X38818095Y7731429D01*
X38913333Y7683810D01*
X39294285Y7683810D01*
X38341904Y8112381D02*
X38294285Y8160000D01*
X38199047Y8207620D01*
X37960952Y8207620D01*
X37865714Y8160000D01*
X37818095Y8112381D01*
X37770476Y8017143D01*
X37770476Y7921905D01*
X37818095Y7779048D01*
X38389523Y7207620D01*
X37770476Y7207620D01*
X37437142Y8207620D02*
X36770476Y8207620D01*
X37199047Y7207620D01*
X12148857Y9399620D02*
X12482190Y9875810D01*
X12720285Y9399620D02*
X12720285Y10399620D01*
X12339333Y10399620D01*
X12244095Y10352000D01*
X12196476Y10304381D01*
X12148857Y10209143D01*
X12148857Y10066286D01*
X12196476Y9971048D01*
X12244095Y9923429D01*
X12339333Y9875810D01*
X12720285Y9875810D01*
X11815523Y10399620D02*
X11196476Y10399620D01*
X11529809Y10018667D01*
X11386952Y10018667D01*
X11291714Y9971048D01*
X11244095Y9923429D01*
X11196476Y9828191D01*
X11196476Y9590096D01*
X11244095Y9494858D01*
X11291714Y9447239D01*
X11386952Y9399620D01*
X11672666Y9399620D01*
X11767904Y9447239D01*
X11815523Y9494858D01*
X10339333Y10066286D02*
X10339333Y9399620D01*
X10577428Y10447239D02*
X10815523Y9732953D01*
X10196476Y9732953D01*
M02*
