M48
; DRILL file {KiCad (5.1.6)-1} date 07/09/20 16:11:46
; FORMAT={-:-/ absolute / inch / decimal}
; #@! TF.CreationDate,2020-07-09T16:11:46-07:00
; #@! TF.GenerationSoftware,Kicad,Pcbnew,(5.1.6)-1
; #@! TF.FileFunction,Plated,1,4,PTH
FMAT,2
INCH
T1C0.0118
T2C0.0157
T3C0.0236
T4C0.0256
T5C0.0394
%
G90
G05
T1
X4.255Y-3.3746
X4.2776Y-3.2849
X4.2839Y-3.2378
X4.31Y-3.605
X4.377Y-3.6584
X4.3941Y-3.7149
X4.447Y-3.3764
X4.447Y-3.437
X4.4525Y-3.407
X4.4921Y-3.2638
X4.517Y-3.6595
X4.5403Y-3.2403
X4.5851Y-3.2933
X4.5965Y-3.2323
X4.6145Y-3.6772
X4.6614Y-3.8937
X4.7Y-3.2803
X4.7008Y-3.7165
X4.7545Y-3.7345
X4.7618Y-3.8878
X4.7748Y-3.6268
X4.782Y-3.287
X4.782Y-3.322
X4.7828Y-3.6909
X4.7838Y-3.2498
X4.8011Y-3.3575
X4.8031Y-3.6535
X4.8101Y-3.7118
X4.8276Y-3.5311
X4.8287Y-3.4162
X4.8315Y-3.5657
X4.8628Y-3.712
X4.8898Y-3.598
X4.8956Y-3.763
X4.8992Y-3.5302
X4.9354Y-3.5302
X4.9618Y-3.6091
X4.9843Y-3.4724
X5.0177Y-3.4823
X5.044Y-3.3978
X5.0547Y-3.3469
X5.1063Y-3.5574
X5.1134Y-3.3535
X5.1143Y-3.7307
X5.1323Y-3.6189
X5.1496Y-3.5574
X5.1693Y-3.4008
X5.2228Y-3.5772
X5.2512Y-3.785
X5.2579Y-3.2854
X5.2587Y-3.4878
X5.2917Y-3.7858
X5.3252Y-3.6803
X5.376Y-3.7768
X5.3834Y-3.3178
X5.4429Y-3.3287
X5.4646Y-3.7323
X5.5039Y-3.6083
X5.6122Y-3.2087
X5.6414Y-3.2304
X5.6535Y-3.7835
X5.6843Y-3.2406
X5.6929Y-3.7874
X5.7301Y-3.2481
X5.7548Y-3.7176
X5.7736Y-3.2539
X5.8071Y-3.2732
X5.8366Y-3.4803
X5.8839Y-3.5492
X5.9094Y-3.5276
X5.9601Y-3.6313
X5.97Y-3.36
X6.0512Y-3.5197
X6.0531Y-3.4744
X6.2531Y-3.7378
X6.2579Y-3.7874
T2
X3.9697Y-3.3323
X3.975Y-3.5775
X3.9917Y-3.252
X4.0315Y-3.4685
X4.0692Y-3.2646
X4.255Y-3.41
X4.3Y-3.5225
X4.3736Y-3.2512
X4.4197Y-3.2472
X4.5627Y-3.4623
X4.5627Y-3.5036
X4.606Y-3.4623
X4.606Y-3.5036
X4.6513Y-3.4623
X4.6513Y-3.4997
X4.6513Y-3.5371
X4.6564Y-3.2739
X4.6797Y-3.567
X4.6936Y-3.752
X4.86Y-3.24
X4.96Y-3.2439
X5.0358Y-3.6713
X5.0468Y-3.2741
X5.1319Y-3.6988
X5.2244Y-3.4449
X5.3519Y-3.6388
X5.4Y-3.683
X5.5669Y-3.3661
X5.5669Y-3.4213
X5.5669Y-3.5256
X5.5689Y-3.4724
X5.5963Y-3.6406
X5.6201Y-3.5236
X5.622Y-3.4213
X5.622Y-3.4724
X5.624Y-3.3661
X5.6634Y-3.4724
X5.6634Y-3.5236
X5.6713Y-3.3681
X5.6732Y-3.4213
X5.7205Y-3.3701
X5.7224Y-3.4193
X5.8366Y-3.5177
X5.8682Y-3.6797
X5.87Y-3.6075
X5.9547Y-3.3169
X5.9921Y-3.5827
T5
X4.0118Y-3.8496
X4.1118Y-3.8496
X4.2118Y-3.8496
X4.3118Y-3.8496
X4.4118Y-3.8496
X4.5118Y-3.8496
X4.6118Y-3.8496
X4.7118Y-3.8496
X4.8118Y-3.8496
X4.9118Y-3.8496
X5.0118Y-3.8496
X5.1118Y-3.8496
X5.2118Y-3.8496
X5.3118Y-3.8496
X5.4118Y-3.8496
X5.5118Y-3.8496
X5.6118Y-3.8496
X5.7118Y-3.8496
X5.8118Y-3.8496
X5.9118Y-3.8496
X6.0118Y-3.8496
X6.1118Y-3.8496
X6.2118Y-3.8496
X6.3118Y-3.8496
X4.0118Y-3.1496
X4.1118Y-3.1496
X4.2118Y-3.1496
X4.3118Y-3.1496
X4.4118Y-3.1496
X4.5118Y-3.1496
X4.6118Y-3.1496
X4.7118Y-3.1496
X4.8118Y-3.1496
X4.9118Y-3.1496
X5.0118Y-3.1496
X5.1118Y-3.1496
X5.2118Y-3.1496
X5.3118Y-3.1496
X5.4118Y-3.1496
X5.5118Y-3.1496
X5.6118Y-3.1496
X5.7118Y-3.1496
X5.8118Y-3.1496
X5.9118Y-3.1496
X6.0118Y-3.1496
X6.1118Y-3.1496
X6.2118Y-3.1496
X6.3118Y-3.1496
X4.0433Y-3.6236
X4.0433Y-3.7236
T3
G00X6.2648Y-3.3352
M15
G01X6.2923Y-3.3352
M16
G05
G00X6.2648Y-3.664
M15
G01X6.2923Y-3.664
M16
G05
T4
G00X6.1565Y-3.412
M15
G01X6.1644Y-3.412
M16
G05
G00X6.1565Y-3.5872
M15
G01X6.1644Y-3.5872
M16
G05
T0
M30
