%TF.GenerationSoftware,KiCad,Pcbnew,(5.1.5)-3*%
%TF.CreationDate,2020-07-20T00:16:58-07:00*%
%TF.ProjectId,UPduino_v3.0,55506475-696e-46f5-9f76-332e302e6b69,3.0*%
%TF.SameCoordinates,Original*%
%TF.FileFunction,OtherDrawing,Comment*%
%FSLAX46Y46*%
G04 Gerber Fmt 4.6, Leading zero omitted, Abs format (unit mm)*
G04 Created by KiCad (PCBNEW (5.1.5)-3) date 2020-07-20 00:16:58*
%MOMM*%
%LPD*%
G04 APERTURE LIST*
%ADD10C,0.150000*%
%ADD11C,0.050000*%
G04 APERTURE END LIST*
D10*
X97247619Y-93032857D02*
X97200000Y-92985238D01*
X97152380Y-92890000D01*
X97152380Y-92651904D01*
X97200000Y-92556666D01*
X97247619Y-92509047D01*
X97342857Y-92461428D01*
X97438095Y-92461428D01*
X97580952Y-92509047D01*
X98152380Y-93080476D01*
X98152380Y-92461428D01*
X97247619Y-92080476D02*
X97200000Y-92032857D01*
X97152380Y-91937619D01*
X97152380Y-91699523D01*
X97200000Y-91604285D01*
X97247619Y-91556666D01*
X97342857Y-91509047D01*
X97438095Y-91509047D01*
X97580952Y-91556666D01*
X98152380Y-92128095D01*
X98152380Y-91509047D01*
X98057142Y-91080476D02*
X98104761Y-91032857D01*
X98152380Y-91080476D01*
X98104761Y-91128095D01*
X98057142Y-91080476D01*
X98152380Y-91080476D01*
X97247619Y-90651904D02*
X97200000Y-90604285D01*
X97152380Y-90509047D01*
X97152380Y-90270952D01*
X97200000Y-90175714D01*
X97247619Y-90128095D01*
X97342857Y-90080476D01*
X97438095Y-90080476D01*
X97580952Y-90128095D01*
X98152380Y-90699523D01*
X98152380Y-90080476D01*
X97247619Y-89699523D02*
X97200000Y-89651904D01*
X97152380Y-89556666D01*
X97152380Y-89318571D01*
X97200000Y-89223333D01*
X97247619Y-89175714D01*
X97342857Y-89128095D01*
X97438095Y-89128095D01*
X97580952Y-89175714D01*
X98152380Y-89747142D01*
X98152380Y-89128095D01*
X97152380Y-88509047D02*
X97152380Y-88413809D01*
X97200000Y-88318571D01*
X97247619Y-88270952D01*
X97342857Y-88223333D01*
X97533333Y-88175714D01*
X97771428Y-88175714D01*
X97961904Y-88223333D01*
X98057142Y-88270952D01*
X98104761Y-88318571D01*
X98152380Y-88413809D01*
X98152380Y-88509047D01*
X98104761Y-88604285D01*
X98057142Y-88651904D01*
X97961904Y-88699523D01*
X97771428Y-88747142D01*
X97533333Y-88747142D01*
X97342857Y-88699523D01*
X97247619Y-88651904D01*
X97200000Y-88604285D01*
X97152380Y-88509047D01*
X98152380Y-86985238D02*
X97485714Y-86985238D01*
X97580952Y-86985238D02*
X97533333Y-86937619D01*
X97485714Y-86842380D01*
X97485714Y-86699523D01*
X97533333Y-86604285D01*
X97628571Y-86556666D01*
X98152380Y-86556666D01*
X97628571Y-86556666D02*
X97533333Y-86509047D01*
X97485714Y-86413809D01*
X97485714Y-86270952D01*
X97533333Y-86175714D01*
X97628571Y-86128095D01*
X98152380Y-86128095D01*
X98152380Y-85651904D02*
X97485714Y-85651904D01*
X97580952Y-85651904D02*
X97533333Y-85604285D01*
X97485714Y-85509047D01*
X97485714Y-85366190D01*
X97533333Y-85270952D01*
X97628571Y-85223333D01*
X98152380Y-85223333D01*
X97628571Y-85223333D02*
X97533333Y-85175714D01*
X97485714Y-85080476D01*
X97485714Y-84937619D01*
X97533333Y-84842380D01*
X97628571Y-84794761D01*
X98152380Y-84794761D01*
X99000000Y-100000000D02*
X99000000Y-77780000D01*
X100000000Y-100000000D02*
X98413579Y-100000000D01*
X100000000Y-77780000D02*
X98413579Y-77780000D01*
X99000000Y-77780000D02*
X99586421Y-78906504D01*
X99000000Y-77780000D02*
X98413579Y-78906504D01*
X99000000Y-100000000D02*
X99586421Y-98873496D01*
X99000000Y-100000000D02*
X98413579Y-98873496D01*
D11*
X100000000Y-78480000D02*
G75*
G02X100700000Y-77780000I700000J0D01*
G01*
X161300000Y-77780000D02*
G75*
G02X162000000Y-78480000I0J-700000D01*
G01*
X162000000Y-99300000D02*
G75*
G02X161300000Y-100000000I-700000J0D01*
G01*
X100700000Y-100000000D02*
G75*
G02X100000000Y-99300000I0J700000D01*
G01*
D10*
X127333333Y-102252380D02*
X127142857Y-102252380D01*
X127047619Y-102300000D01*
X127000000Y-102347619D01*
X126904761Y-102490476D01*
X126857142Y-102680952D01*
X126857142Y-103061904D01*
X126904761Y-103157142D01*
X126952380Y-103204761D01*
X127047619Y-103252380D01*
X127238095Y-103252380D01*
X127333333Y-103204761D01*
X127380952Y-103157142D01*
X127428571Y-103061904D01*
X127428571Y-102823809D01*
X127380952Y-102728571D01*
X127333333Y-102680952D01*
X127238095Y-102633333D01*
X127047619Y-102633333D01*
X126952380Y-102680952D01*
X126904761Y-102728571D01*
X126857142Y-102823809D01*
X127809523Y-102347619D02*
X127857142Y-102300000D01*
X127952380Y-102252380D01*
X128190476Y-102252380D01*
X128285714Y-102300000D01*
X128333333Y-102347619D01*
X128380952Y-102442857D01*
X128380952Y-102538095D01*
X128333333Y-102680952D01*
X127761904Y-103252380D01*
X128380952Y-103252380D01*
X128809523Y-103157142D02*
X128857142Y-103204761D01*
X128809523Y-103252380D01*
X128761904Y-103204761D01*
X128809523Y-103157142D01*
X128809523Y-103252380D01*
X129476190Y-102252380D02*
X129571428Y-102252380D01*
X129666666Y-102300000D01*
X129714285Y-102347619D01*
X129761904Y-102442857D01*
X129809523Y-102633333D01*
X129809523Y-102871428D01*
X129761904Y-103061904D01*
X129714285Y-103157142D01*
X129666666Y-103204761D01*
X129571428Y-103252380D01*
X129476190Y-103252380D01*
X129380952Y-103204761D01*
X129333333Y-103157142D01*
X129285714Y-103061904D01*
X129238095Y-102871428D01*
X129238095Y-102633333D01*
X129285714Y-102442857D01*
X129333333Y-102347619D01*
X129380952Y-102300000D01*
X129476190Y-102252380D01*
X130428571Y-102252380D02*
X130523809Y-102252380D01*
X130619047Y-102300000D01*
X130666666Y-102347619D01*
X130714285Y-102442857D01*
X130761904Y-102633333D01*
X130761904Y-102871428D01*
X130714285Y-103061904D01*
X130666666Y-103157142D01*
X130619047Y-103204761D01*
X130523809Y-103252380D01*
X130428571Y-103252380D01*
X130333333Y-103204761D01*
X130285714Y-103157142D01*
X130238095Y-103061904D01*
X130190476Y-102871428D01*
X130190476Y-102633333D01*
X130238095Y-102442857D01*
X130285714Y-102347619D01*
X130333333Y-102300000D01*
X130428571Y-102252380D01*
X131380952Y-102252380D02*
X131476190Y-102252380D01*
X131571428Y-102300000D01*
X131619047Y-102347619D01*
X131666666Y-102442857D01*
X131714285Y-102633333D01*
X131714285Y-102871428D01*
X131666666Y-103061904D01*
X131619047Y-103157142D01*
X131571428Y-103204761D01*
X131476190Y-103252380D01*
X131380952Y-103252380D01*
X131285714Y-103204761D01*
X131238095Y-103157142D01*
X131190476Y-103061904D01*
X131142857Y-102871428D01*
X131142857Y-102633333D01*
X131190476Y-102442857D01*
X131238095Y-102347619D01*
X131285714Y-102300000D01*
X131380952Y-102252380D01*
X132904761Y-103252380D02*
X132904761Y-102585714D01*
X132904761Y-102680952D02*
X132952380Y-102633333D01*
X133047619Y-102585714D01*
X133190476Y-102585714D01*
X133285714Y-102633333D01*
X133333333Y-102728571D01*
X133333333Y-103252380D01*
X133333333Y-102728571D02*
X133380952Y-102633333D01*
X133476190Y-102585714D01*
X133619047Y-102585714D01*
X133714285Y-102633333D01*
X133761904Y-102728571D01*
X133761904Y-103252380D01*
X134238095Y-103252380D02*
X134238095Y-102585714D01*
X134238095Y-102680952D02*
X134285714Y-102633333D01*
X134380952Y-102585714D01*
X134523809Y-102585714D01*
X134619047Y-102633333D01*
X134666666Y-102728571D01*
X134666666Y-103252380D01*
X134666666Y-102728571D02*
X134714285Y-102633333D01*
X134809523Y-102585714D01*
X134952380Y-102585714D01*
X135047619Y-102633333D01*
X135095238Y-102728571D01*
X135095238Y-103252380D01*
X100000000Y-101500000D02*
X162000000Y-101500000D01*
X100000000Y-101500000D02*
X100000000Y-102086421D01*
X162000000Y-101500000D02*
X162000000Y-102086421D01*
X162000000Y-101500000D02*
X160873496Y-102086421D01*
X162000000Y-101500000D02*
X160873496Y-100913579D01*
X100000000Y-101500000D02*
X101126504Y-102086421D01*
X100000000Y-101500000D02*
X101126504Y-100913579D01*
D11*
X162000000Y-93200000D02*
X161000000Y-93200000D01*
X162000000Y-84500000D02*
X161000000Y-84500000D01*
X161000000Y-93200000D02*
X161000000Y-84500000D01*
X162000000Y-99300000D02*
X162000000Y-93200000D01*
X100000000Y-78480000D02*
X100000000Y-99300000D01*
X161300000Y-77780000D02*
X100700000Y-77780000D01*
X162000000Y-84500000D02*
X162000000Y-78480000D01*
X100700000Y-100000000D02*
X161300000Y-100000000D01*
M02*
