%TF.GenerationSoftware,KiCad,Pcbnew,(5.1.5)-3*%
%TF.CreationDate,2020-07-20T00:09:38-07:00*%
%TF.ProjectId,UPduino_v3.0,55506475-696e-46f5-9f76-332e302e6b69,3.0*%
%TF.SameCoordinates,Original*%
%TF.FileFunction,Plated,1,4,PTH,Mixed*%
%TF.FilePolarity,Positive*%
%FSLAX46Y46*%
G04 Gerber Fmt 4.6, Leading zero omitted, Abs format (unit mm)*
G04 Created by KiCad (PCBNEW (5.1.5)-3) date 2020-07-20 00:09:38*
%MOMM*%
%LPD*%
G04 APERTURE LIST*
%TA.AperFunction,ViaDrill*%
%ADD10C,0.300000*%
%TD*%
%TA.AperFunction,ViaDrill*%
%ADD11C,0.400000*%
%TD*%
G04 aperture for slot hole*
%TA.AperFunction,ComponentDrill*%
%ADD12C,0.600000*%
%TD*%
G04 aperture for slot hole*
%TA.AperFunction,ComponentDrill*%
%ADD13C,0.650000*%
%TD*%
%TA.AperFunction,ComponentDrill*%
%ADD14C,1.000000*%
%TD*%
G04 APERTURE END LIST*
D10*
X108077000Y-85713987D03*
X108650000Y-83437500D03*
X108810000Y-82240000D03*
X109474000Y-91567000D03*
X111176000Y-92924000D03*
X111609500Y-94359500D03*
X112954000Y-85760000D03*
X112954000Y-87300000D03*
X113093500Y-86538000D03*
X114100000Y-82900000D03*
X114732000Y-92951500D03*
X115324423Y-82302422D03*
X116462294Y-83650010D03*
X116750000Y-82100000D03*
X117208500Y-93400000D03*
X118400000Y-98900000D03*
X119380000Y-83320000D03*
X119400000Y-94400000D03*
X120764500Y-94856500D03*
X120950000Y-98750000D03*
X121280368Y-92119664D03*
X121463000Y-83490000D03*
X121463000Y-84379000D03*
X121483380Y-93750010D03*
X121507410Y-82545688D03*
X121947810Y-85280500D03*
X122000000Y-92800000D03*
X122176746Y-94280008D03*
X122622234Y-89690959D03*
X122647820Y-86772705D03*
X122720000Y-90570000D03*
X123515613Y-94284387D03*
X124200000Y-91390000D03*
X124349382Y-95580608D03*
X124440000Y-89667590D03*
X125360000Y-89667590D03*
X126030022Y-91670000D03*
X126599987Y-88199857D03*
X127450000Y-88450000D03*
X128118000Y-86305000D03*
X128390000Y-85010000D03*
X129700000Y-90357590D03*
X129880000Y-85180000D03*
X129903079Y-94758902D03*
X130360000Y-91920000D03*
X130800000Y-90357590D03*
X131300000Y-86380000D03*
X132660000Y-90860000D03*
X133380000Y-96140000D03*
X133550000Y-83450000D03*
X133570000Y-88590000D03*
X134410000Y-96160000D03*
X135260000Y-93480000D03*
X136550000Y-95930000D03*
X136738374Y-84271871D03*
X138250000Y-84550000D03*
X138800000Y-94800000D03*
X139800000Y-91650000D03*
X142550000Y-81500000D03*
X143292164Y-82052410D03*
X143600000Y-96100000D03*
X144380000Y-82310000D03*
X144600000Y-96200000D03*
X145545469Y-82502188D03*
X146172000Y-94428000D03*
X146650000Y-82650000D03*
X147500000Y-83140000D03*
X148250000Y-88400000D03*
X149450000Y-90150000D03*
X150100000Y-89600000D03*
X151387039Y-92234629D03*
X151638000Y-85344000D03*
X153700000Y-89400000D03*
X153750000Y-88250000D03*
X158830000Y-94940000D03*
X158950000Y-96200000D03*
D11*
X100830000Y-84640000D03*
X100965000Y-90868500D03*
X101390000Y-82600000D03*
X102400000Y-88100000D03*
X103358000Y-82920998D03*
X108077000Y-86614000D03*
X109220000Y-89471500D03*
X111090000Y-82580000D03*
X112260000Y-82480000D03*
X115892400Y-87942400D03*
X115892400Y-88992400D03*
X116992400Y-87942400D03*
X116992400Y-88992400D03*
X118142400Y-87942400D03*
X118142400Y-88892400D03*
X118142400Y-89842400D03*
X118273443Y-83157943D03*
X118863484Y-90601736D03*
X119218010Y-95302018D03*
X123444000Y-82296000D03*
X125984539Y-82395580D03*
X127910000Y-93250000D03*
X128189965Y-83162510D03*
X130350000Y-93950000D03*
X132700000Y-87500000D03*
X135938000Y-92426000D03*
X137161262Y-93547590D03*
X141400000Y-85500000D03*
X141400000Y-86900000D03*
X141400000Y-89550000D03*
X141450000Y-88200000D03*
X142145907Y-92470431D03*
X142750000Y-89500000D03*
X142800000Y-86900000D03*
X142800000Y-88200000D03*
X142850000Y-85500000D03*
X143850000Y-88200000D03*
X143850000Y-89500000D03*
X144050000Y-85550000D03*
X144100000Y-86900000D03*
X145300000Y-85600000D03*
X145350000Y-86850000D03*
X148249586Y-89349737D03*
X149051352Y-93464725D03*
X149098000Y-91630500D03*
X151250000Y-84250000D03*
X152200000Y-91000000D03*
D12*
%TO.C,J1*%
X159825000Y-84715000D02*
X159125000Y-84715000D01*
X159825000Y-93065000D02*
X159125000Y-93065000D01*
D13*
X156575000Y-86665000D02*
X156375000Y-86665000D01*
X156575000Y-91115000D02*
X156375000Y-91115000D01*
D14*
%TO.C,J2*%
X101900000Y-80000000D03*
X104440000Y-80000000D03*
X106980000Y-80000000D03*
X109520000Y-80000000D03*
X112060000Y-80000000D03*
X114600000Y-80000000D03*
X117140000Y-80000000D03*
X119680000Y-80000000D03*
X122220000Y-80000000D03*
X124760000Y-80000000D03*
X127300000Y-80000000D03*
X129840000Y-80000000D03*
X132380000Y-80000000D03*
X134920000Y-80000000D03*
X137460000Y-80000000D03*
X140000000Y-80000000D03*
X142540000Y-80000000D03*
X145080000Y-80000000D03*
X147620000Y-80000000D03*
X150160000Y-80000000D03*
X152700000Y-80000000D03*
X155240000Y-80000000D03*
X157780000Y-80000000D03*
X160320000Y-80000000D03*
%TO.C,J3*%
X101900000Y-97780000D03*
X104440000Y-97780000D03*
X106980000Y-97780000D03*
X109520000Y-97780000D03*
X112060000Y-97780000D03*
X114600000Y-97780000D03*
X117140000Y-97780000D03*
X119680000Y-97780000D03*
X122220000Y-97780000D03*
X124760000Y-97780000D03*
X127300000Y-97780000D03*
X129840000Y-97780000D03*
X132380000Y-97780000D03*
X134920000Y-97780000D03*
X137460000Y-97780000D03*
X140000000Y-97780000D03*
X142540000Y-97780000D03*
X145080000Y-97780000D03*
X147620000Y-97780000D03*
X150160000Y-97780000D03*
X152700000Y-97780000D03*
X155240000Y-97780000D03*
X157780000Y-97780000D03*
X160320000Y-97780000D03*
%TO.C,J4*%
X102700000Y-92040000D03*
X102700000Y-94580000D03*
M02*
