%TF.GenerationSoftware,KiCad,Pcbnew,(5.1.5)-3*%
%TF.CreationDate,2020-07-20T00:16:58-07:00*%
%TF.ProjectId,UPduino_v3.0,55506475-696e-46f5-9f76-332e302e6b69,3.0*%
%TF.SameCoordinates,Original*%
%TF.FileFunction,Legend,Top*%
%TF.FilePolarity,Positive*%
%FSLAX46Y46*%
G04 Gerber Fmt 4.6, Leading zero omitted, Abs format (unit mm)*
G04 Created by KiCad (PCBNEW (5.1.5)-3) date 2020-07-20 00:16:58*
%MOMM*%
%LPD*%
G04 APERTURE LIST*
%ADD10C,0.200000*%
%ADD11C,0.120000*%
%ADD12C,0.150000*%
%ADD13C,0.050000*%
%ADD14C,0.127000*%
%ADD15C,0.010000*%
%ADD16C,0.100000*%
G04 APERTURE END LIST*
D10*
X113696761Y-82379619D02*
X113696761Y-83270095D01*
X113749142Y-83374857D01*
X113801523Y-83427238D01*
X113906285Y-83479619D01*
X114115809Y-83479619D01*
X114220571Y-83427238D01*
X114272952Y-83374857D01*
X114325333Y-83270095D01*
X114325333Y-82379619D01*
X114849142Y-83479619D02*
X114849142Y-82379619D01*
X115268190Y-82379619D01*
X115372952Y-82432000D01*
X115425333Y-82484380D01*
X115477714Y-82589142D01*
X115477714Y-82746285D01*
X115425333Y-82851047D01*
X115372952Y-82903428D01*
X115268190Y-82955809D01*
X114849142Y-82955809D01*
X116420571Y-83479619D02*
X116420571Y-82379619D01*
X116420571Y-83427238D02*
X116315809Y-83479619D01*
X116106285Y-83479619D01*
X116001523Y-83427238D01*
X115949142Y-83374857D01*
X115896761Y-83270095D01*
X115896761Y-82955809D01*
X115949142Y-82851047D01*
X116001523Y-82798666D01*
X116106285Y-82746285D01*
X116315809Y-82746285D01*
X116420571Y-82798666D01*
X117415809Y-82746285D02*
X117415809Y-83479619D01*
X116944380Y-82746285D02*
X116944380Y-83322476D01*
X116996761Y-83427238D01*
X117101523Y-83479619D01*
X117258666Y-83479619D01*
X117363428Y-83427238D01*
X117415809Y-83374857D01*
X117939619Y-83479619D02*
X117939619Y-82746285D01*
X117939619Y-82379619D02*
X117887238Y-82432000D01*
X117939619Y-82484380D01*
X117992000Y-82432000D01*
X117939619Y-82379619D01*
X117939619Y-82484380D01*
X118463428Y-82746285D02*
X118463428Y-83479619D01*
X118463428Y-82851047D02*
X118515809Y-82798666D01*
X118620571Y-82746285D01*
X118777714Y-82746285D01*
X118882476Y-82798666D01*
X118934857Y-82903428D01*
X118934857Y-83479619D01*
X119615809Y-83479619D02*
X119511047Y-83427238D01*
X119458666Y-83374857D01*
X119406285Y-83270095D01*
X119406285Y-82955809D01*
X119458666Y-82851047D01*
X119511047Y-82798666D01*
X119615809Y-82746285D01*
X119772952Y-82746285D01*
X119877714Y-82798666D01*
X119930095Y-82851047D01*
X119982476Y-82955809D01*
X119982476Y-83270095D01*
X119930095Y-83374857D01*
X119877714Y-83427238D01*
X119772952Y-83479619D01*
X119615809Y-83479619D01*
X121187238Y-82379619D02*
X121868190Y-82379619D01*
X121501523Y-82798666D01*
X121658666Y-82798666D01*
X121763428Y-82851047D01*
X121815809Y-82903428D01*
X121868190Y-83008190D01*
X121868190Y-83270095D01*
X121815809Y-83374857D01*
X121763428Y-83427238D01*
X121658666Y-83479619D01*
X121344380Y-83479619D01*
X121239619Y-83427238D01*
X121187238Y-83374857D01*
X122339619Y-83374857D02*
X122392000Y-83427238D01*
X122339619Y-83479619D01*
X122287238Y-83427238D01*
X122339619Y-83374857D01*
X122339619Y-83479619D01*
X123072952Y-82379619D02*
X123177714Y-82379619D01*
X123282476Y-82432000D01*
X123334857Y-82484380D01*
X123387238Y-82589142D01*
X123439619Y-82798666D01*
X123439619Y-83060571D01*
X123387238Y-83270095D01*
X123334857Y-83374857D01*
X123282476Y-83427238D01*
X123177714Y-83479619D01*
X123072952Y-83479619D01*
X122968190Y-83427238D01*
X122915809Y-83374857D01*
X122863428Y-83270095D01*
X122811047Y-83060571D01*
X122811047Y-82798666D01*
X122863428Y-82589142D01*
X122915809Y-82484380D01*
X122968190Y-82432000D01*
X123072952Y-82379619D01*
D11*
X131826000Y-90932000D02*
X134874000Y-90932000D01*
X131572000Y-91186000D02*
X131572000Y-93980000D01*
X136398000Y-91186000D02*
X136398000Y-93980000D01*
X135128000Y-91186000D02*
X135128000Y-93980000D01*
D12*
X136175714Y-93662380D02*
X136213809Y-93700476D01*
X136251904Y-93814761D01*
X136251904Y-93890952D01*
X136213809Y-94005238D01*
X136137619Y-94081428D01*
X136061428Y-94119523D01*
X135909047Y-94157619D01*
X135794761Y-94157619D01*
X135642380Y-94119523D01*
X135566190Y-94081428D01*
X135490000Y-94005238D01*
X135451904Y-93890952D01*
X135451904Y-93814761D01*
X135490000Y-93700476D01*
X135528095Y-93662380D01*
X136251904Y-92862380D02*
X135870952Y-93129047D01*
X136251904Y-93319523D02*
X135451904Y-93319523D01*
X135451904Y-93014761D01*
X135490000Y-92938571D01*
X135528095Y-92900476D01*
X135604285Y-92862380D01*
X135718571Y-92862380D01*
X135794761Y-92900476D01*
X135832857Y-92938571D01*
X135870952Y-93014761D01*
X135870952Y-93319523D01*
X136023333Y-92557619D02*
X136023333Y-92176666D01*
X136251904Y-92633809D02*
X135451904Y-92367142D01*
X136251904Y-92100476D01*
X136251904Y-91833809D02*
X135451904Y-91833809D01*
X136023333Y-91567142D01*
X135451904Y-91300476D01*
X136251904Y-91300476D01*
X132207142Y-94938857D02*
X131940476Y-94938857D01*
X131940476Y-95357904D02*
X131940476Y-94557904D01*
X132321428Y-94557904D01*
X132740476Y-95357904D02*
X132664285Y-95319809D01*
X132626190Y-95243619D01*
X132626190Y-94557904D01*
X133388095Y-95357904D02*
X133388095Y-94938857D01*
X133350000Y-94862666D01*
X133273809Y-94824571D01*
X133121428Y-94824571D01*
X133045238Y-94862666D01*
X133388095Y-95319809D02*
X133311904Y-95357904D01*
X133121428Y-95357904D01*
X133045238Y-95319809D01*
X133007142Y-95243619D01*
X133007142Y-95167428D01*
X133045238Y-95091238D01*
X133121428Y-95053142D01*
X133311904Y-95053142D01*
X133388095Y-95015047D01*
X133730952Y-95319809D02*
X133807142Y-95357904D01*
X133959523Y-95357904D01*
X134035714Y-95319809D01*
X134073809Y-95243619D01*
X134073809Y-95205523D01*
X134035714Y-95129333D01*
X133959523Y-95091238D01*
X133845238Y-95091238D01*
X133769047Y-95053142D01*
X133730952Y-94976952D01*
X133730952Y-94938857D01*
X133769047Y-94862666D01*
X133845238Y-94824571D01*
X133959523Y-94824571D01*
X134035714Y-94862666D01*
X134416666Y-95357904D02*
X134416666Y-94557904D01*
X134759523Y-95357904D02*
X134759523Y-94938857D01*
X134721428Y-94862666D01*
X134645238Y-94824571D01*
X134530952Y-94824571D01*
X134454761Y-94862666D01*
X134416666Y-94900761D01*
D11*
X131826000Y-95504000D02*
X135128000Y-95504000D01*
X131826000Y-94234000D02*
X135128000Y-94234000D01*
D13*
X100000000Y-78480000D02*
G75*
G02X100700000Y-77780000I700000J0D01*
G01*
X161300000Y-77780000D02*
G75*
G02X162000000Y-78480000I0J-700000D01*
G01*
X162000000Y-99300000D02*
G75*
G02X161300000Y-100000000I-700000J0D01*
G01*
X100700000Y-100000000D02*
G75*
G02X100000000Y-99300000I0J700000D01*
G01*
D12*
X153572904Y-89909523D02*
X154220523Y-89909523D01*
X154296714Y-89871428D01*
X154334809Y-89833333D01*
X154372904Y-89757142D01*
X154372904Y-89604761D01*
X154334809Y-89528571D01*
X154296714Y-89490476D01*
X154220523Y-89452380D01*
X153572904Y-89452380D01*
X154334809Y-89109523D02*
X154372904Y-88995238D01*
X154372904Y-88804761D01*
X154334809Y-88728571D01*
X154296714Y-88690476D01*
X154220523Y-88652380D01*
X154144333Y-88652380D01*
X154068142Y-88690476D01*
X154030047Y-88728571D01*
X153991952Y-88804761D01*
X153953857Y-88957142D01*
X153915761Y-89033333D01*
X153877666Y-89071428D01*
X153801476Y-89109523D01*
X153725285Y-89109523D01*
X153649095Y-89071428D01*
X153611000Y-89033333D01*
X153572904Y-88957142D01*
X153572904Y-88766666D01*
X153611000Y-88652380D01*
X153953857Y-88042857D02*
X153991952Y-87928571D01*
X154030047Y-87890476D01*
X154106238Y-87852380D01*
X154220523Y-87852380D01*
X154296714Y-87890476D01*
X154334809Y-87928571D01*
X154372904Y-88004761D01*
X154372904Y-88309523D01*
X153572904Y-88309523D01*
X153572904Y-88042857D01*
X153611000Y-87966666D01*
X153649095Y-87928571D01*
X153725285Y-87890476D01*
X153801476Y-87890476D01*
X153877666Y-87928571D01*
X153915761Y-87966666D01*
X153953857Y-88042857D01*
X153953857Y-88309523D01*
X155303857Y-89985714D02*
X155341952Y-89871428D01*
X155380047Y-89833333D01*
X155456238Y-89795238D01*
X155570523Y-89795238D01*
X155646714Y-89833333D01*
X155684809Y-89871428D01*
X155722904Y-89947619D01*
X155722904Y-90252380D01*
X154922904Y-90252380D01*
X154922904Y-89985714D01*
X154961000Y-89909523D01*
X154999095Y-89871428D01*
X155075285Y-89833333D01*
X155151476Y-89833333D01*
X155227666Y-89871428D01*
X155265761Y-89909523D01*
X155303857Y-89985714D01*
X155303857Y-90252380D01*
X154922904Y-89300000D02*
X154922904Y-89147619D01*
X154961000Y-89071428D01*
X155037190Y-88995238D01*
X155189571Y-88957142D01*
X155456238Y-88957142D01*
X155608619Y-88995238D01*
X155684809Y-89071428D01*
X155722904Y-89147619D01*
X155722904Y-89300000D01*
X155684809Y-89376190D01*
X155608619Y-89452380D01*
X155456238Y-89490476D01*
X155189571Y-89490476D01*
X155037190Y-89452380D01*
X154961000Y-89376190D01*
X154922904Y-89300000D01*
X154922904Y-88461904D02*
X154922904Y-88309523D01*
X154961000Y-88233333D01*
X155037190Y-88157142D01*
X155189571Y-88119047D01*
X155456238Y-88119047D01*
X155608619Y-88157142D01*
X155684809Y-88233333D01*
X155722904Y-88309523D01*
X155722904Y-88461904D01*
X155684809Y-88538095D01*
X155608619Y-88614285D01*
X155456238Y-88652380D01*
X155189571Y-88652380D01*
X155037190Y-88614285D01*
X154961000Y-88538095D01*
X154922904Y-88461904D01*
X154922904Y-87890476D02*
X154922904Y-87433333D01*
X155722904Y-87661904D02*
X154922904Y-87661904D01*
X152812857Y-95827904D02*
X152965238Y-95827904D01*
X153041428Y-95866000D01*
X153117619Y-95942190D01*
X153155714Y-96094571D01*
X153155714Y-96361238D01*
X153117619Y-96513619D01*
X153041428Y-96589809D01*
X152965238Y-96627904D01*
X152812857Y-96627904D01*
X152736666Y-96589809D01*
X152660476Y-96513619D01*
X152622380Y-96361238D01*
X152622380Y-96094571D01*
X152660476Y-95942190D01*
X152736666Y-95866000D01*
X152812857Y-95827904D01*
X153460476Y-96589809D02*
X153574761Y-96627904D01*
X153765238Y-96627904D01*
X153841428Y-96589809D01*
X153879523Y-96551714D01*
X153917619Y-96475523D01*
X153917619Y-96399333D01*
X153879523Y-96323142D01*
X153841428Y-96285047D01*
X153765238Y-96246952D01*
X153612857Y-96208857D01*
X153536666Y-96170761D01*
X153498571Y-96132666D01*
X153460476Y-96056476D01*
X153460476Y-95980285D01*
X153498571Y-95904095D01*
X153536666Y-95866000D01*
X153612857Y-95827904D01*
X153803333Y-95827904D01*
X153917619Y-95866000D01*
X154717619Y-96551714D02*
X154679523Y-96589809D01*
X154565238Y-96627904D01*
X154489047Y-96627904D01*
X154374761Y-96589809D01*
X154298571Y-96513619D01*
X154260476Y-96437428D01*
X154222380Y-96285047D01*
X154222380Y-96170761D01*
X154260476Y-96018380D01*
X154298571Y-95942190D01*
X154374761Y-95866000D01*
X154489047Y-95827904D01*
X154565238Y-95827904D01*
X154679523Y-95866000D01*
X154717619Y-95904095D01*
X128486000Y-86188571D02*
X128486000Y-86988571D01*
X128486000Y-86683809D02*
X128409809Y-86721904D01*
X128257428Y-86721904D01*
X128181238Y-86683809D01*
X128143142Y-86645714D01*
X128105047Y-86569523D01*
X128105047Y-86340952D01*
X128143142Y-86264761D01*
X128181238Y-86226666D01*
X128257428Y-86188571D01*
X128409809Y-86188571D01*
X128486000Y-86226666D01*
X128828857Y-86683809D02*
X128943142Y-86721904D01*
X129133619Y-86721904D01*
X129209809Y-86683809D01*
X129247904Y-86645714D01*
X129286000Y-86569523D01*
X129286000Y-86493333D01*
X129247904Y-86417142D01*
X129209809Y-86379047D01*
X129133619Y-86340952D01*
X128981238Y-86302857D01*
X128905047Y-86264761D01*
X128866952Y-86226666D01*
X128828857Y-86150476D01*
X128828857Y-86074285D01*
X128866952Y-85998095D01*
X128905047Y-85960000D01*
X128981238Y-85921904D01*
X129171714Y-85921904D01*
X129286000Y-85960000D01*
X129628857Y-86721904D02*
X129628857Y-85921904D01*
X129933619Y-85921904D01*
X130009809Y-85960000D01*
X130047904Y-85998095D01*
X130086000Y-86074285D01*
X130086000Y-86188571D01*
X130047904Y-86264761D01*
X130009809Y-86302857D01*
X129933619Y-86340952D01*
X129628857Y-86340952D01*
X130428857Y-86721904D02*
X130428857Y-85921904D01*
X106719047Y-90361904D02*
X107214285Y-90361904D01*
X106947619Y-90666666D01*
X107061904Y-90666666D01*
X107138095Y-90704761D01*
X107176190Y-90742857D01*
X107214285Y-90819047D01*
X107214285Y-91009523D01*
X107176190Y-91085714D01*
X107138095Y-91123809D01*
X107061904Y-91161904D01*
X106833333Y-91161904D01*
X106757142Y-91123809D01*
X106719047Y-91085714D01*
X107557142Y-91085714D02*
X107595238Y-91123809D01*
X107557142Y-91161904D01*
X107519047Y-91123809D01*
X107557142Y-91085714D01*
X107557142Y-91161904D01*
X107861904Y-90361904D02*
X108357142Y-90361904D01*
X108090476Y-90666666D01*
X108204761Y-90666666D01*
X108280952Y-90704761D01*
X108319047Y-90742857D01*
X108357142Y-90819047D01*
X108357142Y-91009523D01*
X108319047Y-91085714D01*
X108280952Y-91123809D01*
X108204761Y-91161904D01*
X107976190Y-91161904D01*
X107900000Y-91123809D01*
X107861904Y-91085714D01*
X108585714Y-90361904D02*
X108852380Y-91161904D01*
X109119047Y-90361904D01*
X103823809Y-90239904D02*
X104090476Y-91039904D01*
X104357142Y-90239904D01*
X104623809Y-91039904D02*
X104623809Y-90239904D01*
X105157142Y-90239904D02*
X105309523Y-90239904D01*
X105385714Y-90278000D01*
X105461904Y-90354190D01*
X105500000Y-90506571D01*
X105500000Y-90773238D01*
X105461904Y-90925619D01*
X105385714Y-91001809D01*
X105309523Y-91039904D01*
X105157142Y-91039904D01*
X105080952Y-91001809D01*
X105004761Y-90925619D01*
X104966666Y-90773238D01*
X104966666Y-90506571D01*
X105004761Y-90354190D01*
X105080952Y-90278000D01*
X105157142Y-90239904D01*
X102895428Y-89046095D02*
X102933523Y-89008000D01*
X103009714Y-88969904D01*
X103200190Y-88969904D01*
X103276380Y-89008000D01*
X103314476Y-89046095D01*
X103352571Y-89122285D01*
X103352571Y-89198476D01*
X103314476Y-89312761D01*
X102857333Y-89769904D01*
X103352571Y-89769904D01*
X103085904Y-87445904D02*
X103162095Y-87445904D01*
X103238285Y-87484000D01*
X103276380Y-87522095D01*
X103314476Y-87598285D01*
X103352571Y-87750666D01*
X103352571Y-87941142D01*
X103314476Y-88093523D01*
X103276380Y-88169714D01*
X103238285Y-88207809D01*
X103162095Y-88245904D01*
X103085904Y-88245904D01*
X103009714Y-88207809D01*
X102971619Y-88169714D01*
X102933523Y-88093523D01*
X102895428Y-87941142D01*
X102895428Y-87750666D01*
X102933523Y-87598285D01*
X102971619Y-87522095D01*
X103009714Y-87484000D01*
X103085904Y-87445904D01*
X101409523Y-86342857D02*
X101523809Y-86380952D01*
X101561904Y-86419047D01*
X101600000Y-86495238D01*
X101600000Y-86609523D01*
X101561904Y-86685714D01*
X101523809Y-86723809D01*
X101447619Y-86761904D01*
X101142857Y-86761904D01*
X101142857Y-85961904D01*
X101409523Y-85961904D01*
X101485714Y-86000000D01*
X101523809Y-86038095D01*
X101561904Y-86114285D01*
X101561904Y-86190476D01*
X101523809Y-86266666D01*
X101485714Y-86304761D01*
X101409523Y-86342857D01*
X101142857Y-86342857D01*
X102285714Y-86761904D02*
X102285714Y-86342857D01*
X102247619Y-86266666D01*
X102171428Y-86228571D01*
X102019047Y-86228571D01*
X101942857Y-86266666D01*
X102285714Y-86723809D02*
X102209523Y-86761904D01*
X102019047Y-86761904D01*
X101942857Y-86723809D01*
X101904761Y-86647619D01*
X101904761Y-86571428D01*
X101942857Y-86495238D01*
X102019047Y-86457142D01*
X102209523Y-86457142D01*
X102285714Y-86419047D01*
X102666666Y-86228571D02*
X102666666Y-86761904D01*
X102666666Y-86304761D02*
X102704761Y-86266666D01*
X102780952Y-86228571D01*
X102895238Y-86228571D01*
X102971428Y-86266666D01*
X103009523Y-86342857D01*
X103009523Y-86761904D01*
X103390476Y-86761904D02*
X103390476Y-85961904D01*
X103466666Y-86457142D02*
X103695238Y-86761904D01*
X103695238Y-86228571D02*
X103390476Y-86533333D01*
X104285714Y-86061904D02*
X104552380Y-86861904D01*
X104819047Y-86061904D01*
X105085714Y-86861904D02*
X105085714Y-86061904D01*
X105619047Y-86061904D02*
X105771428Y-86061904D01*
X105847619Y-86100000D01*
X105923809Y-86176190D01*
X105961904Y-86328571D01*
X105961904Y-86595238D01*
X105923809Y-86747619D01*
X105847619Y-86823809D01*
X105771428Y-86861904D01*
X105619047Y-86861904D01*
X105542857Y-86823809D01*
X105466666Y-86747619D01*
X105428571Y-86595238D01*
X105428571Y-86328571D01*
X105466666Y-86176190D01*
X105542857Y-86100000D01*
X105619047Y-86061904D01*
X106876190Y-86823809D02*
X106990476Y-86861904D01*
X107180952Y-86861904D01*
X107257142Y-86823809D01*
X107295238Y-86785714D01*
X107333333Y-86709523D01*
X107333333Y-86633333D01*
X107295238Y-86557142D01*
X107257142Y-86519047D01*
X107180952Y-86480952D01*
X107028571Y-86442857D01*
X106952380Y-86404761D01*
X106914285Y-86366666D01*
X106876190Y-86290476D01*
X106876190Y-86214285D01*
X106914285Y-86138095D01*
X106952380Y-86100000D01*
X107028571Y-86061904D01*
X107219047Y-86061904D01*
X107333333Y-86100000D01*
X107980952Y-86823809D02*
X107904761Y-86861904D01*
X107752380Y-86861904D01*
X107676190Y-86823809D01*
X107638095Y-86747619D01*
X107638095Y-86442857D01*
X107676190Y-86366666D01*
X107752380Y-86328571D01*
X107904761Y-86328571D01*
X107980952Y-86366666D01*
X108019047Y-86442857D01*
X108019047Y-86519047D01*
X107638095Y-86595238D01*
X108476190Y-86861904D02*
X108400000Y-86823809D01*
X108361904Y-86747619D01*
X108361904Y-86061904D01*
D14*
X100416666Y-91623333D02*
X100416666Y-91956666D01*
X100750000Y-91990000D01*
X100716666Y-91956666D01*
X100683333Y-91890000D01*
X100683333Y-91723333D01*
X100716666Y-91656666D01*
X100750000Y-91623333D01*
X100816666Y-91590000D01*
X100983333Y-91590000D01*
X101050000Y-91623333D01*
X101083333Y-91656666D01*
X101116666Y-91723333D01*
X101116666Y-91890000D01*
X101083333Y-91956666D01*
X101050000Y-91990000D01*
X100416666Y-91390000D02*
X101116666Y-91156666D01*
X100416666Y-90923333D01*
X100440000Y-95153333D02*
X100406666Y-95220000D01*
X100406666Y-95320000D01*
X100440000Y-95420000D01*
X100506666Y-95486666D01*
X100573333Y-95520000D01*
X100706666Y-95553333D01*
X100806666Y-95553333D01*
X100940000Y-95520000D01*
X101006666Y-95486666D01*
X101073333Y-95420000D01*
X101106666Y-95320000D01*
X101106666Y-95253333D01*
X101073333Y-95153333D01*
X101040000Y-95120000D01*
X100806666Y-95120000D01*
X100806666Y-95253333D01*
X101106666Y-94820000D02*
X100406666Y-94820000D01*
X101106666Y-94420000D01*
X100406666Y-94420000D01*
X101106666Y-94086666D02*
X100406666Y-94086666D01*
X100406666Y-93920000D01*
X100440000Y-93820000D01*
X100506666Y-93753333D01*
X100573333Y-93720000D01*
X100706666Y-93686666D01*
X100806666Y-93686666D01*
X100940000Y-93720000D01*
X101006666Y-93753333D01*
X101073333Y-93820000D01*
X101106666Y-93920000D01*
X101106666Y-94086666D01*
D11*
X147106066Y-90725000D02*
G75*
G03X147106066Y-90725000I-106066J0D01*
G01*
X143170774Y-92550000D02*
G75*
G03X143170774Y-92550000I-145774J0D01*
G01*
X127784629Y-84675000D02*
G75*
G03X127784629Y-84675000I-134629J0D01*
G01*
X114700000Y-92300000D02*
G75*
G03X114700000Y-92300000I-125000J0D01*
G01*
D14*
X149676666Y-98923333D02*
X149710000Y-98890000D01*
X149776666Y-98856666D01*
X149943333Y-98856666D01*
X150010000Y-98890000D01*
X150043333Y-98923333D01*
X150076666Y-98990000D01*
X150076666Y-99056666D01*
X150043333Y-99156666D01*
X149643333Y-99556666D01*
X150076666Y-99556666D01*
X150510000Y-98856666D02*
X150576666Y-98856666D01*
X150643333Y-98890000D01*
X150676666Y-98923333D01*
X150710000Y-98990000D01*
X150743333Y-99123333D01*
X150743333Y-99290000D01*
X150710000Y-99423333D01*
X150676666Y-99490000D01*
X150643333Y-99523333D01*
X150576666Y-99556666D01*
X150510000Y-99556666D01*
X150443333Y-99523333D01*
X150410000Y-99490000D01*
X150376666Y-99423333D01*
X150343333Y-99290000D01*
X150343333Y-99123333D01*
X150376666Y-98990000D01*
X150410000Y-98923333D01*
X150443333Y-98890000D01*
X150510000Y-98856666D01*
X147516666Y-99606666D02*
X147116666Y-99606666D01*
X147316666Y-99606666D02*
X147316666Y-98906666D01*
X147250000Y-99006666D01*
X147183333Y-99073333D01*
X147116666Y-99106666D01*
X147950000Y-98906666D02*
X148016666Y-98906666D01*
X148083333Y-98940000D01*
X148116666Y-98973333D01*
X148150000Y-99040000D01*
X148183333Y-99173333D01*
X148183333Y-99340000D01*
X148150000Y-99473333D01*
X148116666Y-99540000D01*
X148083333Y-99573333D01*
X148016666Y-99606666D01*
X147950000Y-99606666D01*
X147883333Y-99573333D01*
X147850000Y-99540000D01*
X147816666Y-99473333D01*
X147783333Y-99340000D01*
X147783333Y-99173333D01*
X147816666Y-99040000D01*
X147850000Y-98973333D01*
X147883333Y-98940000D01*
X147950000Y-98906666D01*
X142138666Y-99681666D02*
X141738666Y-99681666D01*
X141938666Y-99681666D02*
X141938666Y-98981666D01*
X141872000Y-99081666D01*
X141805333Y-99148333D01*
X141738666Y-99181666D01*
X142405333Y-99048333D02*
X142438666Y-99015000D01*
X142505333Y-98981666D01*
X142672000Y-98981666D01*
X142738666Y-99015000D01*
X142772000Y-99048333D01*
X142805333Y-99115000D01*
X142805333Y-99181666D01*
X142772000Y-99281666D01*
X142372000Y-99681666D01*
X142805333Y-99681666D01*
X143105333Y-99681666D02*
X143105333Y-98981666D01*
X143338666Y-99481666D01*
X143572000Y-98981666D01*
X143572000Y-99681666D01*
X152173333Y-99533333D02*
X152273333Y-99566666D01*
X152440000Y-99566666D01*
X152506666Y-99533333D01*
X152540000Y-99500000D01*
X152573333Y-99433333D01*
X152573333Y-99366666D01*
X152540000Y-99300000D01*
X152506666Y-99266666D01*
X152440000Y-99233333D01*
X152306666Y-99200000D01*
X152240000Y-99166666D01*
X152206666Y-99133333D01*
X152173333Y-99066666D01*
X152173333Y-99000000D01*
X152206666Y-98933333D01*
X152240000Y-98900000D01*
X152306666Y-98866666D01*
X152473333Y-98866666D01*
X152573333Y-98900000D01*
X153006666Y-98866666D02*
X153140000Y-98866666D01*
X153206666Y-98900000D01*
X153273333Y-98966666D01*
X153306666Y-99100000D01*
X153306666Y-99333333D01*
X153273333Y-99466666D01*
X153206666Y-99533333D01*
X153140000Y-99566666D01*
X153006666Y-99566666D01*
X152940000Y-99533333D01*
X152873333Y-99466666D01*
X152840000Y-99333333D01*
X152840000Y-99100000D01*
X152873333Y-98966666D01*
X152940000Y-98900000D01*
X153006666Y-98866666D01*
X154793333Y-99553333D02*
X154893333Y-99586666D01*
X155060000Y-99586666D01*
X155126666Y-99553333D01*
X155160000Y-99520000D01*
X155193333Y-99453333D01*
X155193333Y-99386666D01*
X155160000Y-99320000D01*
X155126666Y-99286666D01*
X155060000Y-99253333D01*
X154926666Y-99220000D01*
X154860000Y-99186666D01*
X154826666Y-99153333D01*
X154793333Y-99086666D01*
X154793333Y-99020000D01*
X154826666Y-98953333D01*
X154860000Y-98920000D01*
X154926666Y-98886666D01*
X155093333Y-98886666D01*
X155193333Y-98920000D01*
X155493333Y-99586666D02*
X155493333Y-98886666D01*
X156860000Y-99563333D02*
X156960000Y-99596666D01*
X157126666Y-99596666D01*
X157193333Y-99563333D01*
X157226666Y-99530000D01*
X157260000Y-99463333D01*
X157260000Y-99396666D01*
X157226666Y-99330000D01*
X157193333Y-99296666D01*
X157126666Y-99263333D01*
X156993333Y-99230000D01*
X156926666Y-99196666D01*
X156893333Y-99163333D01*
X156860000Y-99096666D01*
X156860000Y-99030000D01*
X156893333Y-98963333D01*
X156926666Y-98930000D01*
X156993333Y-98896666D01*
X157160000Y-98896666D01*
X157260000Y-98930000D01*
X157960000Y-99530000D02*
X157926666Y-99563333D01*
X157826666Y-99596666D01*
X157760000Y-99596666D01*
X157660000Y-99563333D01*
X157593333Y-99496666D01*
X157560000Y-99430000D01*
X157526666Y-99296666D01*
X157526666Y-99196666D01*
X157560000Y-99063333D01*
X157593333Y-98996666D01*
X157660000Y-98930000D01*
X157760000Y-98896666D01*
X157826666Y-98896666D01*
X157926666Y-98930000D01*
X157960000Y-98963333D01*
X158260000Y-99596666D02*
X158260000Y-98896666D01*
X158660000Y-99596666D02*
X158360000Y-99196666D01*
X158660000Y-98896666D02*
X158260000Y-99296666D01*
X159766666Y-99603333D02*
X159866666Y-99636666D01*
X160033333Y-99636666D01*
X160100000Y-99603333D01*
X160133333Y-99570000D01*
X160166666Y-99503333D01*
X160166666Y-99436666D01*
X160133333Y-99370000D01*
X160100000Y-99336666D01*
X160033333Y-99303333D01*
X159900000Y-99270000D01*
X159833333Y-99236666D01*
X159800000Y-99203333D01*
X159766666Y-99136666D01*
X159766666Y-99070000D01*
X159800000Y-99003333D01*
X159833333Y-98970000D01*
X159900000Y-98936666D01*
X160066666Y-98936666D01*
X160166666Y-98970000D01*
X160433333Y-99603333D02*
X160533333Y-99636666D01*
X160700000Y-99636666D01*
X160766666Y-99603333D01*
X160800000Y-99570000D01*
X160833333Y-99503333D01*
X160833333Y-99436666D01*
X160800000Y-99370000D01*
X160766666Y-99336666D01*
X160700000Y-99303333D01*
X160566666Y-99270000D01*
X160500000Y-99236666D01*
X160466666Y-99203333D01*
X160433333Y-99136666D01*
X160433333Y-99070000D01*
X160466666Y-99003333D01*
X160500000Y-98970000D01*
X160566666Y-98936666D01*
X160733333Y-98936666D01*
X160833333Y-98970000D01*
X144678666Y-99015000D02*
X144612000Y-98981666D01*
X144512000Y-98981666D01*
X144412000Y-99015000D01*
X144345333Y-99081666D01*
X144312000Y-99148333D01*
X144278666Y-99281666D01*
X144278666Y-99381666D01*
X144312000Y-99515000D01*
X144345333Y-99581666D01*
X144412000Y-99648333D01*
X144512000Y-99681666D01*
X144578666Y-99681666D01*
X144678666Y-99648333D01*
X144712000Y-99615000D01*
X144712000Y-99381666D01*
X144578666Y-99381666D01*
X145012000Y-99681666D02*
X145012000Y-98981666D01*
X145412000Y-99681666D01*
X145412000Y-98981666D01*
X145745333Y-99681666D02*
X145745333Y-98981666D01*
X145912000Y-98981666D01*
X146012000Y-99015000D01*
X146078666Y-99081666D01*
X146112000Y-99148333D01*
X146145333Y-99281666D01*
X146145333Y-99381666D01*
X146112000Y-99515000D01*
X146078666Y-99581666D01*
X146012000Y-99648333D01*
X145912000Y-99681666D01*
X145745333Y-99681666D01*
X139836666Y-99566666D02*
X139436666Y-99566666D01*
X139636666Y-99566666D02*
X139636666Y-98866666D01*
X139570000Y-98966666D01*
X139503333Y-99033333D01*
X139436666Y-99066666D01*
X140103333Y-98933333D02*
X140136666Y-98900000D01*
X140203333Y-98866666D01*
X140370000Y-98866666D01*
X140436666Y-98900000D01*
X140470000Y-98933333D01*
X140503333Y-99000000D01*
X140503333Y-99066666D01*
X140470000Y-99166666D01*
X140070000Y-99566666D01*
X140503333Y-99566666D01*
X136986666Y-98923333D02*
X137020000Y-98890000D01*
X137086666Y-98856666D01*
X137253333Y-98856666D01*
X137320000Y-98890000D01*
X137353333Y-98923333D01*
X137386666Y-98990000D01*
X137386666Y-99056666D01*
X137353333Y-99156666D01*
X136953333Y-99556666D01*
X137386666Y-99556666D01*
X138053333Y-99556666D02*
X137653333Y-99556666D01*
X137853333Y-99556666D02*
X137853333Y-98856666D01*
X137786666Y-98956666D01*
X137720000Y-99023333D01*
X137653333Y-99056666D01*
X134736666Y-99576666D02*
X134336666Y-99576666D01*
X134536666Y-99576666D02*
X134536666Y-98876666D01*
X134470000Y-98976666D01*
X134403333Y-99043333D01*
X134336666Y-99076666D01*
X134970000Y-98876666D02*
X135403333Y-98876666D01*
X135170000Y-99143333D01*
X135270000Y-99143333D01*
X135336666Y-99176666D01*
X135370000Y-99210000D01*
X135403333Y-99276666D01*
X135403333Y-99443333D01*
X135370000Y-99510000D01*
X135336666Y-99543333D01*
X135270000Y-99576666D01*
X135070000Y-99576666D01*
X135003333Y-99543333D01*
X134970000Y-99510000D01*
X132216666Y-99546666D02*
X131816666Y-99546666D01*
X132016666Y-99546666D02*
X132016666Y-98846666D01*
X131950000Y-98946666D01*
X131883333Y-99013333D01*
X131816666Y-99046666D01*
X132550000Y-99546666D02*
X132683333Y-99546666D01*
X132750000Y-99513333D01*
X132783333Y-99480000D01*
X132850000Y-99380000D01*
X132883333Y-99246666D01*
X132883333Y-98980000D01*
X132850000Y-98913333D01*
X132816666Y-98880000D01*
X132750000Y-98846666D01*
X132616666Y-98846666D01*
X132550000Y-98880000D01*
X132516666Y-98913333D01*
X132483333Y-98980000D01*
X132483333Y-99146666D01*
X132516666Y-99213333D01*
X132550000Y-99246666D01*
X132616666Y-99280000D01*
X132750000Y-99280000D01*
X132816666Y-99246666D01*
X132850000Y-99213333D01*
X132883333Y-99146666D01*
X129646666Y-99566666D02*
X129246666Y-99566666D01*
X129446666Y-99566666D02*
X129446666Y-98866666D01*
X129380000Y-98966666D01*
X129313333Y-99033333D01*
X129246666Y-99066666D01*
X130046666Y-99166666D02*
X129980000Y-99133333D01*
X129946666Y-99100000D01*
X129913333Y-99033333D01*
X129913333Y-99000000D01*
X129946666Y-98933333D01*
X129980000Y-98900000D01*
X130046666Y-98866666D01*
X130180000Y-98866666D01*
X130246666Y-98900000D01*
X130280000Y-98933333D01*
X130313333Y-99000000D01*
X130313333Y-99033333D01*
X130280000Y-99100000D01*
X130246666Y-99133333D01*
X130180000Y-99166666D01*
X130046666Y-99166666D01*
X129980000Y-99200000D01*
X129946666Y-99233333D01*
X129913333Y-99300000D01*
X129913333Y-99433333D01*
X129946666Y-99500000D01*
X129980000Y-99533333D01*
X130046666Y-99566666D01*
X130180000Y-99566666D01*
X130246666Y-99533333D01*
X130280000Y-99500000D01*
X130313333Y-99433333D01*
X130313333Y-99300000D01*
X130280000Y-99233333D01*
X130246666Y-99200000D01*
X130180000Y-99166666D01*
X127186666Y-99576666D02*
X126786666Y-99576666D01*
X126986666Y-99576666D02*
X126986666Y-98876666D01*
X126920000Y-98976666D01*
X126853333Y-99043333D01*
X126786666Y-99076666D01*
X127853333Y-99576666D02*
X127453333Y-99576666D01*
X127653333Y-99576666D02*
X127653333Y-98876666D01*
X127586666Y-98976666D01*
X127520000Y-99043333D01*
X127453333Y-99076666D01*
X124616666Y-99586666D02*
X124750000Y-99586666D01*
X124816666Y-99553333D01*
X124850000Y-99520000D01*
X124916666Y-99420000D01*
X124950000Y-99286666D01*
X124950000Y-99020000D01*
X124916666Y-98953333D01*
X124883333Y-98920000D01*
X124816666Y-98886666D01*
X124683333Y-98886666D01*
X124616666Y-98920000D01*
X124583333Y-98953333D01*
X124550000Y-99020000D01*
X124550000Y-99186666D01*
X124583333Y-99253333D01*
X124616666Y-99286666D01*
X124683333Y-99320000D01*
X124816666Y-99320000D01*
X124883333Y-99286666D01*
X124916666Y-99253333D01*
X124950000Y-99186666D01*
X122383333Y-98876666D02*
X122250000Y-98876666D01*
X122183333Y-98910000D01*
X122150000Y-98943333D01*
X122083333Y-99043333D01*
X122050000Y-99176666D01*
X122050000Y-99443333D01*
X122083333Y-99510000D01*
X122116666Y-99543333D01*
X122183333Y-99576666D01*
X122316666Y-99576666D01*
X122383333Y-99543333D01*
X122416666Y-99510000D01*
X122450000Y-99443333D01*
X122450000Y-99276666D01*
X122416666Y-99210000D01*
X122383333Y-99176666D01*
X122316666Y-99143333D01*
X122183333Y-99143333D01*
X122116666Y-99176666D01*
X122083333Y-99210000D01*
X122050000Y-99276666D01*
X119480000Y-99100000D02*
X119480000Y-99566666D01*
X119313333Y-98833333D02*
X119146666Y-99333333D01*
X119580000Y-99333333D01*
X120146666Y-99100000D02*
X120146666Y-99566666D01*
X119980000Y-98833333D02*
X119813333Y-99333333D01*
X120246666Y-99333333D01*
X117263333Y-99160000D02*
X117263333Y-99626666D01*
X117096666Y-98893333D02*
X116930000Y-99393333D01*
X117363333Y-99393333D01*
X114406666Y-98856666D02*
X114840000Y-98856666D01*
X114606666Y-99123333D01*
X114706666Y-99123333D01*
X114773333Y-99156666D01*
X114806666Y-99190000D01*
X114840000Y-99256666D01*
X114840000Y-99423333D01*
X114806666Y-99490000D01*
X114773333Y-99523333D01*
X114706666Y-99556666D01*
X114506666Y-99556666D01*
X114440000Y-99523333D01*
X114406666Y-99490000D01*
X111820000Y-99090000D02*
X111820000Y-99556666D01*
X111653333Y-98823333D02*
X111486666Y-99323333D01*
X111920000Y-99323333D01*
X112286666Y-99156666D02*
X112220000Y-99123333D01*
X112186666Y-99090000D01*
X112153333Y-99023333D01*
X112153333Y-98990000D01*
X112186666Y-98923333D01*
X112220000Y-98890000D01*
X112286666Y-98856666D01*
X112420000Y-98856666D01*
X112486666Y-98890000D01*
X112520000Y-98923333D01*
X112553333Y-98990000D01*
X112553333Y-99023333D01*
X112520000Y-99090000D01*
X112486666Y-99123333D01*
X112420000Y-99156666D01*
X112286666Y-99156666D01*
X112220000Y-99190000D01*
X112186666Y-99223333D01*
X112153333Y-99290000D01*
X112153333Y-99423333D01*
X112186666Y-99490000D01*
X112220000Y-99523333D01*
X112286666Y-99556666D01*
X112420000Y-99556666D01*
X112486666Y-99523333D01*
X112520000Y-99490000D01*
X112553333Y-99423333D01*
X112553333Y-99290000D01*
X112520000Y-99223333D01*
X112486666Y-99190000D01*
X112420000Y-99156666D01*
X109310000Y-99140000D02*
X109310000Y-99606666D01*
X109143333Y-98873333D02*
X108976666Y-99373333D01*
X109410000Y-99373333D01*
X110010000Y-98906666D02*
X109676666Y-98906666D01*
X109643333Y-99240000D01*
X109676666Y-99206666D01*
X109743333Y-99173333D01*
X109910000Y-99173333D01*
X109976666Y-99206666D01*
X110010000Y-99240000D01*
X110043333Y-99306666D01*
X110043333Y-99473333D01*
X110010000Y-99540000D01*
X109976666Y-99573333D01*
X109910000Y-99606666D01*
X109743333Y-99606666D01*
X109676666Y-99573333D01*
X109643333Y-99540000D01*
X106780000Y-99140000D02*
X106780000Y-99606666D01*
X106613333Y-98873333D02*
X106446666Y-99373333D01*
X106880000Y-99373333D01*
X107080000Y-98906666D02*
X107546666Y-98906666D01*
X107246666Y-99606666D01*
X104250000Y-99120000D02*
X104250000Y-99586666D01*
X104083333Y-98853333D02*
X103916666Y-99353333D01*
X104350000Y-99353333D01*
X104916666Y-98886666D02*
X104783333Y-98886666D01*
X104716666Y-98920000D01*
X104683333Y-98953333D01*
X104616666Y-99053333D01*
X104583333Y-99186666D01*
X104583333Y-99453333D01*
X104616666Y-99520000D01*
X104650000Y-99553333D01*
X104716666Y-99586666D01*
X104850000Y-99586666D01*
X104916666Y-99553333D01*
X104950000Y-99520000D01*
X104983333Y-99453333D01*
X104983333Y-99286666D01*
X104950000Y-99220000D01*
X104916666Y-99186666D01*
X104850000Y-99153333D01*
X104716666Y-99153333D01*
X104650000Y-99186666D01*
X104616666Y-99220000D01*
X104583333Y-99286666D01*
X101700000Y-98933333D02*
X101733333Y-98900000D01*
X101800000Y-98866666D01*
X101966666Y-98866666D01*
X102033333Y-98900000D01*
X102066666Y-98933333D01*
X102100000Y-99000000D01*
X102100000Y-99066666D01*
X102066666Y-99166666D01*
X101666666Y-99566666D01*
X102100000Y-99566666D01*
X159776666Y-78240000D02*
X159710000Y-78206666D01*
X159610000Y-78206666D01*
X159510000Y-78240000D01*
X159443333Y-78306666D01*
X159410000Y-78373333D01*
X159376666Y-78506666D01*
X159376666Y-78606666D01*
X159410000Y-78740000D01*
X159443333Y-78806666D01*
X159510000Y-78873333D01*
X159610000Y-78906666D01*
X159676666Y-78906666D01*
X159776666Y-78873333D01*
X159810000Y-78840000D01*
X159810000Y-78606666D01*
X159676666Y-78606666D01*
X160110000Y-78906666D02*
X160110000Y-78206666D01*
X160510000Y-78906666D01*
X160510000Y-78206666D01*
X160843333Y-78906666D02*
X160843333Y-78206666D01*
X161010000Y-78206666D01*
X161110000Y-78240000D01*
X161176666Y-78306666D01*
X161210000Y-78373333D01*
X161243333Y-78506666D01*
X161243333Y-78606666D01*
X161210000Y-78740000D01*
X161176666Y-78806666D01*
X161110000Y-78873333D01*
X161010000Y-78906666D01*
X160843333Y-78906666D01*
X156993333Y-78216666D02*
X157226666Y-78916666D01*
X157460000Y-78216666D01*
X157693333Y-78916666D02*
X157693333Y-78216666D01*
X158160000Y-78216666D02*
X158293333Y-78216666D01*
X158360000Y-78250000D01*
X158426666Y-78316666D01*
X158460000Y-78450000D01*
X158460000Y-78683333D01*
X158426666Y-78816666D01*
X158360000Y-78883333D01*
X158293333Y-78916666D01*
X158160000Y-78916666D01*
X158093333Y-78883333D01*
X158026666Y-78816666D01*
X157993333Y-78683333D01*
X157993333Y-78450000D01*
X158026666Y-78316666D01*
X158093333Y-78250000D01*
X158160000Y-78216666D01*
X154936666Y-78876666D02*
X154703333Y-78543333D01*
X154536666Y-78876666D02*
X154536666Y-78176666D01*
X154803333Y-78176666D01*
X154870000Y-78210000D01*
X154903333Y-78243333D01*
X154936666Y-78310000D01*
X154936666Y-78410000D01*
X154903333Y-78476666D01*
X154870000Y-78510000D01*
X154803333Y-78543333D01*
X154536666Y-78543333D01*
X155203333Y-78843333D02*
X155303333Y-78876666D01*
X155470000Y-78876666D01*
X155536666Y-78843333D01*
X155570000Y-78810000D01*
X155603333Y-78743333D01*
X155603333Y-78676666D01*
X155570000Y-78610000D01*
X155536666Y-78576666D01*
X155470000Y-78543333D01*
X155336666Y-78510000D01*
X155270000Y-78476666D01*
X155236666Y-78443333D01*
X155203333Y-78376666D01*
X155203333Y-78310000D01*
X155236666Y-78243333D01*
X155270000Y-78210000D01*
X155336666Y-78176666D01*
X155503333Y-78176666D01*
X155603333Y-78210000D01*
X155803333Y-78176666D02*
X156203333Y-78176666D01*
X156003333Y-78876666D02*
X156003333Y-78176666D01*
X151396666Y-78906666D02*
X151396666Y-78206666D01*
X151563333Y-78206666D01*
X151663333Y-78240000D01*
X151730000Y-78306666D01*
X151763333Y-78373333D01*
X151796666Y-78506666D01*
X151796666Y-78606666D01*
X151763333Y-78740000D01*
X151730000Y-78806666D01*
X151663333Y-78873333D01*
X151563333Y-78906666D01*
X151396666Y-78906666D01*
X152230000Y-78206666D02*
X152363333Y-78206666D01*
X152430000Y-78240000D01*
X152496666Y-78306666D01*
X152530000Y-78440000D01*
X152530000Y-78673333D01*
X152496666Y-78806666D01*
X152430000Y-78873333D01*
X152363333Y-78906666D01*
X152230000Y-78906666D01*
X152163333Y-78873333D01*
X152096666Y-78806666D01*
X152063333Y-78673333D01*
X152063333Y-78440000D01*
X152096666Y-78306666D01*
X152163333Y-78240000D01*
X152230000Y-78206666D01*
X152830000Y-78906666D02*
X152830000Y-78206666D01*
X153230000Y-78906666D01*
X153230000Y-78206666D01*
X153563333Y-78540000D02*
X153796666Y-78540000D01*
X153896666Y-78906666D02*
X153563333Y-78906666D01*
X153563333Y-78206666D01*
X153896666Y-78206666D01*
X150416666Y-78866666D02*
X150183333Y-78533333D01*
X150016666Y-78866666D02*
X150016666Y-78166666D01*
X150283333Y-78166666D01*
X150350000Y-78200000D01*
X150383333Y-78233333D01*
X150416666Y-78300000D01*
X150416666Y-78400000D01*
X150383333Y-78466666D01*
X150350000Y-78500000D01*
X150283333Y-78533333D01*
X150016666Y-78533333D01*
X147803333Y-78190000D02*
X147736666Y-78156666D01*
X147636666Y-78156666D01*
X147536666Y-78190000D01*
X147470000Y-78256666D01*
X147436666Y-78323333D01*
X147403333Y-78456666D01*
X147403333Y-78556666D01*
X147436666Y-78690000D01*
X147470000Y-78756666D01*
X147536666Y-78823333D01*
X147636666Y-78856666D01*
X147703333Y-78856666D01*
X147803333Y-78823333D01*
X147836666Y-78790000D01*
X147836666Y-78556666D01*
X147703333Y-78556666D01*
X145125000Y-78530000D02*
X145225000Y-78563333D01*
X145258333Y-78596666D01*
X145291666Y-78663333D01*
X145291666Y-78763333D01*
X145258333Y-78830000D01*
X145225000Y-78863333D01*
X145158333Y-78896666D01*
X144891666Y-78896666D01*
X144891666Y-78196666D01*
X145125000Y-78196666D01*
X145191666Y-78230000D01*
X145225000Y-78263333D01*
X145258333Y-78330000D01*
X145258333Y-78396666D01*
X145225000Y-78463333D01*
X145191666Y-78496666D01*
X145125000Y-78530000D01*
X144891666Y-78530000D01*
X142441666Y-78196666D02*
X142108333Y-78196666D01*
X142075000Y-78530000D01*
X142108333Y-78496666D01*
X142175000Y-78463333D01*
X142341666Y-78463333D01*
X142408333Y-78496666D01*
X142441666Y-78530000D01*
X142475000Y-78596666D01*
X142475000Y-78763333D01*
X142441666Y-78830000D01*
X142408333Y-78863333D01*
X142341666Y-78896666D01*
X142175000Y-78896666D01*
X142108333Y-78863333D01*
X142075000Y-78830000D01*
X142675000Y-78196666D02*
X142908333Y-78896666D01*
X143141666Y-78196666D01*
X139183333Y-78196666D02*
X139616666Y-78196666D01*
X139383333Y-78463333D01*
X139483333Y-78463333D01*
X139550000Y-78496666D01*
X139583333Y-78530000D01*
X139616666Y-78596666D01*
X139616666Y-78763333D01*
X139583333Y-78830000D01*
X139550000Y-78863333D01*
X139483333Y-78896666D01*
X139283333Y-78896666D01*
X139216666Y-78863333D01*
X139183333Y-78830000D01*
X139816666Y-78196666D02*
X140050000Y-78896666D01*
X140283333Y-78196666D01*
X140450000Y-78196666D02*
X140883333Y-78196666D01*
X140650000Y-78463333D01*
X140750000Y-78463333D01*
X140816666Y-78496666D01*
X140850000Y-78530000D01*
X140883333Y-78596666D01*
X140883333Y-78763333D01*
X140850000Y-78830000D01*
X140816666Y-78863333D01*
X140750000Y-78896666D01*
X140550000Y-78896666D01*
X140483333Y-78863333D01*
X140450000Y-78830000D01*
X136876666Y-78230000D02*
X136810000Y-78196666D01*
X136710000Y-78196666D01*
X136610000Y-78230000D01*
X136543333Y-78296666D01*
X136510000Y-78363333D01*
X136476666Y-78496666D01*
X136476666Y-78596666D01*
X136510000Y-78730000D01*
X136543333Y-78796666D01*
X136610000Y-78863333D01*
X136710000Y-78896666D01*
X136776666Y-78896666D01*
X136876666Y-78863333D01*
X136910000Y-78830000D01*
X136910000Y-78596666D01*
X136776666Y-78596666D01*
X137210000Y-78896666D02*
X137210000Y-78196666D01*
X137610000Y-78896666D01*
X137610000Y-78196666D01*
X137943333Y-78896666D02*
X137943333Y-78196666D01*
X138110000Y-78196666D01*
X138210000Y-78230000D01*
X138276666Y-78296666D01*
X138310000Y-78363333D01*
X138343333Y-78496666D01*
X138343333Y-78596666D01*
X138310000Y-78730000D01*
X138276666Y-78796666D01*
X138210000Y-78863333D01*
X138110000Y-78896666D01*
X137943333Y-78896666D01*
X134406666Y-78263333D02*
X134440000Y-78230000D01*
X134506666Y-78196666D01*
X134673333Y-78196666D01*
X134740000Y-78230000D01*
X134773333Y-78263333D01*
X134806666Y-78330000D01*
X134806666Y-78396666D01*
X134773333Y-78496666D01*
X134373333Y-78896666D01*
X134806666Y-78896666D01*
X135040000Y-78196666D02*
X135473333Y-78196666D01*
X135240000Y-78463333D01*
X135340000Y-78463333D01*
X135406666Y-78496666D01*
X135440000Y-78530000D01*
X135473333Y-78596666D01*
X135473333Y-78763333D01*
X135440000Y-78830000D01*
X135406666Y-78863333D01*
X135340000Y-78896666D01*
X135140000Y-78896666D01*
X135073333Y-78863333D01*
X135040000Y-78830000D01*
X131856666Y-78253333D02*
X131890000Y-78220000D01*
X131956666Y-78186666D01*
X132123333Y-78186666D01*
X132190000Y-78220000D01*
X132223333Y-78253333D01*
X132256666Y-78320000D01*
X132256666Y-78386666D01*
X132223333Y-78486666D01*
X131823333Y-78886666D01*
X132256666Y-78886666D01*
X132890000Y-78186666D02*
X132556666Y-78186666D01*
X132523333Y-78520000D01*
X132556666Y-78486666D01*
X132623333Y-78453333D01*
X132790000Y-78453333D01*
X132856666Y-78486666D01*
X132890000Y-78520000D01*
X132923333Y-78586666D01*
X132923333Y-78753333D01*
X132890000Y-78820000D01*
X132856666Y-78853333D01*
X132790000Y-78886666D01*
X132623333Y-78886666D01*
X132556666Y-78853333D01*
X132523333Y-78820000D01*
X129286666Y-78263333D02*
X129320000Y-78230000D01*
X129386666Y-78196666D01*
X129553333Y-78196666D01*
X129620000Y-78230000D01*
X129653333Y-78263333D01*
X129686666Y-78330000D01*
X129686666Y-78396666D01*
X129653333Y-78496666D01*
X129253333Y-78896666D01*
X129686666Y-78896666D01*
X130286666Y-78196666D02*
X130153333Y-78196666D01*
X130086666Y-78230000D01*
X130053333Y-78263333D01*
X129986666Y-78363333D01*
X129953333Y-78496666D01*
X129953333Y-78763333D01*
X129986666Y-78830000D01*
X130020000Y-78863333D01*
X130086666Y-78896666D01*
X130220000Y-78896666D01*
X130286666Y-78863333D01*
X130320000Y-78830000D01*
X130353333Y-78763333D01*
X130353333Y-78596666D01*
X130320000Y-78530000D01*
X130286666Y-78496666D01*
X130220000Y-78463333D01*
X130086666Y-78463333D01*
X130020000Y-78496666D01*
X129986666Y-78530000D01*
X129953333Y-78596666D01*
X126736666Y-78253333D02*
X126770000Y-78220000D01*
X126836666Y-78186666D01*
X127003333Y-78186666D01*
X127070000Y-78220000D01*
X127103333Y-78253333D01*
X127136666Y-78320000D01*
X127136666Y-78386666D01*
X127103333Y-78486666D01*
X126703333Y-78886666D01*
X127136666Y-78886666D01*
X127370000Y-78186666D02*
X127836666Y-78186666D01*
X127536666Y-78886666D01*
X124193333Y-78176666D02*
X124626666Y-78176666D01*
X124393333Y-78443333D01*
X124493333Y-78443333D01*
X124560000Y-78476666D01*
X124593333Y-78510000D01*
X124626666Y-78576666D01*
X124626666Y-78743333D01*
X124593333Y-78810000D01*
X124560000Y-78843333D01*
X124493333Y-78876666D01*
X124293333Y-78876666D01*
X124226666Y-78843333D01*
X124193333Y-78810000D01*
X124893333Y-78243333D02*
X124926666Y-78210000D01*
X124993333Y-78176666D01*
X125160000Y-78176666D01*
X125226666Y-78210000D01*
X125260000Y-78243333D01*
X125293333Y-78310000D01*
X125293333Y-78376666D01*
X125260000Y-78476666D01*
X124860000Y-78876666D01*
X125293333Y-78876666D01*
X121643333Y-78216666D02*
X122076666Y-78216666D01*
X121843333Y-78483333D01*
X121943333Y-78483333D01*
X122010000Y-78516666D01*
X122043333Y-78550000D01*
X122076666Y-78616666D01*
X122076666Y-78783333D01*
X122043333Y-78850000D01*
X122010000Y-78883333D01*
X121943333Y-78916666D01*
X121743333Y-78916666D01*
X121676666Y-78883333D01*
X121643333Y-78850000D01*
X122710000Y-78216666D02*
X122376666Y-78216666D01*
X122343333Y-78550000D01*
X122376666Y-78516666D01*
X122443333Y-78483333D01*
X122610000Y-78483333D01*
X122676666Y-78516666D01*
X122710000Y-78550000D01*
X122743333Y-78616666D01*
X122743333Y-78783333D01*
X122710000Y-78850000D01*
X122676666Y-78883333D01*
X122610000Y-78916666D01*
X122443333Y-78916666D01*
X122376666Y-78883333D01*
X122343333Y-78850000D01*
X119143333Y-78176666D02*
X119576666Y-78176666D01*
X119343333Y-78443333D01*
X119443333Y-78443333D01*
X119510000Y-78476666D01*
X119543333Y-78510000D01*
X119576666Y-78576666D01*
X119576666Y-78743333D01*
X119543333Y-78810000D01*
X119510000Y-78843333D01*
X119443333Y-78876666D01*
X119243333Y-78876666D01*
X119176666Y-78843333D01*
X119143333Y-78810000D01*
X120243333Y-78876666D02*
X119843333Y-78876666D01*
X120043333Y-78876666D02*
X120043333Y-78176666D01*
X119976666Y-78276666D01*
X119910000Y-78343333D01*
X119843333Y-78376666D01*
X116593333Y-78226666D02*
X117026666Y-78226666D01*
X116793333Y-78493333D01*
X116893333Y-78493333D01*
X116960000Y-78526666D01*
X116993333Y-78560000D01*
X117026666Y-78626666D01*
X117026666Y-78793333D01*
X116993333Y-78860000D01*
X116960000Y-78893333D01*
X116893333Y-78926666D01*
X116693333Y-78926666D01*
X116626666Y-78893333D01*
X116593333Y-78860000D01*
X117260000Y-78226666D02*
X117726666Y-78226666D01*
X117426666Y-78926666D01*
X114033333Y-78206666D02*
X114466666Y-78206666D01*
X114233333Y-78473333D01*
X114333333Y-78473333D01*
X114400000Y-78506666D01*
X114433333Y-78540000D01*
X114466666Y-78606666D01*
X114466666Y-78773333D01*
X114433333Y-78840000D01*
X114400000Y-78873333D01*
X114333333Y-78906666D01*
X114133333Y-78906666D01*
X114066666Y-78873333D01*
X114033333Y-78840000D01*
X115066666Y-78440000D02*
X115066666Y-78906666D01*
X114900000Y-78173333D02*
X114733333Y-78673333D01*
X115166666Y-78673333D01*
X111830000Y-78430000D02*
X111830000Y-78896666D01*
X111663333Y-78163333D02*
X111496666Y-78663333D01*
X111930000Y-78663333D01*
X112130000Y-78196666D02*
X112563333Y-78196666D01*
X112330000Y-78463333D01*
X112430000Y-78463333D01*
X112496666Y-78496666D01*
X112530000Y-78530000D01*
X112563333Y-78596666D01*
X112563333Y-78763333D01*
X112530000Y-78830000D01*
X112496666Y-78863333D01*
X112430000Y-78896666D01*
X112230000Y-78896666D01*
X112163333Y-78863333D01*
X112130000Y-78830000D01*
X108943333Y-78206666D02*
X109376666Y-78206666D01*
X109143333Y-78473333D01*
X109243333Y-78473333D01*
X109310000Y-78506666D01*
X109343333Y-78540000D01*
X109376666Y-78606666D01*
X109376666Y-78773333D01*
X109343333Y-78840000D01*
X109310000Y-78873333D01*
X109243333Y-78906666D01*
X109043333Y-78906666D01*
X108976666Y-78873333D01*
X108943333Y-78840000D01*
X109976666Y-78206666D02*
X109843333Y-78206666D01*
X109776666Y-78240000D01*
X109743333Y-78273333D01*
X109676666Y-78373333D01*
X109643333Y-78506666D01*
X109643333Y-78773333D01*
X109676666Y-78840000D01*
X109710000Y-78873333D01*
X109776666Y-78906666D01*
X109910000Y-78906666D01*
X109976666Y-78873333D01*
X110010000Y-78840000D01*
X110043333Y-78773333D01*
X110043333Y-78606666D01*
X110010000Y-78540000D01*
X109976666Y-78506666D01*
X109910000Y-78473333D01*
X109776666Y-78473333D01*
X109710000Y-78506666D01*
X109676666Y-78540000D01*
X109643333Y-78606666D01*
X106750000Y-78410000D02*
X106750000Y-78876666D01*
X106583333Y-78143333D02*
X106416666Y-78643333D01*
X106850000Y-78643333D01*
X107083333Y-78243333D02*
X107116666Y-78210000D01*
X107183333Y-78176666D01*
X107350000Y-78176666D01*
X107416666Y-78210000D01*
X107450000Y-78243333D01*
X107483333Y-78310000D01*
X107483333Y-78376666D01*
X107450000Y-78476666D01*
X107050000Y-78876666D01*
X107483333Y-78876666D01*
X103843333Y-78196666D02*
X104276666Y-78196666D01*
X104043333Y-78463333D01*
X104143333Y-78463333D01*
X104210000Y-78496666D01*
X104243333Y-78530000D01*
X104276666Y-78596666D01*
X104276666Y-78763333D01*
X104243333Y-78830000D01*
X104210000Y-78863333D01*
X104143333Y-78896666D01*
X103943333Y-78896666D01*
X103876666Y-78863333D01*
X103843333Y-78830000D01*
X104676666Y-78496666D02*
X104610000Y-78463333D01*
X104576666Y-78430000D01*
X104543333Y-78363333D01*
X104543333Y-78330000D01*
X104576666Y-78263333D01*
X104610000Y-78230000D01*
X104676666Y-78196666D01*
X104810000Y-78196666D01*
X104876666Y-78230000D01*
X104910000Y-78263333D01*
X104943333Y-78330000D01*
X104943333Y-78363333D01*
X104910000Y-78430000D01*
X104876666Y-78463333D01*
X104810000Y-78496666D01*
X104676666Y-78496666D01*
X104610000Y-78530000D01*
X104576666Y-78563333D01*
X104543333Y-78630000D01*
X104543333Y-78763333D01*
X104576666Y-78830000D01*
X104610000Y-78863333D01*
X104676666Y-78896666D01*
X104810000Y-78896666D01*
X104876666Y-78863333D01*
X104910000Y-78830000D01*
X104943333Y-78763333D01*
X104943333Y-78630000D01*
X104910000Y-78563333D01*
X104876666Y-78530000D01*
X104810000Y-78496666D01*
X101276666Y-78208333D02*
X101310000Y-78175000D01*
X101376666Y-78141666D01*
X101543333Y-78141666D01*
X101610000Y-78175000D01*
X101643333Y-78208333D01*
X101676666Y-78275000D01*
X101676666Y-78341666D01*
X101643333Y-78441666D01*
X101243333Y-78841666D01*
X101676666Y-78841666D01*
X102076666Y-78441666D02*
X102010000Y-78408333D01*
X101976666Y-78375000D01*
X101943333Y-78308333D01*
X101943333Y-78275000D01*
X101976666Y-78208333D01*
X102010000Y-78175000D01*
X102076666Y-78141666D01*
X102210000Y-78141666D01*
X102276666Y-78175000D01*
X102310000Y-78208333D01*
X102343333Y-78275000D01*
X102343333Y-78308333D01*
X102310000Y-78375000D01*
X102276666Y-78408333D01*
X102210000Y-78441666D01*
X102076666Y-78441666D01*
X102010000Y-78475000D01*
X101976666Y-78508333D01*
X101943333Y-78575000D01*
X101943333Y-78708333D01*
X101976666Y-78775000D01*
X102010000Y-78808333D01*
X102076666Y-78841666D01*
X102210000Y-78841666D01*
X102276666Y-78808333D01*
X102310000Y-78775000D01*
X102343333Y-78708333D01*
X102343333Y-78575000D01*
X102310000Y-78508333D01*
X102276666Y-78475000D01*
X102210000Y-78441666D01*
D13*
X162000000Y-93200000D02*
X161000000Y-93200000D01*
X162000000Y-84500000D02*
X161000000Y-84500000D01*
X161000000Y-93200000D02*
X161000000Y-84500000D01*
X162000000Y-99300000D02*
X162000000Y-93200000D01*
X100000000Y-78480000D02*
X100000000Y-99300000D01*
X161300000Y-77780000D02*
X100700000Y-77780000D01*
X162000000Y-84500000D02*
X162000000Y-78480000D01*
X100700000Y-100000000D02*
X161300000Y-100000000D01*
D11*
X109533803Y-86646000D02*
G75*
G03X109533803Y-86646000I-111803J0D01*
G01*
X109472000Y-88196000D02*
X112372000Y-88196000D01*
X109472000Y-85896000D02*
X112372000Y-85896000D01*
X109472000Y-86496000D02*
X109472000Y-85896000D01*
X127672800Y-86572200D02*
X127672800Y-84897200D01*
X127932800Y-86572200D02*
X127672800Y-86572200D01*
X127932800Y-89297200D02*
X127932800Y-86572200D01*
X127932800Y-92022200D02*
X127672800Y-92022200D01*
X127932800Y-89297200D02*
X127932800Y-92022200D01*
X122482800Y-86572200D02*
X122742800Y-86572200D01*
X122482800Y-89297200D02*
X122482800Y-86572200D01*
X122482800Y-92022200D02*
X122742800Y-92022200D01*
X122482800Y-89297200D02*
X122482800Y-92022200D01*
X134780000Y-92822779D02*
X134780000Y-92497221D01*
X133760000Y-92822779D02*
X133760000Y-92497221D01*
X133287221Y-92370000D02*
X133612779Y-92370000D01*
X133287221Y-91350000D02*
X133612779Y-91350000D01*
X133297221Y-93980000D02*
X133622779Y-93980000D01*
X133297221Y-92960000D02*
X133622779Y-92960000D01*
X133180000Y-92812779D02*
X133180000Y-92487221D01*
X132160000Y-92812779D02*
X132160000Y-92487221D01*
D15*
G36*
X109793898Y-95298286D02*
G01*
X109866282Y-95298286D01*
X109915939Y-95447292D01*
X109935203Y-95506077D01*
X109951890Y-95558822D01*
X109964319Y-95600085D01*
X109970808Y-95624423D01*
X109971061Y-95625697D01*
X109976466Y-95645414D01*
X109988556Y-95684262D01*
X110006118Y-95738508D01*
X110027935Y-95804419D01*
X110052792Y-95878262D01*
X110064526Y-95912735D01*
X110152524Y-96170375D01*
X110167727Y-96118354D01*
X110181490Y-96076356D01*
X110196559Y-96037436D01*
X110199857Y-96030048D01*
X110213661Y-95996395D01*
X110229101Y-95953022D01*
X110235457Y-95933286D01*
X110256318Y-95868157D01*
X110276680Y-95808903D01*
X110294271Y-95761955D01*
X110303767Y-95739762D01*
X110314092Y-95714259D01*
X110327465Y-95676519D01*
X110334496Y-95655095D01*
X110356770Y-95589226D01*
X110383662Y-95515729D01*
X110410439Y-95447368D01*
X110420425Y-95423458D01*
X110431603Y-95393916D01*
X110436727Y-95373536D01*
X110436762Y-95372622D01*
X110441433Y-95352914D01*
X110450799Y-95329093D01*
X110464836Y-95298286D01*
X110686656Y-95298286D01*
X110756642Y-95298753D01*
X110817230Y-95300053D01*
X110864708Y-95302031D01*
X110895362Y-95304534D01*
X110905498Y-95307357D01*
X110907222Y-95324905D01*
X110916134Y-95360736D01*
X110931002Y-95410452D01*
X110950592Y-95469659D01*
X110952681Y-95475696D01*
X110965282Y-95515654D01*
X110974748Y-95552052D01*
X110976197Y-95559210D01*
X110985925Y-95594408D01*
X110995763Y-95617657D01*
X111004818Y-95638476D01*
X111005521Y-95646622D01*
X111006933Y-95659588D01*
X111015078Y-95691122D01*
X111028702Y-95736959D01*
X111046553Y-95792835D01*
X111062330Y-95839845D01*
X111078161Y-95889764D01*
X111086737Y-95927849D01*
X111089639Y-95951429D01*
X111094132Y-95951023D01*
X111104038Y-95934102D01*
X111116604Y-95906920D01*
X111129074Y-95875732D01*
X111138694Y-95846793D01*
X111142083Y-95832343D01*
X111147129Y-95812015D01*
X111158283Y-95772867D01*
X111174268Y-95719111D01*
X111193806Y-95654960D01*
X111215616Y-95584630D01*
X111238422Y-95512333D01*
X111252743Y-95467619D01*
X111268015Y-95418280D01*
X111281043Y-95372690D01*
X111289235Y-95339953D01*
X111289717Y-95337595D01*
X111297446Y-95298286D01*
X111423485Y-95298286D01*
X111481311Y-95299392D01*
X111523338Y-95302499D01*
X111546256Y-95307290D01*
X111549524Y-95310381D01*
X111542173Y-95322142D01*
X111539937Y-95322476D01*
X111531514Y-95333058D01*
X111520861Y-95359973D01*
X111515384Y-95378435D01*
X111503581Y-95417809D01*
X111486487Y-95469188D01*
X111467619Y-95522043D01*
X111465920Y-95526602D01*
X111446356Y-95580066D01*
X111427367Y-95633899D01*
X111412863Y-95677003D01*
X111412131Y-95679286D01*
X111403103Y-95706867D01*
X111387538Y-95753626D01*
X111366687Y-95815839D01*
X111341802Y-95889782D01*
X111314133Y-95971730D01*
X111286193Y-96054238D01*
X111179546Y-96368714D01*
X111057245Y-96372149D01*
X110934944Y-96375583D01*
X110883804Y-96220958D01*
X110864221Y-96162949D01*
X110846593Y-96112939D01*
X110832618Y-96075591D01*
X110823995Y-96055573D01*
X110822984Y-96053956D01*
X110815501Y-96037080D01*
X110804198Y-96003213D01*
X110791186Y-95958817D01*
X110787524Y-95945381D01*
X110774410Y-95899195D01*
X110762413Y-95861729D01*
X110753644Y-95839445D01*
X110752054Y-95836806D01*
X110744377Y-95820712D01*
X110731990Y-95788666D01*
X110717379Y-95747811D01*
X110703033Y-95705288D01*
X110691441Y-95668240D01*
X110685436Y-95645572D01*
X110678786Y-95624027D01*
X110669237Y-95598979D01*
X110659829Y-95573183D01*
X110645926Y-95531546D01*
X110629953Y-95481409D01*
X110623302Y-95459883D01*
X110607922Y-95411681D01*
X110594159Y-95372227D01*
X110584091Y-95347329D01*
X110581130Y-95342193D01*
X110572063Y-95345190D01*
X110561551Y-95365947D01*
X110559423Y-95372431D01*
X110540610Y-95430469D01*
X110518793Y-95491567D01*
X110498063Y-95544439D01*
X110492078Y-95558333D01*
X110477654Y-95594812D01*
X110463366Y-95636975D01*
X110461538Y-95643000D01*
X110449618Y-95680124D01*
X110438284Y-95710825D01*
X110436247Y-95715571D01*
X110420561Y-95754422D01*
X110400240Y-95810942D01*
X110377248Y-95879529D01*
X110362018Y-95927238D01*
X110348188Y-95968841D01*
X110335845Y-96001552D01*
X110327860Y-96017952D01*
X110318152Y-96037008D01*
X110306915Y-96067770D01*
X110305483Y-96072381D01*
X110290332Y-96119614D01*
X110273723Y-96167187D01*
X110257957Y-96208962D01*
X110245329Y-96238799D01*
X110238969Y-96250016D01*
X110232592Y-96267284D01*
X110231143Y-96283644D01*
X110226378Y-96309883D01*
X110220172Y-96320938D01*
X110209643Y-96339621D01*
X110198310Y-96370234D01*
X110196957Y-96374762D01*
X110177234Y-96436085D01*
X110153029Y-96496532D01*
X110120497Y-96565458D01*
X110110112Y-96586095D01*
X110082568Y-96635545D01*
X110056251Y-96669696D01*
X110024716Y-96696188D01*
X110008077Y-96707047D01*
X109975579Y-96725515D01*
X109946050Y-96736781D01*
X109911260Y-96742812D01*
X109862973Y-96745573D01*
X109844774Y-96746055D01*
X109796170Y-96746213D01*
X109756645Y-96744568D01*
X109732574Y-96741454D01*
X109728876Y-96740007D01*
X109721578Y-96723626D01*
X109717445Y-96692717D01*
X109717095Y-96680018D01*
X109717095Y-96628464D01*
X109765476Y-96636105D01*
X109841478Y-96642083D01*
X109901640Y-96632546D01*
X109949396Y-96606593D01*
X109974758Y-96581290D01*
X109986827Y-96562099D01*
X110005394Y-96527694D01*
X110027065Y-96484935D01*
X110048448Y-96440682D01*
X110066150Y-96401797D01*
X110076777Y-96375140D01*
X110076900Y-96374762D01*
X110076817Y-96348733D01*
X110072737Y-96337118D01*
X110063577Y-96311561D01*
X110055806Y-96278249D01*
X110045574Y-96239135D01*
X110032878Y-96207035D01*
X110024531Y-96186379D01*
X110010185Y-96146528D01*
X109991164Y-96091341D01*
X109968791Y-96024680D01*
X109944388Y-95950405D01*
X109934924Y-95921191D01*
X109910453Y-95846314D01*
X109887797Y-95778797D01*
X109868199Y-95722193D01*
X109852899Y-95680059D01*
X109843138Y-95655952D01*
X109841000Y-95652071D01*
X109834057Y-95639043D01*
X109835846Y-95636952D01*
X109835416Y-95626353D01*
X109827435Y-95597181D01*
X109813208Y-95553375D01*
X109794039Y-95498876D01*
X109771230Y-95437622D01*
X109761800Y-95413191D01*
X109741504Y-95361077D01*
X109730379Y-95327655D01*
X109729581Y-95308794D01*
X109740262Y-95300363D01*
X109763577Y-95298231D01*
X109793898Y-95298286D01*
G37*
X109793898Y-95298286D02*
X109866282Y-95298286D01*
X109915939Y-95447292D01*
X109935203Y-95506077D01*
X109951890Y-95558822D01*
X109964319Y-95600085D01*
X109970808Y-95624423D01*
X109971061Y-95625697D01*
X109976466Y-95645414D01*
X109988556Y-95684262D01*
X110006118Y-95738508D01*
X110027935Y-95804419D01*
X110052792Y-95878262D01*
X110064526Y-95912735D01*
X110152524Y-96170375D01*
X110167727Y-96118354D01*
X110181490Y-96076356D01*
X110196559Y-96037436D01*
X110199857Y-96030048D01*
X110213661Y-95996395D01*
X110229101Y-95953022D01*
X110235457Y-95933286D01*
X110256318Y-95868157D01*
X110276680Y-95808903D01*
X110294271Y-95761955D01*
X110303767Y-95739762D01*
X110314092Y-95714259D01*
X110327465Y-95676519D01*
X110334496Y-95655095D01*
X110356770Y-95589226D01*
X110383662Y-95515729D01*
X110410439Y-95447368D01*
X110420425Y-95423458D01*
X110431603Y-95393916D01*
X110436727Y-95373536D01*
X110436762Y-95372622D01*
X110441433Y-95352914D01*
X110450799Y-95329093D01*
X110464836Y-95298286D01*
X110686656Y-95298286D01*
X110756642Y-95298753D01*
X110817230Y-95300053D01*
X110864708Y-95302031D01*
X110895362Y-95304534D01*
X110905498Y-95307357D01*
X110907222Y-95324905D01*
X110916134Y-95360736D01*
X110931002Y-95410452D01*
X110950592Y-95469659D01*
X110952681Y-95475696D01*
X110965282Y-95515654D01*
X110974748Y-95552052D01*
X110976197Y-95559210D01*
X110985925Y-95594408D01*
X110995763Y-95617657D01*
X111004818Y-95638476D01*
X111005521Y-95646622D01*
X111006933Y-95659588D01*
X111015078Y-95691122D01*
X111028702Y-95736959D01*
X111046553Y-95792835D01*
X111062330Y-95839845D01*
X111078161Y-95889764D01*
X111086737Y-95927849D01*
X111089639Y-95951429D01*
X111094132Y-95951023D01*
X111104038Y-95934102D01*
X111116604Y-95906920D01*
X111129074Y-95875732D01*
X111138694Y-95846793D01*
X111142083Y-95832343D01*
X111147129Y-95812015D01*
X111158283Y-95772867D01*
X111174268Y-95719111D01*
X111193806Y-95654960D01*
X111215616Y-95584630D01*
X111238422Y-95512333D01*
X111252743Y-95467619D01*
X111268015Y-95418280D01*
X111281043Y-95372690D01*
X111289235Y-95339953D01*
X111289717Y-95337595D01*
X111297446Y-95298286D01*
X111423485Y-95298286D01*
X111481311Y-95299392D01*
X111523338Y-95302499D01*
X111546256Y-95307290D01*
X111549524Y-95310381D01*
X111542173Y-95322142D01*
X111539937Y-95322476D01*
X111531514Y-95333058D01*
X111520861Y-95359973D01*
X111515384Y-95378435D01*
X111503581Y-95417809D01*
X111486487Y-95469188D01*
X111467619Y-95522043D01*
X111465920Y-95526602D01*
X111446356Y-95580066D01*
X111427367Y-95633899D01*
X111412863Y-95677003D01*
X111412131Y-95679286D01*
X111403103Y-95706867D01*
X111387538Y-95753626D01*
X111366687Y-95815839D01*
X111341802Y-95889782D01*
X111314133Y-95971730D01*
X111286193Y-96054238D01*
X111179546Y-96368714D01*
X111057245Y-96372149D01*
X110934944Y-96375583D01*
X110883804Y-96220958D01*
X110864221Y-96162949D01*
X110846593Y-96112939D01*
X110832618Y-96075591D01*
X110823995Y-96055573D01*
X110822984Y-96053956D01*
X110815501Y-96037080D01*
X110804198Y-96003213D01*
X110791186Y-95958817D01*
X110787524Y-95945381D01*
X110774410Y-95899195D01*
X110762413Y-95861729D01*
X110753644Y-95839445D01*
X110752054Y-95836806D01*
X110744377Y-95820712D01*
X110731990Y-95788666D01*
X110717379Y-95747811D01*
X110703033Y-95705288D01*
X110691441Y-95668240D01*
X110685436Y-95645572D01*
X110678786Y-95624027D01*
X110669237Y-95598979D01*
X110659829Y-95573183D01*
X110645926Y-95531546D01*
X110629953Y-95481409D01*
X110623302Y-95459883D01*
X110607922Y-95411681D01*
X110594159Y-95372227D01*
X110584091Y-95347329D01*
X110581130Y-95342193D01*
X110572063Y-95345190D01*
X110561551Y-95365947D01*
X110559423Y-95372431D01*
X110540610Y-95430469D01*
X110518793Y-95491567D01*
X110498063Y-95544439D01*
X110492078Y-95558333D01*
X110477654Y-95594812D01*
X110463366Y-95636975D01*
X110461538Y-95643000D01*
X110449618Y-95680124D01*
X110438284Y-95710825D01*
X110436247Y-95715571D01*
X110420561Y-95754422D01*
X110400240Y-95810942D01*
X110377248Y-95879529D01*
X110362018Y-95927238D01*
X110348188Y-95968841D01*
X110335845Y-96001552D01*
X110327860Y-96017952D01*
X110318152Y-96037008D01*
X110306915Y-96067770D01*
X110305483Y-96072381D01*
X110290332Y-96119614D01*
X110273723Y-96167187D01*
X110257957Y-96208962D01*
X110245329Y-96238799D01*
X110238969Y-96250016D01*
X110232592Y-96267284D01*
X110231143Y-96283644D01*
X110226378Y-96309883D01*
X110220172Y-96320938D01*
X110209643Y-96339621D01*
X110198310Y-96370234D01*
X110196957Y-96374762D01*
X110177234Y-96436085D01*
X110153029Y-96496532D01*
X110120497Y-96565458D01*
X110110112Y-96586095D01*
X110082568Y-96635545D01*
X110056251Y-96669696D01*
X110024716Y-96696188D01*
X110008077Y-96707047D01*
X109975579Y-96725515D01*
X109946050Y-96736781D01*
X109911260Y-96742812D01*
X109862973Y-96745573D01*
X109844774Y-96746055D01*
X109796170Y-96746213D01*
X109756645Y-96744568D01*
X109732574Y-96741454D01*
X109728876Y-96740007D01*
X109721578Y-96723626D01*
X109717445Y-96692717D01*
X109717095Y-96680018D01*
X109717095Y-96628464D01*
X109765476Y-96636105D01*
X109841478Y-96642083D01*
X109901640Y-96632546D01*
X109949396Y-96606593D01*
X109974758Y-96581290D01*
X109986827Y-96562099D01*
X110005394Y-96527694D01*
X110027065Y-96484935D01*
X110048448Y-96440682D01*
X110066150Y-96401797D01*
X110076777Y-96375140D01*
X110076900Y-96374762D01*
X110076817Y-96348733D01*
X110072737Y-96337118D01*
X110063577Y-96311561D01*
X110055806Y-96278249D01*
X110045574Y-96239135D01*
X110032878Y-96207035D01*
X110024531Y-96186379D01*
X110010185Y-96146528D01*
X109991164Y-96091341D01*
X109968791Y-96024680D01*
X109944388Y-95950405D01*
X109934924Y-95921191D01*
X109910453Y-95846314D01*
X109887797Y-95778797D01*
X109868199Y-95722193D01*
X109852899Y-95680059D01*
X109843138Y-95655952D01*
X109841000Y-95652071D01*
X109834057Y-95639043D01*
X109835846Y-95636952D01*
X109835416Y-95626353D01*
X109827435Y-95597181D01*
X109813208Y-95553375D01*
X109794039Y-95498876D01*
X109771230Y-95437622D01*
X109761800Y-95413191D01*
X109741504Y-95361077D01*
X109730379Y-95327655D01*
X109729581Y-95308794D01*
X109740262Y-95300363D01*
X109763577Y-95298231D01*
X109793898Y-95298286D01*
G36*
X107849232Y-95162214D02*
G01*
X107847069Y-95298286D01*
X107971701Y-95298276D01*
X108096334Y-95298267D01*
X108093414Y-95409641D01*
X107973921Y-95411416D01*
X107854429Y-95413191D01*
X107851219Y-95769341D01*
X107850455Y-95886299D01*
X107850758Y-95981665D01*
X107852539Y-96058033D01*
X107856211Y-96117993D01*
X107862186Y-96164137D01*
X107870877Y-96199055D01*
X107882696Y-96225339D01*
X107898055Y-96245581D01*
X107917366Y-96262372D01*
X107931197Y-96271983D01*
X107957715Y-96287173D01*
X107984580Y-96295595D01*
X108019802Y-96298781D01*
X108069119Y-96298328D01*
X108162857Y-96295614D01*
X108162857Y-96347283D01*
X108160669Y-96381129D01*
X108152574Y-96396772D01*
X108141691Y-96399980D01*
X108065553Y-96402876D01*
X108001646Y-96403722D01*
X107953422Y-96402557D01*
X107924332Y-96399421D01*
X107918459Y-96397411D01*
X107901149Y-96391709D01*
X107897212Y-96392627D01*
X107884136Y-96388952D01*
X107858471Y-96374914D01*
X107842206Y-96364519D01*
X107800079Y-96325166D01*
X107763594Y-96270929D01*
X107738409Y-96211112D01*
X107732032Y-96183376D01*
X107730540Y-96162574D01*
X107729030Y-96120911D01*
X107727568Y-96061717D01*
X107726221Y-95988322D01*
X107725057Y-95904055D01*
X107724143Y-95812247D01*
X107723905Y-95780506D01*
X107721381Y-95413191D01*
X107509715Y-95406201D01*
X107509715Y-95298286D01*
X107715334Y-95298286D01*
X107715334Y-95168262D01*
X107715554Y-95110922D01*
X107716810Y-95073488D01*
X107719993Y-95051674D01*
X107725992Y-95041195D01*
X107735698Y-95037766D01*
X107742548Y-95037346D01*
X107774134Y-95035167D01*
X107810579Y-95031298D01*
X107851395Y-95026143D01*
X107849232Y-95162214D01*
G37*
X107849232Y-95162214D02*
X107847069Y-95298286D01*
X107971701Y-95298276D01*
X108096334Y-95298267D01*
X108093414Y-95409641D01*
X107973921Y-95411416D01*
X107854429Y-95413191D01*
X107851219Y-95769341D01*
X107850455Y-95886299D01*
X107850758Y-95981665D01*
X107852539Y-96058033D01*
X107856211Y-96117993D01*
X107862186Y-96164137D01*
X107870877Y-96199055D01*
X107882696Y-96225339D01*
X107898055Y-96245581D01*
X107917366Y-96262372D01*
X107931197Y-96271983D01*
X107957715Y-96287173D01*
X107984580Y-96295595D01*
X108019802Y-96298781D01*
X108069119Y-96298328D01*
X108162857Y-96295614D01*
X108162857Y-96347283D01*
X108160669Y-96381129D01*
X108152574Y-96396772D01*
X108141691Y-96399980D01*
X108065553Y-96402876D01*
X108001646Y-96403722D01*
X107953422Y-96402557D01*
X107924332Y-96399421D01*
X107918459Y-96397411D01*
X107901149Y-96391709D01*
X107897212Y-96392627D01*
X107884136Y-96388952D01*
X107858471Y-96374914D01*
X107842206Y-96364519D01*
X107800079Y-96325166D01*
X107763594Y-96270929D01*
X107738409Y-96211112D01*
X107732032Y-96183376D01*
X107730540Y-96162574D01*
X107729030Y-96120911D01*
X107727568Y-96061717D01*
X107726221Y-95988322D01*
X107725057Y-95904055D01*
X107724143Y-95812247D01*
X107723905Y-95780506D01*
X107721381Y-95413191D01*
X107509715Y-95406201D01*
X107509715Y-95298286D01*
X107715334Y-95298286D01*
X107715334Y-95168262D01*
X107715554Y-95110922D01*
X107716810Y-95073488D01*
X107719993Y-95051674D01*
X107725992Y-95041195D01*
X107735698Y-95037766D01*
X107742548Y-95037346D01*
X107774134Y-95035167D01*
X107810579Y-95031298D01*
X107851395Y-95026143D01*
X107849232Y-95162214D01*
G36*
X112665758Y-95285791D02*
G01*
X112712061Y-95288065D01*
X112747254Y-95293411D01*
X112777878Y-95303102D01*
X112810469Y-95318408D01*
X112832624Y-95330238D01*
X112902507Y-95378835D01*
X112958753Y-95442669D01*
X112994519Y-95503143D01*
X113024326Y-95561964D01*
X112997520Y-95568691D01*
X112970958Y-95574925D01*
X112958619Y-95577397D01*
X112938924Y-95582978D01*
X112916286Y-95591095D01*
X112886355Y-95601770D01*
X112867905Y-95607309D01*
X112841059Y-95614501D01*
X112825062Y-95619083D01*
X112805461Y-95618780D01*
X112786064Y-95602553D01*
X112770633Y-95581201D01*
X112732861Y-95532499D01*
X112693133Y-95503044D01*
X112644061Y-95488903D01*
X112591851Y-95485972D01*
X112522265Y-95492492D01*
X112472584Y-95511495D01*
X112443277Y-95542759D01*
X112437357Y-95558678D01*
X112439392Y-95595466D01*
X112461006Y-95628112D01*
X112497639Y-95650891D01*
X112514700Y-95655800D01*
X112549171Y-95662959D01*
X112575197Y-95668459D01*
X112577619Y-95668984D01*
X112600940Y-95673051D01*
X112635728Y-95678117D01*
X112644143Y-95679235D01*
X112683936Y-95684955D01*
X112718671Y-95690808D01*
X112722762Y-95691604D01*
X112759964Y-95698857D01*
X112784201Y-95703410D01*
X112877944Y-95729886D01*
X112952719Y-95771338D01*
X113008460Y-95827693D01*
X113045103Y-95898871D01*
X113062582Y-95984799D01*
X113064161Y-96030048D01*
X113059889Y-96093240D01*
X113046648Y-96144819D01*
X113021331Y-96196644D01*
X113019826Y-96199226D01*
X112964198Y-96270935D01*
X112890032Y-96327611D01*
X112796979Y-96369489D01*
X112746953Y-96384045D01*
X112727152Y-96386460D01*
X112691082Y-96388776D01*
X112644683Y-96390828D01*
X112593897Y-96392453D01*
X112544666Y-96393485D01*
X112502932Y-96393761D01*
X112474637Y-96393116D01*
X112465660Y-96391819D01*
X112451546Y-96386174D01*
X112437790Y-96382965D01*
X112343073Y-96354412D01*
X112262521Y-96306736D01*
X112199029Y-96244836D01*
X112175934Y-96212705D01*
X112153343Y-96174199D01*
X112134208Y-96135477D01*
X112121481Y-96102694D01*
X112118113Y-96082009D01*
X112119502Y-96078943D01*
X112133477Y-96074535D01*
X112162957Y-96069209D01*
X112178701Y-96067011D01*
X112225870Y-96060805D01*
X112273174Y-96054333D01*
X112281286Y-96053188D01*
X112331059Y-96046336D01*
X112361569Y-96043064D01*
X112377464Y-96043275D01*
X112383389Y-96046870D01*
X112384095Y-96051010D01*
X112393810Y-96077108D01*
X112418808Y-96107925D01*
X112452869Y-96137099D01*
X112488378Y-96157679D01*
X112533581Y-96170186D01*
X112589961Y-96176291D01*
X112648555Y-96175967D01*
X112700397Y-96169188D01*
X112732342Y-96158394D01*
X112764522Y-96132556D01*
X112785604Y-96099201D01*
X112790769Y-96066572D01*
X112789432Y-96060745D01*
X112769644Y-96034062D01*
X112732059Y-96011515D01*
X112683060Y-95996540D01*
X112665056Y-95993798D01*
X112571107Y-95981467D01*
X112498924Y-95968194D01*
X112446087Y-95953531D01*
X112444572Y-95952992D01*
X112413638Y-95942578D01*
X112373720Y-95929965D01*
X112362135Y-95926443D01*
X112291735Y-95893245D01*
X112233752Y-95841694D01*
X112190666Y-95775490D01*
X112164955Y-95698336D01*
X112158716Y-95622740D01*
X112172065Y-95534375D01*
X112206387Y-95457991D01*
X112261745Y-95393499D01*
X112338201Y-95340810D01*
X112367700Y-95326168D01*
X112407880Y-95308548D01*
X112441324Y-95296872D01*
X112474985Y-95289930D01*
X112515812Y-95286506D01*
X112570756Y-95285389D01*
X112601810Y-95285315D01*
X112665758Y-95285791D01*
G37*
X112665758Y-95285791D02*
X112712061Y-95288065D01*
X112747254Y-95293411D01*
X112777878Y-95303102D01*
X112810469Y-95318408D01*
X112832624Y-95330238D01*
X112902507Y-95378835D01*
X112958753Y-95442669D01*
X112994519Y-95503143D01*
X113024326Y-95561964D01*
X112997520Y-95568691D01*
X112970958Y-95574925D01*
X112958619Y-95577397D01*
X112938924Y-95582978D01*
X112916286Y-95591095D01*
X112886355Y-95601770D01*
X112867905Y-95607309D01*
X112841059Y-95614501D01*
X112825062Y-95619083D01*
X112805461Y-95618780D01*
X112786064Y-95602553D01*
X112770633Y-95581201D01*
X112732861Y-95532499D01*
X112693133Y-95503044D01*
X112644061Y-95488903D01*
X112591851Y-95485972D01*
X112522265Y-95492492D01*
X112472584Y-95511495D01*
X112443277Y-95542759D01*
X112437357Y-95558678D01*
X112439392Y-95595466D01*
X112461006Y-95628112D01*
X112497639Y-95650891D01*
X112514700Y-95655800D01*
X112549171Y-95662959D01*
X112575197Y-95668459D01*
X112577619Y-95668984D01*
X112600940Y-95673051D01*
X112635728Y-95678117D01*
X112644143Y-95679235D01*
X112683936Y-95684955D01*
X112718671Y-95690808D01*
X112722762Y-95691604D01*
X112759964Y-95698857D01*
X112784201Y-95703410D01*
X112877944Y-95729886D01*
X112952719Y-95771338D01*
X113008460Y-95827693D01*
X113045103Y-95898871D01*
X113062582Y-95984799D01*
X113064161Y-96030048D01*
X113059889Y-96093240D01*
X113046648Y-96144819D01*
X113021331Y-96196644D01*
X113019826Y-96199226D01*
X112964198Y-96270935D01*
X112890032Y-96327611D01*
X112796979Y-96369489D01*
X112746953Y-96384045D01*
X112727152Y-96386460D01*
X112691082Y-96388776D01*
X112644683Y-96390828D01*
X112593897Y-96392453D01*
X112544666Y-96393485D01*
X112502932Y-96393761D01*
X112474637Y-96393116D01*
X112465660Y-96391819D01*
X112451546Y-96386174D01*
X112437790Y-96382965D01*
X112343073Y-96354412D01*
X112262521Y-96306736D01*
X112199029Y-96244836D01*
X112175934Y-96212705D01*
X112153343Y-96174199D01*
X112134208Y-96135477D01*
X112121481Y-96102694D01*
X112118113Y-96082009D01*
X112119502Y-96078943D01*
X112133477Y-96074535D01*
X112162957Y-96069209D01*
X112178701Y-96067011D01*
X112225870Y-96060805D01*
X112273174Y-96054333D01*
X112281286Y-96053188D01*
X112331059Y-96046336D01*
X112361569Y-96043064D01*
X112377464Y-96043275D01*
X112383389Y-96046870D01*
X112384095Y-96051010D01*
X112393810Y-96077108D01*
X112418808Y-96107925D01*
X112452869Y-96137099D01*
X112488378Y-96157679D01*
X112533581Y-96170186D01*
X112589961Y-96176291D01*
X112648555Y-96175967D01*
X112700397Y-96169188D01*
X112732342Y-96158394D01*
X112764522Y-96132556D01*
X112785604Y-96099201D01*
X112790769Y-96066572D01*
X112789432Y-96060745D01*
X112769644Y-96034062D01*
X112732059Y-96011515D01*
X112683060Y-95996540D01*
X112665056Y-95993798D01*
X112571107Y-95981467D01*
X112498924Y-95968194D01*
X112446087Y-95953531D01*
X112444572Y-95952992D01*
X112413638Y-95942578D01*
X112373720Y-95929965D01*
X112362135Y-95926443D01*
X112291735Y-95893245D01*
X112233752Y-95841694D01*
X112190666Y-95775490D01*
X112164955Y-95698336D01*
X112158716Y-95622740D01*
X112172065Y-95534375D01*
X112206387Y-95457991D01*
X112261745Y-95393499D01*
X112338201Y-95340810D01*
X112367700Y-95326168D01*
X112407880Y-95308548D01*
X112441324Y-95296872D01*
X112474985Y-95289930D01*
X112515812Y-95286506D01*
X112570756Y-95285389D01*
X112601810Y-95285315D01*
X112665758Y-95285791D01*
G36*
X114295228Y-95285293D02*
G01*
X114345215Y-95287930D01*
X114379810Y-95291972D01*
X114408999Y-95299943D01*
X114425391Y-95309598D01*
X114426175Y-95311020D01*
X114440050Y-95321333D01*
X114448316Y-95322476D01*
X114473956Y-95330488D01*
X114510527Y-95351632D01*
X114552229Y-95381567D01*
X114593261Y-95415955D01*
X114627823Y-95450454D01*
X114641104Y-95466714D01*
X114674187Y-95520160D01*
X114706095Y-95586235D01*
X114731651Y-95653711D01*
X114739120Y-95679286D01*
X114744059Y-95712822D01*
X114747083Y-95763135D01*
X114748228Y-95822892D01*
X114747528Y-95884757D01*
X114745020Y-95941396D01*
X114740737Y-95985474D01*
X114737575Y-96001948D01*
X114697336Y-96113096D01*
X114640449Y-96207257D01*
X114567423Y-96283831D01*
X114478771Y-96342217D01*
X114429942Y-96363943D01*
X114372954Y-96379552D01*
X114302725Y-96389613D01*
X114228057Y-96393690D01*
X114157751Y-96391347D01*
X114100609Y-96382148D01*
X114094914Y-96380520D01*
X113999421Y-96339145D01*
X113915401Y-96278057D01*
X113845335Y-96200001D01*
X113791704Y-96107720D01*
X113757822Y-96007611D01*
X113752005Y-95968525D01*
X113748112Y-95914296D01*
X113746194Y-95852105D01*
X113746250Y-95818381D01*
X114071418Y-95818381D01*
X114074747Y-95924709D01*
X114085212Y-96009999D01*
X114103402Y-96076502D01*
X114129908Y-96126467D01*
X114160606Y-96158566D01*
X114186388Y-96174036D01*
X114217070Y-96179766D01*
X114255646Y-96178424D01*
X114303564Y-96170025D01*
X114338273Y-96155116D01*
X114343426Y-96151088D01*
X114374852Y-96113285D01*
X114397669Y-96063029D01*
X114412610Y-95997384D01*
X114420409Y-95913412D01*
X114422013Y-95836524D01*
X114418557Y-95730937D01*
X114407899Y-95647089D01*
X114389186Y-95583376D01*
X114361567Y-95538193D01*
X114324190Y-95509938D01*
X114276203Y-95497005D01*
X114241091Y-95495965D01*
X114186667Y-95504853D01*
X114143910Y-95528030D01*
X114111919Y-95567206D01*
X114089794Y-95624092D01*
X114076637Y-95700396D01*
X114071547Y-95797829D01*
X114071418Y-95818381D01*
X113746250Y-95818381D01*
X113746300Y-95789134D01*
X113748481Y-95732564D01*
X113752787Y-95689575D01*
X113755516Y-95676262D01*
X113764089Y-95642830D01*
X113768314Y-95624814D01*
X113783512Y-95582960D01*
X113810514Y-95531683D01*
X113844324Y-95478961D01*
X113879941Y-95432773D01*
X113904394Y-95407605D01*
X113957129Y-95368349D01*
X114021402Y-95330770D01*
X114085662Y-95301293D01*
X114111587Y-95292356D01*
X114140053Y-95287970D01*
X114185148Y-95285323D01*
X114239373Y-95284427D01*
X114295228Y-95285293D01*
G37*
X114295228Y-95285293D02*
X114345215Y-95287930D01*
X114379810Y-95291972D01*
X114408999Y-95299943D01*
X114425391Y-95309598D01*
X114426175Y-95311020D01*
X114440050Y-95321333D01*
X114448316Y-95322476D01*
X114473956Y-95330488D01*
X114510527Y-95351632D01*
X114552229Y-95381567D01*
X114593261Y-95415955D01*
X114627823Y-95450454D01*
X114641104Y-95466714D01*
X114674187Y-95520160D01*
X114706095Y-95586235D01*
X114731651Y-95653711D01*
X114739120Y-95679286D01*
X114744059Y-95712822D01*
X114747083Y-95763135D01*
X114748228Y-95822892D01*
X114747528Y-95884757D01*
X114745020Y-95941396D01*
X114740737Y-95985474D01*
X114737575Y-96001948D01*
X114697336Y-96113096D01*
X114640449Y-96207257D01*
X114567423Y-96283831D01*
X114478771Y-96342217D01*
X114429942Y-96363943D01*
X114372954Y-96379552D01*
X114302725Y-96389613D01*
X114228057Y-96393690D01*
X114157751Y-96391347D01*
X114100609Y-96382148D01*
X114094914Y-96380520D01*
X113999421Y-96339145D01*
X113915401Y-96278057D01*
X113845335Y-96200001D01*
X113791704Y-96107720D01*
X113757822Y-96007611D01*
X113752005Y-95968525D01*
X113748112Y-95914296D01*
X113746194Y-95852105D01*
X113746250Y-95818381D01*
X114071418Y-95818381D01*
X114074747Y-95924709D01*
X114085212Y-96009999D01*
X114103402Y-96076502D01*
X114129908Y-96126467D01*
X114160606Y-96158566D01*
X114186388Y-96174036D01*
X114217070Y-96179766D01*
X114255646Y-96178424D01*
X114303564Y-96170025D01*
X114338273Y-96155116D01*
X114343426Y-96151088D01*
X114374852Y-96113285D01*
X114397669Y-96063029D01*
X114412610Y-95997384D01*
X114420409Y-95913412D01*
X114422013Y-95836524D01*
X114418557Y-95730937D01*
X114407899Y-95647089D01*
X114389186Y-95583376D01*
X114361567Y-95538193D01*
X114324190Y-95509938D01*
X114276203Y-95497005D01*
X114241091Y-95495965D01*
X114186667Y-95504853D01*
X114143910Y-95528030D01*
X114111919Y-95567206D01*
X114089794Y-95624092D01*
X114076637Y-95700396D01*
X114071547Y-95797829D01*
X114071418Y-95818381D01*
X113746250Y-95818381D01*
X113746300Y-95789134D01*
X113748481Y-95732564D01*
X113752787Y-95689575D01*
X113755516Y-95676262D01*
X113764089Y-95642830D01*
X113768314Y-95624814D01*
X113783512Y-95582960D01*
X113810514Y-95531683D01*
X113844324Y-95478961D01*
X113879941Y-95432773D01*
X113904394Y-95407605D01*
X113957129Y-95368349D01*
X114021402Y-95330770D01*
X114085662Y-95301293D01*
X114111587Y-95292356D01*
X114140053Y-95287970D01*
X114185148Y-95285323D01*
X114239373Y-95284427D01*
X114295228Y-95285293D01*
G36*
X117193455Y-95285686D02*
G01*
X117250356Y-95290056D01*
X117297011Y-95298677D01*
X117340350Y-95312643D01*
X117366418Y-95323500D01*
X117438327Y-95362753D01*
X117492626Y-95408234D01*
X117520901Y-95447078D01*
X117530598Y-95466280D01*
X117538467Y-95485361D01*
X117544714Y-95507007D01*
X117549546Y-95533909D01*
X117553170Y-95568756D01*
X117555790Y-95614237D01*
X117557615Y-95673041D01*
X117558851Y-95747856D01*
X117559704Y-95841373D01*
X117560381Y-95956279D01*
X117560408Y-95961533D01*
X117561246Y-96053149D01*
X117562715Y-96137990D01*
X117564702Y-96212730D01*
X117567096Y-96274042D01*
X117569785Y-96318600D01*
X117572656Y-96343077D01*
X117573345Y-96345557D01*
X117584449Y-96374762D01*
X117427510Y-96374762D01*
X117362970Y-96374466D01*
X117318788Y-96373239D01*
X117291138Y-96370567D01*
X117276193Y-96365940D01*
X117270125Y-96358846D01*
X117269176Y-96353595D01*
X117266435Y-96328378D01*
X117264971Y-96320333D01*
X117262563Y-96300783D01*
X117260466Y-96269387D01*
X117260319Y-96266168D01*
X117258476Y-96224099D01*
X117206235Y-96281000D01*
X117146343Y-96334691D01*
X117079998Y-96369959D01*
X117001895Y-96389033D01*
X116937513Y-96393940D01*
X116882287Y-96393118D01*
X116831707Y-96388495D01*
X116795396Y-96380957D01*
X116794821Y-96380762D01*
X116721873Y-96346612D01*
X116665488Y-96301082D01*
X116630259Y-96249376D01*
X116612464Y-96204400D01*
X116597996Y-96157119D01*
X116588729Y-96114960D01*
X116586672Y-96087198D01*
X116926566Y-96087198D01*
X116944818Y-96130570D01*
X116977924Y-96164549D01*
X117021302Y-96185880D01*
X117070372Y-96191310D01*
X117120552Y-96177586D01*
X117123006Y-96176340D01*
X117178560Y-96135128D01*
X117217269Y-96077679D01*
X117239550Y-96003196D01*
X117245563Y-95941465D01*
X117248165Y-95864977D01*
X117195868Y-95871441D01*
X117101793Y-95888719D01*
X117029001Y-95915146D01*
X116976037Y-95951625D01*
X116941442Y-95999060D01*
X116927751Y-96037685D01*
X116926566Y-96087198D01*
X116586672Y-96087198D01*
X116586535Y-96085352D01*
X116587557Y-96079963D01*
X116592110Y-96059864D01*
X116597729Y-96027165D01*
X116599039Y-96018439D01*
X116616941Y-95958533D01*
X116650090Y-95898545D01*
X116692250Y-95849055D01*
X116705389Y-95838088D01*
X116759053Y-95802583D01*
X116815612Y-95773408D01*
X116866023Y-95755058D01*
X116877476Y-95752530D01*
X116915331Y-95745543D01*
X116944000Y-95739985D01*
X116975621Y-95734809D01*
X117023650Y-95728261D01*
X117080412Y-95721243D01*
X117138232Y-95714656D01*
X117189434Y-95709404D01*
X117226343Y-95706386D01*
X117232570Y-95706082D01*
X117241810Y-95699592D01*
X117245417Y-95678137D01*
X117244069Y-95637414D01*
X117243855Y-95634401D01*
X117233087Y-95573031D01*
X117209613Y-95531147D01*
X117171072Y-95506368D01*
X117115104Y-95496315D01*
X117106597Y-95495970D01*
X117055747Y-95498668D01*
X117012839Y-95508359D01*
X117003031Y-95512486D01*
X116969412Y-95537722D01*
X116940443Y-95573691D01*
X116922594Y-95611357D01*
X116919855Y-95628684D01*
X116917434Y-95640215D01*
X116906743Y-95645897D01*
X116882552Y-95646693D01*
X116839630Y-95643564D01*
X116839149Y-95643521D01*
X116793594Y-95638953D01*
X116754834Y-95634117D01*
X116733315Y-95630471D01*
X116703623Y-95625047D01*
X116666806Y-95620149D01*
X116665810Y-95620042D01*
X116635160Y-95612430D01*
X116625616Y-95599122D01*
X116625628Y-95599027D01*
X116648156Y-95515685D01*
X116691204Y-95442673D01*
X116752157Y-95383247D01*
X116828402Y-95340666D01*
X116834993Y-95338119D01*
X116868209Y-95324829D01*
X116890785Y-95314225D01*
X116895619Y-95311002D01*
X116911887Y-95302581D01*
X116915688Y-95301675D01*
X116967629Y-95292719D01*
X117013340Y-95287462D01*
X117063375Y-95285013D01*
X117119381Y-95284473D01*
X117193455Y-95285686D01*
G37*
X117193455Y-95285686D02*
X117250356Y-95290056D01*
X117297011Y-95298677D01*
X117340350Y-95312643D01*
X117366418Y-95323500D01*
X117438327Y-95362753D01*
X117492626Y-95408234D01*
X117520901Y-95447078D01*
X117530598Y-95466280D01*
X117538467Y-95485361D01*
X117544714Y-95507007D01*
X117549546Y-95533909D01*
X117553170Y-95568756D01*
X117555790Y-95614237D01*
X117557615Y-95673041D01*
X117558851Y-95747856D01*
X117559704Y-95841373D01*
X117560381Y-95956279D01*
X117560408Y-95961533D01*
X117561246Y-96053149D01*
X117562715Y-96137990D01*
X117564702Y-96212730D01*
X117567096Y-96274042D01*
X117569785Y-96318600D01*
X117572656Y-96343077D01*
X117573345Y-96345557D01*
X117584449Y-96374762D01*
X117427510Y-96374762D01*
X117362970Y-96374466D01*
X117318788Y-96373239D01*
X117291138Y-96370567D01*
X117276193Y-96365940D01*
X117270125Y-96358846D01*
X117269176Y-96353595D01*
X117266435Y-96328378D01*
X117264971Y-96320333D01*
X117262563Y-96300783D01*
X117260466Y-96269387D01*
X117260319Y-96266168D01*
X117258476Y-96224099D01*
X117206235Y-96281000D01*
X117146343Y-96334691D01*
X117079998Y-96369959D01*
X117001895Y-96389033D01*
X116937513Y-96393940D01*
X116882287Y-96393118D01*
X116831707Y-96388495D01*
X116795396Y-96380957D01*
X116794821Y-96380762D01*
X116721873Y-96346612D01*
X116665488Y-96301082D01*
X116630259Y-96249376D01*
X116612464Y-96204400D01*
X116597996Y-96157119D01*
X116588729Y-96114960D01*
X116586672Y-96087198D01*
X116926566Y-96087198D01*
X116944818Y-96130570D01*
X116977924Y-96164549D01*
X117021302Y-96185880D01*
X117070372Y-96191310D01*
X117120552Y-96177586D01*
X117123006Y-96176340D01*
X117178560Y-96135128D01*
X117217269Y-96077679D01*
X117239550Y-96003196D01*
X117245563Y-95941465D01*
X117248165Y-95864977D01*
X117195868Y-95871441D01*
X117101793Y-95888719D01*
X117029001Y-95915146D01*
X116976037Y-95951625D01*
X116941442Y-95999060D01*
X116927751Y-96037685D01*
X116926566Y-96087198D01*
X116586672Y-96087198D01*
X116586535Y-96085352D01*
X116587557Y-96079963D01*
X116592110Y-96059864D01*
X116597729Y-96027165D01*
X116599039Y-96018439D01*
X116616941Y-95958533D01*
X116650090Y-95898545D01*
X116692250Y-95849055D01*
X116705389Y-95838088D01*
X116759053Y-95802583D01*
X116815612Y-95773408D01*
X116866023Y-95755058D01*
X116877476Y-95752530D01*
X116915331Y-95745543D01*
X116944000Y-95739985D01*
X116975621Y-95734809D01*
X117023650Y-95728261D01*
X117080412Y-95721243D01*
X117138232Y-95714656D01*
X117189434Y-95709404D01*
X117226343Y-95706386D01*
X117232570Y-95706082D01*
X117241810Y-95699592D01*
X117245417Y-95678137D01*
X117244069Y-95637414D01*
X117243855Y-95634401D01*
X117233087Y-95573031D01*
X117209613Y-95531147D01*
X117171072Y-95506368D01*
X117115104Y-95496315D01*
X117106597Y-95495970D01*
X117055747Y-95498668D01*
X117012839Y-95508359D01*
X117003031Y-95512486D01*
X116969412Y-95537722D01*
X116940443Y-95573691D01*
X116922594Y-95611357D01*
X116919855Y-95628684D01*
X116917434Y-95640215D01*
X116906743Y-95645897D01*
X116882552Y-95646693D01*
X116839630Y-95643564D01*
X116839149Y-95643521D01*
X116793594Y-95638953D01*
X116754834Y-95634117D01*
X116733315Y-95630471D01*
X116703623Y-95625047D01*
X116666806Y-95620149D01*
X116665810Y-95620042D01*
X116635160Y-95612430D01*
X116625616Y-95599122D01*
X116625628Y-95599027D01*
X116648156Y-95515685D01*
X116691204Y-95442673D01*
X116752157Y-95383247D01*
X116828402Y-95340666D01*
X116834993Y-95338119D01*
X116868209Y-95324829D01*
X116890785Y-95314225D01*
X116895619Y-95311002D01*
X116911887Y-95302581D01*
X116915688Y-95301675D01*
X116967629Y-95292719D01*
X117013340Y-95287462D01*
X117063375Y-95285013D01*
X117119381Y-95284473D01*
X117193455Y-95285686D01*
G36*
X108465238Y-96374762D02*
G01*
X108332191Y-96374762D01*
X108332191Y-95298286D01*
X108465238Y-95298286D01*
X108465238Y-96374762D01*
G37*
X108465238Y-96374762D02*
X108332191Y-96374762D01*
X108332191Y-95298286D01*
X108465238Y-95298286D01*
X108465238Y-96374762D01*
G36*
X109376031Y-95285323D02*
G01*
X109396572Y-95291429D01*
X109448829Y-95318811D01*
X109500125Y-95363812D01*
X109545044Y-95420274D01*
X109578170Y-95482038D01*
X109587338Y-95508341D01*
X109589201Y-95526199D01*
X109591144Y-95565270D01*
X109593089Y-95622578D01*
X109594958Y-95695148D01*
X109596671Y-95780003D01*
X109598151Y-95874167D01*
X109599116Y-95954452D01*
X109603489Y-96374762D01*
X109475191Y-96374762D01*
X109475191Y-96014929D01*
X109474961Y-95891452D01*
X109474058Y-95789599D01*
X109472161Y-95706805D01*
X109468952Y-95640505D01*
X109464109Y-95588135D01*
X109457314Y-95547130D01*
X109448245Y-95514926D01*
X109436583Y-95488958D01*
X109422009Y-95466662D01*
X109404201Y-95445473D01*
X109404132Y-95445396D01*
X109354840Y-95407717D01*
X109295991Y-95388865D01*
X109231568Y-95387625D01*
X109165554Y-95402777D01*
X109101933Y-95433104D01*
X109044688Y-95477390D01*
X108997802Y-95534415D01*
X108975315Y-95576476D01*
X108962633Y-95607280D01*
X108952607Y-95637118D01*
X108944929Y-95669284D01*
X108939292Y-95707071D01*
X108935386Y-95753771D01*
X108932904Y-95812676D01*
X108931538Y-95887080D01*
X108930980Y-95980275D01*
X108930905Y-96051214D01*
X108930905Y-96374762D01*
X108791810Y-96374762D01*
X108791810Y-95298286D01*
X108861357Y-95298278D01*
X108930905Y-95298271D01*
X108926864Y-95356534D01*
X108925238Y-95399920D01*
X108925974Y-95439416D01*
X108926864Y-95450280D01*
X108930905Y-95485762D01*
X108970559Y-95428654D01*
X109032578Y-95359281D01*
X109107250Y-95309258D01*
X109191459Y-95279589D01*
X109282090Y-95271276D01*
X109376031Y-95285323D01*
G37*
X109376031Y-95285323D02*
X109396572Y-95291429D01*
X109448829Y-95318811D01*
X109500125Y-95363812D01*
X109545044Y-95420274D01*
X109578170Y-95482038D01*
X109587338Y-95508341D01*
X109589201Y-95526199D01*
X109591144Y-95565270D01*
X109593089Y-95622578D01*
X109594958Y-95695148D01*
X109596671Y-95780003D01*
X109598151Y-95874167D01*
X109599116Y-95954452D01*
X109603489Y-96374762D01*
X109475191Y-96374762D01*
X109475191Y-96014929D01*
X109474961Y-95891452D01*
X109474058Y-95789599D01*
X109472161Y-95706805D01*
X109468952Y-95640505D01*
X109464109Y-95588135D01*
X109457314Y-95547130D01*
X109448245Y-95514926D01*
X109436583Y-95488958D01*
X109422009Y-95466662D01*
X109404201Y-95445473D01*
X109404132Y-95445396D01*
X109354840Y-95407717D01*
X109295991Y-95388865D01*
X109231568Y-95387625D01*
X109165554Y-95402777D01*
X109101933Y-95433104D01*
X109044688Y-95477390D01*
X108997802Y-95534415D01*
X108975315Y-95576476D01*
X108962633Y-95607280D01*
X108952607Y-95637118D01*
X108944929Y-95669284D01*
X108939292Y-95707071D01*
X108935386Y-95753771D01*
X108932904Y-95812676D01*
X108931538Y-95887080D01*
X108930980Y-95980275D01*
X108930905Y-96051214D01*
X108930905Y-96374762D01*
X108791810Y-96374762D01*
X108791810Y-95298286D01*
X108861357Y-95298278D01*
X108930905Y-95298271D01*
X108926864Y-95356534D01*
X108925238Y-95399920D01*
X108925974Y-95439416D01*
X108926864Y-95450280D01*
X108930905Y-95485762D01*
X108970559Y-95428654D01*
X109032578Y-95359281D01*
X109107250Y-95309258D01*
X109191459Y-95279589D01*
X109282090Y-95271276D01*
X109376031Y-95285323D01*
G36*
X111984953Y-96374762D02*
G01*
X111670476Y-96374762D01*
X111670476Y-95298286D01*
X111984953Y-95298286D01*
X111984953Y-96374762D01*
G37*
X111984953Y-96374762D02*
X111670476Y-96374762D01*
X111670476Y-95298286D01*
X111984953Y-95298286D01*
X111984953Y-96374762D01*
G36*
X113551286Y-96374762D02*
G01*
X113236810Y-96374762D01*
X113236810Y-95298286D01*
X113551286Y-95298286D01*
X113551286Y-96374762D01*
G37*
X113551286Y-96374762D02*
X113236810Y-96374762D01*
X113236810Y-95298286D01*
X113551286Y-95298286D01*
X113551286Y-96374762D01*
G36*
X115585940Y-95286249D02*
G01*
X115622658Y-95287709D01*
X115639671Y-95289466D01*
X115660396Y-95297701D01*
X115693269Y-95315007D01*
X115721930Y-95331983D01*
X115764288Y-95362720D01*
X115793418Y-95397307D01*
X115814946Y-95438025D01*
X115825431Y-95462006D01*
X115834004Y-95485454D01*
X115840877Y-95511054D01*
X115846258Y-95541493D01*
X115850360Y-95579455D01*
X115853391Y-95627626D01*
X115855563Y-95688692D01*
X115857085Y-95765339D01*
X115858169Y-95860252D01*
X115859024Y-95976116D01*
X115859191Y-96002834D01*
X115861476Y-96374763D01*
X115704238Y-96374762D01*
X115547000Y-96374762D01*
X115547000Y-96033071D01*
X115546716Y-95941934D01*
X115545914Y-95856469D01*
X115544670Y-95780323D01*
X115543060Y-95717144D01*
X115541160Y-95670577D01*
X115539046Y-95644269D01*
X115538874Y-95643175D01*
X115519769Y-95591209D01*
X115484799Y-95553867D01*
X115438109Y-95534697D01*
X115410320Y-95533100D01*
X115360654Y-95541613D01*
X115324003Y-95563397D01*
X115296090Y-95602254D01*
X115275608Y-95652841D01*
X115267839Y-95677597D01*
X115261864Y-95701683D01*
X115257492Y-95728517D01*
X115254533Y-95761517D01*
X115252794Y-95804100D01*
X115252086Y-95859685D01*
X115252218Y-95931689D01*
X115252998Y-96023531D01*
X115253298Y-96052462D01*
X115256715Y-96374778D01*
X115099476Y-96374770D01*
X114942238Y-96374762D01*
X114942238Y-95298286D01*
X115087381Y-95298278D01*
X115232524Y-95298271D01*
X115228444Y-95357111D01*
X115226812Y-95398627D01*
X115227471Y-95434468D01*
X115228444Y-95444809D01*
X115231960Y-95459064D01*
X115238984Y-95459392D01*
X115252920Y-95443563D01*
X115272676Y-95415834D01*
X115306816Y-95375299D01*
X115349242Y-95336986D01*
X115392719Y-95306627D01*
X115430014Y-95289956D01*
X115432095Y-95289473D01*
X115455022Y-95287309D01*
X115493831Y-95286050D01*
X115540234Y-95285696D01*
X115585940Y-95286249D01*
G37*
X115585940Y-95286249D02*
X115622658Y-95287709D01*
X115639671Y-95289466D01*
X115660396Y-95297701D01*
X115693269Y-95315007D01*
X115721930Y-95331983D01*
X115764288Y-95362720D01*
X115793418Y-95397307D01*
X115814946Y-95438025D01*
X115825431Y-95462006D01*
X115834004Y-95485454D01*
X115840877Y-95511054D01*
X115846258Y-95541493D01*
X115850360Y-95579455D01*
X115853391Y-95627626D01*
X115855563Y-95688692D01*
X115857085Y-95765339D01*
X115858169Y-95860252D01*
X115859024Y-95976116D01*
X115859191Y-96002834D01*
X115861476Y-96374763D01*
X115704238Y-96374762D01*
X115547000Y-96374762D01*
X115547000Y-96033071D01*
X115546716Y-95941934D01*
X115545914Y-95856469D01*
X115544670Y-95780323D01*
X115543060Y-95717144D01*
X115541160Y-95670577D01*
X115539046Y-95644269D01*
X115538874Y-95643175D01*
X115519769Y-95591209D01*
X115484799Y-95553867D01*
X115438109Y-95534697D01*
X115410320Y-95533100D01*
X115360654Y-95541613D01*
X115324003Y-95563397D01*
X115296090Y-95602254D01*
X115275608Y-95652841D01*
X115267839Y-95677597D01*
X115261864Y-95701683D01*
X115257492Y-95728517D01*
X115254533Y-95761517D01*
X115252794Y-95804100D01*
X115252086Y-95859685D01*
X115252218Y-95931689D01*
X115252998Y-96023531D01*
X115253298Y-96052462D01*
X115256715Y-96374778D01*
X115099476Y-96374770D01*
X114942238Y-96374762D01*
X114942238Y-95298286D01*
X115087381Y-95298278D01*
X115232524Y-95298271D01*
X115228444Y-95357111D01*
X115226812Y-95398627D01*
X115227471Y-95434468D01*
X115228444Y-95444809D01*
X115231960Y-95459064D01*
X115238984Y-95459392D01*
X115252920Y-95443563D01*
X115272676Y-95415834D01*
X115306816Y-95375299D01*
X115349242Y-95336986D01*
X115392719Y-95306627D01*
X115430014Y-95289956D01*
X115432095Y-95289473D01*
X115455022Y-95287309D01*
X115493831Y-95286050D01*
X115540234Y-95285696D01*
X115585940Y-95286249D01*
G36*
X116415554Y-96210698D02*
G01*
X116417857Y-96374765D01*
X116091286Y-96374765D01*
X116093590Y-96210698D01*
X116095893Y-96046630D01*
X116413250Y-96046630D01*
X116415554Y-96210698D01*
G37*
X116415554Y-96210698D02*
X116417857Y-96374765D01*
X116091286Y-96374765D01*
X116093590Y-96210698D01*
X116095893Y-96046630D01*
X116413250Y-96046630D01*
X116415554Y-96210698D01*
G36*
X118123286Y-96374762D02*
G01*
X117808810Y-96374762D01*
X117808810Y-95298286D01*
X118123286Y-95298286D01*
X118123286Y-96374762D01*
G37*
X118123286Y-96374762D02*
X117808810Y-96374762D01*
X117808810Y-95298286D01*
X118123286Y-95298286D01*
X118123286Y-96374762D01*
G36*
X111984953Y-95213619D02*
G01*
X111670476Y-95213619D01*
X111670476Y-94893095D01*
X111984953Y-94893095D01*
X111984953Y-95213619D01*
G37*
X111984953Y-95213619D02*
X111670476Y-95213619D01*
X111670476Y-94893095D01*
X111984953Y-94893095D01*
X111984953Y-95213619D01*
G36*
X113549005Y-95055576D02*
G01*
X113551286Y-95213623D01*
X113236810Y-95213623D01*
X113239091Y-95055576D01*
X113241372Y-94897530D01*
X113546723Y-94897530D01*
X113549005Y-95055576D01*
G37*
X113549005Y-95055576D02*
X113551286Y-95213623D01*
X113236810Y-95213623D01*
X113239091Y-95055576D01*
X113241372Y-94897530D01*
X113546723Y-94897530D01*
X113549005Y-95055576D01*
G36*
X118121005Y-95055576D02*
G01*
X118123286Y-95213623D01*
X117808810Y-95213623D01*
X117811091Y-95055576D01*
X117813372Y-94897530D01*
X118118723Y-94897530D01*
X118121005Y-95055576D01*
G37*
X118121005Y-95055576D02*
X118123286Y-95213623D01*
X117808810Y-95213623D01*
X117811091Y-95055576D01*
X117813372Y-94897530D01*
X118118723Y-94897530D01*
X118121005Y-95055576D01*
G36*
X108469505Y-95003256D02*
G01*
X108467723Y-95083193D01*
X108320081Y-95086619D01*
X108320095Y-94923333D01*
X108395691Y-94923327D01*
X108471286Y-94923320D01*
X108469505Y-95003256D01*
G37*
X108469505Y-95003256D02*
X108467723Y-95083193D01*
X108320081Y-95086619D01*
X108320095Y-94923333D01*
X108395691Y-94923327D01*
X108471286Y-94923320D01*
X108469505Y-95003256D01*
G36*
X113010010Y-92310913D02*
G01*
X113064009Y-92312334D01*
X113104360Y-92314561D01*
X113121905Y-92316728D01*
X113157615Y-92323907D01*
X113187411Y-92329555D01*
X113215355Y-92335753D01*
X113230762Y-92341000D01*
X113247234Y-92346340D01*
X113276440Y-92352610D01*
X113279309Y-92353124D01*
X113313052Y-92363395D01*
X113362782Y-92384105D01*
X113423950Y-92412908D01*
X113492006Y-92447458D01*
X113562402Y-92485408D01*
X113630589Y-92524414D01*
X113692017Y-92562128D01*
X113718763Y-92579760D01*
X113778353Y-92624123D01*
X113848828Y-92683071D01*
X113925585Y-92752608D01*
X113993785Y-92818505D01*
X114065087Y-92890074D01*
X114123538Y-92950398D01*
X114173936Y-93004775D01*
X114221080Y-93058502D01*
X114269768Y-93116877D01*
X114316474Y-93174761D01*
X114364132Y-93234427D01*
X114290328Y-93337926D01*
X114253155Y-93385708D01*
X114202355Y-93444848D01*
X114141621Y-93511590D01*
X114074646Y-93582175D01*
X114005121Y-93652846D01*
X113936739Y-93719845D01*
X113873192Y-93779414D01*
X113818172Y-93827796D01*
X113777872Y-93859471D01*
X113655359Y-93942162D01*
X113537047Y-94013349D01*
X113425907Y-94071490D01*
X113324908Y-94115042D01*
X113237021Y-94142464D01*
X113229510Y-94144164D01*
X113185497Y-94153804D01*
X113156407Y-94160354D01*
X113133512Y-94165803D01*
X113121905Y-94168675D01*
X113100993Y-94171363D01*
X113062875Y-94174041D01*
X113012682Y-94176558D01*
X112955544Y-94178763D01*
X112896591Y-94180507D01*
X112840954Y-94181638D01*
X112793764Y-94182008D01*
X112760150Y-94181464D01*
X112745244Y-94179858D01*
X112745050Y-94179718D01*
X112731427Y-94175134D01*
X112704619Y-94169783D01*
X112555877Y-94133668D01*
X112406315Y-94074036D01*
X112256757Y-93991506D01*
X112108023Y-93886697D01*
X111960935Y-93760227D01*
X111816314Y-93612714D01*
X111674983Y-93444778D01*
X111588791Y-93329866D01*
X111525826Y-93242256D01*
X111527674Y-93239565D01*
X111779647Y-93239565D01*
X111874447Y-93358759D01*
X111933278Y-93428688D01*
X112002109Y-93503999D01*
X112075686Y-93579417D01*
X112148752Y-93649669D01*
X112216054Y-93709482D01*
X112255811Y-93741475D01*
X112287688Y-93765053D01*
X112311201Y-93781315D01*
X112320327Y-93786381D01*
X112316795Y-93777935D01*
X112301857Y-93756419D01*
X112290112Y-93741024D01*
X112266218Y-93705620D01*
X112238226Y-93656799D01*
X112209365Y-93601125D01*
X112182864Y-93545165D01*
X112161951Y-93495483D01*
X112149856Y-93458644D01*
X112148842Y-93453762D01*
X112141742Y-93415888D01*
X112135899Y-93387238D01*
X112132627Y-93358506D01*
X112130521Y-93312672D01*
X112129575Y-93256798D01*
X112129782Y-93197945D01*
X112131137Y-93143174D01*
X112133632Y-93099546D01*
X112136168Y-93078810D01*
X112164484Y-92972434D01*
X112205338Y-92876214D01*
X112347855Y-92876214D01*
X112353623Y-92891778D01*
X112367674Y-92917872D01*
X112369888Y-92921571D01*
X112387945Y-92952418D01*
X112411418Y-92993859D01*
X112428331Y-93024381D01*
X112443697Y-93052023D01*
X112469145Y-93097333D01*
X112502783Y-93156964D01*
X112542717Y-93227564D01*
X112587054Y-93305785D01*
X112633902Y-93388276D01*
X112643628Y-93405381D01*
X112692011Y-93490493D01*
X112739419Y-93573953D01*
X112783707Y-93651984D01*
X112822734Y-93720806D01*
X112854355Y-93776642D01*
X112876428Y-93815715D01*
X112878449Y-93819304D01*
X112903480Y-93862369D01*
X112924597Y-93896114D01*
X112938799Y-93915874D01*
X112942591Y-93919090D01*
X112951449Y-93909324D01*
X112969034Y-93882647D01*
X112992581Y-93843438D01*
X113012990Y-93807548D01*
X113040265Y-93758512D01*
X113064295Y-93715305D01*
X113068269Y-93708157D01*
X113625542Y-93708157D01*
X113628443Y-93710712D01*
X113651359Y-93692137D01*
X113677974Y-93670103D01*
X113782590Y-93580111D01*
X113869791Y-93499514D01*
X113942850Y-93425164D01*
X113999582Y-93360544D01*
X114035009Y-93316738D01*
X114063865Y-93279150D01*
X114083058Y-93251939D01*
X114089524Y-93239548D01*
X114081390Y-93223729D01*
X114058984Y-93194203D01*
X114025298Y-93154207D01*
X113983326Y-93106977D01*
X113936061Y-93055752D01*
X113886495Y-93003766D01*
X113837622Y-92954258D01*
X113792434Y-92910463D01*
X113753925Y-92875619D01*
X113749618Y-92871960D01*
X113696908Y-92827849D01*
X113660829Y-92798827D01*
X113639620Y-92784271D01*
X113631520Y-92783558D01*
X113634766Y-92796064D01*
X113647598Y-92821167D01*
X113657732Y-92839455D01*
X113698194Y-92925329D01*
X113730641Y-93020379D01*
X113744640Y-93078810D01*
X113748016Y-93109760D01*
X113750248Y-93157072D01*
X113751328Y-93213667D01*
X113751246Y-93272463D01*
X113749992Y-93326382D01*
X113747557Y-93368343D01*
X113745054Y-93387238D01*
X113737951Y-93422657D01*
X113732278Y-93453762D01*
X113724383Y-93479564D01*
X113707999Y-93520530D01*
X113685769Y-93570349D01*
X113667752Y-93607902D01*
X113646164Y-93653483D01*
X113631630Y-93688113D01*
X113625542Y-93708157D01*
X113068269Y-93708157D01*
X113081912Y-93683622D01*
X113088661Y-93671476D01*
X113099514Y-93652310D01*
X113119760Y-93616884D01*
X113146707Y-93569896D01*
X113177666Y-93516041D01*
X113184572Y-93504044D01*
X113214614Y-93451592D01*
X113239761Y-93407166D01*
X113257811Y-93374694D01*
X113266563Y-93358103D01*
X113267048Y-93356831D01*
X113272702Y-93345360D01*
X113287933Y-93317659D01*
X113310140Y-93278403D01*
X113326895Y-93249232D01*
X113360735Y-93190016D01*
X113397461Y-93124773D01*
X113430421Y-93065343D01*
X113437866Y-93051730D01*
X113464051Y-93004125D01*
X113488603Y-92960310D01*
X113507241Y-92927901D01*
X113511021Y-92921571D01*
X113525832Y-92894831D01*
X113532981Y-92877317D01*
X113533098Y-92876214D01*
X113521397Y-92874421D01*
X113487820Y-92872745D01*
X113434678Y-92871223D01*
X113364285Y-92869889D01*
X113278953Y-92868779D01*
X113180997Y-92867928D01*
X113072729Y-92867372D01*
X112956462Y-92867146D01*
X112940476Y-92867143D01*
X112823317Y-92867322D01*
X112713849Y-92867836D01*
X112614384Y-92868650D01*
X112527235Y-92869727D01*
X112454716Y-92871033D01*
X112399140Y-92872533D01*
X112362820Y-92874190D01*
X112348068Y-92875970D01*
X112347855Y-92876214D01*
X112205338Y-92876214D01*
X112210250Y-92864647D01*
X112255055Y-92783359D01*
X112266798Y-92762254D01*
X112269091Y-92752326D01*
X112259900Y-92754483D01*
X112237196Y-92769636D01*
X112198946Y-92798691D01*
X112169871Y-92821457D01*
X112126870Y-92858241D01*
X112073675Y-92908159D01*
X112014981Y-92966349D01*
X111955484Y-93027946D01*
X111899881Y-93088087D01*
X111852868Y-93141910D01*
X111819141Y-93184550D01*
X111818800Y-93185024D01*
X111779647Y-93239565D01*
X111527674Y-93239565D01*
X111598431Y-93136540D01*
X111724124Y-92970032D01*
X111863130Y-92816035D01*
X112011671Y-92678365D01*
X112165968Y-92560842D01*
X112172429Y-92556464D01*
X112240005Y-92514441D01*
X112319058Y-92470932D01*
X112403356Y-92428887D01*
X112486670Y-92391258D01*
X112562772Y-92360996D01*
X112625430Y-92341053D01*
X112629024Y-92340150D01*
X112682045Y-92327820D01*
X112726362Y-92319419D01*
X112746953Y-92316192D01*
X112778484Y-92313456D01*
X112826603Y-92311568D01*
X112885261Y-92310521D01*
X112948412Y-92310305D01*
X113010010Y-92310913D01*
G37*
X113010010Y-92310913D02*
X113064009Y-92312334D01*
X113104360Y-92314561D01*
X113121905Y-92316728D01*
X113157615Y-92323907D01*
X113187411Y-92329555D01*
X113215355Y-92335753D01*
X113230762Y-92341000D01*
X113247234Y-92346340D01*
X113276440Y-92352610D01*
X113279309Y-92353124D01*
X113313052Y-92363395D01*
X113362782Y-92384105D01*
X113423950Y-92412908D01*
X113492006Y-92447458D01*
X113562402Y-92485408D01*
X113630589Y-92524414D01*
X113692017Y-92562128D01*
X113718763Y-92579760D01*
X113778353Y-92624123D01*
X113848828Y-92683071D01*
X113925585Y-92752608D01*
X113993785Y-92818505D01*
X114065087Y-92890074D01*
X114123538Y-92950398D01*
X114173936Y-93004775D01*
X114221080Y-93058502D01*
X114269768Y-93116877D01*
X114316474Y-93174761D01*
X114364132Y-93234427D01*
X114290328Y-93337926D01*
X114253155Y-93385708D01*
X114202355Y-93444848D01*
X114141621Y-93511590D01*
X114074646Y-93582175D01*
X114005121Y-93652846D01*
X113936739Y-93719845D01*
X113873192Y-93779414D01*
X113818172Y-93827796D01*
X113777872Y-93859471D01*
X113655359Y-93942162D01*
X113537047Y-94013349D01*
X113425907Y-94071490D01*
X113324908Y-94115042D01*
X113237021Y-94142464D01*
X113229510Y-94144164D01*
X113185497Y-94153804D01*
X113156407Y-94160354D01*
X113133512Y-94165803D01*
X113121905Y-94168675D01*
X113100993Y-94171363D01*
X113062875Y-94174041D01*
X113012682Y-94176558D01*
X112955544Y-94178763D01*
X112896591Y-94180507D01*
X112840954Y-94181638D01*
X112793764Y-94182008D01*
X112760150Y-94181464D01*
X112745244Y-94179858D01*
X112745050Y-94179718D01*
X112731427Y-94175134D01*
X112704619Y-94169783D01*
X112555877Y-94133668D01*
X112406315Y-94074036D01*
X112256757Y-93991506D01*
X112108023Y-93886697D01*
X111960935Y-93760227D01*
X111816314Y-93612714D01*
X111674983Y-93444778D01*
X111588791Y-93329866D01*
X111525826Y-93242256D01*
X111527674Y-93239565D01*
X111779647Y-93239565D01*
X111874447Y-93358759D01*
X111933278Y-93428688D01*
X112002109Y-93503999D01*
X112075686Y-93579417D01*
X112148752Y-93649669D01*
X112216054Y-93709482D01*
X112255811Y-93741475D01*
X112287688Y-93765053D01*
X112311201Y-93781315D01*
X112320327Y-93786381D01*
X112316795Y-93777935D01*
X112301857Y-93756419D01*
X112290112Y-93741024D01*
X112266218Y-93705620D01*
X112238226Y-93656799D01*
X112209365Y-93601125D01*
X112182864Y-93545165D01*
X112161951Y-93495483D01*
X112149856Y-93458644D01*
X112148842Y-93453762D01*
X112141742Y-93415888D01*
X112135899Y-93387238D01*
X112132627Y-93358506D01*
X112130521Y-93312672D01*
X112129575Y-93256798D01*
X112129782Y-93197945D01*
X112131137Y-93143174D01*
X112133632Y-93099546D01*
X112136168Y-93078810D01*
X112164484Y-92972434D01*
X112205338Y-92876214D01*
X112347855Y-92876214D01*
X112353623Y-92891778D01*
X112367674Y-92917872D01*
X112369888Y-92921571D01*
X112387945Y-92952418D01*
X112411418Y-92993859D01*
X112428331Y-93024381D01*
X112443697Y-93052023D01*
X112469145Y-93097333D01*
X112502783Y-93156964D01*
X112542717Y-93227564D01*
X112587054Y-93305785D01*
X112633902Y-93388276D01*
X112643628Y-93405381D01*
X112692011Y-93490493D01*
X112739419Y-93573953D01*
X112783707Y-93651984D01*
X112822734Y-93720806D01*
X112854355Y-93776642D01*
X112876428Y-93815715D01*
X112878449Y-93819304D01*
X112903480Y-93862369D01*
X112924597Y-93896114D01*
X112938799Y-93915874D01*
X112942591Y-93919090D01*
X112951449Y-93909324D01*
X112969034Y-93882647D01*
X112992581Y-93843438D01*
X113012990Y-93807548D01*
X113040265Y-93758512D01*
X113064295Y-93715305D01*
X113068269Y-93708157D01*
X113625542Y-93708157D01*
X113628443Y-93710712D01*
X113651359Y-93692137D01*
X113677974Y-93670103D01*
X113782590Y-93580111D01*
X113869791Y-93499514D01*
X113942850Y-93425164D01*
X113999582Y-93360544D01*
X114035009Y-93316738D01*
X114063865Y-93279150D01*
X114083058Y-93251939D01*
X114089524Y-93239548D01*
X114081390Y-93223729D01*
X114058984Y-93194203D01*
X114025298Y-93154207D01*
X113983326Y-93106977D01*
X113936061Y-93055752D01*
X113886495Y-93003766D01*
X113837622Y-92954258D01*
X113792434Y-92910463D01*
X113753925Y-92875619D01*
X113749618Y-92871960D01*
X113696908Y-92827849D01*
X113660829Y-92798827D01*
X113639620Y-92784271D01*
X113631520Y-92783558D01*
X113634766Y-92796064D01*
X113647598Y-92821167D01*
X113657732Y-92839455D01*
X113698194Y-92925329D01*
X113730641Y-93020379D01*
X113744640Y-93078810D01*
X113748016Y-93109760D01*
X113750248Y-93157072D01*
X113751328Y-93213667D01*
X113751246Y-93272463D01*
X113749992Y-93326382D01*
X113747557Y-93368343D01*
X113745054Y-93387238D01*
X113737951Y-93422657D01*
X113732278Y-93453762D01*
X113724383Y-93479564D01*
X113707999Y-93520530D01*
X113685769Y-93570349D01*
X113667752Y-93607902D01*
X113646164Y-93653483D01*
X113631630Y-93688113D01*
X113625542Y-93708157D01*
X113068269Y-93708157D01*
X113081912Y-93683622D01*
X113088661Y-93671476D01*
X113099514Y-93652310D01*
X113119760Y-93616884D01*
X113146707Y-93569896D01*
X113177666Y-93516041D01*
X113184572Y-93504044D01*
X113214614Y-93451592D01*
X113239761Y-93407166D01*
X113257811Y-93374694D01*
X113266563Y-93358103D01*
X113267048Y-93356831D01*
X113272702Y-93345360D01*
X113287933Y-93317659D01*
X113310140Y-93278403D01*
X113326895Y-93249232D01*
X113360735Y-93190016D01*
X113397461Y-93124773D01*
X113430421Y-93065343D01*
X113437866Y-93051730D01*
X113464051Y-93004125D01*
X113488603Y-92960310D01*
X113507241Y-92927901D01*
X113511021Y-92921571D01*
X113525832Y-92894831D01*
X113532981Y-92877317D01*
X113533098Y-92876214D01*
X113521397Y-92874421D01*
X113487820Y-92872745D01*
X113434678Y-92871223D01*
X113364285Y-92869889D01*
X113278953Y-92868779D01*
X113180997Y-92867928D01*
X113072729Y-92867372D01*
X112956462Y-92867146D01*
X112940476Y-92867143D01*
X112823317Y-92867322D01*
X112713849Y-92867836D01*
X112614384Y-92868650D01*
X112527235Y-92869727D01*
X112454716Y-92871033D01*
X112399140Y-92872533D01*
X112362820Y-92874190D01*
X112348068Y-92875970D01*
X112347855Y-92876214D01*
X112205338Y-92876214D01*
X112210250Y-92864647D01*
X112255055Y-92783359D01*
X112266798Y-92762254D01*
X112269091Y-92752326D01*
X112259900Y-92754483D01*
X112237196Y-92769636D01*
X112198946Y-92798691D01*
X112169871Y-92821457D01*
X112126870Y-92858241D01*
X112073675Y-92908159D01*
X112014981Y-92966349D01*
X111955484Y-93027946D01*
X111899881Y-93088087D01*
X111852868Y-93141910D01*
X111819141Y-93184550D01*
X111818800Y-93185024D01*
X111779647Y-93239565D01*
X111527674Y-93239565D01*
X111598431Y-93136540D01*
X111724124Y-92970032D01*
X111863130Y-92816035D01*
X112011671Y-92678365D01*
X112165968Y-92560842D01*
X112172429Y-92556464D01*
X112240005Y-92514441D01*
X112319058Y-92470932D01*
X112403356Y-92428887D01*
X112486670Y-92391258D01*
X112562772Y-92360996D01*
X112625430Y-92341053D01*
X112629024Y-92340150D01*
X112682045Y-92327820D01*
X112726362Y-92319419D01*
X112746953Y-92316192D01*
X112778484Y-92313456D01*
X112826603Y-92311568D01*
X112885261Y-92310521D01*
X112948412Y-92310305D01*
X113010010Y-92310913D01*
D11*
X130400000Y-84400000D02*
G75*
G03X130400000Y-84400000I-100000J0D01*
G01*
X130300000Y-84400000D02*
X131440000Y-84400000D01*
X147598400Y-90701200D02*
G75*
G03X147598400Y-90701200I-100000J0D01*
G01*
X147298400Y-91001200D02*
X147298400Y-90701200D01*
X146698400Y-91601200D02*
X147298400Y-91001200D01*
X146398400Y-91601200D02*
X146698400Y-91601200D01*
X139298400Y-83601200D02*
X139298400Y-84401200D01*
X140098400Y-83601200D02*
X139298400Y-83601200D01*
X147298400Y-83601200D02*
X147298400Y-84401200D01*
X146498400Y-83601200D02*
X147298400Y-83601200D01*
X139298400Y-91601200D02*
X139298400Y-90801200D01*
X140098400Y-91601200D02*
X139298400Y-91601200D01*
X142619443Y-92828000D02*
G75*
G03X142619443Y-92828000I-89443J0D01*
G01*
X145000000Y-92818000D02*
X142550000Y-92818000D01*
X143200000Y-96038000D02*
X145000000Y-96038000D01*
X114169800Y-91638400D02*
X114169800Y-92113400D01*
X121389800Y-84893400D02*
X120914800Y-84893400D01*
X121389800Y-85368400D02*
X121389800Y-84893400D01*
X121389800Y-92113400D02*
X120914800Y-92113400D01*
X121389800Y-91638400D02*
X121389800Y-92113400D01*
X114169800Y-84893400D02*
X114644800Y-84893400D01*
X114169800Y-85368400D02*
X114169800Y-84893400D01*
X140387221Y-83010000D02*
X140712779Y-83010000D01*
X140387221Y-81990000D02*
X140712779Y-81990000D01*
X139200000Y-83550000D02*
G75*
G03X139200000Y-83550000I-700000J0D01*
G01*
X152022000Y-95100000D02*
X152022000Y-96300000D01*
X149222000Y-95100000D02*
X152022000Y-95100000D01*
X149222000Y-96300000D02*
X149222000Y-95100000D01*
X152022000Y-96300000D02*
X149222000Y-96300000D01*
X101370000Y-90710000D02*
X102700000Y-90710000D01*
X101370000Y-92040000D02*
X101370000Y-90710000D01*
X101370000Y-93310000D02*
X104030000Y-93310000D01*
X104030000Y-93310000D02*
X104030000Y-95910000D01*
X101370000Y-93310000D02*
X101370000Y-95910000D01*
X101370000Y-95910000D02*
X104030000Y-95910000D01*
X151850000Y-81750000D02*
G75*
G03X151850000Y-81750000I-700000J0D01*
G01*
X147601721Y-96210000D02*
X147927279Y-96210000D01*
X147601721Y-95190000D02*
X147927279Y-95190000D01*
X147863779Y-93724000D02*
X147538221Y-93724000D01*
X147863779Y-94744000D02*
X147538221Y-94744000D01*
X126075221Y-94998000D02*
X126400779Y-94998000D01*
X126075221Y-93978000D02*
X126400779Y-93978000D01*
X125108200Y-83211579D02*
X125108200Y-82886021D01*
X124088200Y-83211579D02*
X124088200Y-82886021D01*
X131862779Y-84834000D02*
X131537221Y-84834000D01*
X131862779Y-85854000D02*
X131537221Y-85854000D01*
X129722779Y-92220000D02*
X129397221Y-92220000D01*
X129722779Y-93240000D02*
X129397221Y-93240000D01*
X127648200Y-83211579D02*
X127648200Y-82886021D01*
X126628200Y-83211579D02*
X126628200Y-82886021D01*
X126062521Y-96471200D02*
X126388079Y-96471200D01*
X126062521Y-95451200D02*
X126388079Y-95451200D01*
X140878779Y-92990000D02*
X140553221Y-92990000D01*
X140878779Y-94010000D02*
X140553221Y-94010000D01*
X140878779Y-94840000D02*
X140553221Y-94840000D01*
X140878779Y-95860000D02*
X140553221Y-95860000D01*
X153761221Y-91442000D02*
X154086779Y-91442000D01*
X153761221Y-90422000D02*
X154086779Y-90422000D01*
X151983221Y-87378000D02*
X152308779Y-87378000D01*
X151983221Y-86358000D02*
X152308779Y-86358000D01*
X121315000Y-96415000D02*
X123600000Y-96415000D01*
X121315000Y-94945000D02*
X121315000Y-96415000D01*
X123600000Y-94945000D02*
X121315000Y-94945000D01*
X138162779Y-81490000D02*
X137837221Y-81490000D01*
X138162779Y-82510000D02*
X137837221Y-82510000D01*
X150660000Y-86150279D02*
X150660000Y-85824721D01*
X149640000Y-86150279D02*
X149640000Y-85824721D01*
X157172779Y-93460000D02*
X156847221Y-93460000D01*
X157172779Y-94480000D02*
X156847221Y-94480000D01*
X110950000Y-84232779D02*
X110950000Y-83907221D01*
X109930000Y-84232779D02*
X109930000Y-83907221D01*
X128890000Y-82937221D02*
X128890000Y-83262779D01*
X129910000Y-82937221D02*
X129910000Y-83262779D01*
X128268000Y-94579221D02*
X128268000Y-94904779D01*
X129288000Y-94579221D02*
X129288000Y-94904779D01*
X149410000Y-86162779D02*
X149410000Y-85837221D01*
X148390000Y-86162779D02*
X148390000Y-85837221D01*
X149137221Y-84360000D02*
X149462779Y-84360000D01*
X149137221Y-83340000D02*
X149462779Y-83340000D01*
X147411221Y-92966000D02*
X147736779Y-92966000D01*
X147411221Y-91946000D02*
X147736779Y-91946000D01*
X138062779Y-90690000D02*
X137737221Y-90690000D01*
X138062779Y-91710000D02*
X137737221Y-91710000D01*
X149604000Y-93634779D02*
X149604000Y-93309221D01*
X150624000Y-93634779D02*
X150624000Y-93309221D01*
X138062779Y-91990000D02*
X137737221Y-91990000D01*
X138062779Y-93010000D02*
X137737221Y-93010000D01*
X150848279Y-90676000D02*
X150522721Y-90676000D01*
X150848279Y-91696000D02*
X150522721Y-91696000D01*
D16*
X156200000Y-90490000D02*
X156000000Y-90490000D01*
X156000000Y-90490000D02*
X156000000Y-90190000D01*
X156200000Y-90490000D02*
X157400000Y-90490000D01*
X161600000Y-84690000D02*
X161100000Y-84690000D01*
X161600000Y-85190000D02*
X161600000Y-84690000D01*
X161600000Y-93090000D02*
X161100000Y-93090000D01*
X161600000Y-93090000D02*
X161600000Y-92590000D01*
X156350000Y-93090000D02*
X156850000Y-93090000D01*
X156350000Y-92590000D02*
X156350000Y-93090000D01*
X156350000Y-84690000D02*
X156850000Y-84690000D01*
X156350000Y-84690000D02*
X156350000Y-85190000D01*
D11*
X103817500Y-88446000D02*
X103817500Y-87246000D01*
X106617500Y-88446000D02*
X103817500Y-88446000D01*
X106617500Y-87246000D02*
X106617500Y-88446000D01*
X103817500Y-87246000D02*
X106617500Y-87246000D01*
X130146500Y-86966500D02*
X131346500Y-86966500D01*
X130146500Y-89766500D02*
X130146500Y-86966500D01*
X131346500Y-89766500D02*
X130146500Y-89766500D01*
X131346500Y-86966500D02*
X131346500Y-89766500D01*
X128800000Y-89792000D02*
X128800000Y-86992000D01*
X128800000Y-86992000D02*
X130000000Y-86992000D01*
X130000000Y-86992000D02*
X130000000Y-89792000D01*
X130000000Y-89792000D02*
X128800000Y-89792000D01*
X103830000Y-88746000D02*
X106630000Y-88746000D01*
X106630000Y-88746000D02*
X106630000Y-89946000D01*
X106630000Y-89946000D02*
X103830000Y-89946000D01*
X103830000Y-89946000D02*
X103830000Y-88746000D01*
X141950000Y-81250000D02*
G75*
G03X141950000Y-81250000I-700000J0D01*
G01*
X136600000Y-81900000D02*
G75*
G03X136600000Y-81900000I-700000J0D01*
G01*
X135050000Y-81950000D02*
G75*
G03X135050000Y-81950000I-700000J0D01*
G01*
X136336000Y-84074000D02*
G75*
G03X136336000Y-84074000I-700000J0D01*
G01*
X134558000Y-84455000D02*
G75*
G03X134558000Y-84455000I-700000J0D01*
G01*
X135193000Y-85852000D02*
G75*
G03X135193000Y-85852000I-700000J0D01*
G01*
X136850000Y-86350000D02*
G75*
G03X136850000Y-86350000I-700000J0D01*
G01*
X137350000Y-87800000D02*
G75*
G03X137350000Y-87800000I-700000J0D01*
G01*
X138100000Y-89150000D02*
G75*
G03X138100000Y-89150000I-700000J0D01*
G01*
X149290000Y-81788000D02*
G75*
G03X149290000Y-81788000I-700000J0D01*
G01*
X108401100Y-88696000D02*
X108401100Y-89996000D01*
X105601100Y-88696000D02*
X108401100Y-88696000D01*
X105601100Y-89996000D02*
X105601100Y-88696000D01*
X108401100Y-89996000D02*
X105601100Y-89996000D01*
X111600000Y-85440000D02*
X111600000Y-82640000D01*
X111600000Y-82640000D02*
X112900000Y-82640000D01*
X112900000Y-82640000D02*
X112900000Y-85440000D01*
X112900000Y-85440000D02*
X111600000Y-85440000D01*
X108401100Y-87196000D02*
X108401100Y-88496000D01*
X105601100Y-87196000D02*
X108401100Y-87196000D01*
X105601100Y-88496000D02*
X105601100Y-87196000D01*
X108401100Y-88496000D02*
X105601100Y-88496000D01*
X150600000Y-88850000D02*
X153400000Y-88850000D01*
X153400000Y-88850000D02*
X153400000Y-90150000D01*
X153400000Y-90150000D02*
X150600000Y-90150000D01*
X150600000Y-90150000D02*
X150600000Y-88850000D01*
X150600000Y-88850000D02*
X150600000Y-87550000D01*
X153400000Y-88850000D02*
X150600000Y-88850000D01*
X153400000Y-87550000D02*
X153400000Y-88850000D01*
X150600000Y-87550000D02*
X153400000Y-87550000D01*
D12*
X110163904Y-89586380D02*
X110163904Y-88586380D01*
X110402000Y-88586380D01*
X110544857Y-88634000D01*
X110640095Y-88729238D01*
X110687714Y-88824476D01*
X110735333Y-89014952D01*
X110735333Y-89157809D01*
X110687714Y-89348285D01*
X110640095Y-89443523D01*
X110544857Y-89538761D01*
X110402000Y-89586380D01*
X110163904Y-89586380D01*
X111068666Y-88586380D02*
X111687714Y-88586380D01*
X111354380Y-88967333D01*
X111497238Y-88967333D01*
X111592476Y-89014952D01*
X111640095Y-89062571D01*
X111687714Y-89157809D01*
X111687714Y-89395904D01*
X111640095Y-89491142D01*
X111592476Y-89538761D01*
X111497238Y-89586380D01*
X111211523Y-89586380D01*
X111116285Y-89538761D01*
X111068666Y-89491142D01*
X121465476Y-92511904D02*
X121465476Y-93159523D01*
X121503571Y-93235714D01*
X121541666Y-93273809D01*
X121617857Y-93311904D01*
X121770238Y-93311904D01*
X121846428Y-93273809D01*
X121884523Y-93235714D01*
X121922619Y-93159523D01*
X121922619Y-92511904D01*
X122684523Y-92511904D02*
X122303571Y-92511904D01*
X122265476Y-92892857D01*
X122303571Y-92854761D01*
X122379761Y-92816666D01*
X122570238Y-92816666D01*
X122646428Y-92854761D01*
X122684523Y-92892857D01*
X122722619Y-92969047D01*
X122722619Y-93159523D01*
X122684523Y-93235714D01*
X122646428Y-93273809D01*
X122570238Y-93311904D01*
X122379761Y-93311904D01*
X122303571Y-93273809D01*
X122265476Y-93235714D01*
X144778095Y-81752380D02*
X144778095Y-82561904D01*
X144825714Y-82657142D01*
X144873333Y-82704761D01*
X144968571Y-82752380D01*
X145159047Y-82752380D01*
X145254285Y-82704761D01*
X145301904Y-82657142D01*
X145349523Y-82561904D01*
X145349523Y-81752380D01*
X145730476Y-81752380D02*
X146349523Y-81752380D01*
X146016190Y-82133333D01*
X146159047Y-82133333D01*
X146254285Y-82180952D01*
X146301904Y-82228571D01*
X146349523Y-82323809D01*
X146349523Y-82561904D01*
X146301904Y-82657142D01*
X146254285Y-82704761D01*
X146159047Y-82752380D01*
X145873333Y-82752380D01*
X145778095Y-82704761D01*
X145730476Y-82657142D01*
X112020476Y-90181904D02*
X112020476Y-90829523D01*
X112058571Y-90905714D01*
X112096666Y-90943809D01*
X112172857Y-90981904D01*
X112325238Y-90981904D01*
X112401428Y-90943809D01*
X112439523Y-90905714D01*
X112477619Y-90829523D01*
X112477619Y-90181904D01*
X112820476Y-90258095D02*
X112858571Y-90220000D01*
X112934761Y-90181904D01*
X113125238Y-90181904D01*
X113201428Y-90220000D01*
X113239523Y-90258095D01*
X113277619Y-90334285D01*
X113277619Y-90410476D01*
X113239523Y-90524761D01*
X112782380Y-90981904D01*
X113277619Y-90981904D01*
X119830923Y-96145304D02*
X119830923Y-95345304D01*
X120021400Y-95345304D01*
X120135685Y-95383400D01*
X120211876Y-95459590D01*
X120249971Y-95535780D01*
X120288066Y-95688161D01*
X120288066Y-95802447D01*
X120249971Y-95954828D01*
X120211876Y-96031019D01*
X120135685Y-96107209D01*
X120021400Y-96145304D01*
X119830923Y-96145304D01*
X121049971Y-96145304D02*
X120592828Y-96145304D01*
X120821400Y-96145304D02*
X120821400Y-95345304D01*
X120745209Y-95459590D01*
X120669019Y-95535780D01*
X120592828Y-95573876D01*
X158153333Y-81541904D02*
X158153333Y-82113333D01*
X158115238Y-82227619D01*
X158039047Y-82303809D01*
X157924761Y-82341904D01*
X157848571Y-82341904D01*
X158496190Y-81618095D02*
X158534285Y-81580000D01*
X158610476Y-81541904D01*
X158800952Y-81541904D01*
X158877142Y-81580000D01*
X158915238Y-81618095D01*
X158953333Y-81694285D01*
X158953333Y-81770476D01*
X158915238Y-81884761D01*
X158458095Y-82341904D01*
X158953333Y-82341904D01*
X160083333Y-95511904D02*
X160083333Y-96083333D01*
X160045238Y-96197619D01*
X159969047Y-96273809D01*
X159854761Y-96311904D01*
X159778571Y-96311904D01*
X160388095Y-95511904D02*
X160883333Y-95511904D01*
X160616666Y-95816666D01*
X160730952Y-95816666D01*
X160807142Y-95854761D01*
X160845238Y-95892857D01*
X160883333Y-95969047D01*
X160883333Y-96159523D01*
X160845238Y-96235714D01*
X160807142Y-96273809D01*
X160730952Y-96311904D01*
X160502380Y-96311904D01*
X160426190Y-96273809D01*
X160388095Y-96235714D01*
X111675714Y-82211904D02*
X111409047Y-81830952D01*
X111218571Y-82211904D02*
X111218571Y-81411904D01*
X111523333Y-81411904D01*
X111599523Y-81450000D01*
X111637619Y-81488095D01*
X111675714Y-81564285D01*
X111675714Y-81678571D01*
X111637619Y-81754761D01*
X111599523Y-81792857D01*
X111523333Y-81830952D01*
X111218571Y-81830952D01*
X111980476Y-81488095D02*
X112018571Y-81450000D01*
X112094761Y-81411904D01*
X112285238Y-81411904D01*
X112361428Y-81450000D01*
X112399523Y-81488095D01*
X112437619Y-81564285D01*
X112437619Y-81640476D01*
X112399523Y-81754761D01*
X111942380Y-82211904D01*
X112437619Y-82211904D01*
X112894761Y-81754761D02*
X112818571Y-81716666D01*
X112780476Y-81678571D01*
X112742380Y-81602380D01*
X112742380Y-81564285D01*
X112780476Y-81488095D01*
X112818571Y-81450000D01*
X112894761Y-81411904D01*
X113047142Y-81411904D01*
X113123333Y-81450000D01*
X113161428Y-81488095D01*
X113199523Y-81564285D01*
X113199523Y-81602380D01*
X113161428Y-81678571D01*
X113123333Y-81716666D01*
X113047142Y-81754761D01*
X112894761Y-81754761D01*
X112818571Y-81792857D01*
X112780476Y-81830952D01*
X112742380Y-81907142D01*
X112742380Y-82059523D01*
X112780476Y-82135714D01*
X112818571Y-82173809D01*
X112894761Y-82211904D01*
X113047142Y-82211904D01*
X113123333Y-82173809D01*
X113161428Y-82135714D01*
X113199523Y-82059523D01*
X113199523Y-81907142D01*
X113161428Y-81830952D01*
X113123333Y-81792857D01*
X113047142Y-81754761D01*
M02*
