%TF.GenerationSoftware,KiCad,Pcbnew,(5.1.5)-3*%
%TF.CreationDate,2020-07-20T00:16:58-07:00*%
%TF.ProjectId,UPduino_v3.0,55506475-696e-46f5-9f76-332e302e6b69,3.0*%
%TF.SameCoordinates,Original*%
%TF.FileFunction,Other,User*%
%FSLAX46Y46*%
G04 Gerber Fmt 4.6, Leading zero omitted, Abs format (unit mm)*
G04 Created by KiCad (PCBNEW (5.1.5)-3) date 2020-07-20 00:16:58*
%MOMM*%
%LPD*%
G04 APERTURE LIST*
%ADD10C,0.050000*%
G04 APERTURE END LIST*
D10*
X100000000Y-78480000D02*
G75*
G02X100700000Y-77780000I700000J0D01*
G01*
X161300000Y-77780000D02*
G75*
G02X162000000Y-78480000I0J-700000D01*
G01*
X162000000Y-99300000D02*
G75*
G02X161300000Y-100000000I-700000J0D01*
G01*
X100700000Y-100000000D02*
G75*
G02X100000000Y-99300000I0J700000D01*
G01*
X162000000Y-93200000D02*
X161000000Y-93200000D01*
X162000000Y-84500000D02*
X161000000Y-84500000D01*
X161000000Y-93200000D02*
X161000000Y-84500000D01*
X162000000Y-99300000D02*
X162000000Y-93200000D01*
X100000000Y-78480000D02*
X100000000Y-99300000D01*
X161300000Y-77780000D02*
X100700000Y-77780000D01*
X162000000Y-84500000D02*
X162000000Y-78480000D01*
X100700000Y-100000000D02*
X161300000Y-100000000D01*
X124688600Y-86940400D02*
X124688600Y-84440400D01*
X124688600Y-84440400D02*
X123288600Y-84440400D01*
X123288600Y-84440400D02*
X123288600Y-86940400D01*
X123288600Y-86940400D02*
X124688600Y-86940400D01*
X152620000Y-87630000D02*
X155580000Y-87630000D01*
X152620000Y-86170000D02*
X152620000Y-87630000D01*
X155580000Y-86170000D02*
X152620000Y-86170000D01*
X155580000Y-87630000D02*
X155580000Y-86170000D01*
X120796500Y-91218000D02*
X117836500Y-91218000D01*
X120796500Y-92678000D02*
X120796500Y-91218000D01*
X117836500Y-92678000D02*
X120796500Y-92678000D01*
X117836500Y-91218000D02*
X117836500Y-92678000D01*
X144270000Y-88868000D02*
X147230000Y-88868000D01*
X144270000Y-87408000D02*
X144270000Y-88868000D01*
X147230000Y-87408000D02*
X144270000Y-87408000D01*
X147230000Y-88868000D02*
X147230000Y-87408000D01*
X148780000Y-93430000D02*
X148780000Y-90470000D01*
X147320000Y-93430000D02*
X148780000Y-93430000D01*
X147320000Y-90470000D02*
X147320000Y-93430000D01*
X148780000Y-90470000D02*
X147320000Y-90470000D01*
X104320000Y-87598000D02*
X107280000Y-87598000D01*
X104320000Y-86138000D02*
X104320000Y-87598000D01*
X107280000Y-86138000D02*
X104320000Y-86138000D01*
X107280000Y-87598000D02*
X107280000Y-86138000D01*
X128226000Y-83284000D02*
X125266000Y-83284000D01*
X128226000Y-84744000D02*
X128226000Y-83284000D01*
X125266000Y-84744000D02*
X128226000Y-84744000D01*
X125266000Y-83284000D02*
X125266000Y-84744000D01*
X109970000Y-88220000D02*
X109970000Y-91180000D01*
X111430000Y-88220000D02*
X109970000Y-88220000D01*
X111430000Y-91180000D02*
X111430000Y-88220000D01*
X109970000Y-91180000D02*
X111430000Y-91180000D01*
X144270000Y-91880000D02*
X147230000Y-91880000D01*
X144270000Y-90420000D02*
X144270000Y-91880000D01*
X147230000Y-90420000D02*
X144270000Y-90420000D01*
X147230000Y-91880000D02*
X147230000Y-90420000D01*
X160611000Y-81312000D02*
X157651000Y-81312000D01*
X160611000Y-82772000D02*
X160611000Y-81312000D01*
X157651000Y-82772000D02*
X160611000Y-82772000D01*
X157651000Y-81312000D02*
X157651000Y-82772000D01*
X103842000Y-88932000D02*
X100882000Y-88932000D01*
X103842000Y-90392000D02*
X103842000Y-88932000D01*
X100882000Y-90392000D02*
X103842000Y-90392000D01*
X100882000Y-88932000D02*
X100882000Y-90392000D01*
X104370000Y-88220000D02*
X104370000Y-91180000D01*
X105830000Y-88220000D02*
X104370000Y-88220000D01*
X105830000Y-91180000D02*
X105830000Y-88220000D01*
X104370000Y-91180000D02*
X105830000Y-91180000D01*
X101220000Y-84930000D02*
X104180000Y-84930000D01*
X101220000Y-83470000D02*
X101220000Y-84930000D01*
X104180000Y-83470000D02*
X101220000Y-83470000D01*
X104180000Y-84930000D02*
X104180000Y-83470000D01*
X128226000Y-86586000D02*
X125266000Y-86586000D01*
X128226000Y-88046000D02*
X128226000Y-86586000D01*
X125266000Y-88046000D02*
X128226000Y-88046000D01*
X125266000Y-86586000D02*
X125266000Y-88046000D01*
X116262400Y-89665000D02*
X116262400Y-92625000D01*
X117722400Y-89665000D02*
X116262400Y-89665000D01*
X117722400Y-92625000D02*
X117722400Y-89665000D01*
X116262400Y-92625000D02*
X117722400Y-92625000D01*
X118865200Y-88776200D02*
X121825200Y-88776200D01*
X118865200Y-87316200D02*
X118865200Y-88776200D01*
X121825200Y-87316200D02*
X118865200Y-87316200D01*
X121825200Y-88776200D02*
X121825200Y-87316200D01*
X144270000Y-90392000D02*
X147230000Y-90392000D01*
X144270000Y-88932000D02*
X144270000Y-90392000D01*
X147230000Y-88932000D02*
X144270000Y-88932000D01*
X147230000Y-90392000D02*
X147230000Y-88932000D01*
X118636800Y-87332000D02*
X118636800Y-84372000D01*
X117176800Y-87332000D02*
X118636800Y-87332000D01*
X117176800Y-84372000D02*
X117176800Y-87332000D01*
X118636800Y-84372000D02*
X117176800Y-84372000D01*
X120110000Y-87332000D02*
X120110000Y-84372000D01*
X118650000Y-87332000D02*
X120110000Y-87332000D01*
X118650000Y-84372000D02*
X118650000Y-87332000D01*
X120110000Y-84372000D02*
X118650000Y-84372000D01*
X114738400Y-89665000D02*
X114738400Y-92625000D01*
X116198400Y-89665000D02*
X114738400Y-89665000D01*
X116198400Y-92625000D02*
X116198400Y-89665000D01*
X114738400Y-92625000D02*
X116198400Y-92625000D01*
X117062000Y-87332000D02*
X117062000Y-84372000D01*
X115602000Y-87332000D02*
X117062000Y-87332000D01*
X115602000Y-84372000D02*
X115602000Y-87332000D01*
X117062000Y-84372000D02*
X115602000Y-84372000D01*
X157150000Y-87400000D02*
X153850000Y-87400000D01*
X157150000Y-87400000D02*
X157150000Y-89000000D01*
X153850000Y-89000000D02*
X153850000Y-87400000D01*
X153850000Y-89000000D02*
X157150000Y-89000000D01*
X153850000Y-90300000D02*
X157150000Y-90300000D01*
X153850000Y-90300000D02*
X153850000Y-88700000D01*
X157150000Y-88700000D02*
X157150000Y-90300000D01*
X157150000Y-88700000D02*
X153850000Y-88700000D01*
X115538000Y-87332000D02*
X115538000Y-84372000D01*
X114078000Y-87332000D02*
X115538000Y-87332000D01*
X114078000Y-84372000D02*
X114078000Y-87332000D01*
X115538000Y-84372000D02*
X114078000Y-84372000D01*
X121812500Y-90392000D02*
X121812500Y-88932000D01*
X121812500Y-88932000D02*
X118852500Y-88932000D01*
X118852500Y-88932000D02*
X118852500Y-90392000D01*
X118852500Y-90392000D02*
X121812500Y-90392000D01*
X113062000Y-92666000D02*
X114522000Y-92666000D01*
X114522000Y-92666000D02*
X114522000Y-89706000D01*
X114522000Y-89706000D02*
X113062000Y-89706000D01*
X113062000Y-89706000D02*
X113062000Y-92666000D01*
X152380000Y-88730000D02*
X152380000Y-85770000D01*
X150920000Y-88730000D02*
X152380000Y-88730000D01*
X150920000Y-85770000D02*
X150920000Y-88730000D01*
X152380000Y-85770000D02*
X150920000Y-85770000D01*
X151046500Y-89245000D02*
X151046500Y-84745000D01*
X148546500Y-89245000D02*
X151046500Y-89245000D01*
X148546500Y-84745000D02*
X148546500Y-89245000D01*
X151046500Y-84745000D02*
X148546500Y-84745000D01*
X110474000Y-95250000D02*
G75*
G03X110474000Y-95250000I-1000000J0D01*
G01*
X150860000Y-95250000D02*
G75*
G03X150860000Y-95250000I-1000000J0D01*
G01*
X156956000Y-95250000D02*
G75*
G03X156956000Y-95250000I-1000000J0D01*
G01*
X148320000Y-95250000D02*
G75*
G03X148320000Y-95250000I-1000000J0D01*
G01*
X145780000Y-95250000D02*
G75*
G03X145780000Y-95250000I-1000000J0D01*
G01*
X143240000Y-95250000D02*
G75*
G03X143240000Y-95250000I-1000000J0D01*
G01*
X110100000Y-92950000D02*
G75*
G03X110100000Y-92950000I-1000000J0D01*
G01*
X157600000Y-84100000D02*
G75*
G03X157600000Y-84100000I-1000000J0D01*
G01*
X105620000Y-82450000D02*
G75*
G03X105620000Y-82450000I-1000000J0D01*
G01*
X113030000Y-88220000D02*
X111570000Y-88220000D01*
X111570000Y-88220000D02*
X111570000Y-91180000D01*
X111570000Y-91180000D02*
X113030000Y-91180000D01*
X113030000Y-91180000D02*
X113030000Y-88220000D01*
X100700000Y-85100000D02*
X100700000Y-88900000D01*
X100700000Y-88900000D02*
X104300000Y-88900000D01*
X104300000Y-88900000D02*
X104300000Y-85100000D01*
X104300000Y-85100000D02*
X100700000Y-85100000D01*
X106000000Y-87700000D02*
X106000000Y-91300000D01*
X109800000Y-87700000D02*
X106000000Y-87700000D01*
X109800000Y-91300000D02*
X109800000Y-87700000D01*
X106000000Y-91300000D02*
X109800000Y-91300000D01*
X113156000Y-91148000D02*
X109856000Y-91148000D01*
X113156000Y-91148000D02*
X113156000Y-92748000D01*
X109856000Y-92748000D02*
X109856000Y-91148000D01*
X109856000Y-92748000D02*
X113156000Y-92748000D01*
M02*
