%TF.GenerationSoftware,KiCad,Pcbnew,(5.1.5)-3*%
%TF.CreationDate,2020-07-06T18:35:22-07:00*%
%TF.ProjectId,UPduino_v3.0,55506475-696e-46f5-9f76-332e302e6b69,3.0*%
%TF.SameCoordinates,Original*%
%TF.FileFunction,Legend,Bot*%
%TF.FilePolarity,Positive*%
%FSLAX46Y46*%
G04 Gerber Fmt 4.6, Leading zero omitted, Abs format (unit mm)*
G04 Created by KiCad (PCBNEW (5.1.5)-3) date 2020-07-06 18:35:22*
%MOMM*%
%LPD*%
G04 APERTURE LIST*
%ADD10C,0.127000*%
%ADD11C,0.050000*%
%ADD12C,0.120000*%
%ADD13C,0.150000*%
%ADD14C,0.010000*%
G04 APERTURE END LIST*
D10*
X130313333Y-78253333D02*
X130280000Y-78220000D01*
X130213333Y-78186666D01*
X130046666Y-78186666D01*
X129980000Y-78220000D01*
X129946666Y-78253333D01*
X129913333Y-78320000D01*
X129913333Y-78386666D01*
X129946666Y-78486666D01*
X130346666Y-78886666D01*
X129913333Y-78886666D01*
X129313333Y-78186666D02*
X129446666Y-78186666D01*
X129513333Y-78220000D01*
X129546666Y-78253333D01*
X129613333Y-78353333D01*
X129646666Y-78486666D01*
X129646666Y-78753333D01*
X129613333Y-78820000D01*
X129580000Y-78853333D01*
X129513333Y-78886666D01*
X129380000Y-78886666D01*
X129313333Y-78853333D01*
X129280000Y-78820000D01*
X129246666Y-78753333D01*
X129246666Y-78586666D01*
X129280000Y-78520000D01*
X129313333Y-78486666D01*
X129380000Y-78453333D01*
X129513333Y-78453333D01*
X129580000Y-78486666D01*
X129613333Y-78520000D01*
X129646666Y-78586666D01*
X102303333Y-78308333D02*
X102270000Y-78275000D01*
X102203333Y-78241666D01*
X102036666Y-78241666D01*
X101970000Y-78275000D01*
X101936666Y-78308333D01*
X101903333Y-78375000D01*
X101903333Y-78441666D01*
X101936666Y-78541666D01*
X102336666Y-78941666D01*
X101903333Y-78941666D01*
X101503333Y-78541666D02*
X101570000Y-78508333D01*
X101603333Y-78475000D01*
X101636666Y-78408333D01*
X101636666Y-78375000D01*
X101603333Y-78308333D01*
X101570000Y-78275000D01*
X101503333Y-78241666D01*
X101370000Y-78241666D01*
X101303333Y-78275000D01*
X101270000Y-78308333D01*
X101236666Y-78375000D01*
X101236666Y-78408333D01*
X101270000Y-78475000D01*
X101303333Y-78508333D01*
X101370000Y-78541666D01*
X101503333Y-78541666D01*
X101570000Y-78575000D01*
X101603333Y-78608333D01*
X101636666Y-78675000D01*
X101636666Y-78808333D01*
X101603333Y-78875000D01*
X101570000Y-78908333D01*
X101503333Y-78941666D01*
X101370000Y-78941666D01*
X101303333Y-78908333D01*
X101270000Y-78875000D01*
X101236666Y-78808333D01*
X101236666Y-78675000D01*
X101270000Y-78608333D01*
X101303333Y-78575000D01*
X101370000Y-78541666D01*
X147396666Y-78260000D02*
X147463333Y-78226666D01*
X147563333Y-78226666D01*
X147663333Y-78260000D01*
X147730000Y-78326666D01*
X147763333Y-78393333D01*
X147796666Y-78526666D01*
X147796666Y-78626666D01*
X147763333Y-78760000D01*
X147730000Y-78826666D01*
X147663333Y-78893333D01*
X147563333Y-78926666D01*
X147496666Y-78926666D01*
X147396666Y-78893333D01*
X147363333Y-78860000D01*
X147363333Y-78626666D01*
X147496666Y-78626666D01*
X135433333Y-78253333D02*
X135400000Y-78220000D01*
X135333333Y-78186666D01*
X135166666Y-78186666D01*
X135100000Y-78220000D01*
X135066666Y-78253333D01*
X135033333Y-78320000D01*
X135033333Y-78386666D01*
X135066666Y-78486666D01*
X135466666Y-78886666D01*
X135033333Y-78886666D01*
X134800000Y-78186666D02*
X134366666Y-78186666D01*
X134600000Y-78453333D01*
X134500000Y-78453333D01*
X134433333Y-78486666D01*
X134400000Y-78520000D01*
X134366666Y-78586666D01*
X134366666Y-78753333D01*
X134400000Y-78820000D01*
X134433333Y-78853333D01*
X134500000Y-78886666D01*
X134700000Y-78886666D01*
X134766666Y-78853333D01*
X134800000Y-78820000D01*
X142668333Y-78186666D02*
X143001666Y-78186666D01*
X143035000Y-78520000D01*
X143001666Y-78486666D01*
X142935000Y-78453333D01*
X142768333Y-78453333D01*
X142701666Y-78486666D01*
X142668333Y-78520000D01*
X142635000Y-78586666D01*
X142635000Y-78753333D01*
X142668333Y-78820000D01*
X142701666Y-78853333D01*
X142768333Y-78886666D01*
X142935000Y-78886666D01*
X143001666Y-78853333D01*
X143035000Y-78820000D01*
X142435000Y-78186666D02*
X142201666Y-78886666D01*
X141968333Y-78186666D01*
X155663333Y-78906666D02*
X155896666Y-78573333D01*
X156063333Y-78906666D02*
X156063333Y-78206666D01*
X155796666Y-78206666D01*
X155730000Y-78240000D01*
X155696666Y-78273333D01*
X155663333Y-78340000D01*
X155663333Y-78440000D01*
X155696666Y-78506666D01*
X155730000Y-78540000D01*
X155796666Y-78573333D01*
X156063333Y-78573333D01*
X155396666Y-78873333D02*
X155296666Y-78906666D01*
X155130000Y-78906666D01*
X155063333Y-78873333D01*
X155030000Y-78840000D01*
X154996666Y-78773333D01*
X154996666Y-78706666D01*
X155030000Y-78640000D01*
X155063333Y-78606666D01*
X155130000Y-78573333D01*
X155263333Y-78540000D01*
X155330000Y-78506666D01*
X155363333Y-78473333D01*
X155396666Y-78406666D01*
X155396666Y-78340000D01*
X155363333Y-78273333D01*
X155330000Y-78240000D01*
X155263333Y-78206666D01*
X155096666Y-78206666D01*
X154996666Y-78240000D01*
X154796666Y-78206666D02*
X154396666Y-78206666D01*
X154596666Y-78906666D02*
X154596666Y-78206666D01*
X144985000Y-78520000D02*
X144885000Y-78553333D01*
X144851666Y-78586666D01*
X144818333Y-78653333D01*
X144818333Y-78753333D01*
X144851666Y-78820000D01*
X144885000Y-78853333D01*
X144951666Y-78886666D01*
X145218333Y-78886666D01*
X145218333Y-78186666D01*
X144985000Y-78186666D01*
X144918333Y-78220000D01*
X144885000Y-78253333D01*
X144851666Y-78320000D01*
X144851666Y-78386666D01*
X144885000Y-78453333D01*
X144918333Y-78486666D01*
X144985000Y-78520000D01*
X145218333Y-78520000D01*
X127763333Y-78263333D02*
X127730000Y-78230000D01*
X127663333Y-78196666D01*
X127496666Y-78196666D01*
X127430000Y-78230000D01*
X127396666Y-78263333D01*
X127363333Y-78330000D01*
X127363333Y-78396666D01*
X127396666Y-78496666D01*
X127796666Y-78896666D01*
X127363333Y-78896666D01*
X127130000Y-78196666D02*
X126663333Y-78196666D01*
X126963333Y-78896666D01*
X117686666Y-78156666D02*
X117253333Y-78156666D01*
X117486666Y-78423333D01*
X117386666Y-78423333D01*
X117320000Y-78456666D01*
X117286666Y-78490000D01*
X117253333Y-78556666D01*
X117253333Y-78723333D01*
X117286666Y-78790000D01*
X117320000Y-78823333D01*
X117386666Y-78856666D01*
X117586666Y-78856666D01*
X117653333Y-78823333D01*
X117686666Y-78790000D01*
X117020000Y-78156666D02*
X116553333Y-78156666D01*
X116853333Y-78856666D01*
X160803333Y-78210000D02*
X160870000Y-78176666D01*
X160970000Y-78176666D01*
X161070000Y-78210000D01*
X161136666Y-78276666D01*
X161170000Y-78343333D01*
X161203333Y-78476666D01*
X161203333Y-78576666D01*
X161170000Y-78710000D01*
X161136666Y-78776666D01*
X161070000Y-78843333D01*
X160970000Y-78876666D01*
X160903333Y-78876666D01*
X160803333Y-78843333D01*
X160770000Y-78810000D01*
X160770000Y-78576666D01*
X160903333Y-78576666D01*
X160470000Y-78876666D02*
X160470000Y-78176666D01*
X160070000Y-78876666D01*
X160070000Y-78176666D01*
X159736666Y-78876666D02*
X159736666Y-78176666D01*
X159570000Y-78176666D01*
X159470000Y-78210000D01*
X159403333Y-78276666D01*
X159370000Y-78343333D01*
X159336666Y-78476666D01*
X159336666Y-78576666D01*
X159370000Y-78710000D01*
X159403333Y-78776666D01*
X159470000Y-78843333D01*
X159570000Y-78876666D01*
X159736666Y-78876666D01*
X149943333Y-78916666D02*
X150176666Y-78583333D01*
X150343333Y-78916666D02*
X150343333Y-78216666D01*
X150076666Y-78216666D01*
X150010000Y-78250000D01*
X149976666Y-78283333D01*
X149943333Y-78350000D01*
X149943333Y-78450000D01*
X149976666Y-78516666D01*
X150010000Y-78550000D01*
X150076666Y-78583333D01*
X150343333Y-78583333D01*
X120236666Y-78206666D02*
X119803333Y-78206666D01*
X120036666Y-78473333D01*
X119936666Y-78473333D01*
X119870000Y-78506666D01*
X119836666Y-78540000D01*
X119803333Y-78606666D01*
X119803333Y-78773333D01*
X119836666Y-78840000D01*
X119870000Y-78873333D01*
X119936666Y-78906666D01*
X120136666Y-78906666D01*
X120203333Y-78873333D01*
X120236666Y-78840000D01*
X119136666Y-78906666D02*
X119536666Y-78906666D01*
X119336666Y-78906666D02*
X119336666Y-78206666D01*
X119403333Y-78306666D01*
X119470000Y-78373333D01*
X119536666Y-78406666D01*
X132883333Y-78263333D02*
X132850000Y-78230000D01*
X132783333Y-78196666D01*
X132616666Y-78196666D01*
X132550000Y-78230000D01*
X132516666Y-78263333D01*
X132483333Y-78330000D01*
X132483333Y-78396666D01*
X132516666Y-78496666D01*
X132916666Y-78896666D01*
X132483333Y-78896666D01*
X131850000Y-78196666D02*
X132183333Y-78196666D01*
X132216666Y-78530000D01*
X132183333Y-78496666D01*
X132116666Y-78463333D01*
X131950000Y-78463333D01*
X131883333Y-78496666D01*
X131850000Y-78530000D01*
X131816666Y-78596666D01*
X131816666Y-78763333D01*
X131850000Y-78830000D01*
X131883333Y-78863333D01*
X131950000Y-78896666D01*
X132116666Y-78896666D01*
X132183333Y-78863333D01*
X132216666Y-78830000D01*
X153823333Y-78876666D02*
X153823333Y-78176666D01*
X153656666Y-78176666D01*
X153556666Y-78210000D01*
X153490000Y-78276666D01*
X153456666Y-78343333D01*
X153423333Y-78476666D01*
X153423333Y-78576666D01*
X153456666Y-78710000D01*
X153490000Y-78776666D01*
X153556666Y-78843333D01*
X153656666Y-78876666D01*
X153823333Y-78876666D01*
X152990000Y-78176666D02*
X152856666Y-78176666D01*
X152790000Y-78210000D01*
X152723333Y-78276666D01*
X152690000Y-78410000D01*
X152690000Y-78643333D01*
X152723333Y-78776666D01*
X152790000Y-78843333D01*
X152856666Y-78876666D01*
X152990000Y-78876666D01*
X153056666Y-78843333D01*
X153123333Y-78776666D01*
X153156666Y-78643333D01*
X153156666Y-78410000D01*
X153123333Y-78276666D01*
X153056666Y-78210000D01*
X152990000Y-78176666D01*
X152390000Y-78876666D02*
X152390000Y-78176666D01*
X151990000Y-78876666D01*
X151990000Y-78176666D01*
X151656666Y-78510000D02*
X151423333Y-78510000D01*
X151323333Y-78876666D02*
X151656666Y-78876666D01*
X151656666Y-78176666D01*
X151323333Y-78176666D01*
X110036666Y-78176666D02*
X109603333Y-78176666D01*
X109836666Y-78443333D01*
X109736666Y-78443333D01*
X109670000Y-78476666D01*
X109636666Y-78510000D01*
X109603333Y-78576666D01*
X109603333Y-78743333D01*
X109636666Y-78810000D01*
X109670000Y-78843333D01*
X109736666Y-78876666D01*
X109936666Y-78876666D01*
X110003333Y-78843333D01*
X110036666Y-78810000D01*
X109003333Y-78176666D02*
X109136666Y-78176666D01*
X109203333Y-78210000D01*
X109236666Y-78243333D01*
X109303333Y-78343333D01*
X109336666Y-78476666D01*
X109336666Y-78743333D01*
X109303333Y-78810000D01*
X109270000Y-78843333D01*
X109203333Y-78876666D01*
X109070000Y-78876666D01*
X109003333Y-78843333D01*
X108970000Y-78810000D01*
X108936666Y-78743333D01*
X108936666Y-78576666D01*
X108970000Y-78510000D01*
X109003333Y-78476666D01*
X109070000Y-78443333D01*
X109203333Y-78443333D01*
X109270000Y-78476666D01*
X109303333Y-78510000D01*
X109336666Y-78576666D01*
X104936666Y-78186666D02*
X104503333Y-78186666D01*
X104736666Y-78453333D01*
X104636666Y-78453333D01*
X104570000Y-78486666D01*
X104536666Y-78520000D01*
X104503333Y-78586666D01*
X104503333Y-78753333D01*
X104536666Y-78820000D01*
X104570000Y-78853333D01*
X104636666Y-78886666D01*
X104836666Y-78886666D01*
X104903333Y-78853333D01*
X104936666Y-78820000D01*
X104103333Y-78486666D02*
X104170000Y-78453333D01*
X104203333Y-78420000D01*
X104236666Y-78353333D01*
X104236666Y-78320000D01*
X104203333Y-78253333D01*
X104170000Y-78220000D01*
X104103333Y-78186666D01*
X103970000Y-78186666D01*
X103903333Y-78220000D01*
X103870000Y-78253333D01*
X103836666Y-78320000D01*
X103836666Y-78353333D01*
X103870000Y-78420000D01*
X103903333Y-78453333D01*
X103970000Y-78486666D01*
X104103333Y-78486666D01*
X104170000Y-78520000D01*
X104203333Y-78553333D01*
X104236666Y-78620000D01*
X104236666Y-78753333D01*
X104203333Y-78820000D01*
X104170000Y-78853333D01*
X104103333Y-78886666D01*
X103970000Y-78886666D01*
X103903333Y-78853333D01*
X103870000Y-78820000D01*
X103836666Y-78753333D01*
X103836666Y-78620000D01*
X103870000Y-78553333D01*
X103903333Y-78520000D01*
X103970000Y-78486666D01*
X122736666Y-78166666D02*
X122303333Y-78166666D01*
X122536666Y-78433333D01*
X122436666Y-78433333D01*
X122370000Y-78466666D01*
X122336666Y-78500000D01*
X122303333Y-78566666D01*
X122303333Y-78733333D01*
X122336666Y-78800000D01*
X122370000Y-78833333D01*
X122436666Y-78866666D01*
X122636666Y-78866666D01*
X122703333Y-78833333D01*
X122736666Y-78800000D01*
X121670000Y-78166666D02*
X122003333Y-78166666D01*
X122036666Y-78500000D01*
X122003333Y-78466666D01*
X121936666Y-78433333D01*
X121770000Y-78433333D01*
X121703333Y-78466666D01*
X121670000Y-78500000D01*
X121636666Y-78566666D01*
X121636666Y-78733333D01*
X121670000Y-78800000D01*
X121703333Y-78833333D01*
X121770000Y-78866666D01*
X121936666Y-78866666D01*
X122003333Y-78833333D01*
X122036666Y-78800000D01*
X115126666Y-78176666D02*
X114693333Y-78176666D01*
X114926666Y-78443333D01*
X114826666Y-78443333D01*
X114760000Y-78476666D01*
X114726666Y-78510000D01*
X114693333Y-78576666D01*
X114693333Y-78743333D01*
X114726666Y-78810000D01*
X114760000Y-78843333D01*
X114826666Y-78876666D01*
X115026666Y-78876666D01*
X115093333Y-78843333D01*
X115126666Y-78810000D01*
X114093333Y-78410000D02*
X114093333Y-78876666D01*
X114260000Y-78143333D02*
X114426666Y-78643333D01*
X113993333Y-78643333D01*
X107110000Y-78440000D02*
X107110000Y-78906666D01*
X107276666Y-78173333D02*
X107443333Y-78673333D01*
X107010000Y-78673333D01*
X106776666Y-78273333D02*
X106743333Y-78240000D01*
X106676666Y-78206666D01*
X106510000Y-78206666D01*
X106443333Y-78240000D01*
X106410000Y-78273333D01*
X106376666Y-78340000D01*
X106376666Y-78406666D01*
X106410000Y-78506666D01*
X106810000Y-78906666D01*
X106376666Y-78906666D01*
X125286666Y-78206666D02*
X124853333Y-78206666D01*
X125086666Y-78473333D01*
X124986666Y-78473333D01*
X124920000Y-78506666D01*
X124886666Y-78540000D01*
X124853333Y-78606666D01*
X124853333Y-78773333D01*
X124886666Y-78840000D01*
X124920000Y-78873333D01*
X124986666Y-78906666D01*
X125186666Y-78906666D01*
X125253333Y-78873333D01*
X125286666Y-78840000D01*
X124586666Y-78273333D02*
X124553333Y-78240000D01*
X124486666Y-78206666D01*
X124320000Y-78206666D01*
X124253333Y-78240000D01*
X124220000Y-78273333D01*
X124186666Y-78340000D01*
X124186666Y-78406666D01*
X124220000Y-78506666D01*
X124620000Y-78906666D01*
X124186666Y-78906666D01*
X158486666Y-78166666D02*
X158253333Y-78866666D01*
X158020000Y-78166666D01*
X157786666Y-78866666D02*
X157786666Y-78166666D01*
X157320000Y-78166666D02*
X157186666Y-78166666D01*
X157120000Y-78200000D01*
X157053333Y-78266666D01*
X157020000Y-78400000D01*
X157020000Y-78633333D01*
X157053333Y-78766666D01*
X157120000Y-78833333D01*
X157186666Y-78866666D01*
X157320000Y-78866666D01*
X157386666Y-78833333D01*
X157453333Y-78766666D01*
X157486666Y-78633333D01*
X157486666Y-78400000D01*
X157453333Y-78266666D01*
X157386666Y-78200000D01*
X157320000Y-78166666D01*
X112190000Y-78420000D02*
X112190000Y-78886666D01*
X112356666Y-78153333D02*
X112523333Y-78653333D01*
X112090000Y-78653333D01*
X111890000Y-78186666D02*
X111456666Y-78186666D01*
X111690000Y-78453333D01*
X111590000Y-78453333D01*
X111523333Y-78486666D01*
X111490000Y-78520000D01*
X111456666Y-78586666D01*
X111456666Y-78753333D01*
X111490000Y-78820000D01*
X111523333Y-78853333D01*
X111590000Y-78886666D01*
X111790000Y-78886666D01*
X111856666Y-78853333D01*
X111890000Y-78820000D01*
X137903333Y-78220000D02*
X137970000Y-78186666D01*
X138070000Y-78186666D01*
X138170000Y-78220000D01*
X138236666Y-78286666D01*
X138270000Y-78353333D01*
X138303333Y-78486666D01*
X138303333Y-78586666D01*
X138270000Y-78720000D01*
X138236666Y-78786666D01*
X138170000Y-78853333D01*
X138070000Y-78886666D01*
X138003333Y-78886666D01*
X137903333Y-78853333D01*
X137870000Y-78820000D01*
X137870000Y-78586666D01*
X138003333Y-78586666D01*
X137570000Y-78886666D02*
X137570000Y-78186666D01*
X137170000Y-78886666D01*
X137170000Y-78186666D01*
X136836666Y-78886666D02*
X136836666Y-78186666D01*
X136670000Y-78186666D01*
X136570000Y-78220000D01*
X136503333Y-78286666D01*
X136470000Y-78353333D01*
X136436666Y-78486666D01*
X136436666Y-78586666D01*
X136470000Y-78720000D01*
X136503333Y-78786666D01*
X136570000Y-78853333D01*
X136670000Y-78886666D01*
X136836666Y-78886666D01*
X140876666Y-78186666D02*
X140443333Y-78186666D01*
X140676666Y-78453333D01*
X140576666Y-78453333D01*
X140510000Y-78486666D01*
X140476666Y-78520000D01*
X140443333Y-78586666D01*
X140443333Y-78753333D01*
X140476666Y-78820000D01*
X140510000Y-78853333D01*
X140576666Y-78886666D01*
X140776666Y-78886666D01*
X140843333Y-78853333D01*
X140876666Y-78820000D01*
X140243333Y-78186666D02*
X140010000Y-78886666D01*
X139776666Y-78186666D01*
X139610000Y-78186666D02*
X139176666Y-78186666D01*
X139410000Y-78453333D01*
X139310000Y-78453333D01*
X139243333Y-78486666D01*
X139210000Y-78520000D01*
X139176666Y-78586666D01*
X139176666Y-78753333D01*
X139210000Y-78820000D01*
X139243333Y-78853333D01*
X139310000Y-78886666D01*
X139510000Y-78886666D01*
X139576666Y-78853333D01*
X139610000Y-78820000D01*
X119910000Y-99180000D02*
X119910000Y-99646666D01*
X120076666Y-98913333D02*
X120243333Y-99413333D01*
X119810000Y-99413333D01*
X119243333Y-99180000D02*
X119243333Y-99646666D01*
X119410000Y-98913333D02*
X119576666Y-99413333D01*
X119143333Y-99413333D01*
X124913333Y-99626666D02*
X124780000Y-99626666D01*
X124713333Y-99593333D01*
X124680000Y-99560000D01*
X124613333Y-99460000D01*
X124580000Y-99326666D01*
X124580000Y-99060000D01*
X124613333Y-98993333D01*
X124646666Y-98960000D01*
X124713333Y-98926666D01*
X124846666Y-98926666D01*
X124913333Y-98960000D01*
X124946666Y-98993333D01*
X124980000Y-99060000D01*
X124980000Y-99226666D01*
X124946666Y-99293333D01*
X124913333Y-99326666D01*
X124846666Y-99360000D01*
X124713333Y-99360000D01*
X124646666Y-99326666D01*
X124613333Y-99293333D01*
X124580000Y-99226666D01*
X112250000Y-99190000D02*
X112250000Y-99656666D01*
X112416666Y-98923333D02*
X112583333Y-99423333D01*
X112150000Y-99423333D01*
X111783333Y-99256666D02*
X111850000Y-99223333D01*
X111883333Y-99190000D01*
X111916666Y-99123333D01*
X111916666Y-99090000D01*
X111883333Y-99023333D01*
X111850000Y-98990000D01*
X111783333Y-98956666D01*
X111650000Y-98956666D01*
X111583333Y-98990000D01*
X111550000Y-99023333D01*
X111516666Y-99090000D01*
X111516666Y-99123333D01*
X111550000Y-99190000D01*
X111583333Y-99223333D01*
X111650000Y-99256666D01*
X111783333Y-99256666D01*
X111850000Y-99290000D01*
X111883333Y-99323333D01*
X111916666Y-99390000D01*
X111916666Y-99523333D01*
X111883333Y-99590000D01*
X111850000Y-99623333D01*
X111783333Y-99656666D01*
X111650000Y-99656666D01*
X111583333Y-99623333D01*
X111550000Y-99590000D01*
X111516666Y-99523333D01*
X111516666Y-99390000D01*
X111550000Y-99323333D01*
X111583333Y-99290000D01*
X111650000Y-99256666D01*
X138083333Y-99023333D02*
X138050000Y-98990000D01*
X137983333Y-98956666D01*
X137816666Y-98956666D01*
X137750000Y-98990000D01*
X137716666Y-99023333D01*
X137683333Y-99090000D01*
X137683333Y-99156666D01*
X137716666Y-99256666D01*
X138116666Y-99656666D01*
X137683333Y-99656666D01*
X137016666Y-99656666D02*
X137416666Y-99656666D01*
X137216666Y-99656666D02*
X137216666Y-98956666D01*
X137283333Y-99056666D01*
X137350000Y-99123333D01*
X137416666Y-99156666D01*
X114903333Y-98956666D02*
X114470000Y-98956666D01*
X114703333Y-99223333D01*
X114603333Y-99223333D01*
X114536666Y-99256666D01*
X114503333Y-99290000D01*
X114470000Y-99356666D01*
X114470000Y-99523333D01*
X114503333Y-99590000D01*
X114536666Y-99623333D01*
X114603333Y-99656666D01*
X114803333Y-99656666D01*
X114870000Y-99623333D01*
X114903333Y-99590000D01*
X109740000Y-99140000D02*
X109740000Y-99606666D01*
X109906666Y-98873333D02*
X110073333Y-99373333D01*
X109640000Y-99373333D01*
X109040000Y-98906666D02*
X109373333Y-98906666D01*
X109406666Y-99240000D01*
X109373333Y-99206666D01*
X109306666Y-99173333D01*
X109140000Y-99173333D01*
X109073333Y-99206666D01*
X109040000Y-99240000D01*
X109006666Y-99306666D01*
X109006666Y-99473333D01*
X109040000Y-99540000D01*
X109073333Y-99573333D01*
X109140000Y-99606666D01*
X109306666Y-99606666D01*
X109373333Y-99573333D01*
X109406666Y-99540000D01*
X132513333Y-99666666D02*
X132913333Y-99666666D01*
X132713333Y-99666666D02*
X132713333Y-98966666D01*
X132780000Y-99066666D01*
X132846666Y-99133333D01*
X132913333Y-99166666D01*
X132180000Y-99666666D02*
X132046666Y-99666666D01*
X131980000Y-99633333D01*
X131946666Y-99600000D01*
X131880000Y-99500000D01*
X131846666Y-99366666D01*
X131846666Y-99100000D01*
X131880000Y-99033333D01*
X131913333Y-99000000D01*
X131980000Y-98966666D01*
X132113333Y-98966666D01*
X132180000Y-99000000D01*
X132213333Y-99033333D01*
X132246666Y-99100000D01*
X132246666Y-99266666D01*
X132213333Y-99333333D01*
X132180000Y-99366666D01*
X132113333Y-99400000D01*
X131980000Y-99400000D01*
X131913333Y-99366666D01*
X131880000Y-99333333D01*
X131846666Y-99266666D01*
X107210000Y-99140000D02*
X107210000Y-99606666D01*
X107376666Y-98873333D02*
X107543333Y-99373333D01*
X107110000Y-99373333D01*
X106910000Y-98906666D02*
X106443333Y-98906666D01*
X106743333Y-99606666D01*
X104680000Y-99160000D02*
X104680000Y-99626666D01*
X104846666Y-98893333D02*
X105013333Y-99393333D01*
X104580000Y-99393333D01*
X104013333Y-98926666D02*
X104146666Y-98926666D01*
X104213333Y-98960000D01*
X104246666Y-98993333D01*
X104313333Y-99093333D01*
X104346666Y-99226666D01*
X104346666Y-99493333D01*
X104313333Y-99560000D01*
X104280000Y-99593333D01*
X104213333Y-99626666D01*
X104080000Y-99626666D01*
X104013333Y-99593333D01*
X103980000Y-99560000D01*
X103946666Y-99493333D01*
X103946666Y-99326666D01*
X103980000Y-99260000D01*
X104013333Y-99226666D01*
X104080000Y-99193333D01*
X104213333Y-99193333D01*
X104280000Y-99226666D01*
X104313333Y-99260000D01*
X104346666Y-99326666D01*
X140133333Y-99646666D02*
X140533333Y-99646666D01*
X140333333Y-99646666D02*
X140333333Y-98946666D01*
X140400000Y-99046666D01*
X140466666Y-99113333D01*
X140533333Y-99146666D01*
X139866666Y-99013333D02*
X139833333Y-98980000D01*
X139766666Y-98946666D01*
X139600000Y-98946666D01*
X139533333Y-98980000D01*
X139500000Y-99013333D01*
X139466666Y-99080000D01*
X139466666Y-99146666D01*
X139500000Y-99246666D01*
X139900000Y-99646666D01*
X139466666Y-99646666D01*
X129943333Y-99646666D02*
X130343333Y-99646666D01*
X130143333Y-99646666D02*
X130143333Y-98946666D01*
X130210000Y-99046666D01*
X130276666Y-99113333D01*
X130343333Y-99146666D01*
X129543333Y-99246666D02*
X129610000Y-99213333D01*
X129643333Y-99180000D01*
X129676666Y-99113333D01*
X129676666Y-99080000D01*
X129643333Y-99013333D01*
X129610000Y-98980000D01*
X129543333Y-98946666D01*
X129410000Y-98946666D01*
X129343333Y-98980000D01*
X129310000Y-99013333D01*
X129276666Y-99080000D01*
X129276666Y-99113333D01*
X129310000Y-99180000D01*
X129343333Y-99213333D01*
X129410000Y-99246666D01*
X129543333Y-99246666D01*
X129610000Y-99280000D01*
X129643333Y-99313333D01*
X129676666Y-99380000D01*
X129676666Y-99513333D01*
X129643333Y-99580000D01*
X129610000Y-99613333D01*
X129543333Y-99646666D01*
X129410000Y-99646666D01*
X129343333Y-99613333D01*
X129310000Y-99580000D01*
X129276666Y-99513333D01*
X129276666Y-99380000D01*
X129310000Y-99313333D01*
X129343333Y-99280000D01*
X129410000Y-99246666D01*
X135033333Y-99636666D02*
X135433333Y-99636666D01*
X135233333Y-99636666D02*
X135233333Y-98936666D01*
X135300000Y-99036666D01*
X135366666Y-99103333D01*
X135433333Y-99136666D01*
X134800000Y-98936666D02*
X134366666Y-98936666D01*
X134600000Y-99203333D01*
X134500000Y-99203333D01*
X134433333Y-99236666D01*
X134400000Y-99270000D01*
X134366666Y-99336666D01*
X134366666Y-99503333D01*
X134400000Y-99570000D01*
X134433333Y-99603333D01*
X134500000Y-99636666D01*
X134700000Y-99636666D01*
X134766666Y-99603333D01*
X134800000Y-99570000D01*
X117026666Y-99120000D02*
X117026666Y-99586666D01*
X117193333Y-98853333D02*
X117360000Y-99353333D01*
X116926666Y-99353333D01*
X102130000Y-99013333D02*
X102096666Y-98980000D01*
X102030000Y-98946666D01*
X101863333Y-98946666D01*
X101796666Y-98980000D01*
X101763333Y-99013333D01*
X101730000Y-99080000D01*
X101730000Y-99146666D01*
X101763333Y-99246666D01*
X102163333Y-99646666D01*
X101730000Y-99646666D01*
X122146666Y-98936666D02*
X122280000Y-98936666D01*
X122346666Y-98970000D01*
X122380000Y-99003333D01*
X122446666Y-99103333D01*
X122480000Y-99236666D01*
X122480000Y-99503333D01*
X122446666Y-99570000D01*
X122413333Y-99603333D01*
X122346666Y-99636666D01*
X122213333Y-99636666D01*
X122146666Y-99603333D01*
X122113333Y-99570000D01*
X122080000Y-99503333D01*
X122080000Y-99336666D01*
X122113333Y-99270000D01*
X122146666Y-99236666D01*
X122213333Y-99203333D01*
X122346666Y-99203333D01*
X122413333Y-99236666D01*
X122446666Y-99270000D01*
X122480000Y-99336666D01*
X127483333Y-99636666D02*
X127883333Y-99636666D01*
X127683333Y-99636666D02*
X127683333Y-98936666D01*
X127750000Y-99036666D01*
X127816666Y-99103333D01*
X127883333Y-99136666D01*
X126816666Y-99636666D02*
X127216666Y-99636666D01*
X127016666Y-99636666D02*
X127016666Y-98936666D01*
X127083333Y-99036666D01*
X127150000Y-99103333D01*
X127216666Y-99136666D01*
X143053333Y-98980000D02*
X143120000Y-98946666D01*
X143220000Y-98946666D01*
X143320000Y-98980000D01*
X143386666Y-99046666D01*
X143420000Y-99113333D01*
X143453333Y-99246666D01*
X143453333Y-99346666D01*
X143420000Y-99480000D01*
X143386666Y-99546666D01*
X143320000Y-99613333D01*
X143220000Y-99646666D01*
X143153333Y-99646666D01*
X143053333Y-99613333D01*
X143020000Y-99580000D01*
X143020000Y-99346666D01*
X143153333Y-99346666D01*
X142720000Y-99646666D02*
X142720000Y-98946666D01*
X142320000Y-99646666D01*
X142320000Y-98946666D01*
X141986666Y-99646666D02*
X141986666Y-98946666D01*
X141820000Y-98946666D01*
X141720000Y-98980000D01*
X141653333Y-99046666D01*
X141620000Y-99113333D01*
X141586666Y-99246666D01*
X141586666Y-99346666D01*
X141620000Y-99480000D01*
X141653333Y-99546666D01*
X141720000Y-99613333D01*
X141820000Y-99646666D01*
X141986666Y-99646666D01*
X155556666Y-99593333D02*
X155456666Y-99626666D01*
X155290000Y-99626666D01*
X155223333Y-99593333D01*
X155190000Y-99560000D01*
X155156666Y-99493333D01*
X155156666Y-99426666D01*
X155190000Y-99360000D01*
X155223333Y-99326666D01*
X155290000Y-99293333D01*
X155423333Y-99260000D01*
X155490000Y-99226666D01*
X155523333Y-99193333D01*
X155556666Y-99126666D01*
X155556666Y-99060000D01*
X155523333Y-98993333D01*
X155490000Y-98960000D01*
X155423333Y-98926666D01*
X155256666Y-98926666D01*
X155156666Y-98960000D01*
X154856666Y-99626666D02*
X154856666Y-98926666D01*
X153336666Y-99613333D02*
X153236666Y-99646666D01*
X153070000Y-99646666D01*
X153003333Y-99613333D01*
X152970000Y-99580000D01*
X152936666Y-99513333D01*
X152936666Y-99446666D01*
X152970000Y-99380000D01*
X153003333Y-99346666D01*
X153070000Y-99313333D01*
X153203333Y-99280000D01*
X153270000Y-99246666D01*
X153303333Y-99213333D01*
X153336666Y-99146666D01*
X153336666Y-99080000D01*
X153303333Y-99013333D01*
X153270000Y-98980000D01*
X153203333Y-98946666D01*
X153036666Y-98946666D01*
X152936666Y-98980000D01*
X152503333Y-98946666D02*
X152370000Y-98946666D01*
X152303333Y-98980000D01*
X152236666Y-99046666D01*
X152203333Y-99180000D01*
X152203333Y-99413333D01*
X152236666Y-99546666D01*
X152303333Y-99613333D01*
X152370000Y-99646666D01*
X152503333Y-99646666D01*
X152570000Y-99613333D01*
X152636666Y-99546666D01*
X152670000Y-99413333D01*
X152670000Y-99180000D01*
X152636666Y-99046666D01*
X152570000Y-98980000D01*
X152503333Y-98946666D01*
X145733333Y-99636666D02*
X146133333Y-99636666D01*
X145933333Y-99636666D02*
X145933333Y-98936666D01*
X146000000Y-99036666D01*
X146066666Y-99103333D01*
X146133333Y-99136666D01*
X145466666Y-99003333D02*
X145433333Y-98970000D01*
X145366666Y-98936666D01*
X145200000Y-98936666D01*
X145133333Y-98970000D01*
X145100000Y-99003333D01*
X145066666Y-99070000D01*
X145066666Y-99136666D01*
X145100000Y-99236666D01*
X145500000Y-99636666D01*
X145066666Y-99636666D01*
X144766666Y-99636666D02*
X144766666Y-98936666D01*
X144533333Y-99436666D01*
X144300000Y-98936666D01*
X144300000Y-99636666D01*
X147813333Y-99606666D02*
X148213333Y-99606666D01*
X148013333Y-99606666D02*
X148013333Y-98906666D01*
X148080000Y-99006666D01*
X148146666Y-99073333D01*
X148213333Y-99106666D01*
X147380000Y-98906666D02*
X147313333Y-98906666D01*
X147246666Y-98940000D01*
X147213333Y-98973333D01*
X147180000Y-99040000D01*
X147146666Y-99173333D01*
X147146666Y-99340000D01*
X147180000Y-99473333D01*
X147213333Y-99540000D01*
X147246666Y-99573333D01*
X147313333Y-99606666D01*
X147380000Y-99606666D01*
X147446666Y-99573333D01*
X147480000Y-99540000D01*
X147513333Y-99473333D01*
X147546666Y-99340000D01*
X147546666Y-99173333D01*
X147513333Y-99040000D01*
X147480000Y-98973333D01*
X147446666Y-98940000D01*
X147380000Y-98906666D01*
X160863333Y-99543333D02*
X160763333Y-99576666D01*
X160596666Y-99576666D01*
X160530000Y-99543333D01*
X160496666Y-99510000D01*
X160463333Y-99443333D01*
X160463333Y-99376666D01*
X160496666Y-99310000D01*
X160530000Y-99276666D01*
X160596666Y-99243333D01*
X160730000Y-99210000D01*
X160796666Y-99176666D01*
X160830000Y-99143333D01*
X160863333Y-99076666D01*
X160863333Y-99010000D01*
X160830000Y-98943333D01*
X160796666Y-98910000D01*
X160730000Y-98876666D01*
X160563333Y-98876666D01*
X160463333Y-98910000D01*
X160196666Y-99543333D02*
X160096666Y-99576666D01*
X159930000Y-99576666D01*
X159863333Y-99543333D01*
X159830000Y-99510000D01*
X159796666Y-99443333D01*
X159796666Y-99376666D01*
X159830000Y-99310000D01*
X159863333Y-99276666D01*
X159930000Y-99243333D01*
X160063333Y-99210000D01*
X160130000Y-99176666D01*
X160163333Y-99143333D01*
X160196666Y-99076666D01*
X160196666Y-99010000D01*
X160163333Y-98943333D01*
X160130000Y-98910000D01*
X160063333Y-98876666D01*
X159896666Y-98876666D01*
X159796666Y-98910000D01*
X158690000Y-99583333D02*
X158590000Y-99616666D01*
X158423333Y-99616666D01*
X158356666Y-99583333D01*
X158323333Y-99550000D01*
X158290000Y-99483333D01*
X158290000Y-99416666D01*
X158323333Y-99350000D01*
X158356666Y-99316666D01*
X158423333Y-99283333D01*
X158556666Y-99250000D01*
X158623333Y-99216666D01*
X158656666Y-99183333D01*
X158690000Y-99116666D01*
X158690000Y-99050000D01*
X158656666Y-98983333D01*
X158623333Y-98950000D01*
X158556666Y-98916666D01*
X158390000Y-98916666D01*
X158290000Y-98950000D01*
X157590000Y-99550000D02*
X157623333Y-99583333D01*
X157723333Y-99616666D01*
X157790000Y-99616666D01*
X157890000Y-99583333D01*
X157956666Y-99516666D01*
X157990000Y-99450000D01*
X158023333Y-99316666D01*
X158023333Y-99216666D01*
X157990000Y-99083333D01*
X157956666Y-99016666D01*
X157890000Y-98950000D01*
X157790000Y-98916666D01*
X157723333Y-98916666D01*
X157623333Y-98950000D01*
X157590000Y-98983333D01*
X157290000Y-99616666D02*
X157290000Y-98916666D01*
X156890000Y-99616666D02*
X157190000Y-99216666D01*
X156890000Y-98916666D02*
X157290000Y-99316666D01*
X150773333Y-99023333D02*
X150740000Y-98990000D01*
X150673333Y-98956666D01*
X150506666Y-98956666D01*
X150440000Y-98990000D01*
X150406666Y-99023333D01*
X150373333Y-99090000D01*
X150373333Y-99156666D01*
X150406666Y-99256666D01*
X150806666Y-99656666D01*
X150373333Y-99656666D01*
X149940000Y-98956666D02*
X149873333Y-98956666D01*
X149806666Y-98990000D01*
X149773333Y-99023333D01*
X149740000Y-99090000D01*
X149706666Y-99223333D01*
X149706666Y-99390000D01*
X149740000Y-99523333D01*
X149773333Y-99590000D01*
X149806666Y-99623333D01*
X149873333Y-99656666D01*
X149940000Y-99656666D01*
X150006666Y-99623333D01*
X150040000Y-99590000D01*
X150073333Y-99523333D01*
X150106666Y-99390000D01*
X150106666Y-99223333D01*
X150073333Y-99090000D01*
X150040000Y-99023333D01*
X150006666Y-98990000D01*
X149940000Y-98956666D01*
D11*
X100000000Y-78480000D02*
G75*
G02X100700000Y-77780000I700000J0D01*
G01*
X161300000Y-77780000D02*
G75*
G02X162000000Y-78480000I0J-700000D01*
G01*
X162000000Y-99300000D02*
G75*
G02X161300000Y-100000000I-700000J0D01*
G01*
X100700000Y-100000000D02*
G75*
G02X100000000Y-99300000I0J700000D01*
G01*
D12*
X155702000Y-86106000D02*
X155702000Y-87630000D01*
X152654000Y-86106000D02*
X155702000Y-86106000D01*
X152654000Y-87630000D02*
X152654000Y-86106000D01*
X154100000Y-87600000D02*
X152654000Y-87630000D01*
X153162000Y-87630000D02*
X151892000Y-90424000D01*
D13*
X112801238Y-93561904D02*
X112801238Y-92761904D01*
X112077428Y-93523809D02*
X112153619Y-93561904D01*
X112306000Y-93561904D01*
X112382190Y-93523809D01*
X112420285Y-93485714D01*
X112458380Y-93409523D01*
X112458380Y-93180952D01*
X112420285Y-93104761D01*
X112382190Y-93066666D01*
X112306000Y-93028571D01*
X112153619Y-93028571D01*
X112077428Y-93066666D01*
X111620285Y-93561904D02*
X111696476Y-93523809D01*
X111734571Y-93485714D01*
X111772666Y-93409523D01*
X111772666Y-93180952D01*
X111734571Y-93104761D01*
X111696476Y-93066666D01*
X111620285Y-93028571D01*
X111506000Y-93028571D01*
X111429809Y-93066666D01*
X111391714Y-93104761D01*
X111353619Y-93180952D01*
X111353619Y-93409523D01*
X111391714Y-93485714D01*
X111429809Y-93523809D01*
X111506000Y-93561904D01*
X111620285Y-93561904D01*
X111010761Y-93561904D02*
X111010761Y-93028571D01*
X111010761Y-93180952D02*
X110972666Y-93104761D01*
X110934571Y-93066666D01*
X110858380Y-93028571D01*
X110782190Y-93028571D01*
X110210761Y-93523809D02*
X110286952Y-93561904D01*
X110439333Y-93561904D01*
X110515523Y-93523809D01*
X110553619Y-93447619D01*
X110553619Y-93142857D01*
X110515523Y-93066666D01*
X110439333Y-93028571D01*
X110286952Y-93028571D01*
X110210761Y-93066666D01*
X110172666Y-93142857D01*
X110172666Y-93219047D01*
X110553619Y-93295238D01*
X154702380Y-90928571D02*
X154397619Y-90928571D01*
X154588095Y-90661904D02*
X154588095Y-91347619D01*
X154550000Y-91423809D01*
X154473809Y-91461904D01*
X154397619Y-91461904D01*
X154130952Y-91461904D02*
X154130952Y-90928571D01*
X154130952Y-90661904D02*
X154169047Y-90700000D01*
X154130952Y-90738095D01*
X154092857Y-90700000D01*
X154130952Y-90661904D01*
X154130952Y-90738095D01*
X153750000Y-90928571D02*
X153750000Y-91461904D01*
X153750000Y-91004761D02*
X153711904Y-90966666D01*
X153635714Y-90928571D01*
X153521428Y-90928571D01*
X153445238Y-90966666D01*
X153407142Y-91042857D01*
X153407142Y-91461904D01*
X153102380Y-90928571D02*
X152911904Y-91461904D01*
X152721428Y-90928571D02*
X152911904Y-91461904D01*
X152988095Y-91652380D01*
X153026190Y-91690476D01*
X153102380Y-91728571D01*
X152150000Y-91042857D02*
X152035714Y-91080952D01*
X151997619Y-91119047D01*
X151959523Y-91195238D01*
X151959523Y-91309523D01*
X151997619Y-91385714D01*
X152035714Y-91423809D01*
X152111904Y-91461904D01*
X152416666Y-91461904D01*
X152416666Y-90661904D01*
X152150000Y-90661904D01*
X152073809Y-90700000D01*
X152035714Y-90738095D01*
X151997619Y-90814285D01*
X151997619Y-90890476D01*
X152035714Y-90966666D01*
X152073809Y-91004761D01*
X152150000Y-91042857D01*
X152416666Y-91042857D01*
X151464285Y-90661904D02*
X151311904Y-90661904D01*
X151235714Y-90700000D01*
X151159523Y-90776190D01*
X151121428Y-90928571D01*
X151121428Y-91195238D01*
X151159523Y-91347619D01*
X151235714Y-91423809D01*
X151311904Y-91461904D01*
X151464285Y-91461904D01*
X151540476Y-91423809D01*
X151616666Y-91347619D01*
X151654761Y-91195238D01*
X151654761Y-90928571D01*
X151616666Y-90776190D01*
X151540476Y-90700000D01*
X151464285Y-90661904D01*
X150626190Y-90661904D02*
X150473809Y-90661904D01*
X150397619Y-90700000D01*
X150321428Y-90776190D01*
X150283333Y-90928571D01*
X150283333Y-91195238D01*
X150321428Y-91347619D01*
X150397619Y-91423809D01*
X150473809Y-91461904D01*
X150626190Y-91461904D01*
X150702380Y-91423809D01*
X150778571Y-91347619D01*
X150816666Y-91195238D01*
X150816666Y-90928571D01*
X150778571Y-90776190D01*
X150702380Y-90700000D01*
X150626190Y-90661904D01*
X150054761Y-90661904D02*
X149597619Y-90661904D01*
X149826190Y-91461904D02*
X149826190Y-90661904D01*
D12*
X150850000Y-89250000D02*
G75*
G03X150850000Y-89250000I-125000J0D01*
G01*
D11*
X162000000Y-93200000D02*
X161000000Y-93200000D01*
X162000000Y-84500000D02*
X161000000Y-84500000D01*
X161000000Y-93200000D02*
X161000000Y-84500000D01*
X162000000Y-99300000D02*
X162000000Y-93200000D01*
X100000000Y-78480000D02*
X100000000Y-99300000D01*
X161300000Y-77780000D02*
X100700000Y-77780000D01*
X162000000Y-84500000D02*
X162000000Y-78480000D01*
X100700000Y-100000000D02*
X161300000Y-100000000D01*
D12*
X124588600Y-86390400D02*
X124588600Y-84540400D01*
X123388600Y-86390400D02*
X123388600Y-84540400D01*
X123388600Y-84540400D02*
X124588600Y-84540400D01*
D14*
G36*
X134415570Y-85554848D02*
G01*
X134416189Y-85641931D01*
X134867914Y-86100891D01*
X135319639Y-86559852D01*
X135319968Y-86770471D01*
X135320297Y-86981089D01*
X135595390Y-86981089D01*
X135602478Y-87034530D01*
X135605162Y-87058888D01*
X135609687Y-87104759D01*
X135615809Y-87169405D01*
X135623288Y-87250091D01*
X135631881Y-87344081D01*
X135641346Y-87448637D01*
X135651442Y-87561025D01*
X135661926Y-87678507D01*
X135672556Y-87798348D01*
X135683091Y-87917811D01*
X135693287Y-88034159D01*
X135702905Y-88144657D01*
X135711700Y-88246569D01*
X135719432Y-88337158D01*
X135725858Y-88413687D01*
X135730737Y-88473421D01*
X135733825Y-88513624D01*
X135734883Y-88531559D01*
X135734882Y-88531644D01*
X135727173Y-88546035D01*
X135704019Y-88575748D01*
X135665105Y-88621131D01*
X135610116Y-88682529D01*
X135538736Y-88760288D01*
X135450651Y-88854754D01*
X135345546Y-88966272D01*
X135223105Y-89095188D01*
X135188690Y-89131287D01*
X134642863Y-89703416D01*
X134731119Y-89791436D01*
X134802515Y-89713758D01*
X134828634Y-89685686D01*
X134869434Y-89642274D01*
X134922223Y-89586366D01*
X134984309Y-89520808D01*
X135053000Y-89448441D01*
X135125604Y-89372112D01*
X135169040Y-89326524D01*
X135250584Y-89241119D01*
X135316496Y-89172710D01*
X135368456Y-89120053D01*
X135408145Y-89081905D01*
X135437243Y-89057020D01*
X135457431Y-89044156D01*
X135470390Y-89042068D01*
X135477800Y-89049513D01*
X135481342Y-89065246D01*
X135482697Y-89088023D01*
X135482879Y-89094239D01*
X135492297Y-89137061D01*
X135515503Y-89188819D01*
X135547864Y-89241328D01*
X135584748Y-89286403D01*
X135599507Y-89300328D01*
X135675233Y-89349047D01*
X135763692Y-89376306D01*
X135841900Y-89382773D01*
X135930532Y-89370576D01*
X136012388Y-89334813D01*
X136084836Y-89276722D01*
X136098203Y-89262262D01*
X136147082Y-89206733D01*
X136992674Y-89206733D01*
X136992674Y-89382773D01*
X137219010Y-89382773D01*
X137219010Y-89300531D01*
X137221850Y-89244386D01*
X137231393Y-89205416D01*
X137242991Y-89184219D01*
X137251277Y-89169052D01*
X137258373Y-89147062D01*
X137264748Y-89114987D01*
X137270872Y-89069569D01*
X137277216Y-89007548D01*
X137284250Y-88925662D01*
X137289066Y-88864746D01*
X137311161Y-88579343D01*
X137853565Y-89128805D01*
X137951637Y-89228228D01*
X138045784Y-89323815D01*
X138134285Y-89413810D01*
X138215420Y-89496457D01*
X138287469Y-89570001D01*
X138348712Y-89632684D01*
X138397427Y-89682752D01*
X138431896Y-89718448D01*
X138450379Y-89737995D01*
X138480743Y-89768944D01*
X138506071Y-89790530D01*
X138519695Y-89797723D01*
X138537095Y-89789297D01*
X138562460Y-89768245D01*
X138571058Y-89759671D01*
X138607514Y-89721620D01*
X138406802Y-89517658D01*
X138355596Y-89465699D01*
X138289569Y-89398820D01*
X138211618Y-89319950D01*
X138124638Y-89232014D01*
X138031526Y-89137941D01*
X137935179Y-89040658D01*
X137838492Y-88943093D01*
X137769134Y-88873145D01*
X137663703Y-88766550D01*
X137575129Y-88676307D01*
X137502281Y-88601192D01*
X137444023Y-88539986D01*
X137399225Y-88491466D01*
X137377021Y-88466129D01*
X137198724Y-88466129D01*
X137176401Y-88751555D01*
X137169669Y-88835219D01*
X137163157Y-88911727D01*
X137157234Y-88977081D01*
X137152268Y-89027281D01*
X137148629Y-89058329D01*
X137147458Y-89065273D01*
X137140838Y-89093565D01*
X136191364Y-89093565D01*
X136185026Y-89014606D01*
X136165890Y-88921315D01*
X136125846Y-88838791D01*
X136067418Y-88770038D01*
X135993129Y-88718063D01*
X135909748Y-88686863D01*
X135882698Y-88672228D01*
X135869156Y-88640819D01*
X135868872Y-88639434D01*
X135867247Y-88626174D01*
X135869256Y-88612595D01*
X135876858Y-88596181D01*
X135892016Y-88574411D01*
X135916688Y-88544767D01*
X135952836Y-88504732D01*
X136002420Y-88451785D01*
X136067401Y-88383409D01*
X136071599Y-88379005D01*
X136141493Y-88305611D01*
X136215800Y-88227437D01*
X136289414Y-88149864D01*
X136357229Y-88078275D01*
X136414140Y-88018051D01*
X136426832Y-88004587D01*
X136475487Y-87953820D01*
X136518709Y-87910375D01*
X136553395Y-87877241D01*
X136576444Y-87857405D01*
X136584182Y-87853046D01*
X136595722Y-87862170D01*
X136622710Y-87887200D01*
X136663021Y-87926052D01*
X136714529Y-87976643D01*
X136775109Y-88036888D01*
X136842636Y-88104704D01*
X136897826Y-88160565D01*
X137198724Y-88466129D01*
X137377021Y-88466129D01*
X137366751Y-88454411D01*
X137345471Y-88427599D01*
X137334251Y-88409808D01*
X137331754Y-88401570D01*
X137332700Y-88383590D01*
X137335573Y-88342892D01*
X137340187Y-88281819D01*
X137346358Y-88202713D01*
X137353898Y-88107914D01*
X137362621Y-87999767D01*
X137372343Y-87880612D01*
X137382876Y-87752791D01*
X137391365Y-87650635D01*
X137439396Y-87074674D01*
X137315805Y-87074674D01*
X137315273Y-87087104D01*
X137312769Y-87122110D01*
X137308496Y-87177215D01*
X137302653Y-87249943D01*
X137295443Y-87337814D01*
X137287066Y-87438351D01*
X137277723Y-87549077D01*
X137268758Y-87654205D01*
X137258602Y-87773483D01*
X137249142Y-87886080D01*
X137240596Y-87989305D01*
X137233179Y-88080473D01*
X137227108Y-88156895D01*
X137222601Y-88215883D01*
X137219873Y-88254749D01*
X137219116Y-88269844D01*
X137217935Y-88279238D01*
X137213256Y-88282966D01*
X137203276Y-88279471D01*
X137186190Y-88267199D01*
X137160196Y-88244594D01*
X137123490Y-88210100D01*
X137074267Y-88162162D01*
X137010726Y-88099224D01*
X136943305Y-88031968D01*
X136667601Y-87756477D01*
X136669533Y-87754406D01*
X136487290Y-87754406D01*
X136478984Y-87765780D01*
X136455733Y-87792563D01*
X136419865Y-87832292D01*
X136373713Y-87882507D01*
X136319606Y-87940746D01*
X136259874Y-88004547D01*
X136196848Y-88071449D01*
X136132858Y-88138990D01*
X136070236Y-88204710D01*
X136011310Y-88266146D01*
X135958412Y-88320837D01*
X135913872Y-88366322D01*
X135880020Y-88400138D01*
X135859188Y-88419826D01*
X135853506Y-88423837D01*
X135851634Y-88410891D01*
X135847746Y-88375134D01*
X135842057Y-88318804D01*
X135834781Y-88244140D01*
X135826131Y-88153380D01*
X135816322Y-88048762D01*
X135805566Y-87932526D01*
X135794079Y-87806908D01*
X135784907Y-87705618D01*
X135773174Y-87574279D01*
X135762335Y-87450552D01*
X135752570Y-87336681D01*
X135744063Y-87234911D01*
X135736995Y-87147487D01*
X135731549Y-87076653D01*
X135727908Y-87024653D01*
X135726253Y-86993732D01*
X135726442Y-86985703D01*
X135736334Y-86992854D01*
X135761524Y-87015841D01*
X135799810Y-87052439D01*
X135848989Y-87100422D01*
X135906861Y-87157566D01*
X135971222Y-87221647D01*
X136039871Y-87290438D01*
X136110605Y-87361716D01*
X136181222Y-87433255D01*
X136249520Y-87502830D01*
X136313296Y-87568217D01*
X136370350Y-87627191D01*
X136418478Y-87677527D01*
X136455478Y-87716999D01*
X136479148Y-87743383D01*
X136487290Y-87754406D01*
X136669533Y-87754406D01*
X136770409Y-87646295D01*
X136822768Y-87590377D01*
X136881535Y-87527948D01*
X136944385Y-87461443D01*
X137008995Y-87393298D01*
X137073042Y-87325948D01*
X137134203Y-87261828D01*
X137190153Y-87203372D01*
X137238570Y-87153018D01*
X137277130Y-87113198D01*
X137303509Y-87086350D01*
X137315384Y-87074908D01*
X137315805Y-87074674D01*
X137439396Y-87074674D01*
X137451401Y-86930726D01*
X138051938Y-86299158D01*
X138652475Y-85667589D01*
X138652034Y-85579315D01*
X138651592Y-85491040D01*
X138554583Y-85594666D01*
X138500291Y-85652463D01*
X138436192Y-85720368D01*
X138364016Y-85796572D01*
X138285492Y-85879269D01*
X138202349Y-85966653D01*
X138116319Y-86056915D01*
X138029130Y-86148250D01*
X137942513Y-86238849D01*
X137858197Y-86326907D01*
X137777912Y-86410615D01*
X137703387Y-86488167D01*
X137636354Y-86557757D01*
X137578541Y-86617576D01*
X137531679Y-86665818D01*
X137497496Y-86700676D01*
X137477724Y-86720343D01*
X137473390Y-86724116D01*
X137473092Y-86710992D01*
X137474731Y-86677389D01*
X137478023Y-86627880D01*
X137482682Y-86567037D01*
X137484682Y-86542732D01*
X137499577Y-86364951D01*
X137382955Y-86364951D01*
X137376934Y-86393243D01*
X137373863Y-86415618D01*
X137369548Y-86457717D01*
X137364488Y-86514178D01*
X137359181Y-86579635D01*
X137357344Y-86603862D01*
X137351927Y-86673421D01*
X137346459Y-86738018D01*
X137341488Y-86791548D01*
X137337561Y-86827910D01*
X137336675Y-86834509D01*
X137333334Y-86848056D01*
X137326101Y-86863914D01*
X137313440Y-86883861D01*
X137293811Y-86909673D01*
X137265678Y-86943129D01*
X137227502Y-86986007D01*
X137177746Y-87040083D01*
X137114871Y-87107136D01*
X137037341Y-87188943D01*
X136958251Y-87271950D01*
X136879564Y-87354094D01*
X136806112Y-87430169D01*
X136739724Y-87498325D01*
X136682227Y-87556712D01*
X136635451Y-87603481D01*
X136601224Y-87636782D01*
X136581373Y-87654767D01*
X136577140Y-87657442D01*
X136566003Y-87647741D01*
X136539971Y-87622441D01*
X136501570Y-87584082D01*
X136453328Y-87535200D01*
X136397770Y-87478334D01*
X136357592Y-87436906D01*
X136147831Y-87220000D01*
X136766337Y-87220000D01*
X136766337Y-86981089D01*
X136011881Y-86981089D01*
X136011881Y-87087542D01*
X135873565Y-86949654D01*
X135775447Y-86851840D01*
X135584357Y-86851840D01*
X135582529Y-86867270D01*
X135573277Y-86875867D01*
X135550950Y-86879613D01*
X135509895Y-86880489D01*
X135502624Y-86880495D01*
X135420891Y-86880495D01*
X135420891Y-86661172D01*
X135502624Y-86742179D01*
X135548730Y-86791428D01*
X135576306Y-86829159D01*
X135584357Y-86851840D01*
X135775447Y-86851840D01*
X135735248Y-86811766D01*
X135735248Y-86688952D01*
X135734863Y-86632450D01*
X135733100Y-86596505D01*
X135729050Y-86576530D01*
X135721801Y-86567937D01*
X135710870Y-86566139D01*
X135698712Y-86563498D01*
X135689727Y-86552912D01*
X135682826Y-86530381D01*
X135676924Y-86491909D01*
X135670935Y-86433498D01*
X135669013Y-86412104D01*
X135664852Y-86364951D01*
X137382955Y-86364951D01*
X137499577Y-86364951D01*
X137659109Y-86364951D01*
X137659109Y-86251782D01*
X137591314Y-86251782D01*
X137551662Y-86250696D01*
X137530116Y-86245454D01*
X137527480Y-86242334D01*
X137388616Y-86242334D01*
X137381308Y-86249462D01*
X137355993Y-86251662D01*
X137338908Y-86251782D01*
X137281881Y-86251782D01*
X137069221Y-86251782D01*
X135654698Y-86251782D01*
X135702542Y-86202786D01*
X135776850Y-86142324D01*
X135868816Y-86095691D01*
X135979998Y-86062249D01*
X136090471Y-86043753D01*
X136162773Y-86035122D01*
X136162773Y-86126040D01*
X136741188Y-86126040D01*
X136741188Y-86022893D01*
X136826065Y-86031496D01*
X136885368Y-86038756D01*
X136948551Y-86048379D01*
X136986386Y-86055252D01*
X137061832Y-86070407D01*
X137065526Y-86161095D01*
X137069221Y-86251782D01*
X137281881Y-86251782D01*
X137281881Y-86201485D01*
X137283544Y-86169976D01*
X137287697Y-86152463D01*
X137289371Y-86151188D01*
X137307987Y-86159254D01*
X137335183Y-86178820D01*
X137362448Y-86202944D01*
X137381267Y-86224682D01*
X137382943Y-86227508D01*
X137388616Y-86242334D01*
X137527480Y-86242334D01*
X137519662Y-86233081D01*
X137515442Y-86219604D01*
X137498219Y-86184627D01*
X137465138Y-86142579D01*
X137421893Y-86099356D01*
X137374174Y-86060854D01*
X137342830Y-86040801D01*
X137307123Y-86018851D01*
X137288819Y-86000411D01*
X137282388Y-85978668D01*
X137281894Y-85965718D01*
X137281894Y-85962575D01*
X136640594Y-85962575D01*
X136640594Y-86025446D01*
X136263367Y-86025446D01*
X136263367Y-85962575D01*
X136640594Y-85962575D01*
X137281894Y-85962575D01*
X137281881Y-85924852D01*
X137176048Y-85924852D01*
X137127355Y-85926029D01*
X137089405Y-85929165D01*
X137068308Y-85933671D01*
X137066023Y-85935495D01*
X137052641Y-85938295D01*
X137020074Y-85937148D01*
X136973916Y-85932393D01*
X136942376Y-85928003D01*
X136885188Y-85919378D01*
X136832886Y-85911591D01*
X136793582Y-85905847D01*
X136782055Y-85904215D01*
X136751937Y-85894888D01*
X136741188Y-85880272D01*
X136737920Y-85874320D01*
X136726230Y-85869778D01*
X136703288Y-85866470D01*
X136666265Y-85864215D01*
X136612332Y-85862834D01*
X136538660Y-85862150D01*
X136451980Y-85861980D01*
X136359471Y-85862077D01*
X136289094Y-85862530D01*
X136237836Y-85863590D01*
X136202680Y-85865503D01*
X136180611Y-85868519D01*
X136168615Y-85872885D01*
X136163676Y-85878849D01*
X136162773Y-85885784D01*
X136155079Y-85907795D01*
X136129879Y-85920321D01*
X136083991Y-85924788D01*
X136075736Y-85924852D01*
X135998027Y-85932868D01*
X135909767Y-85954936D01*
X135818915Y-85988084D01*
X135733430Y-86029339D01*
X135661274Y-86075731D01*
X135651928Y-86083082D01*
X135621467Y-86106998D01*
X135603428Y-86116576D01*
X135590831Y-86113480D01*
X135577900Y-86100704D01*
X135539707Y-86075678D01*
X135490002Y-86066071D01*
X135436476Y-86071067D01*
X135386822Y-86089851D01*
X135348733Y-86121606D01*
X135345975Y-86125297D01*
X135317474Y-86184575D01*
X135312172Y-86245934D01*
X135329482Y-86304427D01*
X135368820Y-86355104D01*
X135373630Y-86359289D01*
X135401560Y-86379167D01*
X135429898Y-86387921D01*
X135469737Y-86388553D01*
X135479689Y-86387992D01*
X135518668Y-86386562D01*
X135538746Y-86389839D01*
X135546015Y-86399728D01*
X135546760Y-86408961D01*
X135548284Y-86435744D01*
X135552065Y-86476025D01*
X135554782Y-86500124D01*
X135558723Y-86538401D01*
X135557084Y-86557996D01*
X135547579Y-86565158D01*
X135530649Y-86566139D01*
X135520608Y-86562901D01*
X135504410Y-86552420D01*
X135480855Y-86533548D01*
X135448743Y-86505135D01*
X135406872Y-86466035D01*
X135354043Y-86415097D01*
X135289055Y-86351173D01*
X135210709Y-86273114D01*
X135117803Y-86179772D01*
X135009137Y-86069998D01*
X134956769Y-86016952D01*
X134414951Y-85467767D01*
X134415570Y-85554848D01*
G37*
X134415570Y-85554848D02*
X134416189Y-85641931D01*
X134867914Y-86100891D01*
X135319639Y-86559852D01*
X135319968Y-86770471D01*
X135320297Y-86981089D01*
X135595390Y-86981089D01*
X135602478Y-87034530D01*
X135605162Y-87058888D01*
X135609687Y-87104759D01*
X135615809Y-87169405D01*
X135623288Y-87250091D01*
X135631881Y-87344081D01*
X135641346Y-87448637D01*
X135651442Y-87561025D01*
X135661926Y-87678507D01*
X135672556Y-87798348D01*
X135683091Y-87917811D01*
X135693287Y-88034159D01*
X135702905Y-88144657D01*
X135711700Y-88246569D01*
X135719432Y-88337158D01*
X135725858Y-88413687D01*
X135730737Y-88473421D01*
X135733825Y-88513624D01*
X135734883Y-88531559D01*
X135734882Y-88531644D01*
X135727173Y-88546035D01*
X135704019Y-88575748D01*
X135665105Y-88621131D01*
X135610116Y-88682529D01*
X135538736Y-88760288D01*
X135450651Y-88854754D01*
X135345546Y-88966272D01*
X135223105Y-89095188D01*
X135188690Y-89131287D01*
X134642863Y-89703416D01*
X134731119Y-89791436D01*
X134802515Y-89713758D01*
X134828634Y-89685686D01*
X134869434Y-89642274D01*
X134922223Y-89586366D01*
X134984309Y-89520808D01*
X135053000Y-89448441D01*
X135125604Y-89372112D01*
X135169040Y-89326524D01*
X135250584Y-89241119D01*
X135316496Y-89172710D01*
X135368456Y-89120053D01*
X135408145Y-89081905D01*
X135437243Y-89057020D01*
X135457431Y-89044156D01*
X135470390Y-89042068D01*
X135477800Y-89049513D01*
X135481342Y-89065246D01*
X135482697Y-89088023D01*
X135482879Y-89094239D01*
X135492297Y-89137061D01*
X135515503Y-89188819D01*
X135547864Y-89241328D01*
X135584748Y-89286403D01*
X135599507Y-89300328D01*
X135675233Y-89349047D01*
X135763692Y-89376306D01*
X135841900Y-89382773D01*
X135930532Y-89370576D01*
X136012388Y-89334813D01*
X136084836Y-89276722D01*
X136098203Y-89262262D01*
X136147082Y-89206733D01*
X136992674Y-89206733D01*
X136992674Y-89382773D01*
X137219010Y-89382773D01*
X137219010Y-89300531D01*
X137221850Y-89244386D01*
X137231393Y-89205416D01*
X137242991Y-89184219D01*
X137251277Y-89169052D01*
X137258373Y-89147062D01*
X137264748Y-89114987D01*
X137270872Y-89069569D01*
X137277216Y-89007548D01*
X137284250Y-88925662D01*
X137289066Y-88864746D01*
X137311161Y-88579343D01*
X137853565Y-89128805D01*
X137951637Y-89228228D01*
X138045784Y-89323815D01*
X138134285Y-89413810D01*
X138215420Y-89496457D01*
X138287469Y-89570001D01*
X138348712Y-89632684D01*
X138397427Y-89682752D01*
X138431896Y-89718448D01*
X138450379Y-89737995D01*
X138480743Y-89768944D01*
X138506071Y-89790530D01*
X138519695Y-89797723D01*
X138537095Y-89789297D01*
X138562460Y-89768245D01*
X138571058Y-89759671D01*
X138607514Y-89721620D01*
X138406802Y-89517658D01*
X138355596Y-89465699D01*
X138289569Y-89398820D01*
X138211618Y-89319950D01*
X138124638Y-89232014D01*
X138031526Y-89137941D01*
X137935179Y-89040658D01*
X137838492Y-88943093D01*
X137769134Y-88873145D01*
X137663703Y-88766550D01*
X137575129Y-88676307D01*
X137502281Y-88601192D01*
X137444023Y-88539986D01*
X137399225Y-88491466D01*
X137377021Y-88466129D01*
X137198724Y-88466129D01*
X137176401Y-88751555D01*
X137169669Y-88835219D01*
X137163157Y-88911727D01*
X137157234Y-88977081D01*
X137152268Y-89027281D01*
X137148629Y-89058329D01*
X137147458Y-89065273D01*
X137140838Y-89093565D01*
X136191364Y-89093565D01*
X136185026Y-89014606D01*
X136165890Y-88921315D01*
X136125846Y-88838791D01*
X136067418Y-88770038D01*
X135993129Y-88718063D01*
X135909748Y-88686863D01*
X135882698Y-88672228D01*
X135869156Y-88640819D01*
X135868872Y-88639434D01*
X135867247Y-88626174D01*
X135869256Y-88612595D01*
X135876858Y-88596181D01*
X135892016Y-88574411D01*
X135916688Y-88544767D01*
X135952836Y-88504732D01*
X136002420Y-88451785D01*
X136067401Y-88383409D01*
X136071599Y-88379005D01*
X136141493Y-88305611D01*
X136215800Y-88227437D01*
X136289414Y-88149864D01*
X136357229Y-88078275D01*
X136414140Y-88018051D01*
X136426832Y-88004587D01*
X136475487Y-87953820D01*
X136518709Y-87910375D01*
X136553395Y-87877241D01*
X136576444Y-87857405D01*
X136584182Y-87853046D01*
X136595722Y-87862170D01*
X136622710Y-87887200D01*
X136663021Y-87926052D01*
X136714529Y-87976643D01*
X136775109Y-88036888D01*
X136842636Y-88104704D01*
X136897826Y-88160565D01*
X137198724Y-88466129D01*
X137377021Y-88466129D01*
X137366751Y-88454411D01*
X137345471Y-88427599D01*
X137334251Y-88409808D01*
X137331754Y-88401570D01*
X137332700Y-88383590D01*
X137335573Y-88342892D01*
X137340187Y-88281819D01*
X137346358Y-88202713D01*
X137353898Y-88107914D01*
X137362621Y-87999767D01*
X137372343Y-87880612D01*
X137382876Y-87752791D01*
X137391365Y-87650635D01*
X137439396Y-87074674D01*
X137315805Y-87074674D01*
X137315273Y-87087104D01*
X137312769Y-87122110D01*
X137308496Y-87177215D01*
X137302653Y-87249943D01*
X137295443Y-87337814D01*
X137287066Y-87438351D01*
X137277723Y-87549077D01*
X137268758Y-87654205D01*
X137258602Y-87773483D01*
X137249142Y-87886080D01*
X137240596Y-87989305D01*
X137233179Y-88080473D01*
X137227108Y-88156895D01*
X137222601Y-88215883D01*
X137219873Y-88254749D01*
X137219116Y-88269844D01*
X137217935Y-88279238D01*
X137213256Y-88282966D01*
X137203276Y-88279471D01*
X137186190Y-88267199D01*
X137160196Y-88244594D01*
X137123490Y-88210100D01*
X137074267Y-88162162D01*
X137010726Y-88099224D01*
X136943305Y-88031968D01*
X136667601Y-87756477D01*
X136669533Y-87754406D01*
X136487290Y-87754406D01*
X136478984Y-87765780D01*
X136455733Y-87792563D01*
X136419865Y-87832292D01*
X136373713Y-87882507D01*
X136319606Y-87940746D01*
X136259874Y-88004547D01*
X136196848Y-88071449D01*
X136132858Y-88138990D01*
X136070236Y-88204710D01*
X136011310Y-88266146D01*
X135958412Y-88320837D01*
X135913872Y-88366322D01*
X135880020Y-88400138D01*
X135859188Y-88419826D01*
X135853506Y-88423837D01*
X135851634Y-88410891D01*
X135847746Y-88375134D01*
X135842057Y-88318804D01*
X135834781Y-88244140D01*
X135826131Y-88153380D01*
X135816322Y-88048762D01*
X135805566Y-87932526D01*
X135794079Y-87806908D01*
X135784907Y-87705618D01*
X135773174Y-87574279D01*
X135762335Y-87450552D01*
X135752570Y-87336681D01*
X135744063Y-87234911D01*
X135736995Y-87147487D01*
X135731549Y-87076653D01*
X135727908Y-87024653D01*
X135726253Y-86993732D01*
X135726442Y-86985703D01*
X135736334Y-86992854D01*
X135761524Y-87015841D01*
X135799810Y-87052439D01*
X135848989Y-87100422D01*
X135906861Y-87157566D01*
X135971222Y-87221647D01*
X136039871Y-87290438D01*
X136110605Y-87361716D01*
X136181222Y-87433255D01*
X136249520Y-87502830D01*
X136313296Y-87568217D01*
X136370350Y-87627191D01*
X136418478Y-87677527D01*
X136455478Y-87716999D01*
X136479148Y-87743383D01*
X136487290Y-87754406D01*
X136669533Y-87754406D01*
X136770409Y-87646295D01*
X136822768Y-87590377D01*
X136881535Y-87527948D01*
X136944385Y-87461443D01*
X137008995Y-87393298D01*
X137073042Y-87325948D01*
X137134203Y-87261828D01*
X137190153Y-87203372D01*
X137238570Y-87153018D01*
X137277130Y-87113198D01*
X137303509Y-87086350D01*
X137315384Y-87074908D01*
X137315805Y-87074674D01*
X137439396Y-87074674D01*
X137451401Y-86930726D01*
X138051938Y-86299158D01*
X138652475Y-85667589D01*
X138652034Y-85579315D01*
X138651592Y-85491040D01*
X138554583Y-85594666D01*
X138500291Y-85652463D01*
X138436192Y-85720368D01*
X138364016Y-85796572D01*
X138285492Y-85879269D01*
X138202349Y-85966653D01*
X138116319Y-86056915D01*
X138029130Y-86148250D01*
X137942513Y-86238849D01*
X137858197Y-86326907D01*
X137777912Y-86410615D01*
X137703387Y-86488167D01*
X137636354Y-86557757D01*
X137578541Y-86617576D01*
X137531679Y-86665818D01*
X137497496Y-86700676D01*
X137477724Y-86720343D01*
X137473390Y-86724116D01*
X137473092Y-86710992D01*
X137474731Y-86677389D01*
X137478023Y-86627880D01*
X137482682Y-86567037D01*
X137484682Y-86542732D01*
X137499577Y-86364951D01*
X137382955Y-86364951D01*
X137376934Y-86393243D01*
X137373863Y-86415618D01*
X137369548Y-86457717D01*
X137364488Y-86514178D01*
X137359181Y-86579635D01*
X137357344Y-86603862D01*
X137351927Y-86673421D01*
X137346459Y-86738018D01*
X137341488Y-86791548D01*
X137337561Y-86827910D01*
X137336675Y-86834509D01*
X137333334Y-86848056D01*
X137326101Y-86863914D01*
X137313440Y-86883861D01*
X137293811Y-86909673D01*
X137265678Y-86943129D01*
X137227502Y-86986007D01*
X137177746Y-87040083D01*
X137114871Y-87107136D01*
X137037341Y-87188943D01*
X136958251Y-87271950D01*
X136879564Y-87354094D01*
X136806112Y-87430169D01*
X136739724Y-87498325D01*
X136682227Y-87556712D01*
X136635451Y-87603481D01*
X136601224Y-87636782D01*
X136581373Y-87654767D01*
X136577140Y-87657442D01*
X136566003Y-87647741D01*
X136539971Y-87622441D01*
X136501570Y-87584082D01*
X136453328Y-87535200D01*
X136397770Y-87478334D01*
X136357592Y-87436906D01*
X136147831Y-87220000D01*
X136766337Y-87220000D01*
X136766337Y-86981089D01*
X136011881Y-86981089D01*
X136011881Y-87087542D01*
X135873565Y-86949654D01*
X135775447Y-86851840D01*
X135584357Y-86851840D01*
X135582529Y-86867270D01*
X135573277Y-86875867D01*
X135550950Y-86879613D01*
X135509895Y-86880489D01*
X135502624Y-86880495D01*
X135420891Y-86880495D01*
X135420891Y-86661172D01*
X135502624Y-86742179D01*
X135548730Y-86791428D01*
X135576306Y-86829159D01*
X135584357Y-86851840D01*
X135775447Y-86851840D01*
X135735248Y-86811766D01*
X135735248Y-86688952D01*
X135734863Y-86632450D01*
X135733100Y-86596505D01*
X135729050Y-86576530D01*
X135721801Y-86567937D01*
X135710870Y-86566139D01*
X135698712Y-86563498D01*
X135689727Y-86552912D01*
X135682826Y-86530381D01*
X135676924Y-86491909D01*
X135670935Y-86433498D01*
X135669013Y-86412104D01*
X135664852Y-86364951D01*
X137382955Y-86364951D01*
X137499577Y-86364951D01*
X137659109Y-86364951D01*
X137659109Y-86251782D01*
X137591314Y-86251782D01*
X137551662Y-86250696D01*
X137530116Y-86245454D01*
X137527480Y-86242334D01*
X137388616Y-86242334D01*
X137381308Y-86249462D01*
X137355993Y-86251662D01*
X137338908Y-86251782D01*
X137281881Y-86251782D01*
X137069221Y-86251782D01*
X135654698Y-86251782D01*
X135702542Y-86202786D01*
X135776850Y-86142324D01*
X135868816Y-86095691D01*
X135979998Y-86062249D01*
X136090471Y-86043753D01*
X136162773Y-86035122D01*
X136162773Y-86126040D01*
X136741188Y-86126040D01*
X136741188Y-86022893D01*
X136826065Y-86031496D01*
X136885368Y-86038756D01*
X136948551Y-86048379D01*
X136986386Y-86055252D01*
X137061832Y-86070407D01*
X137065526Y-86161095D01*
X137069221Y-86251782D01*
X137281881Y-86251782D01*
X137281881Y-86201485D01*
X137283544Y-86169976D01*
X137287697Y-86152463D01*
X137289371Y-86151188D01*
X137307987Y-86159254D01*
X137335183Y-86178820D01*
X137362448Y-86202944D01*
X137381267Y-86224682D01*
X137382943Y-86227508D01*
X137388616Y-86242334D01*
X137527480Y-86242334D01*
X137519662Y-86233081D01*
X137515442Y-86219604D01*
X137498219Y-86184627D01*
X137465138Y-86142579D01*
X137421893Y-86099356D01*
X137374174Y-86060854D01*
X137342830Y-86040801D01*
X137307123Y-86018851D01*
X137288819Y-86000411D01*
X137282388Y-85978668D01*
X137281894Y-85965718D01*
X137281894Y-85962575D01*
X136640594Y-85962575D01*
X136640594Y-86025446D01*
X136263367Y-86025446D01*
X136263367Y-85962575D01*
X136640594Y-85962575D01*
X137281894Y-85962575D01*
X137281881Y-85924852D01*
X137176048Y-85924852D01*
X137127355Y-85926029D01*
X137089405Y-85929165D01*
X137068308Y-85933671D01*
X137066023Y-85935495D01*
X137052641Y-85938295D01*
X137020074Y-85937148D01*
X136973916Y-85932393D01*
X136942376Y-85928003D01*
X136885188Y-85919378D01*
X136832886Y-85911591D01*
X136793582Y-85905847D01*
X136782055Y-85904215D01*
X136751937Y-85894888D01*
X136741188Y-85880272D01*
X136737920Y-85874320D01*
X136726230Y-85869778D01*
X136703288Y-85866470D01*
X136666265Y-85864215D01*
X136612332Y-85862834D01*
X136538660Y-85862150D01*
X136451980Y-85861980D01*
X136359471Y-85862077D01*
X136289094Y-85862530D01*
X136237836Y-85863590D01*
X136202680Y-85865503D01*
X136180611Y-85868519D01*
X136168615Y-85872885D01*
X136163676Y-85878849D01*
X136162773Y-85885784D01*
X136155079Y-85907795D01*
X136129879Y-85920321D01*
X136083991Y-85924788D01*
X136075736Y-85924852D01*
X135998027Y-85932868D01*
X135909767Y-85954936D01*
X135818915Y-85988084D01*
X135733430Y-86029339D01*
X135661274Y-86075731D01*
X135651928Y-86083082D01*
X135621467Y-86106998D01*
X135603428Y-86116576D01*
X135590831Y-86113480D01*
X135577900Y-86100704D01*
X135539707Y-86075678D01*
X135490002Y-86066071D01*
X135436476Y-86071067D01*
X135386822Y-86089851D01*
X135348733Y-86121606D01*
X135345975Y-86125297D01*
X135317474Y-86184575D01*
X135312172Y-86245934D01*
X135329482Y-86304427D01*
X135368820Y-86355104D01*
X135373630Y-86359289D01*
X135401560Y-86379167D01*
X135429898Y-86387921D01*
X135469737Y-86388553D01*
X135479689Y-86387992D01*
X135518668Y-86386562D01*
X135538746Y-86389839D01*
X135546015Y-86399728D01*
X135546760Y-86408961D01*
X135548284Y-86435744D01*
X135552065Y-86476025D01*
X135554782Y-86500124D01*
X135558723Y-86538401D01*
X135557084Y-86557996D01*
X135547579Y-86565158D01*
X135530649Y-86566139D01*
X135520608Y-86562901D01*
X135504410Y-86552420D01*
X135480855Y-86533548D01*
X135448743Y-86505135D01*
X135406872Y-86466035D01*
X135354043Y-86415097D01*
X135289055Y-86351173D01*
X135210709Y-86273114D01*
X135117803Y-86179772D01*
X135009137Y-86069998D01*
X134956769Y-86016952D01*
X134414951Y-85467767D01*
X134415570Y-85554848D01*
G36*
X134792178Y-91507822D02*
G01*
X138312971Y-91507822D01*
X138312971Y-90640198D01*
X134792178Y-90640198D01*
X134792178Y-91507822D01*
G37*
X134792178Y-91507822D02*
X138312971Y-91507822D01*
X138312971Y-90640198D01*
X134792178Y-90640198D01*
X134792178Y-91507822D01*
D12*
X154262779Y-87410000D02*
X153937221Y-87410000D01*
X154262779Y-86390000D02*
X153937221Y-86390000D01*
X119153721Y-91438000D02*
X119479279Y-91438000D01*
X119153721Y-92458000D02*
X119479279Y-92458000D01*
X145912779Y-88648000D02*
X145587221Y-88648000D01*
X145912779Y-87628000D02*
X145587221Y-87628000D01*
X148560000Y-91787221D02*
X148560000Y-92112779D01*
X147540000Y-91787221D02*
X147540000Y-92112779D01*
X105962779Y-87378000D02*
X105637221Y-87378000D01*
X105962779Y-86358000D02*
X105637221Y-86358000D01*
X126583221Y-83504000D02*
X126908779Y-83504000D01*
X126583221Y-84524000D02*
X126908779Y-84524000D01*
X110190000Y-89862779D02*
X110190000Y-89537221D01*
X111210000Y-89862779D02*
X111210000Y-89537221D01*
X145912779Y-91660000D02*
X145587221Y-91660000D01*
X145912779Y-90640000D02*
X145587221Y-90640000D01*
X158968221Y-81532000D02*
X159293779Y-81532000D01*
X158968221Y-82552000D02*
X159293779Y-82552000D01*
X102199221Y-89152000D02*
X102524779Y-89152000D01*
X102199221Y-90172000D02*
X102524779Y-90172000D01*
X104590000Y-89862779D02*
X104590000Y-89537221D01*
X105610000Y-89862779D02*
X105610000Y-89537221D01*
X102862779Y-84710000D02*
X102537221Y-84710000D01*
X102862779Y-83690000D02*
X102537221Y-83690000D01*
X126583221Y-86806000D02*
X126908779Y-86806000D01*
X126583221Y-87826000D02*
X126908779Y-87826000D01*
X116482400Y-91307779D02*
X116482400Y-90982221D01*
X117502400Y-91307779D02*
X117502400Y-90982221D01*
X120507979Y-88556200D02*
X120182421Y-88556200D01*
X120507979Y-87536200D02*
X120182421Y-87536200D01*
X145912779Y-90172000D02*
X145587221Y-90172000D01*
X145912779Y-89152000D02*
X145587221Y-89152000D01*
X118416800Y-85689221D02*
X118416800Y-86014779D01*
X117396800Y-85689221D02*
X117396800Y-86014779D01*
X119890000Y-85689221D02*
X119890000Y-86014779D01*
X118870000Y-85689221D02*
X118870000Y-86014779D01*
X114958400Y-91307779D02*
X114958400Y-90982221D01*
X115978400Y-91307779D02*
X115978400Y-90982221D01*
X116842000Y-85689221D02*
X116842000Y-86014779D01*
X115822000Y-85689221D02*
X115822000Y-86014779D01*
X156900000Y-88800000D02*
X156900000Y-87600000D01*
X154100000Y-88800000D02*
X156900000Y-88800000D01*
X154100000Y-87600000D02*
X154100000Y-88800000D01*
X156900000Y-87600000D02*
X154100000Y-87600000D01*
X156900000Y-88900000D02*
X154100000Y-88900000D01*
X154100000Y-88900000D02*
X154100000Y-90100000D01*
X154100000Y-90100000D02*
X156900000Y-90100000D01*
X156900000Y-90100000D02*
X156900000Y-88900000D01*
X115318000Y-85689221D02*
X115318000Y-86014779D01*
X114298000Y-85689221D02*
X114298000Y-86014779D01*
X120495279Y-89152000D02*
X120169721Y-89152000D01*
X120495279Y-90172000D02*
X120169721Y-90172000D01*
X114302000Y-91348779D02*
X114302000Y-91023221D01*
X113282000Y-91348779D02*
X113282000Y-91023221D01*
X152160000Y-87087221D02*
X152160000Y-87412779D01*
X151140000Y-87087221D02*
X151140000Y-87412779D01*
X148696500Y-85895000D02*
X148696500Y-88095000D01*
X150896500Y-85895000D02*
X150896500Y-88895000D01*
X110174000Y-95250000D02*
G75*
G03X110174000Y-95250000I-700000J0D01*
G01*
X150560000Y-95250000D02*
G75*
G03X150560000Y-95250000I-700000J0D01*
G01*
X156656000Y-95250000D02*
G75*
G03X156656000Y-95250000I-700000J0D01*
G01*
X148020000Y-95250000D02*
G75*
G03X148020000Y-95250000I-700000J0D01*
G01*
X145480000Y-95250000D02*
G75*
G03X145480000Y-95250000I-700000J0D01*
G01*
X142940000Y-95250000D02*
G75*
G03X142940000Y-95250000I-700000J0D01*
G01*
X111790000Y-89537221D02*
X111790000Y-89862779D01*
X112810000Y-89537221D02*
X112810000Y-89862779D01*
X104110000Y-86100000D02*
X104110000Y-87900000D01*
X100890000Y-87900000D02*
X100890000Y-85450000D01*
X108800000Y-91110000D02*
X106350000Y-91110000D01*
X107000000Y-87890000D02*
X108800000Y-87890000D01*
X112906000Y-92598000D02*
X112906000Y-91298000D01*
X110106000Y-92598000D02*
X112906000Y-92598000D01*
X110106000Y-91298000D02*
X110106000Y-92598000D01*
X112906000Y-91298000D02*
X110106000Y-91298000D01*
D13*
X156214285Y-85861904D02*
X156480952Y-85480952D01*
X156671428Y-85861904D02*
X156671428Y-85061904D01*
X156366666Y-85061904D01*
X156290476Y-85100000D01*
X156252380Y-85138095D01*
X156214285Y-85214285D01*
X156214285Y-85328571D01*
X156252380Y-85404761D01*
X156290476Y-85442857D01*
X156366666Y-85480952D01*
X156671428Y-85480952D01*
X155909523Y-85138095D02*
X155871428Y-85100000D01*
X155795238Y-85061904D01*
X155604761Y-85061904D01*
X155528571Y-85100000D01*
X155490476Y-85138095D01*
X155452380Y-85214285D01*
X155452380Y-85290476D01*
X155490476Y-85404761D01*
X155947619Y-85861904D01*
X155452380Y-85861904D01*
X154690476Y-85861904D02*
X155147619Y-85861904D01*
X154919047Y-85861904D02*
X154919047Y-85061904D01*
X154995238Y-85176190D01*
X155071428Y-85252380D01*
X155147619Y-85290476D01*
X158914285Y-88421904D02*
X159180952Y-88040952D01*
X159371428Y-88421904D02*
X159371428Y-87621904D01*
X159066666Y-87621904D01*
X158990476Y-87660000D01*
X158952380Y-87698095D01*
X158914285Y-87774285D01*
X158914285Y-87888571D01*
X158952380Y-87964761D01*
X158990476Y-88002857D01*
X159066666Y-88040952D01*
X159371428Y-88040952D01*
X158609523Y-87698095D02*
X158571428Y-87660000D01*
X158495238Y-87621904D01*
X158304761Y-87621904D01*
X158228571Y-87660000D01*
X158190476Y-87698095D01*
X158152380Y-87774285D01*
X158152380Y-87850476D01*
X158190476Y-87964761D01*
X158647619Y-88421904D01*
X158152380Y-88421904D01*
X157847619Y-87698095D02*
X157809523Y-87660000D01*
X157733333Y-87621904D01*
X157542857Y-87621904D01*
X157466666Y-87660000D01*
X157428571Y-87698095D01*
X157390476Y-87774285D01*
X157390476Y-87850476D01*
X157428571Y-87964761D01*
X157885714Y-88421904D01*
X157390476Y-88421904D01*
X158894285Y-89891904D02*
X159160952Y-89510952D01*
X159351428Y-89891904D02*
X159351428Y-89091904D01*
X159046666Y-89091904D01*
X158970476Y-89130000D01*
X158932380Y-89168095D01*
X158894285Y-89244285D01*
X158894285Y-89358571D01*
X158932380Y-89434761D01*
X158970476Y-89472857D01*
X159046666Y-89510952D01*
X159351428Y-89510952D01*
X158589523Y-89168095D02*
X158551428Y-89130000D01*
X158475238Y-89091904D01*
X158284761Y-89091904D01*
X158208571Y-89130000D01*
X158170476Y-89168095D01*
X158132380Y-89244285D01*
X158132380Y-89320476D01*
X158170476Y-89434761D01*
X158627619Y-89891904D01*
X158132380Y-89891904D01*
X157865714Y-89091904D02*
X157370476Y-89091904D01*
X157637142Y-89396666D01*
X157522857Y-89396666D01*
X157446666Y-89434761D01*
X157408571Y-89472857D01*
X157370476Y-89549047D01*
X157370476Y-89739523D01*
X157408571Y-89815714D01*
X157446666Y-89853809D01*
X157522857Y-89891904D01*
X157751428Y-89891904D01*
X157827619Y-89853809D01*
X157865714Y-89815714D01*
M02*
