%TF.GenerationSoftware,KiCad,Pcbnew,(5.1.5)-3*%
%TF.CreationDate,2020-07-20T00:16:58-07:00*%
%TF.ProjectId,UPduino_v3.0,55506475-696e-46f5-9f76-332e302e6b69,3.0*%
%TF.SameCoordinates,Original*%
%TF.FileFunction,Paste,Bot*%
%TF.FilePolarity,Positive*%
%FSLAX46Y46*%
G04 Gerber Fmt 4.6, Leading zero omitted, Abs format (unit mm)*
G04 Created by KiCad (PCBNEW (5.1.5)-3) date 2020-07-20 00:16:58*
%MOMM*%
%LPD*%
G04 APERTURE LIST*
%ADD10C,0.050000*%
%ADD11R,0.700000X0.600000*%
%ADD12C,0.100000*%
%ADD13R,0.300000X0.800000*%
%ADD14R,0.650000X1.000000*%
%ADD15R,0.700000X1.000000*%
%ADD16R,1.000000X0.700000*%
%ADD17R,1.000000X0.650000*%
G04 APERTURE END LIST*
D10*
X100000000Y-78480000D02*
G75*
G02X100700000Y-77780000I700000J0D01*
G01*
X161300000Y-77780000D02*
G75*
G02X162000000Y-78480000I0J-700000D01*
G01*
X162000000Y-99300000D02*
G75*
G02X161300000Y-100000000I-700000J0D01*
G01*
X100700000Y-100000000D02*
G75*
G02X100000000Y-99300000I0J700000D01*
G01*
X162000000Y-93200000D02*
X161000000Y-93200000D01*
X162000000Y-84500000D02*
X161000000Y-84500000D01*
X161000000Y-93200000D02*
X161000000Y-84500000D01*
X162000000Y-99300000D02*
X162000000Y-93200000D01*
X100000000Y-78480000D02*
X100000000Y-99300000D01*
X161300000Y-77780000D02*
X100700000Y-77780000D01*
X162000000Y-84500000D02*
X162000000Y-78480000D01*
X100700000Y-100000000D02*
X161300000Y-100000000D01*
D11*
X123988600Y-84990400D03*
X123988600Y-86390400D03*
D12*
G36*
X153552691Y-86426053D02*
G01*
X153573926Y-86429203D01*
X153594750Y-86434419D01*
X153614962Y-86441651D01*
X153634368Y-86450830D01*
X153652781Y-86461866D01*
X153670024Y-86474654D01*
X153685930Y-86489070D01*
X153700346Y-86504976D01*
X153713134Y-86522219D01*
X153724170Y-86540632D01*
X153733349Y-86560038D01*
X153740581Y-86580250D01*
X153745797Y-86601074D01*
X153748947Y-86622309D01*
X153750000Y-86643750D01*
X153750000Y-87156250D01*
X153748947Y-87177691D01*
X153745797Y-87198926D01*
X153740581Y-87219750D01*
X153733349Y-87239962D01*
X153724170Y-87259368D01*
X153713134Y-87277781D01*
X153700346Y-87295024D01*
X153685930Y-87310930D01*
X153670024Y-87325346D01*
X153652781Y-87338134D01*
X153634368Y-87349170D01*
X153614962Y-87358349D01*
X153594750Y-87365581D01*
X153573926Y-87370797D01*
X153552691Y-87373947D01*
X153531250Y-87375000D01*
X153093750Y-87375000D01*
X153072309Y-87373947D01*
X153051074Y-87370797D01*
X153030250Y-87365581D01*
X153010038Y-87358349D01*
X152990632Y-87349170D01*
X152972219Y-87338134D01*
X152954976Y-87325346D01*
X152939070Y-87310930D01*
X152924654Y-87295024D01*
X152911866Y-87277781D01*
X152900830Y-87259368D01*
X152891651Y-87239962D01*
X152884419Y-87219750D01*
X152879203Y-87198926D01*
X152876053Y-87177691D01*
X152875000Y-87156250D01*
X152875000Y-86643750D01*
X152876053Y-86622309D01*
X152879203Y-86601074D01*
X152884419Y-86580250D01*
X152891651Y-86560038D01*
X152900830Y-86540632D01*
X152911866Y-86522219D01*
X152924654Y-86504976D01*
X152939070Y-86489070D01*
X152954976Y-86474654D01*
X152972219Y-86461866D01*
X152990632Y-86450830D01*
X153010038Y-86441651D01*
X153030250Y-86434419D01*
X153051074Y-86429203D01*
X153072309Y-86426053D01*
X153093750Y-86425000D01*
X153531250Y-86425000D01*
X153552691Y-86426053D01*
G37*
G36*
X155127691Y-86426053D02*
G01*
X155148926Y-86429203D01*
X155169750Y-86434419D01*
X155189962Y-86441651D01*
X155209368Y-86450830D01*
X155227781Y-86461866D01*
X155245024Y-86474654D01*
X155260930Y-86489070D01*
X155275346Y-86504976D01*
X155288134Y-86522219D01*
X155299170Y-86540632D01*
X155308349Y-86560038D01*
X155315581Y-86580250D01*
X155320797Y-86601074D01*
X155323947Y-86622309D01*
X155325000Y-86643750D01*
X155325000Y-87156250D01*
X155323947Y-87177691D01*
X155320797Y-87198926D01*
X155315581Y-87219750D01*
X155308349Y-87239962D01*
X155299170Y-87259368D01*
X155288134Y-87277781D01*
X155275346Y-87295024D01*
X155260930Y-87310930D01*
X155245024Y-87325346D01*
X155227781Y-87338134D01*
X155209368Y-87349170D01*
X155189962Y-87358349D01*
X155169750Y-87365581D01*
X155148926Y-87370797D01*
X155127691Y-87373947D01*
X155106250Y-87375000D01*
X154668750Y-87375000D01*
X154647309Y-87373947D01*
X154626074Y-87370797D01*
X154605250Y-87365581D01*
X154585038Y-87358349D01*
X154565632Y-87349170D01*
X154547219Y-87338134D01*
X154529976Y-87325346D01*
X154514070Y-87310930D01*
X154499654Y-87295024D01*
X154486866Y-87277781D01*
X154475830Y-87259368D01*
X154466651Y-87239962D01*
X154459419Y-87219750D01*
X154454203Y-87198926D01*
X154451053Y-87177691D01*
X154450000Y-87156250D01*
X154450000Y-86643750D01*
X154451053Y-86622309D01*
X154454203Y-86601074D01*
X154459419Y-86580250D01*
X154466651Y-86560038D01*
X154475830Y-86540632D01*
X154486866Y-86522219D01*
X154499654Y-86504976D01*
X154514070Y-86489070D01*
X154529976Y-86474654D01*
X154547219Y-86461866D01*
X154565632Y-86450830D01*
X154585038Y-86441651D01*
X154605250Y-86434419D01*
X154626074Y-86429203D01*
X154647309Y-86426053D01*
X154668750Y-86425000D01*
X155106250Y-86425000D01*
X155127691Y-86426053D01*
G37*
G36*
X120344191Y-91474053D02*
G01*
X120365426Y-91477203D01*
X120386250Y-91482419D01*
X120406462Y-91489651D01*
X120425868Y-91498830D01*
X120444281Y-91509866D01*
X120461524Y-91522654D01*
X120477430Y-91537070D01*
X120491846Y-91552976D01*
X120504634Y-91570219D01*
X120515670Y-91588632D01*
X120524849Y-91608038D01*
X120532081Y-91628250D01*
X120537297Y-91649074D01*
X120540447Y-91670309D01*
X120541500Y-91691750D01*
X120541500Y-92204250D01*
X120540447Y-92225691D01*
X120537297Y-92246926D01*
X120532081Y-92267750D01*
X120524849Y-92287962D01*
X120515670Y-92307368D01*
X120504634Y-92325781D01*
X120491846Y-92343024D01*
X120477430Y-92358930D01*
X120461524Y-92373346D01*
X120444281Y-92386134D01*
X120425868Y-92397170D01*
X120406462Y-92406349D01*
X120386250Y-92413581D01*
X120365426Y-92418797D01*
X120344191Y-92421947D01*
X120322750Y-92423000D01*
X119885250Y-92423000D01*
X119863809Y-92421947D01*
X119842574Y-92418797D01*
X119821750Y-92413581D01*
X119801538Y-92406349D01*
X119782132Y-92397170D01*
X119763719Y-92386134D01*
X119746476Y-92373346D01*
X119730570Y-92358930D01*
X119716154Y-92343024D01*
X119703366Y-92325781D01*
X119692330Y-92307368D01*
X119683151Y-92287962D01*
X119675919Y-92267750D01*
X119670703Y-92246926D01*
X119667553Y-92225691D01*
X119666500Y-92204250D01*
X119666500Y-91691750D01*
X119667553Y-91670309D01*
X119670703Y-91649074D01*
X119675919Y-91628250D01*
X119683151Y-91608038D01*
X119692330Y-91588632D01*
X119703366Y-91570219D01*
X119716154Y-91552976D01*
X119730570Y-91537070D01*
X119746476Y-91522654D01*
X119763719Y-91509866D01*
X119782132Y-91498830D01*
X119801538Y-91489651D01*
X119821750Y-91482419D01*
X119842574Y-91477203D01*
X119863809Y-91474053D01*
X119885250Y-91473000D01*
X120322750Y-91473000D01*
X120344191Y-91474053D01*
G37*
G36*
X118769191Y-91474053D02*
G01*
X118790426Y-91477203D01*
X118811250Y-91482419D01*
X118831462Y-91489651D01*
X118850868Y-91498830D01*
X118869281Y-91509866D01*
X118886524Y-91522654D01*
X118902430Y-91537070D01*
X118916846Y-91552976D01*
X118929634Y-91570219D01*
X118940670Y-91588632D01*
X118949849Y-91608038D01*
X118957081Y-91628250D01*
X118962297Y-91649074D01*
X118965447Y-91670309D01*
X118966500Y-91691750D01*
X118966500Y-92204250D01*
X118965447Y-92225691D01*
X118962297Y-92246926D01*
X118957081Y-92267750D01*
X118949849Y-92287962D01*
X118940670Y-92307368D01*
X118929634Y-92325781D01*
X118916846Y-92343024D01*
X118902430Y-92358930D01*
X118886524Y-92373346D01*
X118869281Y-92386134D01*
X118850868Y-92397170D01*
X118831462Y-92406349D01*
X118811250Y-92413581D01*
X118790426Y-92418797D01*
X118769191Y-92421947D01*
X118747750Y-92423000D01*
X118310250Y-92423000D01*
X118288809Y-92421947D01*
X118267574Y-92418797D01*
X118246750Y-92413581D01*
X118226538Y-92406349D01*
X118207132Y-92397170D01*
X118188719Y-92386134D01*
X118171476Y-92373346D01*
X118155570Y-92358930D01*
X118141154Y-92343024D01*
X118128366Y-92325781D01*
X118117330Y-92307368D01*
X118108151Y-92287962D01*
X118100919Y-92267750D01*
X118095703Y-92246926D01*
X118092553Y-92225691D01*
X118091500Y-92204250D01*
X118091500Y-91691750D01*
X118092553Y-91670309D01*
X118095703Y-91649074D01*
X118100919Y-91628250D01*
X118108151Y-91608038D01*
X118117330Y-91588632D01*
X118128366Y-91570219D01*
X118141154Y-91552976D01*
X118155570Y-91537070D01*
X118171476Y-91522654D01*
X118188719Y-91509866D01*
X118207132Y-91498830D01*
X118226538Y-91489651D01*
X118246750Y-91482419D01*
X118267574Y-91477203D01*
X118288809Y-91474053D01*
X118310250Y-91473000D01*
X118747750Y-91473000D01*
X118769191Y-91474053D01*
G37*
G36*
X145202691Y-87664053D02*
G01*
X145223926Y-87667203D01*
X145244750Y-87672419D01*
X145264962Y-87679651D01*
X145284368Y-87688830D01*
X145302781Y-87699866D01*
X145320024Y-87712654D01*
X145335930Y-87727070D01*
X145350346Y-87742976D01*
X145363134Y-87760219D01*
X145374170Y-87778632D01*
X145383349Y-87798038D01*
X145390581Y-87818250D01*
X145395797Y-87839074D01*
X145398947Y-87860309D01*
X145400000Y-87881750D01*
X145400000Y-88394250D01*
X145398947Y-88415691D01*
X145395797Y-88436926D01*
X145390581Y-88457750D01*
X145383349Y-88477962D01*
X145374170Y-88497368D01*
X145363134Y-88515781D01*
X145350346Y-88533024D01*
X145335930Y-88548930D01*
X145320024Y-88563346D01*
X145302781Y-88576134D01*
X145284368Y-88587170D01*
X145264962Y-88596349D01*
X145244750Y-88603581D01*
X145223926Y-88608797D01*
X145202691Y-88611947D01*
X145181250Y-88613000D01*
X144743750Y-88613000D01*
X144722309Y-88611947D01*
X144701074Y-88608797D01*
X144680250Y-88603581D01*
X144660038Y-88596349D01*
X144640632Y-88587170D01*
X144622219Y-88576134D01*
X144604976Y-88563346D01*
X144589070Y-88548930D01*
X144574654Y-88533024D01*
X144561866Y-88515781D01*
X144550830Y-88497368D01*
X144541651Y-88477962D01*
X144534419Y-88457750D01*
X144529203Y-88436926D01*
X144526053Y-88415691D01*
X144525000Y-88394250D01*
X144525000Y-87881750D01*
X144526053Y-87860309D01*
X144529203Y-87839074D01*
X144534419Y-87818250D01*
X144541651Y-87798038D01*
X144550830Y-87778632D01*
X144561866Y-87760219D01*
X144574654Y-87742976D01*
X144589070Y-87727070D01*
X144604976Y-87712654D01*
X144622219Y-87699866D01*
X144640632Y-87688830D01*
X144660038Y-87679651D01*
X144680250Y-87672419D01*
X144701074Y-87667203D01*
X144722309Y-87664053D01*
X144743750Y-87663000D01*
X145181250Y-87663000D01*
X145202691Y-87664053D01*
G37*
G36*
X146777691Y-87664053D02*
G01*
X146798926Y-87667203D01*
X146819750Y-87672419D01*
X146839962Y-87679651D01*
X146859368Y-87688830D01*
X146877781Y-87699866D01*
X146895024Y-87712654D01*
X146910930Y-87727070D01*
X146925346Y-87742976D01*
X146938134Y-87760219D01*
X146949170Y-87778632D01*
X146958349Y-87798038D01*
X146965581Y-87818250D01*
X146970797Y-87839074D01*
X146973947Y-87860309D01*
X146975000Y-87881750D01*
X146975000Y-88394250D01*
X146973947Y-88415691D01*
X146970797Y-88436926D01*
X146965581Y-88457750D01*
X146958349Y-88477962D01*
X146949170Y-88497368D01*
X146938134Y-88515781D01*
X146925346Y-88533024D01*
X146910930Y-88548930D01*
X146895024Y-88563346D01*
X146877781Y-88576134D01*
X146859368Y-88587170D01*
X146839962Y-88596349D01*
X146819750Y-88603581D01*
X146798926Y-88608797D01*
X146777691Y-88611947D01*
X146756250Y-88613000D01*
X146318750Y-88613000D01*
X146297309Y-88611947D01*
X146276074Y-88608797D01*
X146255250Y-88603581D01*
X146235038Y-88596349D01*
X146215632Y-88587170D01*
X146197219Y-88576134D01*
X146179976Y-88563346D01*
X146164070Y-88548930D01*
X146149654Y-88533024D01*
X146136866Y-88515781D01*
X146125830Y-88497368D01*
X146116651Y-88477962D01*
X146109419Y-88457750D01*
X146104203Y-88436926D01*
X146101053Y-88415691D01*
X146100000Y-88394250D01*
X146100000Y-87881750D01*
X146101053Y-87860309D01*
X146104203Y-87839074D01*
X146109419Y-87818250D01*
X146116651Y-87798038D01*
X146125830Y-87778632D01*
X146136866Y-87760219D01*
X146149654Y-87742976D01*
X146164070Y-87727070D01*
X146179976Y-87712654D01*
X146197219Y-87699866D01*
X146215632Y-87688830D01*
X146235038Y-87679651D01*
X146255250Y-87672419D01*
X146276074Y-87667203D01*
X146297309Y-87664053D01*
X146318750Y-87663000D01*
X146756250Y-87663000D01*
X146777691Y-87664053D01*
G37*
G36*
X148327691Y-92301053D02*
G01*
X148348926Y-92304203D01*
X148369750Y-92309419D01*
X148389962Y-92316651D01*
X148409368Y-92325830D01*
X148427781Y-92336866D01*
X148445024Y-92349654D01*
X148460930Y-92364070D01*
X148475346Y-92379976D01*
X148488134Y-92397219D01*
X148499170Y-92415632D01*
X148508349Y-92435038D01*
X148515581Y-92455250D01*
X148520797Y-92476074D01*
X148523947Y-92497309D01*
X148525000Y-92518750D01*
X148525000Y-92956250D01*
X148523947Y-92977691D01*
X148520797Y-92998926D01*
X148515581Y-93019750D01*
X148508349Y-93039962D01*
X148499170Y-93059368D01*
X148488134Y-93077781D01*
X148475346Y-93095024D01*
X148460930Y-93110930D01*
X148445024Y-93125346D01*
X148427781Y-93138134D01*
X148409368Y-93149170D01*
X148389962Y-93158349D01*
X148369750Y-93165581D01*
X148348926Y-93170797D01*
X148327691Y-93173947D01*
X148306250Y-93175000D01*
X147793750Y-93175000D01*
X147772309Y-93173947D01*
X147751074Y-93170797D01*
X147730250Y-93165581D01*
X147710038Y-93158349D01*
X147690632Y-93149170D01*
X147672219Y-93138134D01*
X147654976Y-93125346D01*
X147639070Y-93110930D01*
X147624654Y-93095024D01*
X147611866Y-93077781D01*
X147600830Y-93059368D01*
X147591651Y-93039962D01*
X147584419Y-93019750D01*
X147579203Y-92998926D01*
X147576053Y-92977691D01*
X147575000Y-92956250D01*
X147575000Y-92518750D01*
X147576053Y-92497309D01*
X147579203Y-92476074D01*
X147584419Y-92455250D01*
X147591651Y-92435038D01*
X147600830Y-92415632D01*
X147611866Y-92397219D01*
X147624654Y-92379976D01*
X147639070Y-92364070D01*
X147654976Y-92349654D01*
X147672219Y-92336866D01*
X147690632Y-92325830D01*
X147710038Y-92316651D01*
X147730250Y-92309419D01*
X147751074Y-92304203D01*
X147772309Y-92301053D01*
X147793750Y-92300000D01*
X148306250Y-92300000D01*
X148327691Y-92301053D01*
G37*
G36*
X148327691Y-90726053D02*
G01*
X148348926Y-90729203D01*
X148369750Y-90734419D01*
X148389962Y-90741651D01*
X148409368Y-90750830D01*
X148427781Y-90761866D01*
X148445024Y-90774654D01*
X148460930Y-90789070D01*
X148475346Y-90804976D01*
X148488134Y-90822219D01*
X148499170Y-90840632D01*
X148508349Y-90860038D01*
X148515581Y-90880250D01*
X148520797Y-90901074D01*
X148523947Y-90922309D01*
X148525000Y-90943750D01*
X148525000Y-91381250D01*
X148523947Y-91402691D01*
X148520797Y-91423926D01*
X148515581Y-91444750D01*
X148508349Y-91464962D01*
X148499170Y-91484368D01*
X148488134Y-91502781D01*
X148475346Y-91520024D01*
X148460930Y-91535930D01*
X148445024Y-91550346D01*
X148427781Y-91563134D01*
X148409368Y-91574170D01*
X148389962Y-91583349D01*
X148369750Y-91590581D01*
X148348926Y-91595797D01*
X148327691Y-91598947D01*
X148306250Y-91600000D01*
X147793750Y-91600000D01*
X147772309Y-91598947D01*
X147751074Y-91595797D01*
X147730250Y-91590581D01*
X147710038Y-91583349D01*
X147690632Y-91574170D01*
X147672219Y-91563134D01*
X147654976Y-91550346D01*
X147639070Y-91535930D01*
X147624654Y-91520024D01*
X147611866Y-91502781D01*
X147600830Y-91484368D01*
X147591651Y-91464962D01*
X147584419Y-91444750D01*
X147579203Y-91423926D01*
X147576053Y-91402691D01*
X147575000Y-91381250D01*
X147575000Y-90943750D01*
X147576053Y-90922309D01*
X147579203Y-90901074D01*
X147584419Y-90880250D01*
X147591651Y-90860038D01*
X147600830Y-90840632D01*
X147611866Y-90822219D01*
X147624654Y-90804976D01*
X147639070Y-90789070D01*
X147654976Y-90774654D01*
X147672219Y-90761866D01*
X147690632Y-90750830D01*
X147710038Y-90741651D01*
X147730250Y-90734419D01*
X147751074Y-90729203D01*
X147772309Y-90726053D01*
X147793750Y-90725000D01*
X148306250Y-90725000D01*
X148327691Y-90726053D01*
G37*
G36*
X105252691Y-86394053D02*
G01*
X105273926Y-86397203D01*
X105294750Y-86402419D01*
X105314962Y-86409651D01*
X105334368Y-86418830D01*
X105352781Y-86429866D01*
X105370024Y-86442654D01*
X105385930Y-86457070D01*
X105400346Y-86472976D01*
X105413134Y-86490219D01*
X105424170Y-86508632D01*
X105433349Y-86528038D01*
X105440581Y-86548250D01*
X105445797Y-86569074D01*
X105448947Y-86590309D01*
X105450000Y-86611750D01*
X105450000Y-87124250D01*
X105448947Y-87145691D01*
X105445797Y-87166926D01*
X105440581Y-87187750D01*
X105433349Y-87207962D01*
X105424170Y-87227368D01*
X105413134Y-87245781D01*
X105400346Y-87263024D01*
X105385930Y-87278930D01*
X105370024Y-87293346D01*
X105352781Y-87306134D01*
X105334368Y-87317170D01*
X105314962Y-87326349D01*
X105294750Y-87333581D01*
X105273926Y-87338797D01*
X105252691Y-87341947D01*
X105231250Y-87343000D01*
X104793750Y-87343000D01*
X104772309Y-87341947D01*
X104751074Y-87338797D01*
X104730250Y-87333581D01*
X104710038Y-87326349D01*
X104690632Y-87317170D01*
X104672219Y-87306134D01*
X104654976Y-87293346D01*
X104639070Y-87278930D01*
X104624654Y-87263024D01*
X104611866Y-87245781D01*
X104600830Y-87227368D01*
X104591651Y-87207962D01*
X104584419Y-87187750D01*
X104579203Y-87166926D01*
X104576053Y-87145691D01*
X104575000Y-87124250D01*
X104575000Y-86611750D01*
X104576053Y-86590309D01*
X104579203Y-86569074D01*
X104584419Y-86548250D01*
X104591651Y-86528038D01*
X104600830Y-86508632D01*
X104611866Y-86490219D01*
X104624654Y-86472976D01*
X104639070Y-86457070D01*
X104654976Y-86442654D01*
X104672219Y-86429866D01*
X104690632Y-86418830D01*
X104710038Y-86409651D01*
X104730250Y-86402419D01*
X104751074Y-86397203D01*
X104772309Y-86394053D01*
X104793750Y-86393000D01*
X105231250Y-86393000D01*
X105252691Y-86394053D01*
G37*
G36*
X106827691Y-86394053D02*
G01*
X106848926Y-86397203D01*
X106869750Y-86402419D01*
X106889962Y-86409651D01*
X106909368Y-86418830D01*
X106927781Y-86429866D01*
X106945024Y-86442654D01*
X106960930Y-86457070D01*
X106975346Y-86472976D01*
X106988134Y-86490219D01*
X106999170Y-86508632D01*
X107008349Y-86528038D01*
X107015581Y-86548250D01*
X107020797Y-86569074D01*
X107023947Y-86590309D01*
X107025000Y-86611750D01*
X107025000Y-87124250D01*
X107023947Y-87145691D01*
X107020797Y-87166926D01*
X107015581Y-87187750D01*
X107008349Y-87207962D01*
X106999170Y-87227368D01*
X106988134Y-87245781D01*
X106975346Y-87263024D01*
X106960930Y-87278930D01*
X106945024Y-87293346D01*
X106927781Y-87306134D01*
X106909368Y-87317170D01*
X106889962Y-87326349D01*
X106869750Y-87333581D01*
X106848926Y-87338797D01*
X106827691Y-87341947D01*
X106806250Y-87343000D01*
X106368750Y-87343000D01*
X106347309Y-87341947D01*
X106326074Y-87338797D01*
X106305250Y-87333581D01*
X106285038Y-87326349D01*
X106265632Y-87317170D01*
X106247219Y-87306134D01*
X106229976Y-87293346D01*
X106214070Y-87278930D01*
X106199654Y-87263024D01*
X106186866Y-87245781D01*
X106175830Y-87227368D01*
X106166651Y-87207962D01*
X106159419Y-87187750D01*
X106154203Y-87166926D01*
X106151053Y-87145691D01*
X106150000Y-87124250D01*
X106150000Y-86611750D01*
X106151053Y-86590309D01*
X106154203Y-86569074D01*
X106159419Y-86548250D01*
X106166651Y-86528038D01*
X106175830Y-86508632D01*
X106186866Y-86490219D01*
X106199654Y-86472976D01*
X106214070Y-86457070D01*
X106229976Y-86442654D01*
X106247219Y-86429866D01*
X106265632Y-86418830D01*
X106285038Y-86409651D01*
X106305250Y-86402419D01*
X106326074Y-86397203D01*
X106347309Y-86394053D01*
X106368750Y-86393000D01*
X106806250Y-86393000D01*
X106827691Y-86394053D01*
G37*
G36*
X127773691Y-83540053D02*
G01*
X127794926Y-83543203D01*
X127815750Y-83548419D01*
X127835962Y-83555651D01*
X127855368Y-83564830D01*
X127873781Y-83575866D01*
X127891024Y-83588654D01*
X127906930Y-83603070D01*
X127921346Y-83618976D01*
X127934134Y-83636219D01*
X127945170Y-83654632D01*
X127954349Y-83674038D01*
X127961581Y-83694250D01*
X127966797Y-83715074D01*
X127969947Y-83736309D01*
X127971000Y-83757750D01*
X127971000Y-84270250D01*
X127969947Y-84291691D01*
X127966797Y-84312926D01*
X127961581Y-84333750D01*
X127954349Y-84353962D01*
X127945170Y-84373368D01*
X127934134Y-84391781D01*
X127921346Y-84409024D01*
X127906930Y-84424930D01*
X127891024Y-84439346D01*
X127873781Y-84452134D01*
X127855368Y-84463170D01*
X127835962Y-84472349D01*
X127815750Y-84479581D01*
X127794926Y-84484797D01*
X127773691Y-84487947D01*
X127752250Y-84489000D01*
X127314750Y-84489000D01*
X127293309Y-84487947D01*
X127272074Y-84484797D01*
X127251250Y-84479581D01*
X127231038Y-84472349D01*
X127211632Y-84463170D01*
X127193219Y-84452134D01*
X127175976Y-84439346D01*
X127160070Y-84424930D01*
X127145654Y-84409024D01*
X127132866Y-84391781D01*
X127121830Y-84373368D01*
X127112651Y-84353962D01*
X127105419Y-84333750D01*
X127100203Y-84312926D01*
X127097053Y-84291691D01*
X127096000Y-84270250D01*
X127096000Y-83757750D01*
X127097053Y-83736309D01*
X127100203Y-83715074D01*
X127105419Y-83694250D01*
X127112651Y-83674038D01*
X127121830Y-83654632D01*
X127132866Y-83636219D01*
X127145654Y-83618976D01*
X127160070Y-83603070D01*
X127175976Y-83588654D01*
X127193219Y-83575866D01*
X127211632Y-83564830D01*
X127231038Y-83555651D01*
X127251250Y-83548419D01*
X127272074Y-83543203D01*
X127293309Y-83540053D01*
X127314750Y-83539000D01*
X127752250Y-83539000D01*
X127773691Y-83540053D01*
G37*
G36*
X126198691Y-83540053D02*
G01*
X126219926Y-83543203D01*
X126240750Y-83548419D01*
X126260962Y-83555651D01*
X126280368Y-83564830D01*
X126298781Y-83575866D01*
X126316024Y-83588654D01*
X126331930Y-83603070D01*
X126346346Y-83618976D01*
X126359134Y-83636219D01*
X126370170Y-83654632D01*
X126379349Y-83674038D01*
X126386581Y-83694250D01*
X126391797Y-83715074D01*
X126394947Y-83736309D01*
X126396000Y-83757750D01*
X126396000Y-84270250D01*
X126394947Y-84291691D01*
X126391797Y-84312926D01*
X126386581Y-84333750D01*
X126379349Y-84353962D01*
X126370170Y-84373368D01*
X126359134Y-84391781D01*
X126346346Y-84409024D01*
X126331930Y-84424930D01*
X126316024Y-84439346D01*
X126298781Y-84452134D01*
X126280368Y-84463170D01*
X126260962Y-84472349D01*
X126240750Y-84479581D01*
X126219926Y-84484797D01*
X126198691Y-84487947D01*
X126177250Y-84489000D01*
X125739750Y-84489000D01*
X125718309Y-84487947D01*
X125697074Y-84484797D01*
X125676250Y-84479581D01*
X125656038Y-84472349D01*
X125636632Y-84463170D01*
X125618219Y-84452134D01*
X125600976Y-84439346D01*
X125585070Y-84424930D01*
X125570654Y-84409024D01*
X125557866Y-84391781D01*
X125546830Y-84373368D01*
X125537651Y-84353962D01*
X125530419Y-84333750D01*
X125525203Y-84312926D01*
X125522053Y-84291691D01*
X125521000Y-84270250D01*
X125521000Y-83757750D01*
X125522053Y-83736309D01*
X125525203Y-83715074D01*
X125530419Y-83694250D01*
X125537651Y-83674038D01*
X125546830Y-83654632D01*
X125557866Y-83636219D01*
X125570654Y-83618976D01*
X125585070Y-83603070D01*
X125600976Y-83588654D01*
X125618219Y-83575866D01*
X125636632Y-83564830D01*
X125656038Y-83555651D01*
X125676250Y-83548419D01*
X125697074Y-83543203D01*
X125718309Y-83540053D01*
X125739750Y-83539000D01*
X126177250Y-83539000D01*
X126198691Y-83540053D01*
G37*
G36*
X110977691Y-88476053D02*
G01*
X110998926Y-88479203D01*
X111019750Y-88484419D01*
X111039962Y-88491651D01*
X111059368Y-88500830D01*
X111077781Y-88511866D01*
X111095024Y-88524654D01*
X111110930Y-88539070D01*
X111125346Y-88554976D01*
X111138134Y-88572219D01*
X111149170Y-88590632D01*
X111158349Y-88610038D01*
X111165581Y-88630250D01*
X111170797Y-88651074D01*
X111173947Y-88672309D01*
X111175000Y-88693750D01*
X111175000Y-89131250D01*
X111173947Y-89152691D01*
X111170797Y-89173926D01*
X111165581Y-89194750D01*
X111158349Y-89214962D01*
X111149170Y-89234368D01*
X111138134Y-89252781D01*
X111125346Y-89270024D01*
X111110930Y-89285930D01*
X111095024Y-89300346D01*
X111077781Y-89313134D01*
X111059368Y-89324170D01*
X111039962Y-89333349D01*
X111019750Y-89340581D01*
X110998926Y-89345797D01*
X110977691Y-89348947D01*
X110956250Y-89350000D01*
X110443750Y-89350000D01*
X110422309Y-89348947D01*
X110401074Y-89345797D01*
X110380250Y-89340581D01*
X110360038Y-89333349D01*
X110340632Y-89324170D01*
X110322219Y-89313134D01*
X110304976Y-89300346D01*
X110289070Y-89285930D01*
X110274654Y-89270024D01*
X110261866Y-89252781D01*
X110250830Y-89234368D01*
X110241651Y-89214962D01*
X110234419Y-89194750D01*
X110229203Y-89173926D01*
X110226053Y-89152691D01*
X110225000Y-89131250D01*
X110225000Y-88693750D01*
X110226053Y-88672309D01*
X110229203Y-88651074D01*
X110234419Y-88630250D01*
X110241651Y-88610038D01*
X110250830Y-88590632D01*
X110261866Y-88572219D01*
X110274654Y-88554976D01*
X110289070Y-88539070D01*
X110304976Y-88524654D01*
X110322219Y-88511866D01*
X110340632Y-88500830D01*
X110360038Y-88491651D01*
X110380250Y-88484419D01*
X110401074Y-88479203D01*
X110422309Y-88476053D01*
X110443750Y-88475000D01*
X110956250Y-88475000D01*
X110977691Y-88476053D01*
G37*
G36*
X110977691Y-90051053D02*
G01*
X110998926Y-90054203D01*
X111019750Y-90059419D01*
X111039962Y-90066651D01*
X111059368Y-90075830D01*
X111077781Y-90086866D01*
X111095024Y-90099654D01*
X111110930Y-90114070D01*
X111125346Y-90129976D01*
X111138134Y-90147219D01*
X111149170Y-90165632D01*
X111158349Y-90185038D01*
X111165581Y-90205250D01*
X111170797Y-90226074D01*
X111173947Y-90247309D01*
X111175000Y-90268750D01*
X111175000Y-90706250D01*
X111173947Y-90727691D01*
X111170797Y-90748926D01*
X111165581Y-90769750D01*
X111158349Y-90789962D01*
X111149170Y-90809368D01*
X111138134Y-90827781D01*
X111125346Y-90845024D01*
X111110930Y-90860930D01*
X111095024Y-90875346D01*
X111077781Y-90888134D01*
X111059368Y-90899170D01*
X111039962Y-90908349D01*
X111019750Y-90915581D01*
X110998926Y-90920797D01*
X110977691Y-90923947D01*
X110956250Y-90925000D01*
X110443750Y-90925000D01*
X110422309Y-90923947D01*
X110401074Y-90920797D01*
X110380250Y-90915581D01*
X110360038Y-90908349D01*
X110340632Y-90899170D01*
X110322219Y-90888134D01*
X110304976Y-90875346D01*
X110289070Y-90860930D01*
X110274654Y-90845024D01*
X110261866Y-90827781D01*
X110250830Y-90809368D01*
X110241651Y-90789962D01*
X110234419Y-90769750D01*
X110229203Y-90748926D01*
X110226053Y-90727691D01*
X110225000Y-90706250D01*
X110225000Y-90268750D01*
X110226053Y-90247309D01*
X110229203Y-90226074D01*
X110234419Y-90205250D01*
X110241651Y-90185038D01*
X110250830Y-90165632D01*
X110261866Y-90147219D01*
X110274654Y-90129976D01*
X110289070Y-90114070D01*
X110304976Y-90099654D01*
X110322219Y-90086866D01*
X110340632Y-90075830D01*
X110360038Y-90066651D01*
X110380250Y-90059419D01*
X110401074Y-90054203D01*
X110422309Y-90051053D01*
X110443750Y-90050000D01*
X110956250Y-90050000D01*
X110977691Y-90051053D01*
G37*
G36*
X145202691Y-90676053D02*
G01*
X145223926Y-90679203D01*
X145244750Y-90684419D01*
X145264962Y-90691651D01*
X145284368Y-90700830D01*
X145302781Y-90711866D01*
X145320024Y-90724654D01*
X145335930Y-90739070D01*
X145350346Y-90754976D01*
X145363134Y-90772219D01*
X145374170Y-90790632D01*
X145383349Y-90810038D01*
X145390581Y-90830250D01*
X145395797Y-90851074D01*
X145398947Y-90872309D01*
X145400000Y-90893750D01*
X145400000Y-91406250D01*
X145398947Y-91427691D01*
X145395797Y-91448926D01*
X145390581Y-91469750D01*
X145383349Y-91489962D01*
X145374170Y-91509368D01*
X145363134Y-91527781D01*
X145350346Y-91545024D01*
X145335930Y-91560930D01*
X145320024Y-91575346D01*
X145302781Y-91588134D01*
X145284368Y-91599170D01*
X145264962Y-91608349D01*
X145244750Y-91615581D01*
X145223926Y-91620797D01*
X145202691Y-91623947D01*
X145181250Y-91625000D01*
X144743750Y-91625000D01*
X144722309Y-91623947D01*
X144701074Y-91620797D01*
X144680250Y-91615581D01*
X144660038Y-91608349D01*
X144640632Y-91599170D01*
X144622219Y-91588134D01*
X144604976Y-91575346D01*
X144589070Y-91560930D01*
X144574654Y-91545024D01*
X144561866Y-91527781D01*
X144550830Y-91509368D01*
X144541651Y-91489962D01*
X144534419Y-91469750D01*
X144529203Y-91448926D01*
X144526053Y-91427691D01*
X144525000Y-91406250D01*
X144525000Y-90893750D01*
X144526053Y-90872309D01*
X144529203Y-90851074D01*
X144534419Y-90830250D01*
X144541651Y-90810038D01*
X144550830Y-90790632D01*
X144561866Y-90772219D01*
X144574654Y-90754976D01*
X144589070Y-90739070D01*
X144604976Y-90724654D01*
X144622219Y-90711866D01*
X144640632Y-90700830D01*
X144660038Y-90691651D01*
X144680250Y-90684419D01*
X144701074Y-90679203D01*
X144722309Y-90676053D01*
X144743750Y-90675000D01*
X145181250Y-90675000D01*
X145202691Y-90676053D01*
G37*
G36*
X146777691Y-90676053D02*
G01*
X146798926Y-90679203D01*
X146819750Y-90684419D01*
X146839962Y-90691651D01*
X146859368Y-90700830D01*
X146877781Y-90711866D01*
X146895024Y-90724654D01*
X146910930Y-90739070D01*
X146925346Y-90754976D01*
X146938134Y-90772219D01*
X146949170Y-90790632D01*
X146958349Y-90810038D01*
X146965581Y-90830250D01*
X146970797Y-90851074D01*
X146973947Y-90872309D01*
X146975000Y-90893750D01*
X146975000Y-91406250D01*
X146973947Y-91427691D01*
X146970797Y-91448926D01*
X146965581Y-91469750D01*
X146958349Y-91489962D01*
X146949170Y-91509368D01*
X146938134Y-91527781D01*
X146925346Y-91545024D01*
X146910930Y-91560930D01*
X146895024Y-91575346D01*
X146877781Y-91588134D01*
X146859368Y-91599170D01*
X146839962Y-91608349D01*
X146819750Y-91615581D01*
X146798926Y-91620797D01*
X146777691Y-91623947D01*
X146756250Y-91625000D01*
X146318750Y-91625000D01*
X146297309Y-91623947D01*
X146276074Y-91620797D01*
X146255250Y-91615581D01*
X146235038Y-91608349D01*
X146215632Y-91599170D01*
X146197219Y-91588134D01*
X146179976Y-91575346D01*
X146164070Y-91560930D01*
X146149654Y-91545024D01*
X146136866Y-91527781D01*
X146125830Y-91509368D01*
X146116651Y-91489962D01*
X146109419Y-91469750D01*
X146104203Y-91448926D01*
X146101053Y-91427691D01*
X146100000Y-91406250D01*
X146100000Y-90893750D01*
X146101053Y-90872309D01*
X146104203Y-90851074D01*
X146109419Y-90830250D01*
X146116651Y-90810038D01*
X146125830Y-90790632D01*
X146136866Y-90772219D01*
X146149654Y-90754976D01*
X146164070Y-90739070D01*
X146179976Y-90724654D01*
X146197219Y-90711866D01*
X146215632Y-90700830D01*
X146235038Y-90691651D01*
X146255250Y-90684419D01*
X146276074Y-90679203D01*
X146297309Y-90676053D01*
X146318750Y-90675000D01*
X146756250Y-90675000D01*
X146777691Y-90676053D01*
G37*
G36*
X160158691Y-81568053D02*
G01*
X160179926Y-81571203D01*
X160200750Y-81576419D01*
X160220962Y-81583651D01*
X160240368Y-81592830D01*
X160258781Y-81603866D01*
X160276024Y-81616654D01*
X160291930Y-81631070D01*
X160306346Y-81646976D01*
X160319134Y-81664219D01*
X160330170Y-81682632D01*
X160339349Y-81702038D01*
X160346581Y-81722250D01*
X160351797Y-81743074D01*
X160354947Y-81764309D01*
X160356000Y-81785750D01*
X160356000Y-82298250D01*
X160354947Y-82319691D01*
X160351797Y-82340926D01*
X160346581Y-82361750D01*
X160339349Y-82381962D01*
X160330170Y-82401368D01*
X160319134Y-82419781D01*
X160306346Y-82437024D01*
X160291930Y-82452930D01*
X160276024Y-82467346D01*
X160258781Y-82480134D01*
X160240368Y-82491170D01*
X160220962Y-82500349D01*
X160200750Y-82507581D01*
X160179926Y-82512797D01*
X160158691Y-82515947D01*
X160137250Y-82517000D01*
X159699750Y-82517000D01*
X159678309Y-82515947D01*
X159657074Y-82512797D01*
X159636250Y-82507581D01*
X159616038Y-82500349D01*
X159596632Y-82491170D01*
X159578219Y-82480134D01*
X159560976Y-82467346D01*
X159545070Y-82452930D01*
X159530654Y-82437024D01*
X159517866Y-82419781D01*
X159506830Y-82401368D01*
X159497651Y-82381962D01*
X159490419Y-82361750D01*
X159485203Y-82340926D01*
X159482053Y-82319691D01*
X159481000Y-82298250D01*
X159481000Y-81785750D01*
X159482053Y-81764309D01*
X159485203Y-81743074D01*
X159490419Y-81722250D01*
X159497651Y-81702038D01*
X159506830Y-81682632D01*
X159517866Y-81664219D01*
X159530654Y-81646976D01*
X159545070Y-81631070D01*
X159560976Y-81616654D01*
X159578219Y-81603866D01*
X159596632Y-81592830D01*
X159616038Y-81583651D01*
X159636250Y-81576419D01*
X159657074Y-81571203D01*
X159678309Y-81568053D01*
X159699750Y-81567000D01*
X160137250Y-81567000D01*
X160158691Y-81568053D01*
G37*
G36*
X158583691Y-81568053D02*
G01*
X158604926Y-81571203D01*
X158625750Y-81576419D01*
X158645962Y-81583651D01*
X158665368Y-81592830D01*
X158683781Y-81603866D01*
X158701024Y-81616654D01*
X158716930Y-81631070D01*
X158731346Y-81646976D01*
X158744134Y-81664219D01*
X158755170Y-81682632D01*
X158764349Y-81702038D01*
X158771581Y-81722250D01*
X158776797Y-81743074D01*
X158779947Y-81764309D01*
X158781000Y-81785750D01*
X158781000Y-82298250D01*
X158779947Y-82319691D01*
X158776797Y-82340926D01*
X158771581Y-82361750D01*
X158764349Y-82381962D01*
X158755170Y-82401368D01*
X158744134Y-82419781D01*
X158731346Y-82437024D01*
X158716930Y-82452930D01*
X158701024Y-82467346D01*
X158683781Y-82480134D01*
X158665368Y-82491170D01*
X158645962Y-82500349D01*
X158625750Y-82507581D01*
X158604926Y-82512797D01*
X158583691Y-82515947D01*
X158562250Y-82517000D01*
X158124750Y-82517000D01*
X158103309Y-82515947D01*
X158082074Y-82512797D01*
X158061250Y-82507581D01*
X158041038Y-82500349D01*
X158021632Y-82491170D01*
X158003219Y-82480134D01*
X157985976Y-82467346D01*
X157970070Y-82452930D01*
X157955654Y-82437024D01*
X157942866Y-82419781D01*
X157931830Y-82401368D01*
X157922651Y-82381962D01*
X157915419Y-82361750D01*
X157910203Y-82340926D01*
X157907053Y-82319691D01*
X157906000Y-82298250D01*
X157906000Y-81785750D01*
X157907053Y-81764309D01*
X157910203Y-81743074D01*
X157915419Y-81722250D01*
X157922651Y-81702038D01*
X157931830Y-81682632D01*
X157942866Y-81664219D01*
X157955654Y-81646976D01*
X157970070Y-81631070D01*
X157985976Y-81616654D01*
X158003219Y-81603866D01*
X158021632Y-81592830D01*
X158041038Y-81583651D01*
X158061250Y-81576419D01*
X158082074Y-81571203D01*
X158103309Y-81568053D01*
X158124750Y-81567000D01*
X158562250Y-81567000D01*
X158583691Y-81568053D01*
G37*
G36*
X103389691Y-89188053D02*
G01*
X103410926Y-89191203D01*
X103431750Y-89196419D01*
X103451962Y-89203651D01*
X103471368Y-89212830D01*
X103489781Y-89223866D01*
X103507024Y-89236654D01*
X103522930Y-89251070D01*
X103537346Y-89266976D01*
X103550134Y-89284219D01*
X103561170Y-89302632D01*
X103570349Y-89322038D01*
X103577581Y-89342250D01*
X103582797Y-89363074D01*
X103585947Y-89384309D01*
X103587000Y-89405750D01*
X103587000Y-89918250D01*
X103585947Y-89939691D01*
X103582797Y-89960926D01*
X103577581Y-89981750D01*
X103570349Y-90001962D01*
X103561170Y-90021368D01*
X103550134Y-90039781D01*
X103537346Y-90057024D01*
X103522930Y-90072930D01*
X103507024Y-90087346D01*
X103489781Y-90100134D01*
X103471368Y-90111170D01*
X103451962Y-90120349D01*
X103431750Y-90127581D01*
X103410926Y-90132797D01*
X103389691Y-90135947D01*
X103368250Y-90137000D01*
X102930750Y-90137000D01*
X102909309Y-90135947D01*
X102888074Y-90132797D01*
X102867250Y-90127581D01*
X102847038Y-90120349D01*
X102827632Y-90111170D01*
X102809219Y-90100134D01*
X102791976Y-90087346D01*
X102776070Y-90072930D01*
X102761654Y-90057024D01*
X102748866Y-90039781D01*
X102737830Y-90021368D01*
X102728651Y-90001962D01*
X102721419Y-89981750D01*
X102716203Y-89960926D01*
X102713053Y-89939691D01*
X102712000Y-89918250D01*
X102712000Y-89405750D01*
X102713053Y-89384309D01*
X102716203Y-89363074D01*
X102721419Y-89342250D01*
X102728651Y-89322038D01*
X102737830Y-89302632D01*
X102748866Y-89284219D01*
X102761654Y-89266976D01*
X102776070Y-89251070D01*
X102791976Y-89236654D01*
X102809219Y-89223866D01*
X102827632Y-89212830D01*
X102847038Y-89203651D01*
X102867250Y-89196419D01*
X102888074Y-89191203D01*
X102909309Y-89188053D01*
X102930750Y-89187000D01*
X103368250Y-89187000D01*
X103389691Y-89188053D01*
G37*
G36*
X101814691Y-89188053D02*
G01*
X101835926Y-89191203D01*
X101856750Y-89196419D01*
X101876962Y-89203651D01*
X101896368Y-89212830D01*
X101914781Y-89223866D01*
X101932024Y-89236654D01*
X101947930Y-89251070D01*
X101962346Y-89266976D01*
X101975134Y-89284219D01*
X101986170Y-89302632D01*
X101995349Y-89322038D01*
X102002581Y-89342250D01*
X102007797Y-89363074D01*
X102010947Y-89384309D01*
X102012000Y-89405750D01*
X102012000Y-89918250D01*
X102010947Y-89939691D01*
X102007797Y-89960926D01*
X102002581Y-89981750D01*
X101995349Y-90001962D01*
X101986170Y-90021368D01*
X101975134Y-90039781D01*
X101962346Y-90057024D01*
X101947930Y-90072930D01*
X101932024Y-90087346D01*
X101914781Y-90100134D01*
X101896368Y-90111170D01*
X101876962Y-90120349D01*
X101856750Y-90127581D01*
X101835926Y-90132797D01*
X101814691Y-90135947D01*
X101793250Y-90137000D01*
X101355750Y-90137000D01*
X101334309Y-90135947D01*
X101313074Y-90132797D01*
X101292250Y-90127581D01*
X101272038Y-90120349D01*
X101252632Y-90111170D01*
X101234219Y-90100134D01*
X101216976Y-90087346D01*
X101201070Y-90072930D01*
X101186654Y-90057024D01*
X101173866Y-90039781D01*
X101162830Y-90021368D01*
X101153651Y-90001962D01*
X101146419Y-89981750D01*
X101141203Y-89960926D01*
X101138053Y-89939691D01*
X101137000Y-89918250D01*
X101137000Y-89405750D01*
X101138053Y-89384309D01*
X101141203Y-89363074D01*
X101146419Y-89342250D01*
X101153651Y-89322038D01*
X101162830Y-89302632D01*
X101173866Y-89284219D01*
X101186654Y-89266976D01*
X101201070Y-89251070D01*
X101216976Y-89236654D01*
X101234219Y-89223866D01*
X101252632Y-89212830D01*
X101272038Y-89203651D01*
X101292250Y-89196419D01*
X101313074Y-89191203D01*
X101334309Y-89188053D01*
X101355750Y-89187000D01*
X101793250Y-89187000D01*
X101814691Y-89188053D01*
G37*
G36*
X105377691Y-88476053D02*
G01*
X105398926Y-88479203D01*
X105419750Y-88484419D01*
X105439962Y-88491651D01*
X105459368Y-88500830D01*
X105477781Y-88511866D01*
X105495024Y-88524654D01*
X105510930Y-88539070D01*
X105525346Y-88554976D01*
X105538134Y-88572219D01*
X105549170Y-88590632D01*
X105558349Y-88610038D01*
X105565581Y-88630250D01*
X105570797Y-88651074D01*
X105573947Y-88672309D01*
X105575000Y-88693750D01*
X105575000Y-89131250D01*
X105573947Y-89152691D01*
X105570797Y-89173926D01*
X105565581Y-89194750D01*
X105558349Y-89214962D01*
X105549170Y-89234368D01*
X105538134Y-89252781D01*
X105525346Y-89270024D01*
X105510930Y-89285930D01*
X105495024Y-89300346D01*
X105477781Y-89313134D01*
X105459368Y-89324170D01*
X105439962Y-89333349D01*
X105419750Y-89340581D01*
X105398926Y-89345797D01*
X105377691Y-89348947D01*
X105356250Y-89350000D01*
X104843750Y-89350000D01*
X104822309Y-89348947D01*
X104801074Y-89345797D01*
X104780250Y-89340581D01*
X104760038Y-89333349D01*
X104740632Y-89324170D01*
X104722219Y-89313134D01*
X104704976Y-89300346D01*
X104689070Y-89285930D01*
X104674654Y-89270024D01*
X104661866Y-89252781D01*
X104650830Y-89234368D01*
X104641651Y-89214962D01*
X104634419Y-89194750D01*
X104629203Y-89173926D01*
X104626053Y-89152691D01*
X104625000Y-89131250D01*
X104625000Y-88693750D01*
X104626053Y-88672309D01*
X104629203Y-88651074D01*
X104634419Y-88630250D01*
X104641651Y-88610038D01*
X104650830Y-88590632D01*
X104661866Y-88572219D01*
X104674654Y-88554976D01*
X104689070Y-88539070D01*
X104704976Y-88524654D01*
X104722219Y-88511866D01*
X104740632Y-88500830D01*
X104760038Y-88491651D01*
X104780250Y-88484419D01*
X104801074Y-88479203D01*
X104822309Y-88476053D01*
X104843750Y-88475000D01*
X105356250Y-88475000D01*
X105377691Y-88476053D01*
G37*
G36*
X105377691Y-90051053D02*
G01*
X105398926Y-90054203D01*
X105419750Y-90059419D01*
X105439962Y-90066651D01*
X105459368Y-90075830D01*
X105477781Y-90086866D01*
X105495024Y-90099654D01*
X105510930Y-90114070D01*
X105525346Y-90129976D01*
X105538134Y-90147219D01*
X105549170Y-90165632D01*
X105558349Y-90185038D01*
X105565581Y-90205250D01*
X105570797Y-90226074D01*
X105573947Y-90247309D01*
X105575000Y-90268750D01*
X105575000Y-90706250D01*
X105573947Y-90727691D01*
X105570797Y-90748926D01*
X105565581Y-90769750D01*
X105558349Y-90789962D01*
X105549170Y-90809368D01*
X105538134Y-90827781D01*
X105525346Y-90845024D01*
X105510930Y-90860930D01*
X105495024Y-90875346D01*
X105477781Y-90888134D01*
X105459368Y-90899170D01*
X105439962Y-90908349D01*
X105419750Y-90915581D01*
X105398926Y-90920797D01*
X105377691Y-90923947D01*
X105356250Y-90925000D01*
X104843750Y-90925000D01*
X104822309Y-90923947D01*
X104801074Y-90920797D01*
X104780250Y-90915581D01*
X104760038Y-90908349D01*
X104740632Y-90899170D01*
X104722219Y-90888134D01*
X104704976Y-90875346D01*
X104689070Y-90860930D01*
X104674654Y-90845024D01*
X104661866Y-90827781D01*
X104650830Y-90809368D01*
X104641651Y-90789962D01*
X104634419Y-90769750D01*
X104629203Y-90748926D01*
X104626053Y-90727691D01*
X104625000Y-90706250D01*
X104625000Y-90268750D01*
X104626053Y-90247309D01*
X104629203Y-90226074D01*
X104634419Y-90205250D01*
X104641651Y-90185038D01*
X104650830Y-90165632D01*
X104661866Y-90147219D01*
X104674654Y-90129976D01*
X104689070Y-90114070D01*
X104704976Y-90099654D01*
X104722219Y-90086866D01*
X104740632Y-90075830D01*
X104760038Y-90066651D01*
X104780250Y-90059419D01*
X104801074Y-90054203D01*
X104822309Y-90051053D01*
X104843750Y-90050000D01*
X105356250Y-90050000D01*
X105377691Y-90051053D01*
G37*
G36*
X102152691Y-83726053D02*
G01*
X102173926Y-83729203D01*
X102194750Y-83734419D01*
X102214962Y-83741651D01*
X102234368Y-83750830D01*
X102252781Y-83761866D01*
X102270024Y-83774654D01*
X102285930Y-83789070D01*
X102300346Y-83804976D01*
X102313134Y-83822219D01*
X102324170Y-83840632D01*
X102333349Y-83860038D01*
X102340581Y-83880250D01*
X102345797Y-83901074D01*
X102348947Y-83922309D01*
X102350000Y-83943750D01*
X102350000Y-84456250D01*
X102348947Y-84477691D01*
X102345797Y-84498926D01*
X102340581Y-84519750D01*
X102333349Y-84539962D01*
X102324170Y-84559368D01*
X102313134Y-84577781D01*
X102300346Y-84595024D01*
X102285930Y-84610930D01*
X102270024Y-84625346D01*
X102252781Y-84638134D01*
X102234368Y-84649170D01*
X102214962Y-84658349D01*
X102194750Y-84665581D01*
X102173926Y-84670797D01*
X102152691Y-84673947D01*
X102131250Y-84675000D01*
X101693750Y-84675000D01*
X101672309Y-84673947D01*
X101651074Y-84670797D01*
X101630250Y-84665581D01*
X101610038Y-84658349D01*
X101590632Y-84649170D01*
X101572219Y-84638134D01*
X101554976Y-84625346D01*
X101539070Y-84610930D01*
X101524654Y-84595024D01*
X101511866Y-84577781D01*
X101500830Y-84559368D01*
X101491651Y-84539962D01*
X101484419Y-84519750D01*
X101479203Y-84498926D01*
X101476053Y-84477691D01*
X101475000Y-84456250D01*
X101475000Y-83943750D01*
X101476053Y-83922309D01*
X101479203Y-83901074D01*
X101484419Y-83880250D01*
X101491651Y-83860038D01*
X101500830Y-83840632D01*
X101511866Y-83822219D01*
X101524654Y-83804976D01*
X101539070Y-83789070D01*
X101554976Y-83774654D01*
X101572219Y-83761866D01*
X101590632Y-83750830D01*
X101610038Y-83741651D01*
X101630250Y-83734419D01*
X101651074Y-83729203D01*
X101672309Y-83726053D01*
X101693750Y-83725000D01*
X102131250Y-83725000D01*
X102152691Y-83726053D01*
G37*
G36*
X103727691Y-83726053D02*
G01*
X103748926Y-83729203D01*
X103769750Y-83734419D01*
X103789962Y-83741651D01*
X103809368Y-83750830D01*
X103827781Y-83761866D01*
X103845024Y-83774654D01*
X103860930Y-83789070D01*
X103875346Y-83804976D01*
X103888134Y-83822219D01*
X103899170Y-83840632D01*
X103908349Y-83860038D01*
X103915581Y-83880250D01*
X103920797Y-83901074D01*
X103923947Y-83922309D01*
X103925000Y-83943750D01*
X103925000Y-84456250D01*
X103923947Y-84477691D01*
X103920797Y-84498926D01*
X103915581Y-84519750D01*
X103908349Y-84539962D01*
X103899170Y-84559368D01*
X103888134Y-84577781D01*
X103875346Y-84595024D01*
X103860930Y-84610930D01*
X103845024Y-84625346D01*
X103827781Y-84638134D01*
X103809368Y-84649170D01*
X103789962Y-84658349D01*
X103769750Y-84665581D01*
X103748926Y-84670797D01*
X103727691Y-84673947D01*
X103706250Y-84675000D01*
X103268750Y-84675000D01*
X103247309Y-84673947D01*
X103226074Y-84670797D01*
X103205250Y-84665581D01*
X103185038Y-84658349D01*
X103165632Y-84649170D01*
X103147219Y-84638134D01*
X103129976Y-84625346D01*
X103114070Y-84610930D01*
X103099654Y-84595024D01*
X103086866Y-84577781D01*
X103075830Y-84559368D01*
X103066651Y-84539962D01*
X103059419Y-84519750D01*
X103054203Y-84498926D01*
X103051053Y-84477691D01*
X103050000Y-84456250D01*
X103050000Y-83943750D01*
X103051053Y-83922309D01*
X103054203Y-83901074D01*
X103059419Y-83880250D01*
X103066651Y-83860038D01*
X103075830Y-83840632D01*
X103086866Y-83822219D01*
X103099654Y-83804976D01*
X103114070Y-83789070D01*
X103129976Y-83774654D01*
X103147219Y-83761866D01*
X103165632Y-83750830D01*
X103185038Y-83741651D01*
X103205250Y-83734419D01*
X103226074Y-83729203D01*
X103247309Y-83726053D01*
X103268750Y-83725000D01*
X103706250Y-83725000D01*
X103727691Y-83726053D01*
G37*
G36*
X127773691Y-86842053D02*
G01*
X127794926Y-86845203D01*
X127815750Y-86850419D01*
X127835962Y-86857651D01*
X127855368Y-86866830D01*
X127873781Y-86877866D01*
X127891024Y-86890654D01*
X127906930Y-86905070D01*
X127921346Y-86920976D01*
X127934134Y-86938219D01*
X127945170Y-86956632D01*
X127954349Y-86976038D01*
X127961581Y-86996250D01*
X127966797Y-87017074D01*
X127969947Y-87038309D01*
X127971000Y-87059750D01*
X127971000Y-87572250D01*
X127969947Y-87593691D01*
X127966797Y-87614926D01*
X127961581Y-87635750D01*
X127954349Y-87655962D01*
X127945170Y-87675368D01*
X127934134Y-87693781D01*
X127921346Y-87711024D01*
X127906930Y-87726930D01*
X127891024Y-87741346D01*
X127873781Y-87754134D01*
X127855368Y-87765170D01*
X127835962Y-87774349D01*
X127815750Y-87781581D01*
X127794926Y-87786797D01*
X127773691Y-87789947D01*
X127752250Y-87791000D01*
X127314750Y-87791000D01*
X127293309Y-87789947D01*
X127272074Y-87786797D01*
X127251250Y-87781581D01*
X127231038Y-87774349D01*
X127211632Y-87765170D01*
X127193219Y-87754134D01*
X127175976Y-87741346D01*
X127160070Y-87726930D01*
X127145654Y-87711024D01*
X127132866Y-87693781D01*
X127121830Y-87675368D01*
X127112651Y-87655962D01*
X127105419Y-87635750D01*
X127100203Y-87614926D01*
X127097053Y-87593691D01*
X127096000Y-87572250D01*
X127096000Y-87059750D01*
X127097053Y-87038309D01*
X127100203Y-87017074D01*
X127105419Y-86996250D01*
X127112651Y-86976038D01*
X127121830Y-86956632D01*
X127132866Y-86938219D01*
X127145654Y-86920976D01*
X127160070Y-86905070D01*
X127175976Y-86890654D01*
X127193219Y-86877866D01*
X127211632Y-86866830D01*
X127231038Y-86857651D01*
X127251250Y-86850419D01*
X127272074Y-86845203D01*
X127293309Y-86842053D01*
X127314750Y-86841000D01*
X127752250Y-86841000D01*
X127773691Y-86842053D01*
G37*
G36*
X126198691Y-86842053D02*
G01*
X126219926Y-86845203D01*
X126240750Y-86850419D01*
X126260962Y-86857651D01*
X126280368Y-86866830D01*
X126298781Y-86877866D01*
X126316024Y-86890654D01*
X126331930Y-86905070D01*
X126346346Y-86920976D01*
X126359134Y-86938219D01*
X126370170Y-86956632D01*
X126379349Y-86976038D01*
X126386581Y-86996250D01*
X126391797Y-87017074D01*
X126394947Y-87038309D01*
X126396000Y-87059750D01*
X126396000Y-87572250D01*
X126394947Y-87593691D01*
X126391797Y-87614926D01*
X126386581Y-87635750D01*
X126379349Y-87655962D01*
X126370170Y-87675368D01*
X126359134Y-87693781D01*
X126346346Y-87711024D01*
X126331930Y-87726930D01*
X126316024Y-87741346D01*
X126298781Y-87754134D01*
X126280368Y-87765170D01*
X126260962Y-87774349D01*
X126240750Y-87781581D01*
X126219926Y-87786797D01*
X126198691Y-87789947D01*
X126177250Y-87791000D01*
X125739750Y-87791000D01*
X125718309Y-87789947D01*
X125697074Y-87786797D01*
X125676250Y-87781581D01*
X125656038Y-87774349D01*
X125636632Y-87765170D01*
X125618219Y-87754134D01*
X125600976Y-87741346D01*
X125585070Y-87726930D01*
X125570654Y-87711024D01*
X125557866Y-87693781D01*
X125546830Y-87675368D01*
X125537651Y-87655962D01*
X125530419Y-87635750D01*
X125525203Y-87614926D01*
X125522053Y-87593691D01*
X125521000Y-87572250D01*
X125521000Y-87059750D01*
X125522053Y-87038309D01*
X125525203Y-87017074D01*
X125530419Y-86996250D01*
X125537651Y-86976038D01*
X125546830Y-86956632D01*
X125557866Y-86938219D01*
X125570654Y-86920976D01*
X125585070Y-86905070D01*
X125600976Y-86890654D01*
X125618219Y-86877866D01*
X125636632Y-86866830D01*
X125656038Y-86857651D01*
X125676250Y-86850419D01*
X125697074Y-86845203D01*
X125718309Y-86842053D01*
X125739750Y-86841000D01*
X126177250Y-86841000D01*
X126198691Y-86842053D01*
G37*
G36*
X117270091Y-89921053D02*
G01*
X117291326Y-89924203D01*
X117312150Y-89929419D01*
X117332362Y-89936651D01*
X117351768Y-89945830D01*
X117370181Y-89956866D01*
X117387424Y-89969654D01*
X117403330Y-89984070D01*
X117417746Y-89999976D01*
X117430534Y-90017219D01*
X117441570Y-90035632D01*
X117450749Y-90055038D01*
X117457981Y-90075250D01*
X117463197Y-90096074D01*
X117466347Y-90117309D01*
X117467400Y-90138750D01*
X117467400Y-90576250D01*
X117466347Y-90597691D01*
X117463197Y-90618926D01*
X117457981Y-90639750D01*
X117450749Y-90659962D01*
X117441570Y-90679368D01*
X117430534Y-90697781D01*
X117417746Y-90715024D01*
X117403330Y-90730930D01*
X117387424Y-90745346D01*
X117370181Y-90758134D01*
X117351768Y-90769170D01*
X117332362Y-90778349D01*
X117312150Y-90785581D01*
X117291326Y-90790797D01*
X117270091Y-90793947D01*
X117248650Y-90795000D01*
X116736150Y-90795000D01*
X116714709Y-90793947D01*
X116693474Y-90790797D01*
X116672650Y-90785581D01*
X116652438Y-90778349D01*
X116633032Y-90769170D01*
X116614619Y-90758134D01*
X116597376Y-90745346D01*
X116581470Y-90730930D01*
X116567054Y-90715024D01*
X116554266Y-90697781D01*
X116543230Y-90679368D01*
X116534051Y-90659962D01*
X116526819Y-90639750D01*
X116521603Y-90618926D01*
X116518453Y-90597691D01*
X116517400Y-90576250D01*
X116517400Y-90138750D01*
X116518453Y-90117309D01*
X116521603Y-90096074D01*
X116526819Y-90075250D01*
X116534051Y-90055038D01*
X116543230Y-90035632D01*
X116554266Y-90017219D01*
X116567054Y-89999976D01*
X116581470Y-89984070D01*
X116597376Y-89969654D01*
X116614619Y-89956866D01*
X116633032Y-89945830D01*
X116652438Y-89936651D01*
X116672650Y-89929419D01*
X116693474Y-89924203D01*
X116714709Y-89921053D01*
X116736150Y-89920000D01*
X117248650Y-89920000D01*
X117270091Y-89921053D01*
G37*
G36*
X117270091Y-91496053D02*
G01*
X117291326Y-91499203D01*
X117312150Y-91504419D01*
X117332362Y-91511651D01*
X117351768Y-91520830D01*
X117370181Y-91531866D01*
X117387424Y-91544654D01*
X117403330Y-91559070D01*
X117417746Y-91574976D01*
X117430534Y-91592219D01*
X117441570Y-91610632D01*
X117450749Y-91630038D01*
X117457981Y-91650250D01*
X117463197Y-91671074D01*
X117466347Y-91692309D01*
X117467400Y-91713750D01*
X117467400Y-92151250D01*
X117466347Y-92172691D01*
X117463197Y-92193926D01*
X117457981Y-92214750D01*
X117450749Y-92234962D01*
X117441570Y-92254368D01*
X117430534Y-92272781D01*
X117417746Y-92290024D01*
X117403330Y-92305930D01*
X117387424Y-92320346D01*
X117370181Y-92333134D01*
X117351768Y-92344170D01*
X117332362Y-92353349D01*
X117312150Y-92360581D01*
X117291326Y-92365797D01*
X117270091Y-92368947D01*
X117248650Y-92370000D01*
X116736150Y-92370000D01*
X116714709Y-92368947D01*
X116693474Y-92365797D01*
X116672650Y-92360581D01*
X116652438Y-92353349D01*
X116633032Y-92344170D01*
X116614619Y-92333134D01*
X116597376Y-92320346D01*
X116581470Y-92305930D01*
X116567054Y-92290024D01*
X116554266Y-92272781D01*
X116543230Y-92254368D01*
X116534051Y-92234962D01*
X116526819Y-92214750D01*
X116521603Y-92193926D01*
X116518453Y-92172691D01*
X116517400Y-92151250D01*
X116517400Y-91713750D01*
X116518453Y-91692309D01*
X116521603Y-91671074D01*
X116526819Y-91650250D01*
X116534051Y-91630038D01*
X116543230Y-91610632D01*
X116554266Y-91592219D01*
X116567054Y-91574976D01*
X116581470Y-91559070D01*
X116597376Y-91544654D01*
X116614619Y-91531866D01*
X116633032Y-91520830D01*
X116652438Y-91511651D01*
X116672650Y-91504419D01*
X116693474Y-91499203D01*
X116714709Y-91496053D01*
X116736150Y-91495000D01*
X117248650Y-91495000D01*
X117270091Y-91496053D01*
G37*
G36*
X119797891Y-87572253D02*
G01*
X119819126Y-87575403D01*
X119839950Y-87580619D01*
X119860162Y-87587851D01*
X119879568Y-87597030D01*
X119897981Y-87608066D01*
X119915224Y-87620854D01*
X119931130Y-87635270D01*
X119945546Y-87651176D01*
X119958334Y-87668419D01*
X119969370Y-87686832D01*
X119978549Y-87706238D01*
X119985781Y-87726450D01*
X119990997Y-87747274D01*
X119994147Y-87768509D01*
X119995200Y-87789950D01*
X119995200Y-88302450D01*
X119994147Y-88323891D01*
X119990997Y-88345126D01*
X119985781Y-88365950D01*
X119978549Y-88386162D01*
X119969370Y-88405568D01*
X119958334Y-88423981D01*
X119945546Y-88441224D01*
X119931130Y-88457130D01*
X119915224Y-88471546D01*
X119897981Y-88484334D01*
X119879568Y-88495370D01*
X119860162Y-88504549D01*
X119839950Y-88511781D01*
X119819126Y-88516997D01*
X119797891Y-88520147D01*
X119776450Y-88521200D01*
X119338950Y-88521200D01*
X119317509Y-88520147D01*
X119296274Y-88516997D01*
X119275450Y-88511781D01*
X119255238Y-88504549D01*
X119235832Y-88495370D01*
X119217419Y-88484334D01*
X119200176Y-88471546D01*
X119184270Y-88457130D01*
X119169854Y-88441224D01*
X119157066Y-88423981D01*
X119146030Y-88405568D01*
X119136851Y-88386162D01*
X119129619Y-88365950D01*
X119124403Y-88345126D01*
X119121253Y-88323891D01*
X119120200Y-88302450D01*
X119120200Y-87789950D01*
X119121253Y-87768509D01*
X119124403Y-87747274D01*
X119129619Y-87726450D01*
X119136851Y-87706238D01*
X119146030Y-87686832D01*
X119157066Y-87668419D01*
X119169854Y-87651176D01*
X119184270Y-87635270D01*
X119200176Y-87620854D01*
X119217419Y-87608066D01*
X119235832Y-87597030D01*
X119255238Y-87587851D01*
X119275450Y-87580619D01*
X119296274Y-87575403D01*
X119317509Y-87572253D01*
X119338950Y-87571200D01*
X119776450Y-87571200D01*
X119797891Y-87572253D01*
G37*
G36*
X121372891Y-87572253D02*
G01*
X121394126Y-87575403D01*
X121414950Y-87580619D01*
X121435162Y-87587851D01*
X121454568Y-87597030D01*
X121472981Y-87608066D01*
X121490224Y-87620854D01*
X121506130Y-87635270D01*
X121520546Y-87651176D01*
X121533334Y-87668419D01*
X121544370Y-87686832D01*
X121553549Y-87706238D01*
X121560781Y-87726450D01*
X121565997Y-87747274D01*
X121569147Y-87768509D01*
X121570200Y-87789950D01*
X121570200Y-88302450D01*
X121569147Y-88323891D01*
X121565997Y-88345126D01*
X121560781Y-88365950D01*
X121553549Y-88386162D01*
X121544370Y-88405568D01*
X121533334Y-88423981D01*
X121520546Y-88441224D01*
X121506130Y-88457130D01*
X121490224Y-88471546D01*
X121472981Y-88484334D01*
X121454568Y-88495370D01*
X121435162Y-88504549D01*
X121414950Y-88511781D01*
X121394126Y-88516997D01*
X121372891Y-88520147D01*
X121351450Y-88521200D01*
X120913950Y-88521200D01*
X120892509Y-88520147D01*
X120871274Y-88516997D01*
X120850450Y-88511781D01*
X120830238Y-88504549D01*
X120810832Y-88495370D01*
X120792419Y-88484334D01*
X120775176Y-88471546D01*
X120759270Y-88457130D01*
X120744854Y-88441224D01*
X120732066Y-88423981D01*
X120721030Y-88405568D01*
X120711851Y-88386162D01*
X120704619Y-88365950D01*
X120699403Y-88345126D01*
X120696253Y-88323891D01*
X120695200Y-88302450D01*
X120695200Y-87789950D01*
X120696253Y-87768509D01*
X120699403Y-87747274D01*
X120704619Y-87726450D01*
X120711851Y-87706238D01*
X120721030Y-87686832D01*
X120732066Y-87668419D01*
X120744854Y-87651176D01*
X120759270Y-87635270D01*
X120775176Y-87620854D01*
X120792419Y-87608066D01*
X120810832Y-87597030D01*
X120830238Y-87587851D01*
X120850450Y-87580619D01*
X120871274Y-87575403D01*
X120892509Y-87572253D01*
X120913950Y-87571200D01*
X121351450Y-87571200D01*
X121372891Y-87572253D01*
G37*
G36*
X145202691Y-89188053D02*
G01*
X145223926Y-89191203D01*
X145244750Y-89196419D01*
X145264962Y-89203651D01*
X145284368Y-89212830D01*
X145302781Y-89223866D01*
X145320024Y-89236654D01*
X145335930Y-89251070D01*
X145350346Y-89266976D01*
X145363134Y-89284219D01*
X145374170Y-89302632D01*
X145383349Y-89322038D01*
X145390581Y-89342250D01*
X145395797Y-89363074D01*
X145398947Y-89384309D01*
X145400000Y-89405750D01*
X145400000Y-89918250D01*
X145398947Y-89939691D01*
X145395797Y-89960926D01*
X145390581Y-89981750D01*
X145383349Y-90001962D01*
X145374170Y-90021368D01*
X145363134Y-90039781D01*
X145350346Y-90057024D01*
X145335930Y-90072930D01*
X145320024Y-90087346D01*
X145302781Y-90100134D01*
X145284368Y-90111170D01*
X145264962Y-90120349D01*
X145244750Y-90127581D01*
X145223926Y-90132797D01*
X145202691Y-90135947D01*
X145181250Y-90137000D01*
X144743750Y-90137000D01*
X144722309Y-90135947D01*
X144701074Y-90132797D01*
X144680250Y-90127581D01*
X144660038Y-90120349D01*
X144640632Y-90111170D01*
X144622219Y-90100134D01*
X144604976Y-90087346D01*
X144589070Y-90072930D01*
X144574654Y-90057024D01*
X144561866Y-90039781D01*
X144550830Y-90021368D01*
X144541651Y-90001962D01*
X144534419Y-89981750D01*
X144529203Y-89960926D01*
X144526053Y-89939691D01*
X144525000Y-89918250D01*
X144525000Y-89405750D01*
X144526053Y-89384309D01*
X144529203Y-89363074D01*
X144534419Y-89342250D01*
X144541651Y-89322038D01*
X144550830Y-89302632D01*
X144561866Y-89284219D01*
X144574654Y-89266976D01*
X144589070Y-89251070D01*
X144604976Y-89236654D01*
X144622219Y-89223866D01*
X144640632Y-89212830D01*
X144660038Y-89203651D01*
X144680250Y-89196419D01*
X144701074Y-89191203D01*
X144722309Y-89188053D01*
X144743750Y-89187000D01*
X145181250Y-89187000D01*
X145202691Y-89188053D01*
G37*
G36*
X146777691Y-89188053D02*
G01*
X146798926Y-89191203D01*
X146819750Y-89196419D01*
X146839962Y-89203651D01*
X146859368Y-89212830D01*
X146877781Y-89223866D01*
X146895024Y-89236654D01*
X146910930Y-89251070D01*
X146925346Y-89266976D01*
X146938134Y-89284219D01*
X146949170Y-89302632D01*
X146958349Y-89322038D01*
X146965581Y-89342250D01*
X146970797Y-89363074D01*
X146973947Y-89384309D01*
X146975000Y-89405750D01*
X146975000Y-89918250D01*
X146973947Y-89939691D01*
X146970797Y-89960926D01*
X146965581Y-89981750D01*
X146958349Y-90001962D01*
X146949170Y-90021368D01*
X146938134Y-90039781D01*
X146925346Y-90057024D01*
X146910930Y-90072930D01*
X146895024Y-90087346D01*
X146877781Y-90100134D01*
X146859368Y-90111170D01*
X146839962Y-90120349D01*
X146819750Y-90127581D01*
X146798926Y-90132797D01*
X146777691Y-90135947D01*
X146756250Y-90137000D01*
X146318750Y-90137000D01*
X146297309Y-90135947D01*
X146276074Y-90132797D01*
X146255250Y-90127581D01*
X146235038Y-90120349D01*
X146215632Y-90111170D01*
X146197219Y-90100134D01*
X146179976Y-90087346D01*
X146164070Y-90072930D01*
X146149654Y-90057024D01*
X146136866Y-90039781D01*
X146125830Y-90021368D01*
X146116651Y-90001962D01*
X146109419Y-89981750D01*
X146104203Y-89960926D01*
X146101053Y-89939691D01*
X146100000Y-89918250D01*
X146100000Y-89405750D01*
X146101053Y-89384309D01*
X146104203Y-89363074D01*
X146109419Y-89342250D01*
X146116651Y-89322038D01*
X146125830Y-89302632D01*
X146136866Y-89284219D01*
X146149654Y-89266976D01*
X146164070Y-89251070D01*
X146179976Y-89236654D01*
X146197219Y-89223866D01*
X146215632Y-89212830D01*
X146235038Y-89203651D01*
X146255250Y-89196419D01*
X146276074Y-89191203D01*
X146297309Y-89188053D01*
X146318750Y-89187000D01*
X146756250Y-89187000D01*
X146777691Y-89188053D01*
G37*
G36*
X118184491Y-86203053D02*
G01*
X118205726Y-86206203D01*
X118226550Y-86211419D01*
X118246762Y-86218651D01*
X118266168Y-86227830D01*
X118284581Y-86238866D01*
X118301824Y-86251654D01*
X118317730Y-86266070D01*
X118332146Y-86281976D01*
X118344934Y-86299219D01*
X118355970Y-86317632D01*
X118365149Y-86337038D01*
X118372381Y-86357250D01*
X118377597Y-86378074D01*
X118380747Y-86399309D01*
X118381800Y-86420750D01*
X118381800Y-86858250D01*
X118380747Y-86879691D01*
X118377597Y-86900926D01*
X118372381Y-86921750D01*
X118365149Y-86941962D01*
X118355970Y-86961368D01*
X118344934Y-86979781D01*
X118332146Y-86997024D01*
X118317730Y-87012930D01*
X118301824Y-87027346D01*
X118284581Y-87040134D01*
X118266168Y-87051170D01*
X118246762Y-87060349D01*
X118226550Y-87067581D01*
X118205726Y-87072797D01*
X118184491Y-87075947D01*
X118163050Y-87077000D01*
X117650550Y-87077000D01*
X117629109Y-87075947D01*
X117607874Y-87072797D01*
X117587050Y-87067581D01*
X117566838Y-87060349D01*
X117547432Y-87051170D01*
X117529019Y-87040134D01*
X117511776Y-87027346D01*
X117495870Y-87012930D01*
X117481454Y-86997024D01*
X117468666Y-86979781D01*
X117457630Y-86961368D01*
X117448451Y-86941962D01*
X117441219Y-86921750D01*
X117436003Y-86900926D01*
X117432853Y-86879691D01*
X117431800Y-86858250D01*
X117431800Y-86420750D01*
X117432853Y-86399309D01*
X117436003Y-86378074D01*
X117441219Y-86357250D01*
X117448451Y-86337038D01*
X117457630Y-86317632D01*
X117468666Y-86299219D01*
X117481454Y-86281976D01*
X117495870Y-86266070D01*
X117511776Y-86251654D01*
X117529019Y-86238866D01*
X117547432Y-86227830D01*
X117566838Y-86218651D01*
X117587050Y-86211419D01*
X117607874Y-86206203D01*
X117629109Y-86203053D01*
X117650550Y-86202000D01*
X118163050Y-86202000D01*
X118184491Y-86203053D01*
G37*
G36*
X118184491Y-84628053D02*
G01*
X118205726Y-84631203D01*
X118226550Y-84636419D01*
X118246762Y-84643651D01*
X118266168Y-84652830D01*
X118284581Y-84663866D01*
X118301824Y-84676654D01*
X118317730Y-84691070D01*
X118332146Y-84706976D01*
X118344934Y-84724219D01*
X118355970Y-84742632D01*
X118365149Y-84762038D01*
X118372381Y-84782250D01*
X118377597Y-84803074D01*
X118380747Y-84824309D01*
X118381800Y-84845750D01*
X118381800Y-85283250D01*
X118380747Y-85304691D01*
X118377597Y-85325926D01*
X118372381Y-85346750D01*
X118365149Y-85366962D01*
X118355970Y-85386368D01*
X118344934Y-85404781D01*
X118332146Y-85422024D01*
X118317730Y-85437930D01*
X118301824Y-85452346D01*
X118284581Y-85465134D01*
X118266168Y-85476170D01*
X118246762Y-85485349D01*
X118226550Y-85492581D01*
X118205726Y-85497797D01*
X118184491Y-85500947D01*
X118163050Y-85502000D01*
X117650550Y-85502000D01*
X117629109Y-85500947D01*
X117607874Y-85497797D01*
X117587050Y-85492581D01*
X117566838Y-85485349D01*
X117547432Y-85476170D01*
X117529019Y-85465134D01*
X117511776Y-85452346D01*
X117495870Y-85437930D01*
X117481454Y-85422024D01*
X117468666Y-85404781D01*
X117457630Y-85386368D01*
X117448451Y-85366962D01*
X117441219Y-85346750D01*
X117436003Y-85325926D01*
X117432853Y-85304691D01*
X117431800Y-85283250D01*
X117431800Y-84845750D01*
X117432853Y-84824309D01*
X117436003Y-84803074D01*
X117441219Y-84782250D01*
X117448451Y-84762038D01*
X117457630Y-84742632D01*
X117468666Y-84724219D01*
X117481454Y-84706976D01*
X117495870Y-84691070D01*
X117511776Y-84676654D01*
X117529019Y-84663866D01*
X117547432Y-84652830D01*
X117566838Y-84643651D01*
X117587050Y-84636419D01*
X117607874Y-84631203D01*
X117629109Y-84628053D01*
X117650550Y-84627000D01*
X118163050Y-84627000D01*
X118184491Y-84628053D01*
G37*
G36*
X119657691Y-86203053D02*
G01*
X119678926Y-86206203D01*
X119699750Y-86211419D01*
X119719962Y-86218651D01*
X119739368Y-86227830D01*
X119757781Y-86238866D01*
X119775024Y-86251654D01*
X119790930Y-86266070D01*
X119805346Y-86281976D01*
X119818134Y-86299219D01*
X119829170Y-86317632D01*
X119838349Y-86337038D01*
X119845581Y-86357250D01*
X119850797Y-86378074D01*
X119853947Y-86399309D01*
X119855000Y-86420750D01*
X119855000Y-86858250D01*
X119853947Y-86879691D01*
X119850797Y-86900926D01*
X119845581Y-86921750D01*
X119838349Y-86941962D01*
X119829170Y-86961368D01*
X119818134Y-86979781D01*
X119805346Y-86997024D01*
X119790930Y-87012930D01*
X119775024Y-87027346D01*
X119757781Y-87040134D01*
X119739368Y-87051170D01*
X119719962Y-87060349D01*
X119699750Y-87067581D01*
X119678926Y-87072797D01*
X119657691Y-87075947D01*
X119636250Y-87077000D01*
X119123750Y-87077000D01*
X119102309Y-87075947D01*
X119081074Y-87072797D01*
X119060250Y-87067581D01*
X119040038Y-87060349D01*
X119020632Y-87051170D01*
X119002219Y-87040134D01*
X118984976Y-87027346D01*
X118969070Y-87012930D01*
X118954654Y-86997024D01*
X118941866Y-86979781D01*
X118930830Y-86961368D01*
X118921651Y-86941962D01*
X118914419Y-86921750D01*
X118909203Y-86900926D01*
X118906053Y-86879691D01*
X118905000Y-86858250D01*
X118905000Y-86420750D01*
X118906053Y-86399309D01*
X118909203Y-86378074D01*
X118914419Y-86357250D01*
X118921651Y-86337038D01*
X118930830Y-86317632D01*
X118941866Y-86299219D01*
X118954654Y-86281976D01*
X118969070Y-86266070D01*
X118984976Y-86251654D01*
X119002219Y-86238866D01*
X119020632Y-86227830D01*
X119040038Y-86218651D01*
X119060250Y-86211419D01*
X119081074Y-86206203D01*
X119102309Y-86203053D01*
X119123750Y-86202000D01*
X119636250Y-86202000D01*
X119657691Y-86203053D01*
G37*
G36*
X119657691Y-84628053D02*
G01*
X119678926Y-84631203D01*
X119699750Y-84636419D01*
X119719962Y-84643651D01*
X119739368Y-84652830D01*
X119757781Y-84663866D01*
X119775024Y-84676654D01*
X119790930Y-84691070D01*
X119805346Y-84706976D01*
X119818134Y-84724219D01*
X119829170Y-84742632D01*
X119838349Y-84762038D01*
X119845581Y-84782250D01*
X119850797Y-84803074D01*
X119853947Y-84824309D01*
X119855000Y-84845750D01*
X119855000Y-85283250D01*
X119853947Y-85304691D01*
X119850797Y-85325926D01*
X119845581Y-85346750D01*
X119838349Y-85366962D01*
X119829170Y-85386368D01*
X119818134Y-85404781D01*
X119805346Y-85422024D01*
X119790930Y-85437930D01*
X119775024Y-85452346D01*
X119757781Y-85465134D01*
X119739368Y-85476170D01*
X119719962Y-85485349D01*
X119699750Y-85492581D01*
X119678926Y-85497797D01*
X119657691Y-85500947D01*
X119636250Y-85502000D01*
X119123750Y-85502000D01*
X119102309Y-85500947D01*
X119081074Y-85497797D01*
X119060250Y-85492581D01*
X119040038Y-85485349D01*
X119020632Y-85476170D01*
X119002219Y-85465134D01*
X118984976Y-85452346D01*
X118969070Y-85437930D01*
X118954654Y-85422024D01*
X118941866Y-85404781D01*
X118930830Y-85386368D01*
X118921651Y-85366962D01*
X118914419Y-85346750D01*
X118909203Y-85325926D01*
X118906053Y-85304691D01*
X118905000Y-85283250D01*
X118905000Y-84845750D01*
X118906053Y-84824309D01*
X118909203Y-84803074D01*
X118914419Y-84782250D01*
X118921651Y-84762038D01*
X118930830Y-84742632D01*
X118941866Y-84724219D01*
X118954654Y-84706976D01*
X118969070Y-84691070D01*
X118984976Y-84676654D01*
X119002219Y-84663866D01*
X119020632Y-84652830D01*
X119040038Y-84643651D01*
X119060250Y-84636419D01*
X119081074Y-84631203D01*
X119102309Y-84628053D01*
X119123750Y-84627000D01*
X119636250Y-84627000D01*
X119657691Y-84628053D01*
G37*
G36*
X115746091Y-89921053D02*
G01*
X115767326Y-89924203D01*
X115788150Y-89929419D01*
X115808362Y-89936651D01*
X115827768Y-89945830D01*
X115846181Y-89956866D01*
X115863424Y-89969654D01*
X115879330Y-89984070D01*
X115893746Y-89999976D01*
X115906534Y-90017219D01*
X115917570Y-90035632D01*
X115926749Y-90055038D01*
X115933981Y-90075250D01*
X115939197Y-90096074D01*
X115942347Y-90117309D01*
X115943400Y-90138750D01*
X115943400Y-90576250D01*
X115942347Y-90597691D01*
X115939197Y-90618926D01*
X115933981Y-90639750D01*
X115926749Y-90659962D01*
X115917570Y-90679368D01*
X115906534Y-90697781D01*
X115893746Y-90715024D01*
X115879330Y-90730930D01*
X115863424Y-90745346D01*
X115846181Y-90758134D01*
X115827768Y-90769170D01*
X115808362Y-90778349D01*
X115788150Y-90785581D01*
X115767326Y-90790797D01*
X115746091Y-90793947D01*
X115724650Y-90795000D01*
X115212150Y-90795000D01*
X115190709Y-90793947D01*
X115169474Y-90790797D01*
X115148650Y-90785581D01*
X115128438Y-90778349D01*
X115109032Y-90769170D01*
X115090619Y-90758134D01*
X115073376Y-90745346D01*
X115057470Y-90730930D01*
X115043054Y-90715024D01*
X115030266Y-90697781D01*
X115019230Y-90679368D01*
X115010051Y-90659962D01*
X115002819Y-90639750D01*
X114997603Y-90618926D01*
X114994453Y-90597691D01*
X114993400Y-90576250D01*
X114993400Y-90138750D01*
X114994453Y-90117309D01*
X114997603Y-90096074D01*
X115002819Y-90075250D01*
X115010051Y-90055038D01*
X115019230Y-90035632D01*
X115030266Y-90017219D01*
X115043054Y-89999976D01*
X115057470Y-89984070D01*
X115073376Y-89969654D01*
X115090619Y-89956866D01*
X115109032Y-89945830D01*
X115128438Y-89936651D01*
X115148650Y-89929419D01*
X115169474Y-89924203D01*
X115190709Y-89921053D01*
X115212150Y-89920000D01*
X115724650Y-89920000D01*
X115746091Y-89921053D01*
G37*
G36*
X115746091Y-91496053D02*
G01*
X115767326Y-91499203D01*
X115788150Y-91504419D01*
X115808362Y-91511651D01*
X115827768Y-91520830D01*
X115846181Y-91531866D01*
X115863424Y-91544654D01*
X115879330Y-91559070D01*
X115893746Y-91574976D01*
X115906534Y-91592219D01*
X115917570Y-91610632D01*
X115926749Y-91630038D01*
X115933981Y-91650250D01*
X115939197Y-91671074D01*
X115942347Y-91692309D01*
X115943400Y-91713750D01*
X115943400Y-92151250D01*
X115942347Y-92172691D01*
X115939197Y-92193926D01*
X115933981Y-92214750D01*
X115926749Y-92234962D01*
X115917570Y-92254368D01*
X115906534Y-92272781D01*
X115893746Y-92290024D01*
X115879330Y-92305930D01*
X115863424Y-92320346D01*
X115846181Y-92333134D01*
X115827768Y-92344170D01*
X115808362Y-92353349D01*
X115788150Y-92360581D01*
X115767326Y-92365797D01*
X115746091Y-92368947D01*
X115724650Y-92370000D01*
X115212150Y-92370000D01*
X115190709Y-92368947D01*
X115169474Y-92365797D01*
X115148650Y-92360581D01*
X115128438Y-92353349D01*
X115109032Y-92344170D01*
X115090619Y-92333134D01*
X115073376Y-92320346D01*
X115057470Y-92305930D01*
X115043054Y-92290024D01*
X115030266Y-92272781D01*
X115019230Y-92254368D01*
X115010051Y-92234962D01*
X115002819Y-92214750D01*
X114997603Y-92193926D01*
X114994453Y-92172691D01*
X114993400Y-92151250D01*
X114993400Y-91713750D01*
X114994453Y-91692309D01*
X114997603Y-91671074D01*
X115002819Y-91650250D01*
X115010051Y-91630038D01*
X115019230Y-91610632D01*
X115030266Y-91592219D01*
X115043054Y-91574976D01*
X115057470Y-91559070D01*
X115073376Y-91544654D01*
X115090619Y-91531866D01*
X115109032Y-91520830D01*
X115128438Y-91511651D01*
X115148650Y-91504419D01*
X115169474Y-91499203D01*
X115190709Y-91496053D01*
X115212150Y-91495000D01*
X115724650Y-91495000D01*
X115746091Y-91496053D01*
G37*
G36*
X116609691Y-86203053D02*
G01*
X116630926Y-86206203D01*
X116651750Y-86211419D01*
X116671962Y-86218651D01*
X116691368Y-86227830D01*
X116709781Y-86238866D01*
X116727024Y-86251654D01*
X116742930Y-86266070D01*
X116757346Y-86281976D01*
X116770134Y-86299219D01*
X116781170Y-86317632D01*
X116790349Y-86337038D01*
X116797581Y-86357250D01*
X116802797Y-86378074D01*
X116805947Y-86399309D01*
X116807000Y-86420750D01*
X116807000Y-86858250D01*
X116805947Y-86879691D01*
X116802797Y-86900926D01*
X116797581Y-86921750D01*
X116790349Y-86941962D01*
X116781170Y-86961368D01*
X116770134Y-86979781D01*
X116757346Y-86997024D01*
X116742930Y-87012930D01*
X116727024Y-87027346D01*
X116709781Y-87040134D01*
X116691368Y-87051170D01*
X116671962Y-87060349D01*
X116651750Y-87067581D01*
X116630926Y-87072797D01*
X116609691Y-87075947D01*
X116588250Y-87077000D01*
X116075750Y-87077000D01*
X116054309Y-87075947D01*
X116033074Y-87072797D01*
X116012250Y-87067581D01*
X115992038Y-87060349D01*
X115972632Y-87051170D01*
X115954219Y-87040134D01*
X115936976Y-87027346D01*
X115921070Y-87012930D01*
X115906654Y-86997024D01*
X115893866Y-86979781D01*
X115882830Y-86961368D01*
X115873651Y-86941962D01*
X115866419Y-86921750D01*
X115861203Y-86900926D01*
X115858053Y-86879691D01*
X115857000Y-86858250D01*
X115857000Y-86420750D01*
X115858053Y-86399309D01*
X115861203Y-86378074D01*
X115866419Y-86357250D01*
X115873651Y-86337038D01*
X115882830Y-86317632D01*
X115893866Y-86299219D01*
X115906654Y-86281976D01*
X115921070Y-86266070D01*
X115936976Y-86251654D01*
X115954219Y-86238866D01*
X115972632Y-86227830D01*
X115992038Y-86218651D01*
X116012250Y-86211419D01*
X116033074Y-86206203D01*
X116054309Y-86203053D01*
X116075750Y-86202000D01*
X116588250Y-86202000D01*
X116609691Y-86203053D01*
G37*
G36*
X116609691Y-84628053D02*
G01*
X116630926Y-84631203D01*
X116651750Y-84636419D01*
X116671962Y-84643651D01*
X116691368Y-84652830D01*
X116709781Y-84663866D01*
X116727024Y-84676654D01*
X116742930Y-84691070D01*
X116757346Y-84706976D01*
X116770134Y-84724219D01*
X116781170Y-84742632D01*
X116790349Y-84762038D01*
X116797581Y-84782250D01*
X116802797Y-84803074D01*
X116805947Y-84824309D01*
X116807000Y-84845750D01*
X116807000Y-85283250D01*
X116805947Y-85304691D01*
X116802797Y-85325926D01*
X116797581Y-85346750D01*
X116790349Y-85366962D01*
X116781170Y-85386368D01*
X116770134Y-85404781D01*
X116757346Y-85422024D01*
X116742930Y-85437930D01*
X116727024Y-85452346D01*
X116709781Y-85465134D01*
X116691368Y-85476170D01*
X116671962Y-85485349D01*
X116651750Y-85492581D01*
X116630926Y-85497797D01*
X116609691Y-85500947D01*
X116588250Y-85502000D01*
X116075750Y-85502000D01*
X116054309Y-85500947D01*
X116033074Y-85497797D01*
X116012250Y-85492581D01*
X115992038Y-85485349D01*
X115972632Y-85476170D01*
X115954219Y-85465134D01*
X115936976Y-85452346D01*
X115921070Y-85437930D01*
X115906654Y-85422024D01*
X115893866Y-85404781D01*
X115882830Y-85386368D01*
X115873651Y-85366962D01*
X115866419Y-85346750D01*
X115861203Y-85325926D01*
X115858053Y-85304691D01*
X115857000Y-85283250D01*
X115857000Y-84845750D01*
X115858053Y-84824309D01*
X115861203Y-84803074D01*
X115866419Y-84782250D01*
X115873651Y-84762038D01*
X115882830Y-84742632D01*
X115893866Y-84724219D01*
X115906654Y-84706976D01*
X115921070Y-84691070D01*
X115936976Y-84676654D01*
X115954219Y-84663866D01*
X115972632Y-84652830D01*
X115992038Y-84643651D01*
X116012250Y-84636419D01*
X116033074Y-84631203D01*
X116054309Y-84628053D01*
X116075750Y-84627000D01*
X116588250Y-84627000D01*
X116609691Y-84628053D01*
G37*
G36*
X154212500Y-87745000D02*
G01*
X155512500Y-87745000D01*
X155012500Y-88200000D01*
X155512500Y-88655000D01*
X154212500Y-88655000D01*
X154212500Y-87745000D01*
G37*
G36*
X155287500Y-88200000D02*
G01*
X155787500Y-87745000D01*
X156787500Y-87745000D01*
X156787500Y-88655000D01*
X155787500Y-88655000D01*
X155287500Y-88200000D01*
G37*
G36*
X155287500Y-89500000D02*
G01*
X155787500Y-89045000D01*
X156787500Y-89045000D01*
X156787500Y-89955000D01*
X155787500Y-89955000D01*
X155287500Y-89500000D01*
G37*
G36*
X154212500Y-89045000D02*
G01*
X155512500Y-89045000D01*
X155012500Y-89500000D01*
X155512500Y-89955000D01*
X154212500Y-89955000D01*
X154212500Y-89045000D01*
G37*
G36*
X115085691Y-86203053D02*
G01*
X115106926Y-86206203D01*
X115127750Y-86211419D01*
X115147962Y-86218651D01*
X115167368Y-86227830D01*
X115185781Y-86238866D01*
X115203024Y-86251654D01*
X115218930Y-86266070D01*
X115233346Y-86281976D01*
X115246134Y-86299219D01*
X115257170Y-86317632D01*
X115266349Y-86337038D01*
X115273581Y-86357250D01*
X115278797Y-86378074D01*
X115281947Y-86399309D01*
X115283000Y-86420750D01*
X115283000Y-86858250D01*
X115281947Y-86879691D01*
X115278797Y-86900926D01*
X115273581Y-86921750D01*
X115266349Y-86941962D01*
X115257170Y-86961368D01*
X115246134Y-86979781D01*
X115233346Y-86997024D01*
X115218930Y-87012930D01*
X115203024Y-87027346D01*
X115185781Y-87040134D01*
X115167368Y-87051170D01*
X115147962Y-87060349D01*
X115127750Y-87067581D01*
X115106926Y-87072797D01*
X115085691Y-87075947D01*
X115064250Y-87077000D01*
X114551750Y-87077000D01*
X114530309Y-87075947D01*
X114509074Y-87072797D01*
X114488250Y-87067581D01*
X114468038Y-87060349D01*
X114448632Y-87051170D01*
X114430219Y-87040134D01*
X114412976Y-87027346D01*
X114397070Y-87012930D01*
X114382654Y-86997024D01*
X114369866Y-86979781D01*
X114358830Y-86961368D01*
X114349651Y-86941962D01*
X114342419Y-86921750D01*
X114337203Y-86900926D01*
X114334053Y-86879691D01*
X114333000Y-86858250D01*
X114333000Y-86420750D01*
X114334053Y-86399309D01*
X114337203Y-86378074D01*
X114342419Y-86357250D01*
X114349651Y-86337038D01*
X114358830Y-86317632D01*
X114369866Y-86299219D01*
X114382654Y-86281976D01*
X114397070Y-86266070D01*
X114412976Y-86251654D01*
X114430219Y-86238866D01*
X114448632Y-86227830D01*
X114468038Y-86218651D01*
X114488250Y-86211419D01*
X114509074Y-86206203D01*
X114530309Y-86203053D01*
X114551750Y-86202000D01*
X115064250Y-86202000D01*
X115085691Y-86203053D01*
G37*
G36*
X115085691Y-84628053D02*
G01*
X115106926Y-84631203D01*
X115127750Y-84636419D01*
X115147962Y-84643651D01*
X115167368Y-84652830D01*
X115185781Y-84663866D01*
X115203024Y-84676654D01*
X115218930Y-84691070D01*
X115233346Y-84706976D01*
X115246134Y-84724219D01*
X115257170Y-84742632D01*
X115266349Y-84762038D01*
X115273581Y-84782250D01*
X115278797Y-84803074D01*
X115281947Y-84824309D01*
X115283000Y-84845750D01*
X115283000Y-85283250D01*
X115281947Y-85304691D01*
X115278797Y-85325926D01*
X115273581Y-85346750D01*
X115266349Y-85366962D01*
X115257170Y-85386368D01*
X115246134Y-85404781D01*
X115233346Y-85422024D01*
X115218930Y-85437930D01*
X115203024Y-85452346D01*
X115185781Y-85465134D01*
X115167368Y-85476170D01*
X115147962Y-85485349D01*
X115127750Y-85492581D01*
X115106926Y-85497797D01*
X115085691Y-85500947D01*
X115064250Y-85502000D01*
X114551750Y-85502000D01*
X114530309Y-85500947D01*
X114509074Y-85497797D01*
X114488250Y-85492581D01*
X114468038Y-85485349D01*
X114448632Y-85476170D01*
X114430219Y-85465134D01*
X114412976Y-85452346D01*
X114397070Y-85437930D01*
X114382654Y-85422024D01*
X114369866Y-85404781D01*
X114358830Y-85386368D01*
X114349651Y-85366962D01*
X114342419Y-85346750D01*
X114337203Y-85325926D01*
X114334053Y-85304691D01*
X114333000Y-85283250D01*
X114333000Y-84845750D01*
X114334053Y-84824309D01*
X114337203Y-84803074D01*
X114342419Y-84782250D01*
X114349651Y-84762038D01*
X114358830Y-84742632D01*
X114369866Y-84724219D01*
X114382654Y-84706976D01*
X114397070Y-84691070D01*
X114412976Y-84676654D01*
X114430219Y-84663866D01*
X114448632Y-84652830D01*
X114468038Y-84643651D01*
X114488250Y-84636419D01*
X114509074Y-84631203D01*
X114530309Y-84628053D01*
X114551750Y-84627000D01*
X115064250Y-84627000D01*
X115085691Y-84628053D01*
G37*
G36*
X121360191Y-89188053D02*
G01*
X121381426Y-89191203D01*
X121402250Y-89196419D01*
X121422462Y-89203651D01*
X121441868Y-89212830D01*
X121460281Y-89223866D01*
X121477524Y-89236654D01*
X121493430Y-89251070D01*
X121507846Y-89266976D01*
X121520634Y-89284219D01*
X121531670Y-89302632D01*
X121540849Y-89322038D01*
X121548081Y-89342250D01*
X121553297Y-89363074D01*
X121556447Y-89384309D01*
X121557500Y-89405750D01*
X121557500Y-89918250D01*
X121556447Y-89939691D01*
X121553297Y-89960926D01*
X121548081Y-89981750D01*
X121540849Y-90001962D01*
X121531670Y-90021368D01*
X121520634Y-90039781D01*
X121507846Y-90057024D01*
X121493430Y-90072930D01*
X121477524Y-90087346D01*
X121460281Y-90100134D01*
X121441868Y-90111170D01*
X121422462Y-90120349D01*
X121402250Y-90127581D01*
X121381426Y-90132797D01*
X121360191Y-90135947D01*
X121338750Y-90137000D01*
X120901250Y-90137000D01*
X120879809Y-90135947D01*
X120858574Y-90132797D01*
X120837750Y-90127581D01*
X120817538Y-90120349D01*
X120798132Y-90111170D01*
X120779719Y-90100134D01*
X120762476Y-90087346D01*
X120746570Y-90072930D01*
X120732154Y-90057024D01*
X120719366Y-90039781D01*
X120708330Y-90021368D01*
X120699151Y-90001962D01*
X120691919Y-89981750D01*
X120686703Y-89960926D01*
X120683553Y-89939691D01*
X120682500Y-89918250D01*
X120682500Y-89405750D01*
X120683553Y-89384309D01*
X120686703Y-89363074D01*
X120691919Y-89342250D01*
X120699151Y-89322038D01*
X120708330Y-89302632D01*
X120719366Y-89284219D01*
X120732154Y-89266976D01*
X120746570Y-89251070D01*
X120762476Y-89236654D01*
X120779719Y-89223866D01*
X120798132Y-89212830D01*
X120817538Y-89203651D01*
X120837750Y-89196419D01*
X120858574Y-89191203D01*
X120879809Y-89188053D01*
X120901250Y-89187000D01*
X121338750Y-89187000D01*
X121360191Y-89188053D01*
G37*
G36*
X119785191Y-89188053D02*
G01*
X119806426Y-89191203D01*
X119827250Y-89196419D01*
X119847462Y-89203651D01*
X119866868Y-89212830D01*
X119885281Y-89223866D01*
X119902524Y-89236654D01*
X119918430Y-89251070D01*
X119932846Y-89266976D01*
X119945634Y-89284219D01*
X119956670Y-89302632D01*
X119965849Y-89322038D01*
X119973081Y-89342250D01*
X119978297Y-89363074D01*
X119981447Y-89384309D01*
X119982500Y-89405750D01*
X119982500Y-89918250D01*
X119981447Y-89939691D01*
X119978297Y-89960926D01*
X119973081Y-89981750D01*
X119965849Y-90001962D01*
X119956670Y-90021368D01*
X119945634Y-90039781D01*
X119932846Y-90057024D01*
X119918430Y-90072930D01*
X119902524Y-90087346D01*
X119885281Y-90100134D01*
X119866868Y-90111170D01*
X119847462Y-90120349D01*
X119827250Y-90127581D01*
X119806426Y-90132797D01*
X119785191Y-90135947D01*
X119763750Y-90137000D01*
X119326250Y-90137000D01*
X119304809Y-90135947D01*
X119283574Y-90132797D01*
X119262750Y-90127581D01*
X119242538Y-90120349D01*
X119223132Y-90111170D01*
X119204719Y-90100134D01*
X119187476Y-90087346D01*
X119171570Y-90072930D01*
X119157154Y-90057024D01*
X119144366Y-90039781D01*
X119133330Y-90021368D01*
X119124151Y-90001962D01*
X119116919Y-89981750D01*
X119111703Y-89960926D01*
X119108553Y-89939691D01*
X119107500Y-89918250D01*
X119107500Y-89405750D01*
X119108553Y-89384309D01*
X119111703Y-89363074D01*
X119116919Y-89342250D01*
X119124151Y-89322038D01*
X119133330Y-89302632D01*
X119144366Y-89284219D01*
X119157154Y-89266976D01*
X119171570Y-89251070D01*
X119187476Y-89236654D01*
X119204719Y-89223866D01*
X119223132Y-89212830D01*
X119242538Y-89203651D01*
X119262750Y-89196419D01*
X119283574Y-89191203D01*
X119304809Y-89188053D01*
X119326250Y-89187000D01*
X119763750Y-89187000D01*
X119785191Y-89188053D01*
G37*
G36*
X114069691Y-91537053D02*
G01*
X114090926Y-91540203D01*
X114111750Y-91545419D01*
X114131962Y-91552651D01*
X114151368Y-91561830D01*
X114169781Y-91572866D01*
X114187024Y-91585654D01*
X114202930Y-91600070D01*
X114217346Y-91615976D01*
X114230134Y-91633219D01*
X114241170Y-91651632D01*
X114250349Y-91671038D01*
X114257581Y-91691250D01*
X114262797Y-91712074D01*
X114265947Y-91733309D01*
X114267000Y-91754750D01*
X114267000Y-92192250D01*
X114265947Y-92213691D01*
X114262797Y-92234926D01*
X114257581Y-92255750D01*
X114250349Y-92275962D01*
X114241170Y-92295368D01*
X114230134Y-92313781D01*
X114217346Y-92331024D01*
X114202930Y-92346930D01*
X114187024Y-92361346D01*
X114169781Y-92374134D01*
X114151368Y-92385170D01*
X114131962Y-92394349D01*
X114111750Y-92401581D01*
X114090926Y-92406797D01*
X114069691Y-92409947D01*
X114048250Y-92411000D01*
X113535750Y-92411000D01*
X113514309Y-92409947D01*
X113493074Y-92406797D01*
X113472250Y-92401581D01*
X113452038Y-92394349D01*
X113432632Y-92385170D01*
X113414219Y-92374134D01*
X113396976Y-92361346D01*
X113381070Y-92346930D01*
X113366654Y-92331024D01*
X113353866Y-92313781D01*
X113342830Y-92295368D01*
X113333651Y-92275962D01*
X113326419Y-92255750D01*
X113321203Y-92234926D01*
X113318053Y-92213691D01*
X113317000Y-92192250D01*
X113317000Y-91754750D01*
X113318053Y-91733309D01*
X113321203Y-91712074D01*
X113326419Y-91691250D01*
X113333651Y-91671038D01*
X113342830Y-91651632D01*
X113353866Y-91633219D01*
X113366654Y-91615976D01*
X113381070Y-91600070D01*
X113396976Y-91585654D01*
X113414219Y-91572866D01*
X113432632Y-91561830D01*
X113452038Y-91552651D01*
X113472250Y-91545419D01*
X113493074Y-91540203D01*
X113514309Y-91537053D01*
X113535750Y-91536000D01*
X114048250Y-91536000D01*
X114069691Y-91537053D01*
G37*
G36*
X114069691Y-89962053D02*
G01*
X114090926Y-89965203D01*
X114111750Y-89970419D01*
X114131962Y-89977651D01*
X114151368Y-89986830D01*
X114169781Y-89997866D01*
X114187024Y-90010654D01*
X114202930Y-90025070D01*
X114217346Y-90040976D01*
X114230134Y-90058219D01*
X114241170Y-90076632D01*
X114250349Y-90096038D01*
X114257581Y-90116250D01*
X114262797Y-90137074D01*
X114265947Y-90158309D01*
X114267000Y-90179750D01*
X114267000Y-90617250D01*
X114265947Y-90638691D01*
X114262797Y-90659926D01*
X114257581Y-90680750D01*
X114250349Y-90700962D01*
X114241170Y-90720368D01*
X114230134Y-90738781D01*
X114217346Y-90756024D01*
X114202930Y-90771930D01*
X114187024Y-90786346D01*
X114169781Y-90799134D01*
X114151368Y-90810170D01*
X114131962Y-90819349D01*
X114111750Y-90826581D01*
X114090926Y-90831797D01*
X114069691Y-90834947D01*
X114048250Y-90836000D01*
X113535750Y-90836000D01*
X113514309Y-90834947D01*
X113493074Y-90831797D01*
X113472250Y-90826581D01*
X113452038Y-90819349D01*
X113432632Y-90810170D01*
X113414219Y-90799134D01*
X113396976Y-90786346D01*
X113381070Y-90771930D01*
X113366654Y-90756024D01*
X113353866Y-90738781D01*
X113342830Y-90720368D01*
X113333651Y-90700962D01*
X113326419Y-90680750D01*
X113321203Y-90659926D01*
X113318053Y-90638691D01*
X113317000Y-90617250D01*
X113317000Y-90179750D01*
X113318053Y-90158309D01*
X113321203Y-90137074D01*
X113326419Y-90116250D01*
X113333651Y-90096038D01*
X113342830Y-90076632D01*
X113353866Y-90058219D01*
X113366654Y-90040976D01*
X113381070Y-90025070D01*
X113396976Y-90010654D01*
X113414219Y-89997866D01*
X113432632Y-89986830D01*
X113452038Y-89977651D01*
X113472250Y-89970419D01*
X113493074Y-89965203D01*
X113514309Y-89962053D01*
X113535750Y-89961000D01*
X114048250Y-89961000D01*
X114069691Y-89962053D01*
G37*
G36*
X151927691Y-87601053D02*
G01*
X151948926Y-87604203D01*
X151969750Y-87609419D01*
X151989962Y-87616651D01*
X152009368Y-87625830D01*
X152027781Y-87636866D01*
X152045024Y-87649654D01*
X152060930Y-87664070D01*
X152075346Y-87679976D01*
X152088134Y-87697219D01*
X152099170Y-87715632D01*
X152108349Y-87735038D01*
X152115581Y-87755250D01*
X152120797Y-87776074D01*
X152123947Y-87797309D01*
X152125000Y-87818750D01*
X152125000Y-88256250D01*
X152123947Y-88277691D01*
X152120797Y-88298926D01*
X152115581Y-88319750D01*
X152108349Y-88339962D01*
X152099170Y-88359368D01*
X152088134Y-88377781D01*
X152075346Y-88395024D01*
X152060930Y-88410930D01*
X152045024Y-88425346D01*
X152027781Y-88438134D01*
X152009368Y-88449170D01*
X151989962Y-88458349D01*
X151969750Y-88465581D01*
X151948926Y-88470797D01*
X151927691Y-88473947D01*
X151906250Y-88475000D01*
X151393750Y-88475000D01*
X151372309Y-88473947D01*
X151351074Y-88470797D01*
X151330250Y-88465581D01*
X151310038Y-88458349D01*
X151290632Y-88449170D01*
X151272219Y-88438134D01*
X151254976Y-88425346D01*
X151239070Y-88410930D01*
X151224654Y-88395024D01*
X151211866Y-88377781D01*
X151200830Y-88359368D01*
X151191651Y-88339962D01*
X151184419Y-88319750D01*
X151179203Y-88298926D01*
X151176053Y-88277691D01*
X151175000Y-88256250D01*
X151175000Y-87818750D01*
X151176053Y-87797309D01*
X151179203Y-87776074D01*
X151184419Y-87755250D01*
X151191651Y-87735038D01*
X151200830Y-87715632D01*
X151211866Y-87697219D01*
X151224654Y-87679976D01*
X151239070Y-87664070D01*
X151254976Y-87649654D01*
X151272219Y-87636866D01*
X151290632Y-87625830D01*
X151310038Y-87616651D01*
X151330250Y-87609419D01*
X151351074Y-87604203D01*
X151372309Y-87601053D01*
X151393750Y-87600000D01*
X151906250Y-87600000D01*
X151927691Y-87601053D01*
G37*
G36*
X151927691Y-86026053D02*
G01*
X151948926Y-86029203D01*
X151969750Y-86034419D01*
X151989962Y-86041651D01*
X152009368Y-86050830D01*
X152027781Y-86061866D01*
X152045024Y-86074654D01*
X152060930Y-86089070D01*
X152075346Y-86104976D01*
X152088134Y-86122219D01*
X152099170Y-86140632D01*
X152108349Y-86160038D01*
X152115581Y-86180250D01*
X152120797Y-86201074D01*
X152123947Y-86222309D01*
X152125000Y-86243750D01*
X152125000Y-86681250D01*
X152123947Y-86702691D01*
X152120797Y-86723926D01*
X152115581Y-86744750D01*
X152108349Y-86764962D01*
X152099170Y-86784368D01*
X152088134Y-86802781D01*
X152075346Y-86820024D01*
X152060930Y-86835930D01*
X152045024Y-86850346D01*
X152027781Y-86863134D01*
X152009368Y-86874170D01*
X151989962Y-86883349D01*
X151969750Y-86890581D01*
X151948926Y-86895797D01*
X151927691Y-86898947D01*
X151906250Y-86900000D01*
X151393750Y-86900000D01*
X151372309Y-86898947D01*
X151351074Y-86895797D01*
X151330250Y-86890581D01*
X151310038Y-86883349D01*
X151290632Y-86874170D01*
X151272219Y-86863134D01*
X151254976Y-86850346D01*
X151239070Y-86835930D01*
X151224654Y-86820024D01*
X151211866Y-86802781D01*
X151200830Y-86784368D01*
X151191651Y-86764962D01*
X151184419Y-86744750D01*
X151179203Y-86723926D01*
X151176053Y-86702691D01*
X151175000Y-86681250D01*
X151175000Y-86243750D01*
X151176053Y-86222309D01*
X151179203Y-86201074D01*
X151184419Y-86180250D01*
X151191651Y-86160038D01*
X151200830Y-86140632D01*
X151211866Y-86122219D01*
X151224654Y-86104976D01*
X151239070Y-86089070D01*
X151254976Y-86074654D01*
X151272219Y-86061866D01*
X151290632Y-86050830D01*
X151310038Y-86041651D01*
X151330250Y-86034419D01*
X151351074Y-86029203D01*
X151372309Y-86026053D01*
X151393750Y-86025000D01*
X151906250Y-86025000D01*
X151927691Y-86026053D01*
G37*
D13*
X150546500Y-88545000D03*
X150046500Y-88545000D03*
X149546500Y-88545000D03*
X149046500Y-88545000D03*
X149046500Y-85445000D03*
X149546500Y-85445000D03*
X150046500Y-85445000D03*
X150546500Y-85445000D03*
D12*
G36*
X112577691Y-88476053D02*
G01*
X112598926Y-88479203D01*
X112619750Y-88484419D01*
X112639962Y-88491651D01*
X112659368Y-88500830D01*
X112677781Y-88511866D01*
X112695024Y-88524654D01*
X112710930Y-88539070D01*
X112725346Y-88554976D01*
X112738134Y-88572219D01*
X112749170Y-88590632D01*
X112758349Y-88610038D01*
X112765581Y-88630250D01*
X112770797Y-88651074D01*
X112773947Y-88672309D01*
X112775000Y-88693750D01*
X112775000Y-89131250D01*
X112773947Y-89152691D01*
X112770797Y-89173926D01*
X112765581Y-89194750D01*
X112758349Y-89214962D01*
X112749170Y-89234368D01*
X112738134Y-89252781D01*
X112725346Y-89270024D01*
X112710930Y-89285930D01*
X112695024Y-89300346D01*
X112677781Y-89313134D01*
X112659368Y-89324170D01*
X112639962Y-89333349D01*
X112619750Y-89340581D01*
X112598926Y-89345797D01*
X112577691Y-89348947D01*
X112556250Y-89350000D01*
X112043750Y-89350000D01*
X112022309Y-89348947D01*
X112001074Y-89345797D01*
X111980250Y-89340581D01*
X111960038Y-89333349D01*
X111940632Y-89324170D01*
X111922219Y-89313134D01*
X111904976Y-89300346D01*
X111889070Y-89285930D01*
X111874654Y-89270024D01*
X111861866Y-89252781D01*
X111850830Y-89234368D01*
X111841651Y-89214962D01*
X111834419Y-89194750D01*
X111829203Y-89173926D01*
X111826053Y-89152691D01*
X111825000Y-89131250D01*
X111825000Y-88693750D01*
X111826053Y-88672309D01*
X111829203Y-88651074D01*
X111834419Y-88630250D01*
X111841651Y-88610038D01*
X111850830Y-88590632D01*
X111861866Y-88572219D01*
X111874654Y-88554976D01*
X111889070Y-88539070D01*
X111904976Y-88524654D01*
X111922219Y-88511866D01*
X111940632Y-88500830D01*
X111960038Y-88491651D01*
X111980250Y-88484419D01*
X112001074Y-88479203D01*
X112022309Y-88476053D01*
X112043750Y-88475000D01*
X112556250Y-88475000D01*
X112577691Y-88476053D01*
G37*
G36*
X112577691Y-90051053D02*
G01*
X112598926Y-90054203D01*
X112619750Y-90059419D01*
X112639962Y-90066651D01*
X112659368Y-90075830D01*
X112677781Y-90086866D01*
X112695024Y-90099654D01*
X112710930Y-90114070D01*
X112725346Y-90129976D01*
X112738134Y-90147219D01*
X112749170Y-90165632D01*
X112758349Y-90185038D01*
X112765581Y-90205250D01*
X112770797Y-90226074D01*
X112773947Y-90247309D01*
X112775000Y-90268750D01*
X112775000Y-90706250D01*
X112773947Y-90727691D01*
X112770797Y-90748926D01*
X112765581Y-90769750D01*
X112758349Y-90789962D01*
X112749170Y-90809368D01*
X112738134Y-90827781D01*
X112725346Y-90845024D01*
X112710930Y-90860930D01*
X112695024Y-90875346D01*
X112677781Y-90888134D01*
X112659368Y-90899170D01*
X112639962Y-90908349D01*
X112619750Y-90915581D01*
X112598926Y-90920797D01*
X112577691Y-90923947D01*
X112556250Y-90925000D01*
X112043750Y-90925000D01*
X112022309Y-90923947D01*
X112001074Y-90920797D01*
X111980250Y-90915581D01*
X111960038Y-90908349D01*
X111940632Y-90899170D01*
X111922219Y-90888134D01*
X111904976Y-90875346D01*
X111889070Y-90860930D01*
X111874654Y-90845024D01*
X111861866Y-90827781D01*
X111850830Y-90809368D01*
X111841651Y-90789962D01*
X111834419Y-90769750D01*
X111829203Y-90748926D01*
X111826053Y-90727691D01*
X111825000Y-90706250D01*
X111825000Y-90268750D01*
X111826053Y-90247309D01*
X111829203Y-90226074D01*
X111834419Y-90205250D01*
X111841651Y-90185038D01*
X111850830Y-90165632D01*
X111861866Y-90147219D01*
X111874654Y-90129976D01*
X111889070Y-90114070D01*
X111904976Y-90099654D01*
X111922219Y-90086866D01*
X111940632Y-90075830D01*
X111960038Y-90066651D01*
X111980250Y-90059419D01*
X112001074Y-90054203D01*
X112022309Y-90051053D01*
X112043750Y-90050000D01*
X112556250Y-90050000D01*
X112577691Y-90051053D01*
G37*
D14*
X101550000Y-85700000D03*
X102500000Y-85700000D03*
X103450000Y-85700000D03*
D15*
X103450000Y-88300000D03*
X101550000Y-88300000D03*
D16*
X109200000Y-90450000D03*
X109200000Y-88550000D03*
D17*
X106600000Y-88550000D03*
X106600000Y-89500000D03*
X106600000Y-90450000D03*
M02*
