G04 #@! TF.GenerationSoftware,KiCad,Pcbnew,(5.1.5)-3*
G04 #@! TF.CreationDate,2020-03-25T11:39:43-07:00*
G04 #@! TF.ProjectId,UPduino_v3.0,55506475-696e-46f5-9f76-332e302e6b69,3.0*
G04 #@! TF.SameCoordinates,PX5f5e100PY5f5e100*
G04 #@! TF.FileFunction,Soldermask,Bot*
G04 #@! TF.FilePolarity,Negative*
%FSLAX46Y46*%
G04 Gerber Fmt 4.6, Leading zero omitted, Abs format (unit mm)*
G04 Created by KiCad (PCBNEW (5.1.5)-3) date 2020-03-25 11:39:43*
%MOMM*%
%LPD*%
G04 APERTURE LIST*
%ADD10C,0.050000*%
%ADD11C,0.100000*%
G04 APERTURE END LIST*
D10*
X0Y21520000D02*
G75*
G02X700000Y22220000I700000J0D01*
G01*
X61300000Y22220000D02*
G75*
G02X62000000Y21520000I0J-700000D01*
G01*
X62000000Y700000D02*
G75*
G02X61300000Y0I-700000J0D01*
G01*
X700000Y0D02*
G75*
G02X0Y700000I0J700000D01*
G01*
X62000000Y6800000D02*
X61000000Y6800000D01*
X62000000Y15500000D02*
X61000000Y15500000D01*
X61000000Y6800000D02*
X61000000Y15500000D01*
X62000000Y700000D02*
X62000000Y6800000D01*
X0Y21520000D02*
X0Y700000D01*
X61300000Y22220000D02*
X700000Y22220000D01*
X62000000Y15500000D02*
X62000000Y21520000D01*
X700000Y0D02*
X61300000Y0D01*
D11*
G36*
X45190426Y3116687D02*
G01*
X45342812Y3086376D01*
X45506784Y3018456D01*
X45654354Y2919853D01*
X45779853Y2794354D01*
X45878456Y2646784D01*
X45946376Y2482812D01*
X45981000Y2308741D01*
X45981000Y2131259D01*
X45946376Y1957188D01*
X45878456Y1793216D01*
X45779853Y1645646D01*
X45654354Y1520147D01*
X45506784Y1421544D01*
X45342812Y1353624D01*
X45190426Y1323313D01*
X45168742Y1319000D01*
X44991258Y1319000D01*
X44969574Y1323313D01*
X44817188Y1353624D01*
X44653216Y1421544D01*
X44505646Y1520147D01*
X44380147Y1645646D01*
X44281544Y1793216D01*
X44213624Y1957188D01*
X44179000Y2131259D01*
X44179000Y2308741D01*
X44213624Y2482812D01*
X44281544Y2646784D01*
X44380147Y2794354D01*
X44505646Y2919853D01*
X44653216Y3018456D01*
X44817188Y3086376D01*
X44969574Y3116687D01*
X44991258Y3121000D01*
X45168742Y3121000D01*
X45190426Y3116687D01*
G37*
G36*
X61221000Y1319000D02*
G01*
X59419000Y1319000D01*
X59419000Y3121000D01*
X61221000Y3121000D01*
X61221000Y1319000D01*
G37*
G36*
X32490426Y3116687D02*
G01*
X32642812Y3086376D01*
X32806784Y3018456D01*
X32954354Y2919853D01*
X33079853Y2794354D01*
X33178456Y2646784D01*
X33246376Y2482812D01*
X33281000Y2308741D01*
X33281000Y2131259D01*
X33246376Y1957188D01*
X33178456Y1793216D01*
X33079853Y1645646D01*
X32954354Y1520147D01*
X32806784Y1421544D01*
X32642812Y1353624D01*
X32490426Y1323313D01*
X32468742Y1319000D01*
X32291258Y1319000D01*
X32269574Y1323313D01*
X32117188Y1353624D01*
X31953216Y1421544D01*
X31805646Y1520147D01*
X31680147Y1645646D01*
X31581544Y1793216D01*
X31513624Y1957188D01*
X31479000Y2131259D01*
X31479000Y2308741D01*
X31513624Y2482812D01*
X31581544Y2646784D01*
X31680147Y2794354D01*
X31805646Y2919853D01*
X31953216Y3018456D01*
X32117188Y3086376D01*
X32269574Y3116687D01*
X32291258Y3121000D01*
X32468742Y3121000D01*
X32490426Y3116687D01*
G37*
G36*
X35030426Y3116687D02*
G01*
X35182812Y3086376D01*
X35346784Y3018456D01*
X35494354Y2919853D01*
X35619853Y2794354D01*
X35718456Y2646784D01*
X35786376Y2482812D01*
X35821000Y2308741D01*
X35821000Y2131259D01*
X35786376Y1957188D01*
X35718456Y1793216D01*
X35619853Y1645646D01*
X35494354Y1520147D01*
X35346784Y1421544D01*
X35182812Y1353624D01*
X35030426Y1323313D01*
X35008742Y1319000D01*
X34831258Y1319000D01*
X34809574Y1323313D01*
X34657188Y1353624D01*
X34493216Y1421544D01*
X34345646Y1520147D01*
X34220147Y1645646D01*
X34121544Y1793216D01*
X34053624Y1957188D01*
X34019000Y2131259D01*
X34019000Y2308741D01*
X34053624Y2482812D01*
X34121544Y2646784D01*
X34220147Y2794354D01*
X34345646Y2919853D01*
X34493216Y3018456D01*
X34657188Y3086376D01*
X34809574Y3116687D01*
X34831258Y3121000D01*
X35008742Y3121000D01*
X35030426Y3116687D01*
G37*
G36*
X37570426Y3116687D02*
G01*
X37722812Y3086376D01*
X37886784Y3018456D01*
X38034354Y2919853D01*
X38159853Y2794354D01*
X38258456Y2646784D01*
X38326376Y2482812D01*
X38361000Y2308741D01*
X38361000Y2131259D01*
X38326376Y1957188D01*
X38258456Y1793216D01*
X38159853Y1645646D01*
X38034354Y1520147D01*
X37886784Y1421544D01*
X37722812Y1353624D01*
X37570426Y1323313D01*
X37548742Y1319000D01*
X37371258Y1319000D01*
X37349574Y1323313D01*
X37197188Y1353624D01*
X37033216Y1421544D01*
X36885646Y1520147D01*
X36760147Y1645646D01*
X36661544Y1793216D01*
X36593624Y1957188D01*
X36559000Y2131259D01*
X36559000Y2308741D01*
X36593624Y2482812D01*
X36661544Y2646784D01*
X36760147Y2794354D01*
X36885646Y2919853D01*
X37033216Y3018456D01*
X37197188Y3086376D01*
X37349574Y3116687D01*
X37371258Y3121000D01*
X37548742Y3121000D01*
X37570426Y3116687D01*
G37*
G36*
X40110426Y3116687D02*
G01*
X40262812Y3086376D01*
X40426784Y3018456D01*
X40574354Y2919853D01*
X40699853Y2794354D01*
X40798456Y2646784D01*
X40866376Y2482812D01*
X40901000Y2308741D01*
X40901000Y2131259D01*
X40866376Y1957188D01*
X40798456Y1793216D01*
X40699853Y1645646D01*
X40574354Y1520147D01*
X40426784Y1421544D01*
X40262812Y1353624D01*
X40110426Y1323313D01*
X40088742Y1319000D01*
X39911258Y1319000D01*
X39889574Y1323313D01*
X39737188Y1353624D01*
X39573216Y1421544D01*
X39425646Y1520147D01*
X39300147Y1645646D01*
X39201544Y1793216D01*
X39133624Y1957188D01*
X39099000Y2131259D01*
X39099000Y2308741D01*
X39133624Y2482812D01*
X39201544Y2646784D01*
X39300147Y2794354D01*
X39425646Y2919853D01*
X39573216Y3018456D01*
X39737188Y3086376D01*
X39889574Y3116687D01*
X39911258Y3121000D01*
X40088742Y3121000D01*
X40110426Y3116687D01*
G37*
G36*
X42650426Y3116687D02*
G01*
X42802812Y3086376D01*
X42966784Y3018456D01*
X43114354Y2919853D01*
X43239853Y2794354D01*
X43338456Y2646784D01*
X43406376Y2482812D01*
X43441000Y2308741D01*
X43441000Y2131259D01*
X43406376Y1957188D01*
X43338456Y1793216D01*
X43239853Y1645646D01*
X43114354Y1520147D01*
X42966784Y1421544D01*
X42802812Y1353624D01*
X42650426Y1323313D01*
X42628742Y1319000D01*
X42451258Y1319000D01*
X42429574Y1323313D01*
X42277188Y1353624D01*
X42113216Y1421544D01*
X41965646Y1520147D01*
X41840147Y1645646D01*
X41741544Y1793216D01*
X41673624Y1957188D01*
X41639000Y2131259D01*
X41639000Y2308741D01*
X41673624Y2482812D01*
X41741544Y2646784D01*
X41840147Y2794354D01*
X41965646Y2919853D01*
X42113216Y3018456D01*
X42277188Y3086376D01*
X42429574Y3116687D01*
X42451258Y3121000D01*
X42628742Y3121000D01*
X42650426Y3116687D01*
G37*
G36*
X47730426Y3116687D02*
G01*
X47882812Y3086376D01*
X48046784Y3018456D01*
X48194354Y2919853D01*
X48319853Y2794354D01*
X48418456Y2646784D01*
X48486376Y2482812D01*
X48521000Y2308741D01*
X48521000Y2131259D01*
X48486376Y1957188D01*
X48418456Y1793216D01*
X48319853Y1645646D01*
X48194354Y1520147D01*
X48046784Y1421544D01*
X47882812Y1353624D01*
X47730426Y1323313D01*
X47708742Y1319000D01*
X47531258Y1319000D01*
X47509574Y1323313D01*
X47357188Y1353624D01*
X47193216Y1421544D01*
X47045646Y1520147D01*
X46920147Y1645646D01*
X46821544Y1793216D01*
X46753624Y1957188D01*
X46719000Y2131259D01*
X46719000Y2308741D01*
X46753624Y2482812D01*
X46821544Y2646784D01*
X46920147Y2794354D01*
X47045646Y2919853D01*
X47193216Y3018456D01*
X47357188Y3086376D01*
X47509574Y3116687D01*
X47531258Y3121000D01*
X47708742Y3121000D01*
X47730426Y3116687D01*
G37*
G36*
X50270426Y3116687D02*
G01*
X50422812Y3086376D01*
X50586784Y3018456D01*
X50734354Y2919853D01*
X50859853Y2794354D01*
X50958456Y2646784D01*
X51026376Y2482812D01*
X51061000Y2308741D01*
X51061000Y2131259D01*
X51026376Y1957188D01*
X50958456Y1793216D01*
X50859853Y1645646D01*
X50734354Y1520147D01*
X50586784Y1421544D01*
X50422812Y1353624D01*
X50270426Y1323313D01*
X50248742Y1319000D01*
X50071258Y1319000D01*
X50049574Y1323313D01*
X49897188Y1353624D01*
X49733216Y1421544D01*
X49585646Y1520147D01*
X49460147Y1645646D01*
X49361544Y1793216D01*
X49293624Y1957188D01*
X49259000Y2131259D01*
X49259000Y2308741D01*
X49293624Y2482812D01*
X49361544Y2646784D01*
X49460147Y2794354D01*
X49585646Y2919853D01*
X49733216Y3018456D01*
X49897188Y3086376D01*
X50049574Y3116687D01*
X50071258Y3121000D01*
X50248742Y3121000D01*
X50270426Y3116687D01*
G37*
G36*
X52810426Y3116687D02*
G01*
X52962812Y3086376D01*
X53126784Y3018456D01*
X53274354Y2919853D01*
X53399853Y2794354D01*
X53498456Y2646784D01*
X53566376Y2482812D01*
X53601000Y2308741D01*
X53601000Y2131259D01*
X53566376Y1957188D01*
X53498456Y1793216D01*
X53399853Y1645646D01*
X53274354Y1520147D01*
X53126784Y1421544D01*
X52962812Y1353624D01*
X52810426Y1323313D01*
X52788742Y1319000D01*
X52611258Y1319000D01*
X52589574Y1323313D01*
X52437188Y1353624D01*
X52273216Y1421544D01*
X52125646Y1520147D01*
X52000147Y1645646D01*
X51901544Y1793216D01*
X51833624Y1957188D01*
X51799000Y2131259D01*
X51799000Y2308741D01*
X51833624Y2482812D01*
X51901544Y2646784D01*
X52000147Y2794354D01*
X52125646Y2919853D01*
X52273216Y3018456D01*
X52437188Y3086376D01*
X52589574Y3116687D01*
X52611258Y3121000D01*
X52788742Y3121000D01*
X52810426Y3116687D01*
G37*
G36*
X55350426Y3116687D02*
G01*
X55502812Y3086376D01*
X55666784Y3018456D01*
X55814354Y2919853D01*
X55939853Y2794354D01*
X56038456Y2646784D01*
X56106376Y2482812D01*
X56141000Y2308741D01*
X56141000Y2131259D01*
X56106376Y1957188D01*
X56038456Y1793216D01*
X55939853Y1645646D01*
X55814354Y1520147D01*
X55666784Y1421544D01*
X55502812Y1353624D01*
X55350426Y1323313D01*
X55328742Y1319000D01*
X55151258Y1319000D01*
X55129574Y1323313D01*
X54977188Y1353624D01*
X54813216Y1421544D01*
X54665646Y1520147D01*
X54540147Y1645646D01*
X54441544Y1793216D01*
X54373624Y1957188D01*
X54339000Y2131259D01*
X54339000Y2308741D01*
X54373624Y2482812D01*
X54441544Y2646784D01*
X54540147Y2794354D01*
X54665646Y2919853D01*
X54813216Y3018456D01*
X54977188Y3086376D01*
X55129574Y3116687D01*
X55151258Y3121000D01*
X55328742Y3121000D01*
X55350426Y3116687D01*
G37*
G36*
X57890426Y3116687D02*
G01*
X58042812Y3086376D01*
X58206784Y3018456D01*
X58354354Y2919853D01*
X58479853Y2794354D01*
X58578456Y2646784D01*
X58646376Y2482812D01*
X58681000Y2308741D01*
X58681000Y2131259D01*
X58646376Y1957188D01*
X58578456Y1793216D01*
X58479853Y1645646D01*
X58354354Y1520147D01*
X58206784Y1421544D01*
X58042812Y1353624D01*
X57890426Y1323313D01*
X57868742Y1319000D01*
X57691258Y1319000D01*
X57669574Y1323313D01*
X57517188Y1353624D01*
X57353216Y1421544D01*
X57205646Y1520147D01*
X57080147Y1645646D01*
X56981544Y1793216D01*
X56913624Y1957188D01*
X56879000Y2131259D01*
X56879000Y2308741D01*
X56913624Y2482812D01*
X56981544Y2646784D01*
X57080147Y2794354D01*
X57205646Y2919853D01*
X57353216Y3018456D01*
X57517188Y3086376D01*
X57669574Y3116687D01*
X57691258Y3121000D01*
X57868742Y3121000D01*
X57890426Y3116687D01*
G37*
G36*
X27410426Y3116687D02*
G01*
X27562812Y3086376D01*
X27726784Y3018456D01*
X27874354Y2919853D01*
X27999853Y2794354D01*
X28098456Y2646784D01*
X28166376Y2482812D01*
X28201000Y2308741D01*
X28201000Y2131259D01*
X28166376Y1957188D01*
X28098456Y1793216D01*
X27999853Y1645646D01*
X27874354Y1520147D01*
X27726784Y1421544D01*
X27562812Y1353624D01*
X27410426Y1323313D01*
X27388742Y1319000D01*
X27211258Y1319000D01*
X27189574Y1323313D01*
X27037188Y1353624D01*
X26873216Y1421544D01*
X26725646Y1520147D01*
X26600147Y1645646D01*
X26501544Y1793216D01*
X26433624Y1957188D01*
X26399000Y2131259D01*
X26399000Y2308741D01*
X26433624Y2482812D01*
X26501544Y2646784D01*
X26600147Y2794354D01*
X26725646Y2919853D01*
X26873216Y3018456D01*
X27037188Y3086376D01*
X27189574Y3116687D01*
X27211258Y3121000D01*
X27388742Y3121000D01*
X27410426Y3116687D01*
G37*
G36*
X2010426Y3116687D02*
G01*
X2162812Y3086376D01*
X2326784Y3018456D01*
X2474354Y2919853D01*
X2599853Y2794354D01*
X2698456Y2646784D01*
X2766376Y2482812D01*
X2801000Y2308741D01*
X2801000Y2131259D01*
X2766376Y1957188D01*
X2698456Y1793216D01*
X2599853Y1645646D01*
X2474354Y1520147D01*
X2326784Y1421544D01*
X2162812Y1353624D01*
X2010426Y1323313D01*
X1988742Y1319000D01*
X1811258Y1319000D01*
X1789574Y1323313D01*
X1637188Y1353624D01*
X1473216Y1421544D01*
X1325646Y1520147D01*
X1200147Y1645646D01*
X1101544Y1793216D01*
X1033624Y1957188D01*
X999000Y2131259D01*
X999000Y2308741D01*
X1033624Y2482812D01*
X1101544Y2646784D01*
X1200147Y2794354D01*
X1325646Y2919853D01*
X1473216Y3018456D01*
X1637188Y3086376D01*
X1789574Y3116687D01*
X1811258Y3121000D01*
X1988742Y3121000D01*
X2010426Y3116687D01*
G37*
G36*
X4550426Y3116687D02*
G01*
X4702812Y3086376D01*
X4866784Y3018456D01*
X5014354Y2919853D01*
X5139853Y2794354D01*
X5238456Y2646784D01*
X5306376Y2482812D01*
X5341000Y2308741D01*
X5341000Y2131259D01*
X5306376Y1957188D01*
X5238456Y1793216D01*
X5139853Y1645646D01*
X5014354Y1520147D01*
X4866784Y1421544D01*
X4702812Y1353624D01*
X4550426Y1323313D01*
X4528742Y1319000D01*
X4351258Y1319000D01*
X4329574Y1323313D01*
X4177188Y1353624D01*
X4013216Y1421544D01*
X3865646Y1520147D01*
X3740147Y1645646D01*
X3641544Y1793216D01*
X3573624Y1957188D01*
X3539000Y2131259D01*
X3539000Y2308741D01*
X3573624Y2482812D01*
X3641544Y2646784D01*
X3740147Y2794354D01*
X3865646Y2919853D01*
X4013216Y3018456D01*
X4177188Y3086376D01*
X4329574Y3116687D01*
X4351258Y3121000D01*
X4528742Y3121000D01*
X4550426Y3116687D01*
G37*
G36*
X7090426Y3116687D02*
G01*
X7242812Y3086376D01*
X7406784Y3018456D01*
X7554354Y2919853D01*
X7679853Y2794354D01*
X7778456Y2646784D01*
X7846376Y2482812D01*
X7881000Y2308741D01*
X7881000Y2131259D01*
X7846376Y1957188D01*
X7778456Y1793216D01*
X7679853Y1645646D01*
X7554354Y1520147D01*
X7406784Y1421544D01*
X7242812Y1353624D01*
X7090426Y1323313D01*
X7068742Y1319000D01*
X6891258Y1319000D01*
X6869574Y1323313D01*
X6717188Y1353624D01*
X6553216Y1421544D01*
X6405646Y1520147D01*
X6280147Y1645646D01*
X6181544Y1793216D01*
X6113624Y1957188D01*
X6079000Y2131259D01*
X6079000Y2308741D01*
X6113624Y2482812D01*
X6181544Y2646784D01*
X6280147Y2794354D01*
X6405646Y2919853D01*
X6553216Y3018456D01*
X6717188Y3086376D01*
X6869574Y3116687D01*
X6891258Y3121000D01*
X7068742Y3121000D01*
X7090426Y3116687D01*
G37*
G36*
X9630426Y3116687D02*
G01*
X9782812Y3086376D01*
X9946784Y3018456D01*
X10094354Y2919853D01*
X10219853Y2794354D01*
X10318456Y2646784D01*
X10386376Y2482812D01*
X10421000Y2308741D01*
X10421000Y2131259D01*
X10386376Y1957188D01*
X10318456Y1793216D01*
X10219853Y1645646D01*
X10094354Y1520147D01*
X9946784Y1421544D01*
X9782812Y1353624D01*
X9630426Y1323313D01*
X9608742Y1319000D01*
X9431258Y1319000D01*
X9409574Y1323313D01*
X9257188Y1353624D01*
X9093216Y1421544D01*
X8945646Y1520147D01*
X8820147Y1645646D01*
X8721544Y1793216D01*
X8653624Y1957188D01*
X8619000Y2131259D01*
X8619000Y2308741D01*
X8653624Y2482812D01*
X8721544Y2646784D01*
X8820147Y2794354D01*
X8945646Y2919853D01*
X9093216Y3018456D01*
X9257188Y3086376D01*
X9409574Y3116687D01*
X9431258Y3121000D01*
X9608742Y3121000D01*
X9630426Y3116687D01*
G37*
G36*
X12170426Y3116687D02*
G01*
X12322812Y3086376D01*
X12486784Y3018456D01*
X12634354Y2919853D01*
X12759853Y2794354D01*
X12858456Y2646784D01*
X12926376Y2482812D01*
X12961000Y2308741D01*
X12961000Y2131259D01*
X12926376Y1957188D01*
X12858456Y1793216D01*
X12759853Y1645646D01*
X12634354Y1520147D01*
X12486784Y1421544D01*
X12322812Y1353624D01*
X12170426Y1323313D01*
X12148742Y1319000D01*
X11971258Y1319000D01*
X11949574Y1323313D01*
X11797188Y1353624D01*
X11633216Y1421544D01*
X11485646Y1520147D01*
X11360147Y1645646D01*
X11261544Y1793216D01*
X11193624Y1957188D01*
X11159000Y2131259D01*
X11159000Y2308741D01*
X11193624Y2482812D01*
X11261544Y2646784D01*
X11360147Y2794354D01*
X11485646Y2919853D01*
X11633216Y3018456D01*
X11797188Y3086376D01*
X11949574Y3116687D01*
X11971258Y3121000D01*
X12148742Y3121000D01*
X12170426Y3116687D01*
G37*
G36*
X14710426Y3116687D02*
G01*
X14862812Y3086376D01*
X15026784Y3018456D01*
X15174354Y2919853D01*
X15299853Y2794354D01*
X15398456Y2646784D01*
X15466376Y2482812D01*
X15501000Y2308741D01*
X15501000Y2131259D01*
X15466376Y1957188D01*
X15398456Y1793216D01*
X15299853Y1645646D01*
X15174354Y1520147D01*
X15026784Y1421544D01*
X14862812Y1353624D01*
X14710426Y1323313D01*
X14688742Y1319000D01*
X14511258Y1319000D01*
X14489574Y1323313D01*
X14337188Y1353624D01*
X14173216Y1421544D01*
X14025646Y1520147D01*
X13900147Y1645646D01*
X13801544Y1793216D01*
X13733624Y1957188D01*
X13699000Y2131259D01*
X13699000Y2308741D01*
X13733624Y2482812D01*
X13801544Y2646784D01*
X13900147Y2794354D01*
X14025646Y2919853D01*
X14173216Y3018456D01*
X14337188Y3086376D01*
X14489574Y3116687D01*
X14511258Y3121000D01*
X14688742Y3121000D01*
X14710426Y3116687D01*
G37*
G36*
X17250426Y3116687D02*
G01*
X17402812Y3086376D01*
X17566784Y3018456D01*
X17714354Y2919853D01*
X17839853Y2794354D01*
X17938456Y2646784D01*
X18006376Y2482812D01*
X18041000Y2308741D01*
X18041000Y2131259D01*
X18006376Y1957188D01*
X17938456Y1793216D01*
X17839853Y1645646D01*
X17714354Y1520147D01*
X17566784Y1421544D01*
X17402812Y1353624D01*
X17250426Y1323313D01*
X17228742Y1319000D01*
X17051258Y1319000D01*
X17029574Y1323313D01*
X16877188Y1353624D01*
X16713216Y1421544D01*
X16565646Y1520147D01*
X16440147Y1645646D01*
X16341544Y1793216D01*
X16273624Y1957188D01*
X16239000Y2131259D01*
X16239000Y2308741D01*
X16273624Y2482812D01*
X16341544Y2646784D01*
X16440147Y2794354D01*
X16565646Y2919853D01*
X16713216Y3018456D01*
X16877188Y3086376D01*
X17029574Y3116687D01*
X17051258Y3121000D01*
X17228742Y3121000D01*
X17250426Y3116687D01*
G37*
G36*
X29950426Y3116687D02*
G01*
X30102812Y3086376D01*
X30266784Y3018456D01*
X30414354Y2919853D01*
X30539853Y2794354D01*
X30638456Y2646784D01*
X30706376Y2482812D01*
X30741000Y2308741D01*
X30741000Y2131259D01*
X30706376Y1957188D01*
X30638456Y1793216D01*
X30539853Y1645646D01*
X30414354Y1520147D01*
X30266784Y1421544D01*
X30102812Y1353624D01*
X29950426Y1323313D01*
X29928742Y1319000D01*
X29751258Y1319000D01*
X29729574Y1323313D01*
X29577188Y1353624D01*
X29413216Y1421544D01*
X29265646Y1520147D01*
X29140147Y1645646D01*
X29041544Y1793216D01*
X28973624Y1957188D01*
X28939000Y2131259D01*
X28939000Y2308741D01*
X28973624Y2482812D01*
X29041544Y2646784D01*
X29140147Y2794354D01*
X29265646Y2919853D01*
X29413216Y3018456D01*
X29577188Y3086376D01*
X29729574Y3116687D01*
X29751258Y3121000D01*
X29928742Y3121000D01*
X29950426Y3116687D01*
G37*
G36*
X24870426Y3116687D02*
G01*
X25022812Y3086376D01*
X25186784Y3018456D01*
X25334354Y2919853D01*
X25459853Y2794354D01*
X25558456Y2646784D01*
X25626376Y2482812D01*
X25661000Y2308741D01*
X25661000Y2131259D01*
X25626376Y1957188D01*
X25558456Y1793216D01*
X25459853Y1645646D01*
X25334354Y1520147D01*
X25186784Y1421544D01*
X25022812Y1353624D01*
X24870426Y1323313D01*
X24848742Y1319000D01*
X24671258Y1319000D01*
X24649574Y1323313D01*
X24497188Y1353624D01*
X24333216Y1421544D01*
X24185646Y1520147D01*
X24060147Y1645646D01*
X23961544Y1793216D01*
X23893624Y1957188D01*
X23859000Y2131259D01*
X23859000Y2308741D01*
X23893624Y2482812D01*
X23961544Y2646784D01*
X24060147Y2794354D01*
X24185646Y2919853D01*
X24333216Y3018456D01*
X24497188Y3086376D01*
X24649574Y3116687D01*
X24671258Y3121000D01*
X24848742Y3121000D01*
X24870426Y3116687D01*
G37*
G36*
X22330426Y3116687D02*
G01*
X22482812Y3086376D01*
X22646784Y3018456D01*
X22794354Y2919853D01*
X22919853Y2794354D01*
X23018456Y2646784D01*
X23086376Y2482812D01*
X23121000Y2308741D01*
X23121000Y2131259D01*
X23086376Y1957188D01*
X23018456Y1793216D01*
X22919853Y1645646D01*
X22794354Y1520147D01*
X22646784Y1421544D01*
X22482812Y1353624D01*
X22330426Y1323313D01*
X22308742Y1319000D01*
X22131258Y1319000D01*
X22109574Y1323313D01*
X21957188Y1353624D01*
X21793216Y1421544D01*
X21645646Y1520147D01*
X21520147Y1645646D01*
X21421544Y1793216D01*
X21353624Y1957188D01*
X21319000Y2131259D01*
X21319000Y2308741D01*
X21353624Y2482812D01*
X21421544Y2646784D01*
X21520147Y2794354D01*
X21645646Y2919853D01*
X21793216Y3018456D01*
X21957188Y3086376D01*
X22109574Y3116687D01*
X22131258Y3121000D01*
X22308742Y3121000D01*
X22330426Y3116687D01*
G37*
G36*
X19790426Y3116687D02*
G01*
X19942812Y3086376D01*
X20106784Y3018456D01*
X20254354Y2919853D01*
X20379853Y2794354D01*
X20478456Y2646784D01*
X20546376Y2482812D01*
X20581000Y2308741D01*
X20581000Y2131259D01*
X20546376Y1957188D01*
X20478456Y1793216D01*
X20379853Y1645646D01*
X20254354Y1520147D01*
X20106784Y1421544D01*
X19942812Y1353624D01*
X19790426Y1323313D01*
X19768742Y1319000D01*
X19591258Y1319000D01*
X19569574Y1323313D01*
X19417188Y1353624D01*
X19253216Y1421544D01*
X19105646Y1520147D01*
X18980147Y1645646D01*
X18881544Y1793216D01*
X18813624Y1957188D01*
X18779000Y2131259D01*
X18779000Y2308741D01*
X18813624Y2482812D01*
X18881544Y2646784D01*
X18980147Y2794354D01*
X19105646Y2919853D01*
X19253216Y3018456D01*
X19417188Y3086376D01*
X19569574Y3116687D01*
X19591258Y3121000D01*
X19768742Y3121000D01*
X19790426Y3116687D01*
G37*
G36*
X42400719Y5279826D02*
G01*
X42400722Y5279825D01*
X42400721Y5279825D01*
X42500996Y5238290D01*
X42591242Y5177990D01*
X42667990Y5101242D01*
X42728290Y5010996D01*
X42737216Y4989447D01*
X42769826Y4910719D01*
X42791000Y4804270D01*
X42791000Y4695730D01*
X42769826Y4589281D01*
X42769825Y4589279D01*
X42728290Y4489004D01*
X42667990Y4398758D01*
X42591242Y4322010D01*
X42500996Y4261710D01*
X42430090Y4232340D01*
X42400719Y4220174D01*
X42294270Y4199000D01*
X42185730Y4199000D01*
X42079281Y4220174D01*
X42049910Y4232340D01*
X41979004Y4261710D01*
X41888758Y4322010D01*
X41812010Y4398758D01*
X41751710Y4489004D01*
X41710175Y4589279D01*
X41710174Y4589281D01*
X41689000Y4695730D01*
X41689000Y4804270D01*
X41710174Y4910719D01*
X41742784Y4989447D01*
X41751710Y5010996D01*
X41812010Y5101242D01*
X41888758Y5177990D01*
X41979004Y5238290D01*
X42079279Y5279825D01*
X42079278Y5279825D01*
X42079281Y5279826D01*
X42185730Y5301000D01*
X42294270Y5301000D01*
X42400719Y5279826D01*
G37*
G36*
X9634719Y5279826D02*
G01*
X9634722Y5279825D01*
X9634721Y5279825D01*
X9734996Y5238290D01*
X9825242Y5177990D01*
X9901990Y5101242D01*
X9962290Y5010996D01*
X9971216Y4989447D01*
X10003826Y4910719D01*
X10025000Y4804270D01*
X10025000Y4695730D01*
X10003826Y4589281D01*
X10003825Y4589279D01*
X9962290Y4489004D01*
X9901990Y4398758D01*
X9825242Y4322010D01*
X9734996Y4261710D01*
X9664090Y4232340D01*
X9634719Y4220174D01*
X9528270Y4199000D01*
X9419730Y4199000D01*
X9313281Y4220174D01*
X9283910Y4232340D01*
X9213004Y4261710D01*
X9122758Y4322010D01*
X9046010Y4398758D01*
X8985710Y4489004D01*
X8944175Y4589279D01*
X8944174Y4589281D01*
X8923000Y4695730D01*
X8923000Y4804270D01*
X8944174Y4910719D01*
X8976784Y4989447D01*
X8985710Y5010996D01*
X9046010Y5101242D01*
X9122758Y5177990D01*
X9213004Y5238290D01*
X9313279Y5279825D01*
X9313278Y5279825D01*
X9313281Y5279826D01*
X9419730Y5301000D01*
X9528270Y5301000D01*
X9634719Y5279826D01*
G37*
G36*
X50020719Y5279826D02*
G01*
X50020722Y5279825D01*
X50020721Y5279825D01*
X50120996Y5238290D01*
X50211242Y5177990D01*
X50287990Y5101242D01*
X50348290Y5010996D01*
X50357216Y4989447D01*
X50389826Y4910719D01*
X50411000Y4804270D01*
X50411000Y4695730D01*
X50389826Y4589281D01*
X50389825Y4589279D01*
X50348290Y4489004D01*
X50287990Y4398758D01*
X50211242Y4322010D01*
X50120996Y4261710D01*
X50050090Y4232340D01*
X50020719Y4220174D01*
X49914270Y4199000D01*
X49805730Y4199000D01*
X49699281Y4220174D01*
X49669910Y4232340D01*
X49599004Y4261710D01*
X49508758Y4322010D01*
X49432010Y4398758D01*
X49371710Y4489004D01*
X49330175Y4589279D01*
X49330174Y4589281D01*
X49309000Y4695730D01*
X49309000Y4804270D01*
X49330174Y4910719D01*
X49362784Y4989447D01*
X49371710Y5010996D01*
X49432010Y5101242D01*
X49508758Y5177990D01*
X49599004Y5238290D01*
X49699279Y5279825D01*
X49699278Y5279825D01*
X49699281Y5279826D01*
X49805730Y5301000D01*
X49914270Y5301000D01*
X50020719Y5279826D01*
G37*
G36*
X56116719Y5279826D02*
G01*
X56116722Y5279825D01*
X56116721Y5279825D01*
X56216996Y5238290D01*
X56307242Y5177990D01*
X56383990Y5101242D01*
X56444290Y5010996D01*
X56453216Y4989447D01*
X56485826Y4910719D01*
X56507000Y4804270D01*
X56507000Y4695730D01*
X56485826Y4589281D01*
X56485825Y4589279D01*
X56444290Y4489004D01*
X56383990Y4398758D01*
X56307242Y4322010D01*
X56216996Y4261710D01*
X56146090Y4232340D01*
X56116719Y4220174D01*
X56010270Y4199000D01*
X55901730Y4199000D01*
X55795281Y4220174D01*
X55765910Y4232340D01*
X55695004Y4261710D01*
X55604758Y4322010D01*
X55528010Y4398758D01*
X55467710Y4489004D01*
X55426175Y4589279D01*
X55426174Y4589281D01*
X55405000Y4695730D01*
X55405000Y4804270D01*
X55426174Y4910719D01*
X55458784Y4989447D01*
X55467710Y5010996D01*
X55528010Y5101242D01*
X55604758Y5177990D01*
X55695004Y5238290D01*
X55795279Y5279825D01*
X55795278Y5279825D01*
X55795281Y5279826D01*
X55901730Y5301000D01*
X56010270Y5301000D01*
X56116719Y5279826D01*
G37*
G36*
X47480719Y5279826D02*
G01*
X47480722Y5279825D01*
X47480721Y5279825D01*
X47580996Y5238290D01*
X47671242Y5177990D01*
X47747990Y5101242D01*
X47808290Y5010996D01*
X47817216Y4989447D01*
X47849826Y4910719D01*
X47871000Y4804270D01*
X47871000Y4695730D01*
X47849826Y4589281D01*
X47849825Y4589279D01*
X47808290Y4489004D01*
X47747990Y4398758D01*
X47671242Y4322010D01*
X47580996Y4261710D01*
X47510090Y4232340D01*
X47480719Y4220174D01*
X47374270Y4199000D01*
X47265730Y4199000D01*
X47159281Y4220174D01*
X47129910Y4232340D01*
X47059004Y4261710D01*
X46968758Y4322010D01*
X46892010Y4398758D01*
X46831710Y4489004D01*
X46790175Y4589279D01*
X46790174Y4589281D01*
X46769000Y4695730D01*
X46769000Y4804270D01*
X46790174Y4910719D01*
X46822784Y4989447D01*
X46831710Y5010996D01*
X46892010Y5101242D01*
X46968758Y5177990D01*
X47059004Y5238290D01*
X47159279Y5279825D01*
X47159278Y5279825D01*
X47159281Y5279826D01*
X47265730Y5301000D01*
X47374270Y5301000D01*
X47480719Y5279826D01*
G37*
G36*
X44940719Y5279826D02*
G01*
X44940722Y5279825D01*
X44940721Y5279825D01*
X45040996Y5238290D01*
X45131242Y5177990D01*
X45207990Y5101242D01*
X45268290Y5010996D01*
X45277216Y4989447D01*
X45309826Y4910719D01*
X45331000Y4804270D01*
X45331000Y4695730D01*
X45309826Y4589281D01*
X45309825Y4589279D01*
X45268290Y4489004D01*
X45207990Y4398758D01*
X45131242Y4322010D01*
X45040996Y4261710D01*
X44970090Y4232340D01*
X44940719Y4220174D01*
X44834270Y4199000D01*
X44725730Y4199000D01*
X44619281Y4220174D01*
X44589910Y4232340D01*
X44519004Y4261710D01*
X44428758Y4322010D01*
X44352010Y4398758D01*
X44291710Y4489004D01*
X44250175Y4589279D01*
X44250174Y4589281D01*
X44229000Y4695730D01*
X44229000Y4804270D01*
X44250174Y4910719D01*
X44282784Y4989447D01*
X44291710Y5010996D01*
X44352010Y5101242D01*
X44428758Y5177990D01*
X44519004Y5238290D01*
X44619279Y5279825D01*
X44619278Y5279825D01*
X44619281Y5279826D01*
X44725730Y5301000D01*
X44834270Y5301000D01*
X44940719Y5279826D01*
G37*
G36*
X2810426Y6316687D02*
G01*
X2962812Y6286376D01*
X3126784Y6218456D01*
X3274354Y6119853D01*
X3399853Y5994354D01*
X3498456Y5846784D01*
X3566376Y5682812D01*
X3601000Y5508741D01*
X3601000Y5331259D01*
X3566376Y5157188D01*
X3498456Y4993216D01*
X3399853Y4845646D01*
X3274354Y4720147D01*
X3126784Y4621544D01*
X2962812Y4553624D01*
X2810426Y4523313D01*
X2788742Y4519000D01*
X2611258Y4519000D01*
X2589574Y4523313D01*
X2437188Y4553624D01*
X2273216Y4621544D01*
X2125646Y4720147D01*
X2000147Y4845646D01*
X1901544Y4993216D01*
X1833624Y5157188D01*
X1799000Y5331259D01*
X1799000Y5508741D01*
X1833624Y5682812D01*
X1901544Y5846784D01*
X2000147Y5994354D01*
X2125646Y6119853D01*
X2273216Y6218456D01*
X2437188Y6286376D01*
X2589574Y6316687D01*
X2611258Y6321000D01*
X2788742Y6321000D01*
X2810426Y6316687D01*
G37*
G36*
X6879486Y7251004D02*
G01*
X6879489Y7251003D01*
X6879488Y7251003D01*
X7116255Y7152931D01*
X7159748Y7123870D01*
X7329338Y7010554D01*
X7510554Y6829338D01*
X7522705Y6811152D01*
X7607220Y6684667D01*
X7652932Y6616253D01*
X7751004Y6379486D01*
X7801000Y6128139D01*
X7801000Y5871861D01*
X7751004Y5620514D01*
X7704706Y5508741D01*
X7652931Y5383745D01*
X7510553Y5170661D01*
X7329339Y4989447D01*
X7116255Y4847069D01*
X7116254Y4847068D01*
X7116253Y4847068D01*
X6879486Y4748996D01*
X6628139Y4699000D01*
X6371861Y4699000D01*
X6120514Y4748996D01*
X5883747Y4847068D01*
X5883746Y4847068D01*
X5883745Y4847069D01*
X5670661Y4989447D01*
X5489447Y5170661D01*
X5347069Y5383745D01*
X5295294Y5508741D01*
X5248996Y5620514D01*
X5199000Y5871861D01*
X5199000Y6128139D01*
X5248996Y6379486D01*
X5347068Y6616253D01*
X5392781Y6684667D01*
X5477295Y6811152D01*
X5489446Y6829338D01*
X5670662Y7010554D01*
X5840252Y7123870D01*
X5883745Y7152931D01*
X6120512Y7251003D01*
X6120511Y7251003D01*
X6120514Y7251004D01*
X6371861Y7301000D01*
X6628139Y7301000D01*
X6879486Y7251004D01*
G37*
G36*
X53879486Y7251004D02*
G01*
X53879489Y7251003D01*
X53879488Y7251003D01*
X54116255Y7152931D01*
X54159748Y7123870D01*
X54329338Y7010554D01*
X54510554Y6829338D01*
X54522705Y6811152D01*
X54607220Y6684667D01*
X54652932Y6616253D01*
X54751004Y6379486D01*
X54801000Y6128139D01*
X54801000Y5871861D01*
X54751004Y5620514D01*
X54704706Y5508741D01*
X54652931Y5383745D01*
X54510553Y5170661D01*
X54329339Y4989447D01*
X54116255Y4847069D01*
X54116254Y4847068D01*
X54116253Y4847068D01*
X53879486Y4748996D01*
X53628139Y4699000D01*
X53371861Y4699000D01*
X53120514Y4748996D01*
X52883747Y4847068D01*
X52883746Y4847068D01*
X52883745Y4847069D01*
X52670661Y4989447D01*
X52489447Y5170661D01*
X52347069Y5383745D01*
X52295294Y5508741D01*
X52248996Y5620514D01*
X52199000Y5871861D01*
X52199000Y6128139D01*
X52248996Y6379486D01*
X52347068Y6616253D01*
X52392781Y6684667D01*
X52477295Y6811152D01*
X52489446Y6829338D01*
X52670662Y7010554D01*
X52840252Y7123870D01*
X52883745Y7152931D01*
X53120512Y7251003D01*
X53120511Y7251003D01*
X53120514Y7251004D01*
X53371861Y7301000D01*
X53628139Y7301000D01*
X53879486Y7251004D01*
G37*
G36*
X59952618Y7576580D02*
G01*
X60075333Y7539355D01*
X60188424Y7478907D01*
X60287553Y7397553D01*
X60368907Y7298424D01*
X60429355Y7185333D01*
X60466580Y7062618D01*
X60479149Y6935000D01*
X60466580Y6807382D01*
X60429355Y6684667D01*
X60368907Y6571576D01*
X60287553Y6472447D01*
X60188424Y6391093D01*
X60075333Y6330645D01*
X59952618Y6293420D01*
X59856975Y6284000D01*
X59093025Y6284000D01*
X58997382Y6293420D01*
X58874667Y6330645D01*
X58761576Y6391093D01*
X58662447Y6472447D01*
X58581093Y6571576D01*
X58520645Y6684667D01*
X58483420Y6807382D01*
X58470851Y6935000D01*
X58483420Y7062618D01*
X58520645Y7185333D01*
X58581093Y7298424D01*
X58662447Y7397553D01*
X58761576Y7478907D01*
X58874667Y7539355D01*
X58997382Y7576580D01*
X59093025Y7586000D01*
X59856975Y7586000D01*
X59952618Y7576580D01*
G37*
G36*
X9318765Y7771179D02*
G01*
X9455257Y7714642D01*
X9578096Y7632564D01*
X9682564Y7528096D01*
X9764642Y7405257D01*
X9821179Y7268765D01*
X9850000Y7123870D01*
X9850000Y6976130D01*
X9821179Y6831235D01*
X9764642Y6694743D01*
X9682564Y6571904D01*
X9578096Y6467436D01*
X9455257Y6385358D01*
X9318765Y6328821D01*
X9173870Y6300000D01*
X9026130Y6300000D01*
X8881235Y6328821D01*
X8744743Y6385358D01*
X8621904Y6467436D01*
X8517436Y6571904D01*
X8435358Y6694743D01*
X8378821Y6831235D01*
X8350000Y6976130D01*
X8350000Y7123870D01*
X8378821Y7268765D01*
X8435358Y7405257D01*
X8517436Y7528096D01*
X8621904Y7632564D01*
X8744743Y7714642D01*
X8881235Y7771179D01*
X9026130Y7800000D01*
X9173870Y7800000D01*
X9318765Y7771179D01*
G37*
G36*
X48399477Y7746550D02*
G01*
X48440559Y7734088D01*
X48478424Y7713848D01*
X48511612Y7686612D01*
X48538848Y7653424D01*
X48559088Y7615559D01*
X48571550Y7574477D01*
X48576000Y7529296D01*
X48576000Y6995704D01*
X48571550Y6950523D01*
X48559088Y6909441D01*
X48538848Y6871576D01*
X48511612Y6838388D01*
X48478424Y6811152D01*
X48440559Y6790912D01*
X48399477Y6778450D01*
X48354296Y6774000D01*
X47745704Y6774000D01*
X47700523Y6778450D01*
X47659441Y6790912D01*
X47621576Y6811152D01*
X47588388Y6838388D01*
X47561152Y6871576D01*
X47540912Y6909441D01*
X47528450Y6950523D01*
X47524000Y6995704D01*
X47524000Y7529296D01*
X47528450Y7574477D01*
X47540912Y7615559D01*
X47561152Y7653424D01*
X47588388Y7686612D01*
X47621576Y7713848D01*
X47659441Y7734088D01*
X47700523Y7746550D01*
X47745704Y7751000D01*
X48354296Y7751000D01*
X48399477Y7746550D01*
G37*
G36*
X34901000Y7049000D02*
G01*
X33799000Y7049000D01*
X33799000Y8151000D01*
X34901000Y8151000D01*
X34901000Y7049000D01*
G37*
G36*
X36201000Y7049000D02*
G01*
X35099000Y7049000D01*
X35099000Y8151000D01*
X36201000Y8151000D01*
X36201000Y7049000D01*
G37*
G36*
X3601000Y7059000D02*
G01*
X1799000Y7059000D01*
X1799000Y8861000D01*
X3601000Y8861000D01*
X3601000Y7059000D01*
G37*
G36*
X11407000Y7501000D02*
G01*
X10305000Y7501000D01*
X10305000Y8603000D01*
X11407000Y8603000D01*
X11407000Y7501000D01*
G37*
G36*
X12707000Y7501000D02*
G01*
X11605000Y7501000D01*
X11605000Y8603000D01*
X12707000Y8603000D01*
X12707000Y7501000D01*
G37*
G36*
X18840977Y8573550D02*
G01*
X18882059Y8561088D01*
X18919924Y8540848D01*
X18953112Y8513612D01*
X18980348Y8480424D01*
X19000588Y8442559D01*
X19013050Y8401477D01*
X19017500Y8356296D01*
X19017500Y7747704D01*
X19013050Y7702523D01*
X19000588Y7661441D01*
X18980348Y7623576D01*
X18953112Y7590388D01*
X18919924Y7563152D01*
X18882059Y7542912D01*
X18840977Y7530450D01*
X18795796Y7526000D01*
X18262204Y7526000D01*
X18217023Y7530450D01*
X18175941Y7542912D01*
X18138076Y7563152D01*
X18104888Y7590388D01*
X18077652Y7623576D01*
X18057412Y7661441D01*
X18044950Y7702523D01*
X18040500Y7747704D01*
X18040500Y8356296D01*
X18044950Y8401477D01*
X18057412Y8442559D01*
X18077652Y8480424D01*
X18104888Y8513612D01*
X18138076Y8540848D01*
X18175941Y8561088D01*
X18217023Y8573550D01*
X18262204Y8578000D01*
X18795796Y8578000D01*
X18840977Y8573550D01*
G37*
G36*
X20415977Y8573550D02*
G01*
X20457059Y8561088D01*
X20494924Y8540848D01*
X20528112Y8513612D01*
X20555348Y8480424D01*
X20575588Y8442559D01*
X20588050Y8401477D01*
X20592500Y8356296D01*
X20592500Y7747704D01*
X20588050Y7702523D01*
X20575588Y7661441D01*
X20555348Y7623576D01*
X20528112Y7590388D01*
X20494924Y7563152D01*
X20457059Y7542912D01*
X20415977Y7530450D01*
X20370796Y7526000D01*
X19837204Y7526000D01*
X19792023Y7530450D01*
X19750941Y7542912D01*
X19713076Y7563152D01*
X19679888Y7590388D01*
X19652652Y7623576D01*
X19632412Y7661441D01*
X19619950Y7702523D01*
X19615500Y7747704D01*
X19615500Y8356296D01*
X19619950Y8401477D01*
X19632412Y8442559D01*
X19652652Y8480424D01*
X19679888Y8513612D01*
X19713076Y8540848D01*
X19750941Y8561088D01*
X19792023Y8573550D01*
X19837204Y8578000D01*
X20370796Y8578000D01*
X20415977Y8573550D01*
G37*
G36*
X14141477Y8510550D02*
G01*
X14182559Y8498088D01*
X14220424Y8477848D01*
X14253612Y8450612D01*
X14280848Y8417424D01*
X14301088Y8379559D01*
X14313550Y8338477D01*
X14318000Y8293296D01*
X14318000Y7759704D01*
X14313550Y7714523D01*
X14301088Y7673441D01*
X14280848Y7635576D01*
X14253612Y7602388D01*
X14220424Y7575152D01*
X14182559Y7554912D01*
X14141477Y7542450D01*
X14096296Y7538000D01*
X13487704Y7538000D01*
X13442523Y7542450D01*
X13401441Y7554912D01*
X13363576Y7575152D01*
X13330388Y7602388D01*
X13303152Y7635576D01*
X13282912Y7673441D01*
X13270450Y7714523D01*
X13266000Y7759704D01*
X13266000Y8293296D01*
X13270450Y8338477D01*
X13282912Y8379559D01*
X13303152Y8417424D01*
X13330388Y8450612D01*
X13363576Y8477848D01*
X13401441Y8498088D01*
X13442523Y8510550D01*
X13487704Y8515000D01*
X14096296Y8515000D01*
X14141477Y8510550D01*
G37*
G36*
X17341877Y8551550D02*
G01*
X17382959Y8539088D01*
X17420824Y8518848D01*
X17454012Y8491612D01*
X17481248Y8458424D01*
X17501488Y8420559D01*
X17513950Y8379477D01*
X17518400Y8334296D01*
X17518400Y7800704D01*
X17513950Y7755523D01*
X17501488Y7714441D01*
X17481248Y7676576D01*
X17454012Y7643388D01*
X17420824Y7616152D01*
X17382959Y7595912D01*
X17341877Y7583450D01*
X17296696Y7579000D01*
X16688104Y7579000D01*
X16642923Y7583450D01*
X16601841Y7595912D01*
X16563976Y7616152D01*
X16530788Y7643388D01*
X16503552Y7676576D01*
X16483312Y7714441D01*
X16470850Y7755523D01*
X16466400Y7800704D01*
X16466400Y8334296D01*
X16470850Y8379477D01*
X16483312Y8420559D01*
X16503552Y8458424D01*
X16530788Y8491612D01*
X16563976Y8518848D01*
X16601841Y8539088D01*
X16642923Y8551550D01*
X16688104Y8556000D01*
X17296696Y8556000D01*
X17341877Y8551550D01*
G37*
G36*
X15817877Y8551550D02*
G01*
X15858959Y8539088D01*
X15896824Y8518848D01*
X15930012Y8491612D01*
X15957248Y8458424D01*
X15977488Y8420559D01*
X15989950Y8379477D01*
X15994400Y8334296D01*
X15994400Y7800704D01*
X15989950Y7755523D01*
X15977488Y7714441D01*
X15957248Y7676576D01*
X15930012Y7643388D01*
X15896824Y7616152D01*
X15858959Y7595912D01*
X15817877Y7583450D01*
X15772696Y7579000D01*
X15164104Y7579000D01*
X15118923Y7583450D01*
X15077841Y7595912D01*
X15039976Y7616152D01*
X15006788Y7643388D01*
X14979552Y7676576D01*
X14959312Y7714441D01*
X14946850Y7755523D01*
X14942400Y7800704D01*
X14942400Y8334296D01*
X14946850Y8379477D01*
X14959312Y8420559D01*
X14979552Y8458424D01*
X15006788Y8491612D01*
X15039976Y8518848D01*
X15077841Y8539088D01*
X15118923Y8551550D01*
X15164104Y8556000D01*
X15772696Y8556000D01*
X15817877Y8551550D01*
G37*
G36*
X56687916Y9452666D02*
G01*
X56796492Y9419729D01*
X56896557Y9366244D01*
X56984264Y9294264D01*
X57056244Y9206557D01*
X57109729Y9106492D01*
X57142666Y8997916D01*
X57153787Y8885000D01*
X57142666Y8772084D01*
X57109729Y8663508D01*
X57056244Y8563443D01*
X56984264Y8475736D01*
X56896557Y8403756D01*
X56796492Y8350271D01*
X56687916Y8317334D01*
X56603298Y8309000D01*
X56346702Y8309000D01*
X56262084Y8317334D01*
X56153508Y8350271D01*
X56053443Y8403756D01*
X55965736Y8475736D01*
X55893756Y8563443D01*
X55840271Y8663508D01*
X55807334Y8772084D01*
X55796213Y8885000D01*
X55807334Y8997916D01*
X55840271Y9106492D01*
X55893756Y9206557D01*
X55965736Y9294264D01*
X56053443Y9366244D01*
X56153508Y9419729D01*
X56262084Y9452666D01*
X56346702Y9461000D01*
X56603298Y9461000D01*
X56687916Y9452666D01*
G37*
G36*
X46849477Y9371550D02*
G01*
X46890559Y9359088D01*
X46928424Y9338848D01*
X46961612Y9311612D01*
X46988848Y9278424D01*
X47009088Y9240559D01*
X47021550Y9199477D01*
X47026000Y9154296D01*
X47026000Y8545704D01*
X47021550Y8500523D01*
X47009088Y8459441D01*
X46988848Y8421576D01*
X46961612Y8388388D01*
X46928424Y8361152D01*
X46890559Y8340912D01*
X46849477Y8328450D01*
X46804296Y8324000D01*
X46270704Y8324000D01*
X46225523Y8328450D01*
X46184441Y8340912D01*
X46146576Y8361152D01*
X46113388Y8388388D01*
X46086152Y8421576D01*
X46065912Y8459441D01*
X46053450Y8500523D01*
X46049000Y8545704D01*
X46049000Y9154296D01*
X46053450Y9199477D01*
X46065912Y9240559D01*
X46086152Y9278424D01*
X46113388Y9311612D01*
X46146576Y9338848D01*
X46184441Y9359088D01*
X46225523Y9371550D01*
X46270704Y9376000D01*
X46804296Y9376000D01*
X46849477Y9371550D01*
G37*
G36*
X45274477Y9371550D02*
G01*
X45315559Y9359088D01*
X45353424Y9338848D01*
X45386612Y9311612D01*
X45413848Y9278424D01*
X45434088Y9240559D01*
X45446550Y9199477D01*
X45451000Y9154296D01*
X45451000Y8545704D01*
X45446550Y8500523D01*
X45434088Y8459441D01*
X45413848Y8421576D01*
X45386612Y8388388D01*
X45353424Y8361152D01*
X45315559Y8340912D01*
X45274477Y8328450D01*
X45229296Y8324000D01*
X44695704Y8324000D01*
X44650523Y8328450D01*
X44609441Y8340912D01*
X44571576Y8361152D01*
X44538388Y8388388D01*
X44511152Y8421576D01*
X44490912Y8459441D01*
X44478450Y8500523D01*
X44474000Y8545704D01*
X44474000Y9154296D01*
X44478450Y9199477D01*
X44490912Y9240559D01*
X44511152Y9278424D01*
X44538388Y9311612D01*
X44571576Y9338848D01*
X44609441Y9359088D01*
X44650523Y9371550D01*
X44695704Y9376000D01*
X45229296Y9376000D01*
X45274477Y9371550D01*
G37*
G36*
X48399477Y9321550D02*
G01*
X48440559Y9309088D01*
X48478424Y9288848D01*
X48511612Y9261612D01*
X48538848Y9228424D01*
X48559088Y9190559D01*
X48571550Y9149477D01*
X48576000Y9104296D01*
X48576000Y8570704D01*
X48571550Y8525523D01*
X48559088Y8484441D01*
X48538848Y8446576D01*
X48511612Y8413388D01*
X48478424Y8386152D01*
X48440559Y8365912D01*
X48399477Y8353450D01*
X48354296Y8349000D01*
X47745704Y8349000D01*
X47700523Y8353450D01*
X47659441Y8365912D01*
X47621576Y8386152D01*
X47588388Y8413388D01*
X47561152Y8446576D01*
X47540912Y8484441D01*
X47528450Y8525523D01*
X47524000Y8570704D01*
X47524000Y9104296D01*
X47528450Y9149477D01*
X47540912Y9190559D01*
X47561152Y9228424D01*
X47588388Y9261612D01*
X47621576Y9288848D01*
X47659441Y9309088D01*
X47700523Y9321550D01*
X47745704Y9326000D01*
X48354296Y9326000D01*
X48399477Y9321550D01*
G37*
G36*
X5449477Y9996550D02*
G01*
X5490559Y9984088D01*
X5528424Y9963848D01*
X5561612Y9936612D01*
X5588848Y9903424D01*
X5609088Y9865559D01*
X5621550Y9824477D01*
X5626000Y9779296D01*
X5626000Y9245704D01*
X5621550Y9200523D01*
X5609088Y9159441D01*
X5588848Y9121576D01*
X5561612Y9088388D01*
X5528424Y9061152D01*
X5490559Y9040912D01*
X5449477Y9028450D01*
X5404296Y9024000D01*
X4795704Y9024000D01*
X4750523Y9028450D01*
X4709441Y9040912D01*
X4671576Y9061152D01*
X4638388Y9088388D01*
X4611152Y9121576D01*
X4590912Y9159441D01*
X4578450Y9200523D01*
X4574000Y9245704D01*
X4574000Y9779296D01*
X4578450Y9824477D01*
X4590912Y9865559D01*
X4611152Y9903424D01*
X4638388Y9936612D01*
X4671576Y9963848D01*
X4709441Y9984088D01*
X4750523Y9996550D01*
X4795704Y10001000D01*
X5404296Y10001000D01*
X5449477Y9996550D01*
G37*
G36*
X11049477Y9996550D02*
G01*
X11090559Y9984088D01*
X11128424Y9963848D01*
X11161612Y9936612D01*
X11188848Y9903424D01*
X11209088Y9865559D01*
X11221550Y9824477D01*
X11226000Y9779296D01*
X11226000Y9245704D01*
X11221550Y9200523D01*
X11209088Y9159441D01*
X11188848Y9121576D01*
X11161612Y9088388D01*
X11128424Y9061152D01*
X11090559Y9040912D01*
X11049477Y9028450D01*
X11004296Y9024000D01*
X10395704Y9024000D01*
X10350523Y9028450D01*
X10309441Y9040912D01*
X10271576Y9061152D01*
X10238388Y9088388D01*
X10211152Y9121576D01*
X10190912Y9159441D01*
X10178450Y9200523D01*
X10174000Y9245704D01*
X10174000Y9779296D01*
X10178450Y9824477D01*
X10190912Y9865559D01*
X10211152Y9903424D01*
X10238388Y9936612D01*
X10271576Y9963848D01*
X10309441Y9984088D01*
X10350523Y9996550D01*
X10395704Y10001000D01*
X11004296Y10001000D01*
X11049477Y9996550D01*
G37*
G36*
X12649477Y9996550D02*
G01*
X12690559Y9984088D01*
X12728424Y9963848D01*
X12761612Y9936612D01*
X12788848Y9903424D01*
X12809088Y9865559D01*
X12821550Y9824477D01*
X12826000Y9779296D01*
X12826000Y9245704D01*
X12821550Y9200523D01*
X12809088Y9159441D01*
X12788848Y9121576D01*
X12761612Y9088388D01*
X12728424Y9061152D01*
X12690559Y9040912D01*
X12649477Y9028450D01*
X12604296Y9024000D01*
X11995704Y9024000D01*
X11950523Y9028450D01*
X11909441Y9040912D01*
X11871576Y9061152D01*
X11838388Y9088388D01*
X11811152Y9121576D01*
X11790912Y9159441D01*
X11778450Y9200523D01*
X11774000Y9245704D01*
X11774000Y9779296D01*
X11778450Y9824477D01*
X11790912Y9865559D01*
X11811152Y9903424D01*
X11838388Y9936612D01*
X11871576Y9963848D01*
X11909441Y9984088D01*
X11950523Y9996550D01*
X11995704Y10001000D01*
X12604296Y10001000D01*
X12649477Y9996550D01*
G37*
G36*
X14141477Y10085550D02*
G01*
X14182559Y10073088D01*
X14220424Y10052848D01*
X14253612Y10025612D01*
X14280848Y9992424D01*
X14301088Y9954559D01*
X14313550Y9913477D01*
X14318000Y9868296D01*
X14318000Y9334704D01*
X14313550Y9289523D01*
X14301088Y9248441D01*
X14280848Y9210576D01*
X14253612Y9177388D01*
X14220424Y9150152D01*
X14182559Y9129912D01*
X14141477Y9117450D01*
X14096296Y9113000D01*
X13487704Y9113000D01*
X13442523Y9117450D01*
X13401441Y9129912D01*
X13363576Y9150152D01*
X13330388Y9177388D01*
X13303152Y9210576D01*
X13282912Y9248441D01*
X13270450Y9289523D01*
X13266000Y9334704D01*
X13266000Y9868296D01*
X13270450Y9913477D01*
X13282912Y9954559D01*
X13303152Y9992424D01*
X13330388Y10025612D01*
X13363576Y10052848D01*
X13401441Y10073088D01*
X13442523Y10085550D01*
X13487704Y10090000D01*
X14096296Y10090000D01*
X14141477Y10085550D01*
G37*
G36*
X9751000Y9149000D02*
G01*
X8649000Y9149000D01*
X8649000Y9951000D01*
X9751000Y9951000D01*
X9751000Y9149000D01*
G37*
G36*
X15817877Y10126550D02*
G01*
X15858959Y10114088D01*
X15896824Y10093848D01*
X15930012Y10066612D01*
X15957248Y10033424D01*
X15977488Y9995559D01*
X15989950Y9954477D01*
X15994400Y9909296D01*
X15994400Y9375704D01*
X15989950Y9330523D01*
X15977488Y9289441D01*
X15957248Y9251576D01*
X15930012Y9218388D01*
X15896824Y9191152D01*
X15858959Y9170912D01*
X15817877Y9158450D01*
X15772696Y9154000D01*
X15164104Y9154000D01*
X15118923Y9158450D01*
X15077841Y9170912D01*
X15039976Y9191152D01*
X15006788Y9218388D01*
X14979552Y9251576D01*
X14959312Y9289441D01*
X14946850Y9330523D01*
X14942400Y9375704D01*
X14942400Y9909296D01*
X14946850Y9954477D01*
X14959312Y9995559D01*
X14979552Y10033424D01*
X15006788Y10066612D01*
X15039976Y10093848D01*
X15077841Y10114088D01*
X15118923Y10126550D01*
X15164104Y10131000D01*
X15772696Y10131000D01*
X15817877Y10126550D01*
G37*
G36*
X17341877Y10126550D02*
G01*
X17382959Y10114088D01*
X17420824Y10093848D01*
X17454012Y10066612D01*
X17481248Y10033424D01*
X17501488Y9995559D01*
X17513950Y9954477D01*
X17518400Y9909296D01*
X17518400Y9375704D01*
X17513950Y9330523D01*
X17501488Y9289441D01*
X17481248Y9251576D01*
X17454012Y9218388D01*
X17420824Y9191152D01*
X17382959Y9170912D01*
X17341877Y9158450D01*
X17296696Y9154000D01*
X16688104Y9154000D01*
X16642923Y9158450D01*
X16601841Y9170912D01*
X16563976Y9191152D01*
X16530788Y9218388D01*
X16503552Y9251576D01*
X16483312Y9289441D01*
X16470850Y9330523D01*
X16466400Y9375704D01*
X16466400Y9909296D01*
X16470850Y9954477D01*
X16483312Y9995559D01*
X16503552Y10033424D01*
X16530788Y10066612D01*
X16563976Y10093848D01*
X16601841Y10114088D01*
X16642923Y10126550D01*
X16688104Y10131000D01*
X17296696Y10131000D01*
X17341877Y10126550D01*
G37*
G36*
X7151000Y9174000D02*
G01*
X6049000Y9174000D01*
X6049000Y9926000D01*
X7151000Y9926000D01*
X7151000Y9174000D01*
G37*
G36*
X19856977Y10859550D02*
G01*
X19898059Y10847088D01*
X19935924Y10826848D01*
X19969112Y10799612D01*
X19996348Y10766424D01*
X20016588Y10728559D01*
X20029050Y10687477D01*
X20033500Y10642296D01*
X20033500Y10033704D01*
X20029050Y9988523D01*
X20016588Y9947441D01*
X19996348Y9909576D01*
X19969112Y9876388D01*
X19935924Y9849152D01*
X19898059Y9828912D01*
X19856977Y9816450D01*
X19811796Y9812000D01*
X19278204Y9812000D01*
X19233023Y9816450D01*
X19191941Y9828912D01*
X19154076Y9849152D01*
X19120888Y9876388D01*
X19093652Y9909576D01*
X19073412Y9947441D01*
X19060950Y9988523D01*
X19056500Y10033704D01*
X19056500Y10642296D01*
X19060950Y10687477D01*
X19073412Y10728559D01*
X19093652Y10766424D01*
X19120888Y10799612D01*
X19154076Y10826848D01*
X19191941Y10847088D01*
X19233023Y10859550D01*
X19278204Y10864000D01*
X19811796Y10864000D01*
X19856977Y10859550D01*
G37*
G36*
X46849477Y10859550D02*
G01*
X46890559Y10847088D01*
X46928424Y10826848D01*
X46961612Y10799612D01*
X46988848Y10766424D01*
X47009088Y10728559D01*
X47021550Y10687477D01*
X47026000Y10642296D01*
X47026000Y10033704D01*
X47021550Y9988523D01*
X47009088Y9947441D01*
X46988848Y9909576D01*
X46961612Y9876388D01*
X46928424Y9849152D01*
X46890559Y9828912D01*
X46849477Y9816450D01*
X46804296Y9812000D01*
X46270704Y9812000D01*
X46225523Y9816450D01*
X46184441Y9828912D01*
X46146576Y9849152D01*
X46113388Y9876388D01*
X46086152Y9909576D01*
X46065912Y9947441D01*
X46053450Y9988523D01*
X46049000Y10033704D01*
X46049000Y10642296D01*
X46053450Y10687477D01*
X46065912Y10728559D01*
X46086152Y10766424D01*
X46113388Y10799612D01*
X46146576Y10826848D01*
X46184441Y10847088D01*
X46225523Y10859550D01*
X46270704Y10864000D01*
X46804296Y10864000D01*
X46849477Y10859550D01*
G37*
G36*
X45274477Y10859550D02*
G01*
X45315559Y10847088D01*
X45353424Y10826848D01*
X45386612Y10799612D01*
X45413848Y10766424D01*
X45434088Y10728559D01*
X45446550Y10687477D01*
X45451000Y10642296D01*
X45451000Y10033704D01*
X45446550Y9988523D01*
X45434088Y9947441D01*
X45413848Y9909576D01*
X45386612Y9876388D01*
X45353424Y9849152D01*
X45315559Y9828912D01*
X45274477Y9816450D01*
X45229296Y9812000D01*
X44695704Y9812000D01*
X44650523Y9816450D01*
X44609441Y9828912D01*
X44571576Y9849152D01*
X44538388Y9876388D01*
X44511152Y9909576D01*
X44490912Y9947441D01*
X44478450Y9988523D01*
X44474000Y10033704D01*
X44474000Y10642296D01*
X44478450Y10687477D01*
X44490912Y10728559D01*
X44511152Y10766424D01*
X44538388Y10799612D01*
X44571576Y10826848D01*
X44609441Y10847088D01*
X44650523Y10859550D01*
X44695704Y10864000D01*
X45229296Y10864000D01*
X45274477Y10859550D01*
G37*
G36*
X1886477Y10859550D02*
G01*
X1927559Y10847088D01*
X1965424Y10826848D01*
X1998612Y10799612D01*
X2025848Y10766424D01*
X2046088Y10728559D01*
X2058550Y10687477D01*
X2063000Y10642296D01*
X2063000Y10033704D01*
X2058550Y9988523D01*
X2046088Y9947441D01*
X2025848Y9909576D01*
X1998612Y9876388D01*
X1965424Y9849152D01*
X1927559Y9828912D01*
X1886477Y9816450D01*
X1841296Y9812000D01*
X1307704Y9812000D01*
X1262523Y9816450D01*
X1221441Y9828912D01*
X1183576Y9849152D01*
X1150388Y9876388D01*
X1123152Y9909576D01*
X1102912Y9947441D01*
X1090450Y9988523D01*
X1086000Y10033704D01*
X1086000Y10642296D01*
X1090450Y10687477D01*
X1102912Y10728559D01*
X1123152Y10766424D01*
X1150388Y10799612D01*
X1183576Y10826848D01*
X1221441Y10847088D01*
X1262523Y10859550D01*
X1307704Y10864000D01*
X1841296Y10864000D01*
X1886477Y10859550D01*
G37*
G36*
X3461477Y10859550D02*
G01*
X3502559Y10847088D01*
X3540424Y10826848D01*
X3573612Y10799612D01*
X3600848Y10766424D01*
X3621088Y10728559D01*
X3633550Y10687477D01*
X3638000Y10642296D01*
X3638000Y10033704D01*
X3633550Y9988523D01*
X3621088Y9947441D01*
X3600848Y9909576D01*
X3573612Y9876388D01*
X3540424Y9849152D01*
X3502559Y9828912D01*
X3461477Y9816450D01*
X3416296Y9812000D01*
X2882704Y9812000D01*
X2837523Y9816450D01*
X2796441Y9828912D01*
X2758576Y9849152D01*
X2725388Y9876388D01*
X2698152Y9909576D01*
X2677912Y9947441D01*
X2665450Y9988523D01*
X2661000Y10033704D01*
X2661000Y10642296D01*
X2665450Y10687477D01*
X2677912Y10728559D01*
X2698152Y10766424D01*
X2725388Y10799612D01*
X2758576Y10826848D01*
X2796441Y10847088D01*
X2837523Y10859550D01*
X2882704Y10864000D01*
X3416296Y10864000D01*
X3461477Y10859550D01*
G37*
G36*
X21431977Y10859550D02*
G01*
X21473059Y10847088D01*
X21510924Y10826848D01*
X21544112Y10799612D01*
X21571348Y10766424D01*
X21591588Y10728559D01*
X21604050Y10687477D01*
X21608500Y10642296D01*
X21608500Y10033704D01*
X21604050Y9988523D01*
X21591588Y9947441D01*
X21571348Y9909576D01*
X21544112Y9876388D01*
X21510924Y9849152D01*
X21473059Y9828912D01*
X21431977Y9816450D01*
X21386796Y9812000D01*
X20853204Y9812000D01*
X20808023Y9816450D01*
X20766941Y9828912D01*
X20729076Y9849152D01*
X20695888Y9876388D01*
X20668652Y9909576D01*
X20648412Y9947441D01*
X20635950Y9988523D01*
X20631500Y10033704D01*
X20631500Y10642296D01*
X20635950Y10687477D01*
X20648412Y10728559D01*
X20668652Y10766424D01*
X20695888Y10799612D01*
X20729076Y10826848D01*
X20766941Y10847088D01*
X20808023Y10859550D01*
X20853204Y10864000D01*
X21386796Y10864000D01*
X21431977Y10859550D01*
G37*
G36*
X55522499Y11005263D02*
G01*
X55532109Y11002347D01*
X55540971Y10997610D01*
X55548737Y10991237D01*
X55555110Y10983471D01*
X55559847Y10974609D01*
X55562763Y10964999D01*
X55563747Y10955000D01*
X55562656Y10943915D01*
X55561169Y10936437D01*
X55561169Y10926635D01*
X55563082Y10917022D01*
X55566833Y10907967D01*
X55572279Y10899817D01*
X55579210Y10892887D01*
X55587359Y10887442D01*
X55596415Y10883691D01*
X55606028Y10881780D01*
X55615830Y10881780D01*
X55625443Y10883693D01*
X55634498Y10887444D01*
X55644578Y10894558D01*
X55751027Y10991427D01*
X55761067Y10998904D01*
X55770139Y11003217D01*
X55780455Y11005823D01*
X55789367Y11006489D01*
X56785046Y11006489D01*
X56797499Y11005263D01*
X56807109Y11002347D01*
X56815971Y10997610D01*
X56823737Y10991237D01*
X56830110Y10983471D01*
X56834847Y10974609D01*
X56837763Y10964999D01*
X56838989Y10952546D01*
X56838989Y10047454D01*
X56837763Y10035001D01*
X56834847Y10025391D01*
X56830110Y10016529D01*
X56823737Y10008763D01*
X56815971Y10002390D01*
X56807109Y9997653D01*
X56797499Y9994737D01*
X56785046Y9993511D01*
X55789954Y9993511D01*
X55777501Y9994737D01*
X55767891Y9997653D01*
X55758504Y10002670D01*
X55751466Y10008174D01*
X55644826Y10105216D01*
X55636965Y10111070D01*
X55628113Y10115278D01*
X55618610Y10117679D01*
X55608822Y10118180D01*
X55599123Y10116761D01*
X55589888Y10113477D01*
X55581471Y10108455D01*
X55574195Y10101887D01*
X55568341Y10094026D01*
X55564133Y10085174D01*
X55561732Y10075671D01*
X55561231Y10065883D01*
X55561703Y10060997D01*
X55563691Y10047414D01*
X55563177Y10037379D01*
X55560717Y10027639D01*
X55556404Y10018567D01*
X55556403Y10018566D01*
X55550403Y10010509D01*
X55550401Y10010508D01*
X55550401Y10010507D01*
X55542946Y10003777D01*
X55534318Y9998629D01*
X55524852Y9995264D01*
X55512500Y9993753D01*
X55511433Y9993753D01*
X55509455Y9993511D01*
X54214954Y9993511D01*
X54202501Y9994737D01*
X54192891Y9997653D01*
X54184029Y10002390D01*
X54176263Y10008763D01*
X54169890Y10016529D01*
X54165153Y10025391D01*
X54162237Y10035001D01*
X54161011Y10047454D01*
X54161011Y10502354D01*
X55113347Y10502354D01*
X55113848Y10492565D01*
X55116248Y10483062D01*
X55120457Y10474210D01*
X55129640Y10463021D01*
X55155174Y10439785D01*
X55163035Y10433930D01*
X55171887Y10429722D01*
X55181390Y10427321D01*
X55191178Y10426820D01*
X55200877Y10428239D01*
X55210112Y10431523D01*
X55218529Y10436545D01*
X55225804Y10443113D01*
X55231659Y10450974D01*
X55235867Y10459826D01*
X55238268Y10469329D01*
X55238769Y10479117D01*
X55238297Y10484003D01*
X55236309Y10497586D01*
X55236823Y10507622D01*
X55237784Y10511427D01*
X55239243Y10521120D01*
X55238782Y10530910D01*
X55236420Y10540423D01*
X55232247Y10549292D01*
X55226425Y10557177D01*
X55219176Y10563774D01*
X55210779Y10568830D01*
X55201558Y10572151D01*
X55191865Y10573610D01*
X55182075Y10573149D01*
X55172562Y10570787D01*
X55163693Y10566614D01*
X55155658Y10560656D01*
X55129640Y10536980D01*
X55123072Y10529704D01*
X55118050Y10521287D01*
X55114766Y10512052D01*
X55113347Y10502354D01*
X54161011Y10502354D01*
X54161011Y10952546D01*
X54162237Y10964999D01*
X54165153Y10974609D01*
X54169890Y10983471D01*
X54176263Y10991237D01*
X54184029Y10997610D01*
X54192891Y11002347D01*
X54202501Y11005263D01*
X54214954Y11006489D01*
X55510046Y11006489D01*
X55522499Y11005263D01*
G37*
G36*
X7151000Y10124000D02*
G01*
X6049000Y10124000D01*
X6049000Y10876000D01*
X7151000Y10876000D01*
X7151000Y10124000D01*
G37*
G36*
X12649477Y11571550D02*
G01*
X12690559Y11559088D01*
X12728424Y11538848D01*
X12761612Y11511612D01*
X12788848Y11478424D01*
X12809088Y11440559D01*
X12821550Y11399477D01*
X12826000Y11354296D01*
X12826000Y10820704D01*
X12821550Y10775523D01*
X12809088Y10734441D01*
X12788848Y10696576D01*
X12761612Y10663388D01*
X12728424Y10636152D01*
X12690559Y10615912D01*
X12649477Y10603450D01*
X12604296Y10599000D01*
X11995704Y10599000D01*
X11950523Y10603450D01*
X11909441Y10615912D01*
X11871576Y10636152D01*
X11838388Y10663388D01*
X11811152Y10696576D01*
X11790912Y10734441D01*
X11778450Y10775523D01*
X11774000Y10820704D01*
X11774000Y11354296D01*
X11778450Y11399477D01*
X11790912Y11440559D01*
X11811152Y11478424D01*
X11838388Y11511612D01*
X11871576Y11538848D01*
X11909441Y11559088D01*
X11950523Y11571550D01*
X11995704Y11576000D01*
X12604296Y11576000D01*
X12649477Y11571550D01*
G37*
G36*
X11049477Y11571550D02*
G01*
X11090559Y11559088D01*
X11128424Y11538848D01*
X11161612Y11511612D01*
X11188848Y11478424D01*
X11209088Y11440559D01*
X11221550Y11399477D01*
X11226000Y11354296D01*
X11226000Y10820704D01*
X11221550Y10775523D01*
X11209088Y10734441D01*
X11188848Y10696576D01*
X11161612Y10663388D01*
X11128424Y10636152D01*
X11090559Y10615912D01*
X11049477Y10603450D01*
X11004296Y10599000D01*
X10395704Y10599000D01*
X10350523Y10603450D01*
X10309441Y10615912D01*
X10271576Y10636152D01*
X10238388Y10663388D01*
X10211152Y10696576D01*
X10190912Y10734441D01*
X10178450Y10775523D01*
X10174000Y10820704D01*
X10174000Y11354296D01*
X10178450Y11399477D01*
X10190912Y11440559D01*
X10211152Y11478424D01*
X10238388Y11511612D01*
X10271576Y11538848D01*
X10309441Y11559088D01*
X10350523Y11571550D01*
X10395704Y11576000D01*
X11004296Y11576000D01*
X11049477Y11571550D01*
G37*
G36*
X5449477Y11571550D02*
G01*
X5490559Y11559088D01*
X5528424Y11538848D01*
X5561612Y11511612D01*
X5588848Y11478424D01*
X5609088Y11440559D01*
X5621550Y11399477D01*
X5626000Y11354296D01*
X5626000Y10820704D01*
X5621550Y10775523D01*
X5609088Y10734441D01*
X5588848Y10696576D01*
X5561612Y10663388D01*
X5528424Y10636152D01*
X5490559Y10615912D01*
X5449477Y10603450D01*
X5404296Y10599000D01*
X4795704Y10599000D01*
X4750523Y10603450D01*
X4709441Y10615912D01*
X4671576Y10636152D01*
X4638388Y10663388D01*
X4611152Y10696576D01*
X4590912Y10734441D01*
X4578450Y10775523D01*
X4574000Y10820704D01*
X4574000Y11354296D01*
X4578450Y11399477D01*
X4590912Y11440559D01*
X4611152Y11478424D01*
X4638388Y11511612D01*
X4671576Y11538848D01*
X4709441Y11559088D01*
X4750523Y11571550D01*
X4795704Y11576000D01*
X5404296Y11576000D01*
X5449477Y11571550D01*
G37*
G36*
X50747500Y11004000D02*
G01*
X48845500Y11004000D01*
X48845500Y11906000D01*
X50747500Y11906000D01*
X50747500Y11004000D01*
G37*
G36*
X9751000Y11049000D02*
G01*
X8649000Y11049000D01*
X8649000Y11851000D01*
X9751000Y11851000D01*
X9751000Y11049000D01*
G37*
G36*
X7151000Y11074000D02*
G01*
X6049000Y11074000D01*
X6049000Y11826000D01*
X7151000Y11826000D01*
X7151000Y11074000D01*
G37*
G36*
X3851000Y11149000D02*
G01*
X3049000Y11149000D01*
X3049000Y12251000D01*
X3851000Y12251000D01*
X3851000Y11149000D01*
G37*
G36*
X1951000Y11149000D02*
G01*
X1149000Y11149000D01*
X1149000Y12251000D01*
X1951000Y12251000D01*
X1951000Y11149000D01*
G37*
G36*
X55522499Y12305263D02*
G01*
X55532109Y12302347D01*
X55540971Y12297610D01*
X55548737Y12291237D01*
X55555110Y12283471D01*
X55559847Y12274609D01*
X55562763Y12264999D01*
X55563747Y12255000D01*
X55562656Y12243915D01*
X55561169Y12236437D01*
X55561169Y12226635D01*
X55563082Y12217022D01*
X55566833Y12207967D01*
X55572279Y12199817D01*
X55579210Y12192887D01*
X55587359Y12187442D01*
X55596415Y12183691D01*
X55606028Y12181780D01*
X55615830Y12181780D01*
X55625443Y12183693D01*
X55634498Y12187444D01*
X55644578Y12194558D01*
X55751027Y12291427D01*
X55761067Y12298904D01*
X55770139Y12303217D01*
X55780455Y12305823D01*
X55789367Y12306489D01*
X56785046Y12306489D01*
X56797499Y12305263D01*
X56807109Y12302347D01*
X56815971Y12297610D01*
X56823737Y12291237D01*
X56830110Y12283471D01*
X56834847Y12274609D01*
X56837763Y12264999D01*
X56838989Y12252546D01*
X56838989Y11347454D01*
X56837763Y11335001D01*
X56834847Y11325391D01*
X56830110Y11316529D01*
X56823737Y11308763D01*
X56815971Y11302390D01*
X56807109Y11297653D01*
X56797499Y11294737D01*
X56785046Y11293511D01*
X55789954Y11293511D01*
X55777501Y11294737D01*
X55767891Y11297653D01*
X55758504Y11302670D01*
X55751466Y11308174D01*
X55644826Y11405216D01*
X55636965Y11411070D01*
X55628113Y11415278D01*
X55618610Y11417679D01*
X55608822Y11418180D01*
X55599123Y11416761D01*
X55589888Y11413477D01*
X55581471Y11408455D01*
X55574195Y11401887D01*
X55568341Y11394026D01*
X55564133Y11385174D01*
X55561732Y11375671D01*
X55561231Y11365883D01*
X55561703Y11360997D01*
X55563691Y11347414D01*
X55563177Y11337379D01*
X55560717Y11327639D01*
X55556404Y11318567D01*
X55556403Y11318566D01*
X55550403Y11310509D01*
X55550401Y11310508D01*
X55550401Y11310507D01*
X55542946Y11303777D01*
X55540621Y11302390D01*
X55534318Y11298629D01*
X55524852Y11295264D01*
X55512500Y11293753D01*
X55511433Y11293753D01*
X55509455Y11293511D01*
X54214954Y11293511D01*
X54202501Y11294737D01*
X54192891Y11297653D01*
X54184029Y11302390D01*
X54176263Y11308763D01*
X54169890Y11316529D01*
X54165153Y11325391D01*
X54162237Y11335001D01*
X54161011Y11347454D01*
X54161011Y11802354D01*
X55113347Y11802354D01*
X55113848Y11792565D01*
X55116248Y11783062D01*
X55120457Y11774210D01*
X55129640Y11763021D01*
X55155174Y11739785D01*
X55163035Y11733930D01*
X55171887Y11729722D01*
X55181390Y11727321D01*
X55191178Y11726820D01*
X55200877Y11728239D01*
X55210112Y11731523D01*
X55218529Y11736545D01*
X55225804Y11743113D01*
X55231659Y11750974D01*
X55235867Y11759826D01*
X55238268Y11769329D01*
X55238769Y11779117D01*
X55238297Y11784003D01*
X55236309Y11797586D01*
X55236823Y11807622D01*
X55237784Y11811427D01*
X55239243Y11821120D01*
X55238782Y11830910D01*
X55236420Y11840423D01*
X55232247Y11849292D01*
X55226425Y11857177D01*
X55219176Y11863774D01*
X55210779Y11868830D01*
X55201558Y11872151D01*
X55191865Y11873610D01*
X55182075Y11873149D01*
X55172562Y11870787D01*
X55163693Y11866614D01*
X55155658Y11860656D01*
X55129640Y11836980D01*
X55123072Y11829704D01*
X55118050Y11821287D01*
X55114766Y11812052D01*
X55113347Y11802354D01*
X54161011Y11802354D01*
X54161011Y12252546D01*
X54162237Y12264999D01*
X54165153Y12274609D01*
X54169890Y12283471D01*
X54176263Y12291237D01*
X54184029Y12297610D01*
X54192891Y12302347D01*
X54202501Y12305263D01*
X54214954Y12306489D01*
X55510046Y12306489D01*
X55522499Y12305263D01*
G37*
G36*
X46849477Y12383550D02*
G01*
X46890559Y12371088D01*
X46928424Y12350848D01*
X46961612Y12323612D01*
X46988848Y12290424D01*
X47009088Y12252559D01*
X47021550Y12211477D01*
X47026000Y12166296D01*
X47026000Y11557704D01*
X47021550Y11512523D01*
X47009088Y11471441D01*
X46988848Y11433576D01*
X46961612Y11400388D01*
X46928424Y11373152D01*
X46890559Y11352912D01*
X46849477Y11340450D01*
X46804296Y11336000D01*
X46270704Y11336000D01*
X46225523Y11340450D01*
X46184441Y11352912D01*
X46146576Y11373152D01*
X46113388Y11400388D01*
X46086152Y11433576D01*
X46065912Y11471441D01*
X46053450Y11512523D01*
X46049000Y11557704D01*
X46049000Y12166296D01*
X46053450Y12211477D01*
X46065912Y12252559D01*
X46086152Y12290424D01*
X46113388Y12323612D01*
X46146576Y12350848D01*
X46184441Y12371088D01*
X46225523Y12383550D01*
X46270704Y12388000D01*
X46804296Y12388000D01*
X46849477Y12383550D01*
G37*
G36*
X45274477Y12383550D02*
G01*
X45315559Y12371088D01*
X45353424Y12350848D01*
X45386612Y12323612D01*
X45413848Y12290424D01*
X45434088Y12252559D01*
X45446550Y12211477D01*
X45451000Y12166296D01*
X45451000Y11557704D01*
X45446550Y11512523D01*
X45434088Y11471441D01*
X45413848Y11433576D01*
X45386612Y11400388D01*
X45353424Y11373152D01*
X45315559Y11352912D01*
X45274477Y11340450D01*
X45229296Y11336000D01*
X44695704Y11336000D01*
X44650523Y11340450D01*
X44609441Y11352912D01*
X44571576Y11373152D01*
X44538388Y11400388D01*
X44511152Y11433576D01*
X44490912Y11471441D01*
X44478450Y11512523D01*
X44474000Y11557704D01*
X44474000Y12166296D01*
X44478450Y12211477D01*
X44490912Y12252559D01*
X44511152Y12290424D01*
X44538388Y12323612D01*
X44571576Y12350848D01*
X44609441Y12371088D01*
X44650523Y12383550D01*
X44695704Y12388000D01*
X45229296Y12388000D01*
X45274477Y12383550D01*
G37*
G36*
X19869677Y12475350D02*
G01*
X19910759Y12462888D01*
X19948624Y12442648D01*
X19981812Y12415412D01*
X20009048Y12382224D01*
X20029288Y12344359D01*
X20041750Y12303277D01*
X20046200Y12258096D01*
X20046200Y11649504D01*
X20041750Y11604323D01*
X20029288Y11563241D01*
X20009048Y11525376D01*
X19981812Y11492188D01*
X19948624Y11464952D01*
X19910759Y11444712D01*
X19869677Y11432250D01*
X19824496Y11427800D01*
X19290904Y11427800D01*
X19245723Y11432250D01*
X19204641Y11444712D01*
X19166776Y11464952D01*
X19133588Y11492188D01*
X19106352Y11525376D01*
X19086112Y11563241D01*
X19073650Y11604323D01*
X19069200Y11649504D01*
X19069200Y12258096D01*
X19073650Y12303277D01*
X19086112Y12344359D01*
X19106352Y12382224D01*
X19133588Y12415412D01*
X19166776Y12442648D01*
X19204641Y12462888D01*
X19245723Y12475350D01*
X19290904Y12479800D01*
X19824496Y12479800D01*
X19869677Y12475350D01*
G37*
G36*
X21444677Y12475350D02*
G01*
X21485759Y12462888D01*
X21523624Y12442648D01*
X21556812Y12415412D01*
X21584048Y12382224D01*
X21604288Y12344359D01*
X21616750Y12303277D01*
X21621200Y12258096D01*
X21621200Y11649504D01*
X21616750Y11604323D01*
X21604288Y11563241D01*
X21584048Y11525376D01*
X21556812Y11492188D01*
X21523624Y11464952D01*
X21485759Y11444712D01*
X21444677Y11432250D01*
X21399496Y11427800D01*
X20865904Y11427800D01*
X20820723Y11432250D01*
X20779641Y11444712D01*
X20741776Y11464952D01*
X20708588Y11492188D01*
X20681352Y11525376D01*
X20661112Y11563241D01*
X20648650Y11604323D01*
X20644200Y11649504D01*
X20644200Y12258096D01*
X20648650Y12303277D01*
X20661112Y12344359D01*
X20681352Y12382224D01*
X20708588Y12415412D01*
X20741776Y12442648D01*
X20779641Y12462888D01*
X20820723Y12475350D01*
X20865904Y12479800D01*
X21399496Y12479800D01*
X21444677Y12475350D01*
G37*
G36*
X51999477Y12446550D02*
G01*
X52040559Y12434088D01*
X52078424Y12413848D01*
X52111612Y12386612D01*
X52138848Y12353424D01*
X52159088Y12315559D01*
X52171550Y12274477D01*
X52176000Y12229296D01*
X52176000Y11695704D01*
X52171550Y11650523D01*
X52159088Y11609441D01*
X52138848Y11571576D01*
X52111612Y11538388D01*
X52078424Y11511152D01*
X52040559Y11490912D01*
X51999477Y11478450D01*
X51954296Y11474000D01*
X51345704Y11474000D01*
X51300523Y11478450D01*
X51259441Y11490912D01*
X51221576Y11511152D01*
X51188388Y11538388D01*
X51161152Y11571576D01*
X51140912Y11609441D01*
X51128450Y11650523D01*
X51124000Y11695704D01*
X51124000Y12229296D01*
X51128450Y12274477D01*
X51140912Y12315559D01*
X51161152Y12353424D01*
X51188388Y12386612D01*
X51221576Y12413848D01*
X51259441Y12434088D01*
X51300523Y12446550D01*
X51345704Y12451000D01*
X51954296Y12451000D01*
X51999477Y12446550D01*
G37*
G36*
X26270477Y13205550D02*
G01*
X26311559Y13193088D01*
X26349424Y13172848D01*
X26382612Y13145612D01*
X26409848Y13112424D01*
X26430088Y13074559D01*
X26442550Y13033477D01*
X26447000Y12988296D01*
X26447000Y12379704D01*
X26442550Y12334523D01*
X26430088Y12293441D01*
X26409848Y12255576D01*
X26382612Y12222388D01*
X26349424Y12195152D01*
X26311559Y12174912D01*
X26270477Y12162450D01*
X26225296Y12158000D01*
X25691704Y12158000D01*
X25646523Y12162450D01*
X25605441Y12174912D01*
X25567576Y12195152D01*
X25534388Y12222388D01*
X25507152Y12255576D01*
X25486912Y12293441D01*
X25474450Y12334523D01*
X25470000Y12379704D01*
X25470000Y12988296D01*
X25474450Y13033477D01*
X25486912Y13074559D01*
X25507152Y13112424D01*
X25534388Y13145612D01*
X25567576Y13172848D01*
X25605441Y13193088D01*
X25646523Y13205550D01*
X25691704Y13210000D01*
X26225296Y13210000D01*
X26270477Y13205550D01*
G37*
G36*
X27845477Y13205550D02*
G01*
X27886559Y13193088D01*
X27924424Y13172848D01*
X27957612Y13145612D01*
X27984848Y13112424D01*
X28005088Y13074559D01*
X28017550Y13033477D01*
X28022000Y12988296D01*
X28022000Y12379704D01*
X28017550Y12334523D01*
X28005088Y12293441D01*
X27984848Y12255576D01*
X27957612Y12222388D01*
X27924424Y12195152D01*
X27886559Y12174912D01*
X27845477Y12162450D01*
X27800296Y12158000D01*
X27266704Y12158000D01*
X27221523Y12162450D01*
X27180441Y12174912D01*
X27142576Y12195152D01*
X27109388Y12222388D01*
X27082152Y12255576D01*
X27061912Y12293441D01*
X27049450Y12334523D01*
X27045000Y12379704D01*
X27045000Y12988296D01*
X27049450Y13033477D01*
X27061912Y13074559D01*
X27082152Y13112424D01*
X27109388Y13145612D01*
X27142576Y13172848D01*
X27180441Y13193088D01*
X27221523Y13205550D01*
X27266704Y13210000D01*
X27800296Y13210000D01*
X27845477Y13205550D01*
G37*
G36*
X24639600Y12158600D02*
G01*
X23337600Y12158600D01*
X23337600Y13160600D01*
X24639600Y13160600D01*
X24639600Y12158600D01*
G37*
G36*
X53624477Y13621550D02*
G01*
X53665559Y13609088D01*
X53703424Y13588848D01*
X53736612Y13561612D01*
X53763848Y13528424D01*
X53784088Y13490559D01*
X53796550Y13449477D01*
X53801000Y13404296D01*
X53801000Y12795704D01*
X53796550Y12750523D01*
X53784088Y12709441D01*
X53763848Y12671576D01*
X53736612Y12638388D01*
X53703424Y12611152D01*
X53665559Y12590912D01*
X53624477Y12578450D01*
X53579296Y12574000D01*
X53045704Y12574000D01*
X53000523Y12578450D01*
X52959441Y12590912D01*
X52921576Y12611152D01*
X52888388Y12638388D01*
X52861152Y12671576D01*
X52840912Y12709441D01*
X52828450Y12750523D01*
X52824000Y12795704D01*
X52824000Y13404296D01*
X52828450Y13449477D01*
X52840912Y13490559D01*
X52861152Y13528424D01*
X52888388Y13561612D01*
X52921576Y13588848D01*
X52959441Y13609088D01*
X53000523Y13621550D01*
X53045704Y13626000D01*
X53579296Y13626000D01*
X53624477Y13621550D01*
G37*
G36*
X55199477Y13621550D02*
G01*
X55240559Y13609088D01*
X55278424Y13588848D01*
X55311612Y13561612D01*
X55338848Y13528424D01*
X55359088Y13490559D01*
X55371550Y13449477D01*
X55376000Y13404296D01*
X55376000Y12795704D01*
X55371550Y12750523D01*
X55359088Y12709441D01*
X55338848Y12671576D01*
X55311612Y12638388D01*
X55278424Y12611152D01*
X55240559Y12590912D01*
X55199477Y12578450D01*
X55154296Y12574000D01*
X54620704Y12574000D01*
X54575523Y12578450D01*
X54534441Y12590912D01*
X54496576Y12611152D01*
X54463388Y12638388D01*
X54436152Y12671576D01*
X54415912Y12709441D01*
X54403450Y12750523D01*
X54399000Y12795704D01*
X54399000Y13404296D01*
X54403450Y13449477D01*
X54415912Y13490559D01*
X54436152Y13528424D01*
X54463388Y13561612D01*
X54496576Y13588848D01*
X54534441Y13609088D01*
X54575523Y13621550D01*
X54620704Y13626000D01*
X55154296Y13626000D01*
X55199477Y13621550D01*
G37*
G36*
X6899477Y13653550D02*
G01*
X6940559Y13641088D01*
X6978424Y13620848D01*
X7011612Y13593612D01*
X7038848Y13560424D01*
X7059088Y13522559D01*
X7071550Y13481477D01*
X7076000Y13436296D01*
X7076000Y12827704D01*
X7071550Y12782523D01*
X7059088Y12741441D01*
X7038848Y12703576D01*
X7011612Y12670388D01*
X6978424Y12643152D01*
X6940559Y12622912D01*
X6899477Y12610450D01*
X6854296Y12606000D01*
X6320704Y12606000D01*
X6275523Y12610450D01*
X6234441Y12622912D01*
X6196576Y12643152D01*
X6163388Y12670388D01*
X6136152Y12703576D01*
X6115912Y12741441D01*
X6103450Y12782523D01*
X6099000Y12827704D01*
X6099000Y13436296D01*
X6103450Y13481477D01*
X6115912Y13522559D01*
X6136152Y13560424D01*
X6163388Y13593612D01*
X6196576Y13620848D01*
X6234441Y13641088D01*
X6275523Y13653550D01*
X6320704Y13658000D01*
X6854296Y13658000D01*
X6899477Y13653550D01*
G37*
G36*
X5324477Y13653550D02*
G01*
X5365559Y13641088D01*
X5403424Y13620848D01*
X5436612Y13593612D01*
X5463848Y13560424D01*
X5484088Y13522559D01*
X5496550Y13481477D01*
X5501000Y13436296D01*
X5501000Y12827704D01*
X5496550Y12782523D01*
X5484088Y12741441D01*
X5463848Y12703576D01*
X5436612Y12670388D01*
X5403424Y12643152D01*
X5365559Y12622912D01*
X5324477Y12610450D01*
X5279296Y12606000D01*
X4745704Y12606000D01*
X4700523Y12610450D01*
X4659441Y12622912D01*
X4621576Y12643152D01*
X4588388Y12670388D01*
X4561152Y12703576D01*
X4540912Y12741441D01*
X4528450Y12782523D01*
X4524000Y12827704D01*
X4524000Y13436296D01*
X4528450Y13481477D01*
X4540912Y13522559D01*
X4561152Y13560424D01*
X4588388Y13593612D01*
X4621576Y13620848D01*
X4659441Y13641088D01*
X4700523Y13653550D01*
X4745704Y13658000D01*
X5279296Y13658000D01*
X5324477Y13653550D01*
G37*
G36*
X56687916Y13902666D02*
G01*
X56796492Y13869729D01*
X56896557Y13816244D01*
X56984264Y13744264D01*
X57056244Y13656557D01*
X57109729Y13556492D01*
X57142666Y13447916D01*
X57153787Y13335000D01*
X57142666Y13222084D01*
X57109729Y13113508D01*
X57056244Y13013443D01*
X56984264Y12925736D01*
X56896557Y12853756D01*
X56796492Y12800271D01*
X56687916Y12767334D01*
X56603298Y12759000D01*
X56346702Y12759000D01*
X56262084Y12767334D01*
X56153508Y12800271D01*
X56053443Y12853756D01*
X55965736Y12925736D01*
X55893756Y13013443D01*
X55840271Y13113508D01*
X55807334Y13222084D01*
X55796213Y13335000D01*
X55807334Y13447916D01*
X55840271Y13556492D01*
X55893756Y13656557D01*
X55965736Y13744264D01*
X56053443Y13816244D01*
X56153508Y13869729D01*
X56262084Y13902666D01*
X56346702Y13911000D01*
X56603298Y13911000D01*
X56687916Y13902666D01*
G37*
G36*
X16681477Y13844550D02*
G01*
X16722559Y13832088D01*
X16760424Y13811848D01*
X16793612Y13784612D01*
X16820848Y13751424D01*
X16841088Y13713559D01*
X16853550Y13672477D01*
X16858000Y13627296D01*
X16858000Y13093704D01*
X16853550Y13048523D01*
X16841088Y13007441D01*
X16820848Y12969576D01*
X16793612Y12936388D01*
X16760424Y12909152D01*
X16722559Y12888912D01*
X16681477Y12876450D01*
X16636296Y12872000D01*
X16027704Y12872000D01*
X15982523Y12876450D01*
X15941441Y12888912D01*
X15903576Y12909152D01*
X15870388Y12936388D01*
X15843152Y12969576D01*
X15822912Y13007441D01*
X15810450Y13048523D01*
X15806000Y13093704D01*
X15806000Y13627296D01*
X15810450Y13672477D01*
X15822912Y13713559D01*
X15843152Y13751424D01*
X15870388Y13784612D01*
X15903576Y13811848D01*
X15941441Y13832088D01*
X15982523Y13844550D01*
X16027704Y13849000D01*
X16636296Y13849000D01*
X16681477Y13844550D01*
G37*
G36*
X19729477Y13844550D02*
G01*
X19770559Y13832088D01*
X19808424Y13811848D01*
X19841612Y13784612D01*
X19868848Y13751424D01*
X19889088Y13713559D01*
X19901550Y13672477D01*
X19906000Y13627296D01*
X19906000Y13093704D01*
X19901550Y13048523D01*
X19889088Y13007441D01*
X19868848Y12969576D01*
X19841612Y12936388D01*
X19808424Y12909152D01*
X19770559Y12888912D01*
X19729477Y12876450D01*
X19684296Y12872000D01*
X19075704Y12872000D01*
X19030523Y12876450D01*
X18989441Y12888912D01*
X18951576Y12909152D01*
X18918388Y12936388D01*
X18891152Y12969576D01*
X18870912Y13007441D01*
X18858450Y13048523D01*
X18854000Y13093704D01*
X18854000Y13627296D01*
X18858450Y13672477D01*
X18870912Y13713559D01*
X18891152Y13751424D01*
X18918388Y13784612D01*
X18951576Y13811848D01*
X18989441Y13832088D01*
X19030523Y13844550D01*
X19075704Y13849000D01*
X19684296Y13849000D01*
X19729477Y13844550D01*
G37*
G36*
X15157477Y13844550D02*
G01*
X15198559Y13832088D01*
X15236424Y13811848D01*
X15269612Y13784612D01*
X15296848Y13751424D01*
X15317088Y13713559D01*
X15329550Y13672477D01*
X15334000Y13627296D01*
X15334000Y13093704D01*
X15329550Y13048523D01*
X15317088Y13007441D01*
X15296848Y12969576D01*
X15269612Y12936388D01*
X15236424Y12909152D01*
X15198559Y12888912D01*
X15157477Y12876450D01*
X15112296Y12872000D01*
X14503704Y12872000D01*
X14458523Y12876450D01*
X14417441Y12888912D01*
X14379576Y12909152D01*
X14346388Y12936388D01*
X14319152Y12969576D01*
X14298912Y13007441D01*
X14286450Y13048523D01*
X14282000Y13093704D01*
X14282000Y13627296D01*
X14286450Y13672477D01*
X14298912Y13713559D01*
X14319152Y13751424D01*
X14346388Y13784612D01*
X14379576Y13811848D01*
X14417441Y13832088D01*
X14458523Y13844550D01*
X14503704Y13849000D01*
X15112296Y13849000D01*
X15157477Y13844550D01*
G37*
G36*
X18256277Y13844550D02*
G01*
X18297359Y13832088D01*
X18335224Y13811848D01*
X18368412Y13784612D01*
X18395648Y13751424D01*
X18415888Y13713559D01*
X18428350Y13672477D01*
X18432800Y13627296D01*
X18432800Y13093704D01*
X18428350Y13048523D01*
X18415888Y13007441D01*
X18395648Y12969576D01*
X18368412Y12936388D01*
X18335224Y12909152D01*
X18297359Y12888912D01*
X18256277Y12876450D01*
X18211096Y12872000D01*
X17602504Y12872000D01*
X17557323Y12876450D01*
X17516241Y12888912D01*
X17478376Y12909152D01*
X17445188Y12936388D01*
X17417952Y12969576D01*
X17397712Y13007441D01*
X17385250Y13048523D01*
X17380800Y13093704D01*
X17380800Y13627296D01*
X17385250Y13672477D01*
X17397712Y13713559D01*
X17417952Y13751424D01*
X17445188Y13784612D01*
X17478376Y13811848D01*
X17516241Y13832088D01*
X17557323Y13844550D01*
X17602504Y13849000D01*
X18211096Y13849000D01*
X18256277Y13844550D01*
G37*
G36*
X51999477Y14021550D02*
G01*
X52040559Y14009088D01*
X52078424Y13988848D01*
X52111612Y13961612D01*
X52138848Y13928424D01*
X52159088Y13890559D01*
X52171550Y13849477D01*
X52176000Y13804296D01*
X52176000Y13270704D01*
X52171550Y13225523D01*
X52159088Y13184441D01*
X52138848Y13146576D01*
X52111612Y13113388D01*
X52078424Y13086152D01*
X52040559Y13065912D01*
X51999477Y13053450D01*
X51954296Y13049000D01*
X51345704Y13049000D01*
X51300523Y13053450D01*
X51259441Y13065912D01*
X51221576Y13086152D01*
X51188388Y13113388D01*
X51161152Y13146576D01*
X51140912Y13184441D01*
X51128450Y13225523D01*
X51124000Y13270704D01*
X51124000Y13804296D01*
X51128450Y13849477D01*
X51140912Y13890559D01*
X51161152Y13928424D01*
X51188388Y13961612D01*
X51221576Y13988848D01*
X51259441Y14009088D01*
X51300523Y14021550D01*
X51345704Y14026000D01*
X51954296Y14026000D01*
X51999477Y14021550D01*
G37*
G36*
X3826000Y13749000D02*
G01*
X3074000Y13749000D01*
X3074000Y14851000D01*
X3826000Y14851000D01*
X3826000Y13749000D01*
G37*
G36*
X2876000Y13749000D02*
G01*
X2124000Y13749000D01*
X2124000Y14851000D01*
X2876000Y14851000D01*
X2876000Y13749000D01*
G37*
G36*
X1926000Y13749000D02*
G01*
X1174000Y13749000D01*
X1174000Y14851000D01*
X1926000Y14851000D01*
X1926000Y13749000D01*
G37*
G36*
X50747500Y14104000D02*
G01*
X48845500Y14104000D01*
X48845500Y15006000D01*
X50747500Y15006000D01*
X50747500Y14104000D01*
G37*
G36*
X15157477Y15419550D02*
G01*
X15198559Y15407088D01*
X15236424Y15386848D01*
X15269612Y15359612D01*
X15296848Y15326424D01*
X15317088Y15288559D01*
X15329550Y15247477D01*
X15334000Y15202296D01*
X15334000Y14668704D01*
X15329550Y14623523D01*
X15317088Y14582441D01*
X15296848Y14544576D01*
X15269612Y14511388D01*
X15236424Y14484152D01*
X15198559Y14463912D01*
X15157477Y14451450D01*
X15112296Y14447000D01*
X14503704Y14447000D01*
X14458523Y14451450D01*
X14417441Y14463912D01*
X14379576Y14484152D01*
X14346388Y14511388D01*
X14319152Y14544576D01*
X14298912Y14582441D01*
X14286450Y14623523D01*
X14282000Y14668704D01*
X14282000Y15202296D01*
X14286450Y15247477D01*
X14298912Y15288559D01*
X14319152Y15326424D01*
X14346388Y15359612D01*
X14379576Y15386848D01*
X14417441Y15407088D01*
X14458523Y15419550D01*
X14503704Y15424000D01*
X15112296Y15424000D01*
X15157477Y15419550D01*
G37*
G36*
X18256277Y15419550D02*
G01*
X18297359Y15407088D01*
X18335224Y15386848D01*
X18368412Y15359612D01*
X18395648Y15326424D01*
X18415888Y15288559D01*
X18428350Y15247477D01*
X18432800Y15202296D01*
X18432800Y14668704D01*
X18428350Y14623523D01*
X18415888Y14582441D01*
X18395648Y14544576D01*
X18368412Y14511388D01*
X18335224Y14484152D01*
X18297359Y14463912D01*
X18256277Y14451450D01*
X18211096Y14447000D01*
X17602504Y14447000D01*
X17557323Y14451450D01*
X17516241Y14463912D01*
X17478376Y14484152D01*
X17445188Y14511388D01*
X17417952Y14544576D01*
X17397712Y14582441D01*
X17385250Y14623523D01*
X17380800Y14668704D01*
X17380800Y15202296D01*
X17385250Y15247477D01*
X17397712Y15288559D01*
X17417952Y15326424D01*
X17445188Y15359612D01*
X17478376Y15386848D01*
X17516241Y15407088D01*
X17557323Y15419550D01*
X17602504Y15424000D01*
X18211096Y15424000D01*
X18256277Y15419550D01*
G37*
G36*
X19729477Y15419550D02*
G01*
X19770559Y15407088D01*
X19808424Y15386848D01*
X19841612Y15359612D01*
X19868848Y15326424D01*
X19889088Y15288559D01*
X19901550Y15247477D01*
X19906000Y15202296D01*
X19906000Y14668704D01*
X19901550Y14623523D01*
X19889088Y14582441D01*
X19868848Y14544576D01*
X19841612Y14511388D01*
X19808424Y14484152D01*
X19770559Y14463912D01*
X19729477Y14451450D01*
X19684296Y14447000D01*
X19075704Y14447000D01*
X19030523Y14451450D01*
X18989441Y14463912D01*
X18951576Y14484152D01*
X18918388Y14511388D01*
X18891152Y14544576D01*
X18870912Y14582441D01*
X18858450Y14623523D01*
X18854000Y14668704D01*
X18854000Y15202296D01*
X18858450Y15247477D01*
X18870912Y15288559D01*
X18891152Y15326424D01*
X18918388Y15359612D01*
X18951576Y15386848D01*
X18989441Y15407088D01*
X19030523Y15419550D01*
X19075704Y15424000D01*
X19684296Y15424000D01*
X19729477Y15419550D01*
G37*
G36*
X16681477Y15419550D02*
G01*
X16722559Y15407088D01*
X16760424Y15386848D01*
X16793612Y15359612D01*
X16820848Y15326424D01*
X16841088Y15288559D01*
X16853550Y15247477D01*
X16858000Y15202296D01*
X16858000Y14668704D01*
X16853550Y14623523D01*
X16841088Y14582441D01*
X16820848Y14544576D01*
X16793612Y14511388D01*
X16760424Y14484152D01*
X16722559Y14463912D01*
X16681477Y14451450D01*
X16636296Y14447000D01*
X16027704Y14447000D01*
X15982523Y14451450D01*
X15941441Y14463912D01*
X15903576Y14484152D01*
X15870388Y14511388D01*
X15843152Y14544576D01*
X15822912Y14582441D01*
X15810450Y14623523D01*
X15806000Y14668704D01*
X15806000Y15202296D01*
X15810450Y15247477D01*
X15822912Y15288559D01*
X15843152Y15326424D01*
X15870388Y15359612D01*
X15903576Y15386848D01*
X15941441Y15407088D01*
X15982523Y15419550D01*
X16027704Y15424000D01*
X16636296Y15424000D01*
X16681477Y15419550D01*
G37*
G36*
X59952618Y15926580D02*
G01*
X60075333Y15889355D01*
X60188424Y15828907D01*
X60287553Y15747553D01*
X60368907Y15648424D01*
X60429355Y15535333D01*
X60466580Y15412618D01*
X60479149Y15285000D01*
X60466580Y15157382D01*
X60429355Y15034667D01*
X60368907Y14921576D01*
X60287553Y14822447D01*
X60188424Y14741093D01*
X60075333Y14680645D01*
X59952618Y14643420D01*
X59856975Y14634000D01*
X59093025Y14634000D01*
X58997382Y14643420D01*
X58874667Y14680645D01*
X58761576Y14741093D01*
X58662447Y14822447D01*
X58581093Y14921576D01*
X58520645Y15034667D01*
X58483420Y15157382D01*
X58470851Y15285000D01*
X58483420Y15412618D01*
X58520645Y15535333D01*
X58581093Y15648424D01*
X58662447Y15747553D01*
X58761576Y15828907D01*
X58874667Y15889355D01*
X58997382Y15926580D01*
X59093025Y15936000D01*
X59856975Y15936000D01*
X59952618Y15926580D01*
G37*
G36*
X53879486Y17451004D02*
G01*
X54116253Y17352932D01*
X54116255Y17352931D01*
X54329339Y17210553D01*
X54510553Y17029339D01*
X54644535Y16828821D01*
X54652932Y16816253D01*
X54751004Y16579486D01*
X54801000Y16328139D01*
X54801000Y16071861D01*
X54751004Y15820514D01*
X54664129Y15610780D01*
X54652931Y15583745D01*
X54618048Y15531539D01*
X54510554Y15370662D01*
X54329338Y15189446D01*
X54223518Y15118740D01*
X54116255Y15047069D01*
X54116254Y15047068D01*
X54116253Y15047068D01*
X53879486Y14948996D01*
X53628139Y14899000D01*
X53371861Y14899000D01*
X53120514Y14948996D01*
X52883747Y15047068D01*
X52883746Y15047068D01*
X52883745Y15047069D01*
X52776482Y15118740D01*
X52670662Y15189446D01*
X52489446Y15370662D01*
X52381952Y15531539D01*
X52347069Y15583745D01*
X52335871Y15610780D01*
X52248996Y15820514D01*
X52199000Y16071861D01*
X52199000Y16328139D01*
X52248996Y16579486D01*
X52347068Y16816253D01*
X52355466Y16828821D01*
X52489447Y17029339D01*
X52670661Y17210553D01*
X52883745Y17352931D01*
X52883747Y17352932D01*
X53120514Y17451004D01*
X53371861Y17501000D01*
X53628139Y17501000D01*
X53879486Y17451004D01*
G37*
G36*
X6879486Y17451004D02*
G01*
X7116253Y17352932D01*
X7116255Y17352931D01*
X7329339Y17210553D01*
X7510553Y17029339D01*
X7644535Y16828821D01*
X7652932Y16816253D01*
X7751004Y16579486D01*
X7801000Y16328139D01*
X7801000Y16071861D01*
X7751004Y15820514D01*
X7664129Y15610780D01*
X7652931Y15583745D01*
X7618048Y15531539D01*
X7510554Y15370662D01*
X7329338Y15189446D01*
X7223518Y15118740D01*
X7116255Y15047069D01*
X7116254Y15047068D01*
X7116253Y15047068D01*
X6879486Y14948996D01*
X6628139Y14899000D01*
X6371861Y14899000D01*
X6120514Y14948996D01*
X5883747Y15047068D01*
X5883746Y15047068D01*
X5883745Y15047069D01*
X5776482Y15118740D01*
X5670662Y15189446D01*
X5489446Y15370662D01*
X5381952Y15531539D01*
X5347069Y15583745D01*
X5335871Y15610780D01*
X5248996Y15820514D01*
X5199000Y16071861D01*
X5199000Y16328139D01*
X5248996Y16579486D01*
X5347068Y16816253D01*
X5355466Y16828821D01*
X5489447Y17029339D01*
X5670661Y17210553D01*
X5883745Y17352931D01*
X5883747Y17352932D01*
X6120514Y17451004D01*
X6371861Y17501000D01*
X6628139Y17501000D01*
X6879486Y17451004D01*
G37*
G36*
X56818765Y16621179D02*
G01*
X56955257Y16564642D01*
X57078096Y16482564D01*
X57182564Y16378096D01*
X57264642Y16255257D01*
X57321179Y16118765D01*
X57350000Y15973870D01*
X57350000Y15826130D01*
X57321179Y15681235D01*
X57264642Y15544743D01*
X57182564Y15421904D01*
X57078096Y15317436D01*
X56955257Y15235358D01*
X56818765Y15178821D01*
X56673870Y15150000D01*
X56526130Y15150000D01*
X56381235Y15178821D01*
X56244743Y15235358D01*
X56121904Y15317436D01*
X56017436Y15421904D01*
X55935358Y15544743D01*
X55878821Y15681235D01*
X55850000Y15826130D01*
X55850000Y15973870D01*
X55878821Y16118765D01*
X55935358Y16255257D01*
X56017436Y16378096D01*
X56121904Y16482564D01*
X56244743Y16564642D01*
X56381235Y16621179D01*
X56526130Y16650000D01*
X56673870Y16650000D01*
X56818765Y16621179D01*
G37*
G36*
X3799477Y16321550D02*
G01*
X3840559Y16309088D01*
X3878424Y16288848D01*
X3911612Y16261612D01*
X3938848Y16228424D01*
X3959088Y16190559D01*
X3971550Y16149477D01*
X3976000Y16104296D01*
X3976000Y15495704D01*
X3971550Y15450523D01*
X3959088Y15409441D01*
X3938848Y15371576D01*
X3911612Y15338388D01*
X3878424Y15311152D01*
X3840559Y15290912D01*
X3799477Y15278450D01*
X3754296Y15274000D01*
X3220704Y15274000D01*
X3175523Y15278450D01*
X3134441Y15290912D01*
X3096576Y15311152D01*
X3063388Y15338388D01*
X3036152Y15371576D01*
X3015912Y15409441D01*
X3003450Y15450523D01*
X2999000Y15495704D01*
X2999000Y16104296D01*
X3003450Y16149477D01*
X3015912Y16190559D01*
X3036152Y16228424D01*
X3063388Y16261612D01*
X3096576Y16288848D01*
X3134441Y16309088D01*
X3175523Y16321550D01*
X3220704Y16326000D01*
X3754296Y16326000D01*
X3799477Y16321550D01*
G37*
G36*
X2224477Y16321550D02*
G01*
X2265559Y16309088D01*
X2303424Y16288848D01*
X2336612Y16261612D01*
X2363848Y16228424D01*
X2384088Y16190559D01*
X2396550Y16149477D01*
X2401000Y16104296D01*
X2401000Y15495704D01*
X2396550Y15450523D01*
X2384088Y15409441D01*
X2363848Y15371576D01*
X2336612Y15338388D01*
X2303424Y15311152D01*
X2265559Y15290912D01*
X2224477Y15278450D01*
X2179296Y15274000D01*
X1645704Y15274000D01*
X1600523Y15278450D01*
X1559441Y15290912D01*
X1521576Y15311152D01*
X1488388Y15338388D01*
X1461152Y15371576D01*
X1440912Y15409441D01*
X1428450Y15450523D01*
X1424000Y15495704D01*
X1424000Y16104296D01*
X1428450Y16149477D01*
X1440912Y16190559D01*
X1461152Y16228424D01*
X1488388Y16261612D01*
X1521576Y16288848D01*
X1559441Y16309088D01*
X1600523Y16321550D01*
X1645704Y16326000D01*
X2179296Y16326000D01*
X2224477Y16321550D01*
G37*
G36*
X24639600Y15458600D02*
G01*
X23337600Y15458600D01*
X23337600Y16460600D01*
X24639600Y16460600D01*
X24639600Y15458600D01*
G37*
G36*
X27845477Y16507550D02*
G01*
X27886559Y16495088D01*
X27924424Y16474848D01*
X27957612Y16447612D01*
X27984848Y16414424D01*
X28005088Y16376559D01*
X28017550Y16335477D01*
X28022000Y16290296D01*
X28022000Y15681704D01*
X28017550Y15636523D01*
X28005088Y15595441D01*
X27984848Y15557576D01*
X27957612Y15524388D01*
X27924424Y15497152D01*
X27886559Y15476912D01*
X27845477Y15464450D01*
X27800296Y15460000D01*
X27266704Y15460000D01*
X27221523Y15464450D01*
X27180441Y15476912D01*
X27142576Y15497152D01*
X27109388Y15524388D01*
X27082152Y15557576D01*
X27061912Y15595441D01*
X27049450Y15636523D01*
X27045000Y15681704D01*
X27045000Y16290296D01*
X27049450Y16335477D01*
X27061912Y16376559D01*
X27082152Y16414424D01*
X27109388Y16447612D01*
X27142576Y16474848D01*
X27180441Y16495088D01*
X27221523Y16507550D01*
X27266704Y16512000D01*
X27800296Y16512000D01*
X27845477Y16507550D01*
G37*
G36*
X26270477Y16507550D02*
G01*
X26311559Y16495088D01*
X26349424Y16474848D01*
X26382612Y16447612D01*
X26409848Y16414424D01*
X26430088Y16376559D01*
X26442550Y16335477D01*
X26447000Y16290296D01*
X26447000Y15681704D01*
X26442550Y15636523D01*
X26430088Y15595441D01*
X26409848Y15557576D01*
X26382612Y15524388D01*
X26349424Y15497152D01*
X26311559Y15476912D01*
X26270477Y15464450D01*
X26225296Y15460000D01*
X25691704Y15460000D01*
X25646523Y15464450D01*
X25605441Y15476912D01*
X25567576Y15497152D01*
X25534388Y15524388D01*
X25507152Y15557576D01*
X25486912Y15595441D01*
X25474450Y15636523D01*
X25470000Y15681704D01*
X25470000Y16290296D01*
X25474450Y16335477D01*
X25486912Y16376559D01*
X25507152Y16414424D01*
X25534388Y16447612D01*
X25567576Y16474848D01*
X25605441Y16495088D01*
X25646523Y16507550D01*
X25691704Y16512000D01*
X26225296Y16512000D01*
X26270477Y16507550D01*
G37*
G36*
X4838765Y18271179D02*
G01*
X4975257Y18214642D01*
X5098096Y18132564D01*
X5202564Y18028096D01*
X5284642Y17905257D01*
X5341179Y17768765D01*
X5370000Y17623870D01*
X5370000Y17476130D01*
X5341179Y17331235D01*
X5284642Y17194743D01*
X5202564Y17071904D01*
X5098096Y16967436D01*
X4975257Y16885358D01*
X4838765Y16828821D01*
X4693870Y16800000D01*
X4546130Y16800000D01*
X4401235Y16828821D01*
X4264743Y16885358D01*
X4141904Y16967436D01*
X4037436Y17071904D01*
X3955358Y17194743D01*
X3898821Y17331235D01*
X3870000Y17476130D01*
X3870000Y17623870D01*
X3898821Y17768765D01*
X3955358Y17905257D01*
X4037436Y18028096D01*
X4141904Y18132564D01*
X4264743Y18214642D01*
X4401235Y18271179D01*
X4546130Y18300000D01*
X4693870Y18300000D01*
X4838765Y18271179D01*
G37*
G36*
X58655477Y18479550D02*
G01*
X58696559Y18467088D01*
X58734424Y18446848D01*
X58767612Y18419612D01*
X58794848Y18386424D01*
X58815088Y18348559D01*
X58827550Y18307477D01*
X58832000Y18262296D01*
X58832000Y17653704D01*
X58827550Y17608523D01*
X58815088Y17567441D01*
X58794848Y17529576D01*
X58767612Y17496388D01*
X58734424Y17469152D01*
X58696559Y17448912D01*
X58655477Y17436450D01*
X58610296Y17432000D01*
X58076704Y17432000D01*
X58031523Y17436450D01*
X57990441Y17448912D01*
X57952576Y17469152D01*
X57919388Y17496388D01*
X57892152Y17529576D01*
X57871912Y17567441D01*
X57859450Y17608523D01*
X57855000Y17653704D01*
X57855000Y18262296D01*
X57859450Y18307477D01*
X57871912Y18348559D01*
X57892152Y18386424D01*
X57919388Y18419612D01*
X57952576Y18446848D01*
X57990441Y18467088D01*
X58031523Y18479550D01*
X58076704Y18484000D01*
X58610296Y18484000D01*
X58655477Y18479550D01*
G37*
G36*
X60230477Y18479550D02*
G01*
X60271559Y18467088D01*
X60309424Y18446848D01*
X60342612Y18419612D01*
X60369848Y18386424D01*
X60390088Y18348559D01*
X60402550Y18307477D01*
X60407000Y18262296D01*
X60407000Y17653704D01*
X60402550Y17608523D01*
X60390088Y17567441D01*
X60369848Y17529576D01*
X60342612Y17496388D01*
X60309424Y17469152D01*
X60271559Y17448912D01*
X60230477Y17436450D01*
X60185296Y17432000D01*
X59651704Y17432000D01*
X59606523Y17436450D01*
X59565441Y17448912D01*
X59527576Y17469152D01*
X59494388Y17496388D01*
X59467152Y17529576D01*
X59446912Y17567441D01*
X59434450Y17608523D01*
X59430000Y17653704D01*
X59430000Y18262296D01*
X59434450Y18307477D01*
X59446912Y18348559D01*
X59467152Y18386424D01*
X59494388Y18419612D01*
X59527576Y18446848D01*
X59565441Y18467088D01*
X59606523Y18479550D01*
X59651704Y18484000D01*
X60185296Y18484000D01*
X60230477Y18479550D01*
G37*
G36*
X24870426Y20896687D02*
G01*
X25022812Y20866376D01*
X25186784Y20798456D01*
X25334354Y20699853D01*
X25459853Y20574354D01*
X25558456Y20426784D01*
X25626376Y20262812D01*
X25661000Y20088741D01*
X25661000Y19911259D01*
X25626376Y19737188D01*
X25558456Y19573216D01*
X25459853Y19425646D01*
X25334354Y19300147D01*
X25186784Y19201544D01*
X25022812Y19133624D01*
X24870426Y19103313D01*
X24848742Y19099000D01*
X24671258Y19099000D01*
X24649574Y19103313D01*
X24497188Y19133624D01*
X24333216Y19201544D01*
X24185646Y19300147D01*
X24060147Y19425646D01*
X23961544Y19573216D01*
X23893624Y19737188D01*
X23859000Y19911259D01*
X23859000Y20088741D01*
X23893624Y20262812D01*
X23961544Y20426784D01*
X24060147Y20574354D01*
X24185646Y20699853D01*
X24333216Y20798456D01*
X24497188Y20866376D01*
X24649574Y20896687D01*
X24671258Y20901000D01*
X24848742Y20901000D01*
X24870426Y20896687D01*
G37*
G36*
X27410426Y20896687D02*
G01*
X27562812Y20866376D01*
X27726784Y20798456D01*
X27874354Y20699853D01*
X27999853Y20574354D01*
X28098456Y20426784D01*
X28166376Y20262812D01*
X28201000Y20088741D01*
X28201000Y19911259D01*
X28166376Y19737188D01*
X28098456Y19573216D01*
X27999853Y19425646D01*
X27874354Y19300147D01*
X27726784Y19201544D01*
X27562812Y19133624D01*
X27410426Y19103313D01*
X27388742Y19099000D01*
X27211258Y19099000D01*
X27189574Y19103313D01*
X27037188Y19133624D01*
X26873216Y19201544D01*
X26725646Y19300147D01*
X26600147Y19425646D01*
X26501544Y19573216D01*
X26433624Y19737188D01*
X26399000Y19911259D01*
X26399000Y20088741D01*
X26433624Y20262812D01*
X26501544Y20426784D01*
X26600147Y20574354D01*
X26725646Y20699853D01*
X26873216Y20798456D01*
X27037188Y20866376D01*
X27189574Y20896687D01*
X27211258Y20901000D01*
X27388742Y20901000D01*
X27410426Y20896687D01*
G37*
G36*
X29950426Y20896687D02*
G01*
X30102812Y20866376D01*
X30266784Y20798456D01*
X30414354Y20699853D01*
X30539853Y20574354D01*
X30638456Y20426784D01*
X30706376Y20262812D01*
X30741000Y20088741D01*
X30741000Y19911259D01*
X30706376Y19737188D01*
X30638456Y19573216D01*
X30539853Y19425646D01*
X30414354Y19300147D01*
X30266784Y19201544D01*
X30102812Y19133624D01*
X29950426Y19103313D01*
X29928742Y19099000D01*
X29751258Y19099000D01*
X29729574Y19103313D01*
X29577188Y19133624D01*
X29413216Y19201544D01*
X29265646Y19300147D01*
X29140147Y19425646D01*
X29041544Y19573216D01*
X28973624Y19737188D01*
X28939000Y19911259D01*
X28939000Y20088741D01*
X28973624Y20262812D01*
X29041544Y20426784D01*
X29140147Y20574354D01*
X29265646Y20699853D01*
X29413216Y20798456D01*
X29577188Y20866376D01*
X29729574Y20896687D01*
X29751258Y20901000D01*
X29928742Y20901000D01*
X29950426Y20896687D01*
G37*
G36*
X2010426Y20896687D02*
G01*
X2162812Y20866376D01*
X2326784Y20798456D01*
X2474354Y20699853D01*
X2599853Y20574354D01*
X2698456Y20426784D01*
X2766376Y20262812D01*
X2801000Y20088741D01*
X2801000Y19911259D01*
X2766376Y19737188D01*
X2698456Y19573216D01*
X2599853Y19425646D01*
X2474354Y19300147D01*
X2326784Y19201544D01*
X2162812Y19133624D01*
X2010426Y19103313D01*
X1988742Y19099000D01*
X1811258Y19099000D01*
X1789574Y19103313D01*
X1637188Y19133624D01*
X1473216Y19201544D01*
X1325646Y19300147D01*
X1200147Y19425646D01*
X1101544Y19573216D01*
X1033624Y19737188D01*
X999000Y19911259D01*
X999000Y20088741D01*
X1033624Y20262812D01*
X1101544Y20426784D01*
X1200147Y20574354D01*
X1325646Y20699853D01*
X1473216Y20798456D01*
X1637188Y20866376D01*
X1789574Y20896687D01*
X1811258Y20901000D01*
X1988742Y20901000D01*
X2010426Y20896687D01*
G37*
G36*
X4550426Y20896687D02*
G01*
X4702812Y20866376D01*
X4866784Y20798456D01*
X5014354Y20699853D01*
X5139853Y20574354D01*
X5238456Y20426784D01*
X5306376Y20262812D01*
X5341000Y20088741D01*
X5341000Y19911259D01*
X5306376Y19737188D01*
X5238456Y19573216D01*
X5139853Y19425646D01*
X5014354Y19300147D01*
X4866784Y19201544D01*
X4702812Y19133624D01*
X4550426Y19103313D01*
X4528742Y19099000D01*
X4351258Y19099000D01*
X4329574Y19103313D01*
X4177188Y19133624D01*
X4013216Y19201544D01*
X3865646Y19300147D01*
X3740147Y19425646D01*
X3641544Y19573216D01*
X3573624Y19737188D01*
X3539000Y19911259D01*
X3539000Y20088741D01*
X3573624Y20262812D01*
X3641544Y20426784D01*
X3740147Y20574354D01*
X3865646Y20699853D01*
X4013216Y20798456D01*
X4177188Y20866376D01*
X4329574Y20896687D01*
X4351258Y20901000D01*
X4528742Y20901000D01*
X4550426Y20896687D01*
G37*
G36*
X7090426Y20896687D02*
G01*
X7242812Y20866376D01*
X7406784Y20798456D01*
X7554354Y20699853D01*
X7679853Y20574354D01*
X7778456Y20426784D01*
X7846376Y20262812D01*
X7881000Y20088741D01*
X7881000Y19911259D01*
X7846376Y19737188D01*
X7778456Y19573216D01*
X7679853Y19425646D01*
X7554354Y19300147D01*
X7406784Y19201544D01*
X7242812Y19133624D01*
X7090426Y19103313D01*
X7068742Y19099000D01*
X6891258Y19099000D01*
X6869574Y19103313D01*
X6717188Y19133624D01*
X6553216Y19201544D01*
X6405646Y19300147D01*
X6280147Y19425646D01*
X6181544Y19573216D01*
X6113624Y19737188D01*
X6079000Y19911259D01*
X6079000Y20088741D01*
X6113624Y20262812D01*
X6181544Y20426784D01*
X6280147Y20574354D01*
X6405646Y20699853D01*
X6553216Y20798456D01*
X6717188Y20866376D01*
X6869574Y20896687D01*
X6891258Y20901000D01*
X7068742Y20901000D01*
X7090426Y20896687D01*
G37*
G36*
X9630426Y20896687D02*
G01*
X9782812Y20866376D01*
X9946784Y20798456D01*
X10094354Y20699853D01*
X10219853Y20574354D01*
X10318456Y20426784D01*
X10386376Y20262812D01*
X10421000Y20088741D01*
X10421000Y19911259D01*
X10386376Y19737188D01*
X10318456Y19573216D01*
X10219853Y19425646D01*
X10094354Y19300147D01*
X9946784Y19201544D01*
X9782812Y19133624D01*
X9630426Y19103313D01*
X9608742Y19099000D01*
X9431258Y19099000D01*
X9409574Y19103313D01*
X9257188Y19133624D01*
X9093216Y19201544D01*
X8945646Y19300147D01*
X8820147Y19425646D01*
X8721544Y19573216D01*
X8653624Y19737188D01*
X8619000Y19911259D01*
X8619000Y20088741D01*
X8653624Y20262812D01*
X8721544Y20426784D01*
X8820147Y20574354D01*
X8945646Y20699853D01*
X9093216Y20798456D01*
X9257188Y20866376D01*
X9409574Y20896687D01*
X9431258Y20901000D01*
X9608742Y20901000D01*
X9630426Y20896687D01*
G37*
G36*
X12170426Y20896687D02*
G01*
X12322812Y20866376D01*
X12486784Y20798456D01*
X12634354Y20699853D01*
X12759853Y20574354D01*
X12858456Y20426784D01*
X12926376Y20262812D01*
X12961000Y20088741D01*
X12961000Y19911259D01*
X12926376Y19737188D01*
X12858456Y19573216D01*
X12759853Y19425646D01*
X12634354Y19300147D01*
X12486784Y19201544D01*
X12322812Y19133624D01*
X12170426Y19103313D01*
X12148742Y19099000D01*
X11971258Y19099000D01*
X11949574Y19103313D01*
X11797188Y19133624D01*
X11633216Y19201544D01*
X11485646Y19300147D01*
X11360147Y19425646D01*
X11261544Y19573216D01*
X11193624Y19737188D01*
X11159000Y19911259D01*
X11159000Y20088741D01*
X11193624Y20262812D01*
X11261544Y20426784D01*
X11360147Y20574354D01*
X11485646Y20699853D01*
X11633216Y20798456D01*
X11797188Y20866376D01*
X11949574Y20896687D01*
X11971258Y20901000D01*
X12148742Y20901000D01*
X12170426Y20896687D01*
G37*
G36*
X14710426Y20896687D02*
G01*
X14862812Y20866376D01*
X15026784Y20798456D01*
X15174354Y20699853D01*
X15299853Y20574354D01*
X15398456Y20426784D01*
X15466376Y20262812D01*
X15501000Y20088741D01*
X15501000Y19911259D01*
X15466376Y19737188D01*
X15398456Y19573216D01*
X15299853Y19425646D01*
X15174354Y19300147D01*
X15026784Y19201544D01*
X14862812Y19133624D01*
X14710426Y19103313D01*
X14688742Y19099000D01*
X14511258Y19099000D01*
X14489574Y19103313D01*
X14337188Y19133624D01*
X14173216Y19201544D01*
X14025646Y19300147D01*
X13900147Y19425646D01*
X13801544Y19573216D01*
X13733624Y19737188D01*
X13699000Y19911259D01*
X13699000Y20088741D01*
X13733624Y20262812D01*
X13801544Y20426784D01*
X13900147Y20574354D01*
X14025646Y20699853D01*
X14173216Y20798456D01*
X14337188Y20866376D01*
X14489574Y20896687D01*
X14511258Y20901000D01*
X14688742Y20901000D01*
X14710426Y20896687D01*
G37*
G36*
X17250426Y20896687D02*
G01*
X17402812Y20866376D01*
X17566784Y20798456D01*
X17714354Y20699853D01*
X17839853Y20574354D01*
X17938456Y20426784D01*
X18006376Y20262812D01*
X18041000Y20088741D01*
X18041000Y19911259D01*
X18006376Y19737188D01*
X17938456Y19573216D01*
X17839853Y19425646D01*
X17714354Y19300147D01*
X17566784Y19201544D01*
X17402812Y19133624D01*
X17250426Y19103313D01*
X17228742Y19099000D01*
X17051258Y19099000D01*
X17029574Y19103313D01*
X16877188Y19133624D01*
X16713216Y19201544D01*
X16565646Y19300147D01*
X16440147Y19425646D01*
X16341544Y19573216D01*
X16273624Y19737188D01*
X16239000Y19911259D01*
X16239000Y20088741D01*
X16273624Y20262812D01*
X16341544Y20426784D01*
X16440147Y20574354D01*
X16565646Y20699853D01*
X16713216Y20798456D01*
X16877188Y20866376D01*
X17029574Y20896687D01*
X17051258Y20901000D01*
X17228742Y20901000D01*
X17250426Y20896687D01*
G37*
G36*
X19790426Y20896687D02*
G01*
X19942812Y20866376D01*
X20106784Y20798456D01*
X20254354Y20699853D01*
X20379853Y20574354D01*
X20478456Y20426784D01*
X20546376Y20262812D01*
X20581000Y20088741D01*
X20581000Y19911259D01*
X20546376Y19737188D01*
X20478456Y19573216D01*
X20379853Y19425646D01*
X20254354Y19300147D01*
X20106784Y19201544D01*
X19942812Y19133624D01*
X19790426Y19103313D01*
X19768742Y19099000D01*
X19591258Y19099000D01*
X19569574Y19103313D01*
X19417188Y19133624D01*
X19253216Y19201544D01*
X19105646Y19300147D01*
X18980147Y19425646D01*
X18881544Y19573216D01*
X18813624Y19737188D01*
X18779000Y19911259D01*
X18779000Y20088741D01*
X18813624Y20262812D01*
X18881544Y20426784D01*
X18980147Y20574354D01*
X19105646Y20699853D01*
X19253216Y20798456D01*
X19417188Y20866376D01*
X19569574Y20896687D01*
X19591258Y20901000D01*
X19768742Y20901000D01*
X19790426Y20896687D01*
G37*
G36*
X22330426Y20896687D02*
G01*
X22482812Y20866376D01*
X22646784Y20798456D01*
X22794354Y20699853D01*
X22919853Y20574354D01*
X23018456Y20426784D01*
X23086376Y20262812D01*
X23121000Y20088741D01*
X23121000Y19911259D01*
X23086376Y19737188D01*
X23018456Y19573216D01*
X22919853Y19425646D01*
X22794354Y19300147D01*
X22646784Y19201544D01*
X22482812Y19133624D01*
X22330426Y19103313D01*
X22308742Y19099000D01*
X22131258Y19099000D01*
X22109574Y19103313D01*
X21957188Y19133624D01*
X21793216Y19201544D01*
X21645646Y19300147D01*
X21520147Y19425646D01*
X21421544Y19573216D01*
X21353624Y19737188D01*
X21319000Y19911259D01*
X21319000Y20088741D01*
X21353624Y20262812D01*
X21421544Y20426784D01*
X21520147Y20574354D01*
X21645646Y20699853D01*
X21793216Y20798456D01*
X21957188Y20866376D01*
X22109574Y20896687D01*
X22131258Y20901000D01*
X22308742Y20901000D01*
X22330426Y20896687D01*
G37*
G36*
X61221000Y19099000D02*
G01*
X59419000Y19099000D01*
X59419000Y20901000D01*
X61221000Y20901000D01*
X61221000Y19099000D01*
G37*
G36*
X57890426Y20896687D02*
G01*
X58042812Y20866376D01*
X58206784Y20798456D01*
X58354354Y20699853D01*
X58479853Y20574354D01*
X58578456Y20426784D01*
X58646376Y20262812D01*
X58681000Y20088741D01*
X58681000Y19911259D01*
X58646376Y19737188D01*
X58578456Y19573216D01*
X58479853Y19425646D01*
X58354354Y19300147D01*
X58206784Y19201544D01*
X58042812Y19133624D01*
X57890426Y19103313D01*
X57868742Y19099000D01*
X57691258Y19099000D01*
X57669574Y19103313D01*
X57517188Y19133624D01*
X57353216Y19201544D01*
X57205646Y19300147D01*
X57080147Y19425646D01*
X56981544Y19573216D01*
X56913624Y19737188D01*
X56879000Y19911259D01*
X56879000Y20088741D01*
X56913624Y20262812D01*
X56981544Y20426784D01*
X57080147Y20574354D01*
X57205646Y20699853D01*
X57353216Y20798456D01*
X57517188Y20866376D01*
X57669574Y20896687D01*
X57691258Y20901000D01*
X57868742Y20901000D01*
X57890426Y20896687D01*
G37*
G36*
X52810426Y20896687D02*
G01*
X52962812Y20866376D01*
X53126784Y20798456D01*
X53274354Y20699853D01*
X53399853Y20574354D01*
X53498456Y20426784D01*
X53566376Y20262812D01*
X53601000Y20088741D01*
X53601000Y19911259D01*
X53566376Y19737188D01*
X53498456Y19573216D01*
X53399853Y19425646D01*
X53274354Y19300147D01*
X53126784Y19201544D01*
X52962812Y19133624D01*
X52810426Y19103313D01*
X52788742Y19099000D01*
X52611258Y19099000D01*
X52589574Y19103313D01*
X52437188Y19133624D01*
X52273216Y19201544D01*
X52125646Y19300147D01*
X52000147Y19425646D01*
X51901544Y19573216D01*
X51833624Y19737188D01*
X51799000Y19911259D01*
X51799000Y20088741D01*
X51833624Y20262812D01*
X51901544Y20426784D01*
X52000147Y20574354D01*
X52125646Y20699853D01*
X52273216Y20798456D01*
X52437188Y20866376D01*
X52589574Y20896687D01*
X52611258Y20901000D01*
X52788742Y20901000D01*
X52810426Y20896687D01*
G37*
G36*
X50270426Y20896687D02*
G01*
X50422812Y20866376D01*
X50586784Y20798456D01*
X50734354Y20699853D01*
X50859853Y20574354D01*
X50958456Y20426784D01*
X51026376Y20262812D01*
X51061000Y20088741D01*
X51061000Y19911259D01*
X51026376Y19737188D01*
X50958456Y19573216D01*
X50859853Y19425646D01*
X50734354Y19300147D01*
X50586784Y19201544D01*
X50422812Y19133624D01*
X50270426Y19103313D01*
X50248742Y19099000D01*
X50071258Y19099000D01*
X50049574Y19103313D01*
X49897188Y19133624D01*
X49733216Y19201544D01*
X49585646Y19300147D01*
X49460147Y19425646D01*
X49361544Y19573216D01*
X49293624Y19737188D01*
X49259000Y19911259D01*
X49259000Y20088741D01*
X49293624Y20262812D01*
X49361544Y20426784D01*
X49460147Y20574354D01*
X49585646Y20699853D01*
X49733216Y20798456D01*
X49897188Y20866376D01*
X50049574Y20896687D01*
X50071258Y20901000D01*
X50248742Y20901000D01*
X50270426Y20896687D01*
G37*
G36*
X47730426Y20896687D02*
G01*
X47882812Y20866376D01*
X48046784Y20798456D01*
X48194354Y20699853D01*
X48319853Y20574354D01*
X48418456Y20426784D01*
X48486376Y20262812D01*
X48521000Y20088741D01*
X48521000Y19911259D01*
X48486376Y19737188D01*
X48418456Y19573216D01*
X48319853Y19425646D01*
X48194354Y19300147D01*
X48046784Y19201544D01*
X47882812Y19133624D01*
X47730426Y19103313D01*
X47708742Y19099000D01*
X47531258Y19099000D01*
X47509574Y19103313D01*
X47357188Y19133624D01*
X47193216Y19201544D01*
X47045646Y19300147D01*
X46920147Y19425646D01*
X46821544Y19573216D01*
X46753624Y19737188D01*
X46719000Y19911259D01*
X46719000Y20088741D01*
X46753624Y20262812D01*
X46821544Y20426784D01*
X46920147Y20574354D01*
X47045646Y20699853D01*
X47193216Y20798456D01*
X47357188Y20866376D01*
X47509574Y20896687D01*
X47531258Y20901000D01*
X47708742Y20901000D01*
X47730426Y20896687D01*
G37*
G36*
X45190426Y20896687D02*
G01*
X45342812Y20866376D01*
X45506784Y20798456D01*
X45654354Y20699853D01*
X45779853Y20574354D01*
X45878456Y20426784D01*
X45946376Y20262812D01*
X45981000Y20088741D01*
X45981000Y19911259D01*
X45946376Y19737188D01*
X45878456Y19573216D01*
X45779853Y19425646D01*
X45654354Y19300147D01*
X45506784Y19201544D01*
X45342812Y19133624D01*
X45190426Y19103313D01*
X45168742Y19099000D01*
X44991258Y19099000D01*
X44969574Y19103313D01*
X44817188Y19133624D01*
X44653216Y19201544D01*
X44505646Y19300147D01*
X44380147Y19425646D01*
X44281544Y19573216D01*
X44213624Y19737188D01*
X44179000Y19911259D01*
X44179000Y20088741D01*
X44213624Y20262812D01*
X44281544Y20426784D01*
X44380147Y20574354D01*
X44505646Y20699853D01*
X44653216Y20798456D01*
X44817188Y20866376D01*
X44969574Y20896687D01*
X44991258Y20901000D01*
X45168742Y20901000D01*
X45190426Y20896687D01*
G37*
G36*
X42650426Y20896687D02*
G01*
X42802812Y20866376D01*
X42966784Y20798456D01*
X43114354Y20699853D01*
X43239853Y20574354D01*
X43338456Y20426784D01*
X43406376Y20262812D01*
X43441000Y20088741D01*
X43441000Y19911259D01*
X43406376Y19737188D01*
X43338456Y19573216D01*
X43239853Y19425646D01*
X43114354Y19300147D01*
X42966784Y19201544D01*
X42802812Y19133624D01*
X42650426Y19103313D01*
X42628742Y19099000D01*
X42451258Y19099000D01*
X42429574Y19103313D01*
X42277188Y19133624D01*
X42113216Y19201544D01*
X41965646Y19300147D01*
X41840147Y19425646D01*
X41741544Y19573216D01*
X41673624Y19737188D01*
X41639000Y19911259D01*
X41639000Y20088741D01*
X41673624Y20262812D01*
X41741544Y20426784D01*
X41840147Y20574354D01*
X41965646Y20699853D01*
X42113216Y20798456D01*
X42277188Y20866376D01*
X42429574Y20896687D01*
X42451258Y20901000D01*
X42628742Y20901000D01*
X42650426Y20896687D01*
G37*
G36*
X55350426Y20896687D02*
G01*
X55502812Y20866376D01*
X55666784Y20798456D01*
X55814354Y20699853D01*
X55939853Y20574354D01*
X56038456Y20426784D01*
X56106376Y20262812D01*
X56141000Y20088741D01*
X56141000Y19911259D01*
X56106376Y19737188D01*
X56038456Y19573216D01*
X55939853Y19425646D01*
X55814354Y19300147D01*
X55666784Y19201544D01*
X55502812Y19133624D01*
X55350426Y19103313D01*
X55328742Y19099000D01*
X55151258Y19099000D01*
X55129574Y19103313D01*
X54977188Y19133624D01*
X54813216Y19201544D01*
X54665646Y19300147D01*
X54540147Y19425646D01*
X54441544Y19573216D01*
X54373624Y19737188D01*
X54339000Y19911259D01*
X54339000Y20088741D01*
X54373624Y20262812D01*
X54441544Y20426784D01*
X54540147Y20574354D01*
X54665646Y20699853D01*
X54813216Y20798456D01*
X54977188Y20866376D01*
X55129574Y20896687D01*
X55151258Y20901000D01*
X55328742Y20901000D01*
X55350426Y20896687D01*
G37*
G36*
X40110426Y20896687D02*
G01*
X40262812Y20866376D01*
X40426784Y20798456D01*
X40574354Y20699853D01*
X40699853Y20574354D01*
X40798456Y20426784D01*
X40866376Y20262812D01*
X40901000Y20088741D01*
X40901000Y19911259D01*
X40866376Y19737188D01*
X40798456Y19573216D01*
X40699853Y19425646D01*
X40574354Y19300147D01*
X40426784Y19201544D01*
X40262812Y19133624D01*
X40110426Y19103313D01*
X40088742Y19099000D01*
X39911258Y19099000D01*
X39889574Y19103313D01*
X39737188Y19133624D01*
X39573216Y19201544D01*
X39425646Y19300147D01*
X39300147Y19425646D01*
X39201544Y19573216D01*
X39133624Y19737188D01*
X39099000Y19911259D01*
X39099000Y20088741D01*
X39133624Y20262812D01*
X39201544Y20426784D01*
X39300147Y20574354D01*
X39425646Y20699853D01*
X39573216Y20798456D01*
X39737188Y20866376D01*
X39889574Y20896687D01*
X39911258Y20901000D01*
X40088742Y20901000D01*
X40110426Y20896687D01*
G37*
G36*
X37570426Y20896687D02*
G01*
X37722812Y20866376D01*
X37886784Y20798456D01*
X38034354Y20699853D01*
X38159853Y20574354D01*
X38258456Y20426784D01*
X38326376Y20262812D01*
X38361000Y20088741D01*
X38361000Y19911259D01*
X38326376Y19737188D01*
X38258456Y19573216D01*
X38159853Y19425646D01*
X38034354Y19300147D01*
X37886784Y19201544D01*
X37722812Y19133624D01*
X37570426Y19103313D01*
X37548742Y19099000D01*
X37371258Y19099000D01*
X37349574Y19103313D01*
X37197188Y19133624D01*
X37033216Y19201544D01*
X36885646Y19300147D01*
X36760147Y19425646D01*
X36661544Y19573216D01*
X36593624Y19737188D01*
X36559000Y19911259D01*
X36559000Y20088741D01*
X36593624Y20262812D01*
X36661544Y20426784D01*
X36760147Y20574354D01*
X36885646Y20699853D01*
X37033216Y20798456D01*
X37197188Y20866376D01*
X37349574Y20896687D01*
X37371258Y20901000D01*
X37548742Y20901000D01*
X37570426Y20896687D01*
G37*
G36*
X32490426Y20896687D02*
G01*
X32642812Y20866376D01*
X32806784Y20798456D01*
X32954354Y20699853D01*
X33079853Y20574354D01*
X33178456Y20426784D01*
X33246376Y20262812D01*
X33281000Y20088741D01*
X33281000Y19911259D01*
X33246376Y19737188D01*
X33178456Y19573216D01*
X33079853Y19425646D01*
X32954354Y19300147D01*
X32806784Y19201544D01*
X32642812Y19133624D01*
X32490426Y19103313D01*
X32468742Y19099000D01*
X32291258Y19099000D01*
X32269574Y19103313D01*
X32117188Y19133624D01*
X31953216Y19201544D01*
X31805646Y19300147D01*
X31680147Y19425646D01*
X31581544Y19573216D01*
X31513624Y19737188D01*
X31479000Y19911259D01*
X31479000Y20088741D01*
X31513624Y20262812D01*
X31581544Y20426784D01*
X31680147Y20574354D01*
X31805646Y20699853D01*
X31953216Y20798456D01*
X32117188Y20866376D01*
X32269574Y20896687D01*
X32291258Y20901000D01*
X32468742Y20901000D01*
X32490426Y20896687D01*
G37*
G36*
X35030426Y20896687D02*
G01*
X35182812Y20866376D01*
X35346784Y20798456D01*
X35494354Y20699853D01*
X35619853Y20574354D01*
X35718456Y20426784D01*
X35786376Y20262812D01*
X35821000Y20088741D01*
X35821000Y19911259D01*
X35786376Y19737188D01*
X35718456Y19573216D01*
X35619853Y19425646D01*
X35494354Y19300147D01*
X35346784Y19201544D01*
X35182812Y19133624D01*
X35030426Y19103313D01*
X35008742Y19099000D01*
X34831258Y19099000D01*
X34809574Y19103313D01*
X34657188Y19133624D01*
X34493216Y19201544D01*
X34345646Y19300147D01*
X34220147Y19425646D01*
X34121544Y19573216D01*
X34053624Y19737188D01*
X34019000Y19911259D01*
X34019000Y20088741D01*
X34053624Y20262812D01*
X34121544Y20426784D01*
X34220147Y20574354D01*
X34345646Y20699853D01*
X34493216Y20798456D01*
X34657188Y20866376D01*
X34809574Y20896687D01*
X34831258Y20901000D01*
X35008742Y20901000D01*
X35030426Y20896687D01*
G37*
M02*
