M48
; DRILL file {KiCad (5.1.5)-3} date 3/25/2020 11:39:59 AM
; FORMAT={-:-/ absolute / inch / decimal}
; #@! TF.CreationDate,2020-03-25T11:39:59-07:00
; #@! TF.GenerationSoftware,Kicad,Pcbnew,(5.1.5)-3
; #@! TF.FileFunction,Plated,1,4,PTH
FMAT,2
INCH
T1C0.0118
T2C0.0157
T3C0.0236
T4C0.0256
T5C0.0394
%
G90
G05
T1
X0.318Y0.5624
X0.3406Y0.6521
X0.358Y0.7045
X0.373Y0.332
X0.3996Y0.5343
X0.44Y0.2786
X0.4571Y0.2221
X0.5096Y0.5388
X0.5155Y0.5045
X0.5551Y0.6732
X0.58Y0.2775
X0.6033Y0.6968
X0.6481Y0.6437
X0.6594Y0.7047
X0.6775Y0.2598
X0.7244Y0.0433
X0.763Y0.6567
X0.7638Y0.2205
X0.8175Y0.2025
X0.8248Y0.0492
X0.8378Y0.3102
X0.845Y0.65
X0.845Y0.615
X0.8458Y0.2461
X0.8467Y0.6872
X0.8641Y0.5795
X0.8661Y0.2835
X0.8731Y0.2252
X0.89Y0.4215
X0.8916Y0.5208
X0.9258Y0.225
X0.9586Y0.174
X0.9622Y0.402
X0.9984Y0.402
X1.0472Y0.4646
X1.0472Y0.3307
X1.0807Y0.4547
X1.107Y0.5392
X1.113Y0.5689
X1.1148Y0.4443
X1.1216Y0.3579
X1.1693Y0.378
X1.1772Y0.5728
X1.1773Y0.2063
X1.2126Y0.374
X1.248Y0.417
X1.2573Y0.3363
X1.2619Y0.3826
X1.3156Y0.3834
X1.3209Y0.6516
X1.3252Y0.1382
X1.3386Y0.3543
X1.3563Y0.139
X1.3638Y0.4102
X1.3701Y0.3543
X1.4213Y0.3465
X1.439Y0.1602
X1.4464Y0.6192
X1.4842Y0.4685
X1.5059Y0.6083
X1.5276Y0.2047
X1.5669Y0.3287
X1.6752Y0.7283
X1.7044Y0.7066
X1.7165Y0.1535
X1.748Y0.6988
X1.7559Y0.1496
X1.7915Y0.693
X1.8178Y0.2194
X1.8366Y0.6831
X1.8558Y0.6417
X1.8996Y0.4567
X1.9469Y0.3878
X1.9724Y0.4094
X2.0231Y0.3057
X2.033Y0.577
X2.1142Y0.4173
X2.1161Y0.4626
X2.3209Y0.1496
X2.353Y0.167
T2
X0.0327Y0.6047
X0.038Y0.3595
X0.0547Y0.685
X0.0945Y0.4685
X0.1322Y0.6724
X0.318Y0.527
X0.363Y0.4145
X0.4366Y0.6858
X0.4827Y0.6898
X0.6257Y0.4747
X0.6257Y0.4334
X0.669Y0.4747
X0.669Y0.4334
X0.7143Y0.4747
X0.7143Y0.4373
X0.7143Y0.3999
X0.7194Y0.6631
X0.7427Y0.37
X0.7566Y0.185
X0.923Y0.697
X1.023Y0.6931
X1.1098Y0.6629
X1.1949Y0.2382
X1.2347Y0.3091
X1.2874Y0.4921
X1.3524Y0.2484
X1.4626Y0.25
X1.6299Y0.5709
X1.6299Y0.5157
X1.6299Y0.4114
X1.6319Y0.4646
X1.6593Y0.2964
X1.6831Y0.4134
X1.685Y0.5157
X1.685Y0.4646
X1.687Y0.5709
X1.7264Y0.4646
X1.7264Y0.4134
X1.7343Y0.5689
X1.7362Y0.5157
X1.7835Y0.5669
X1.7854Y0.5177
X1.8996Y0.4193
X1.9312Y0.2573
X1.933Y0.3295
X2.0177Y0.6201
X2.0551Y0.3543
T5
X0.1063Y0.3134
X0.1063Y0.2134
X0.0748Y0.0874
X0.1748Y0.0874
X0.2748Y0.0874
X0.3748Y0.0874
X0.4748Y0.0874
X0.5748Y0.0874
X0.6748Y0.0874
X0.7748Y0.0874
X0.8748Y0.0874
X0.9748Y0.0874
X1.0748Y0.0874
X1.1748Y0.0874
X1.2748Y0.0874
X1.3748Y0.0874
X1.4748Y0.0874
X1.5748Y0.0874
X1.6748Y0.0874
X1.7748Y0.0874
X1.8748Y0.0874
X1.9748Y0.0874
X2.0748Y0.0874
X2.1748Y0.0874
X2.2748Y0.0874
X2.3748Y0.0874
X0.0748Y0.7874
X0.1748Y0.7874
X0.2748Y0.7874
X0.3748Y0.7874
X0.4748Y0.7874
X0.5748Y0.7874
X0.6748Y0.7874
X0.7748Y0.7874
X0.8748Y0.7874
X0.9748Y0.7874
X1.0748Y0.7874
X1.1748Y0.7874
X1.2748Y0.7874
X1.3748Y0.7874
X1.4748Y0.7874
X1.5748Y0.7874
X1.6748Y0.7874
X1.7748Y0.7874
X1.8748Y0.7874
X1.9748Y0.7874
X2.0748Y0.7874
X2.1748Y0.7874
X2.2748Y0.7874
X2.3748Y0.7874
T3
G00X2.3278Y0.6018
M15
G01X2.3553Y0.6018
M16
G05
G00X2.3278Y0.273
M15
G01X2.3553Y0.273
M16
G05
T4
G00X2.2195Y0.525
M15
G01X2.2274Y0.525
M16
G05
G00X2.2195Y0.3498
M15
G01X2.2274Y0.3498
M16
G05
T0
M30
