G04 #@! TF.GenerationSoftware,KiCad,Pcbnew,(5.1.5)-3*
G04 #@! TF.CreationDate,2020-03-25T11:39:43-07:00*
G04 #@! TF.ProjectId,UPduino_v3.0,55506475-696e-46f5-9f76-332e302e6b69,3.0*
G04 #@! TF.SameCoordinates,PX5f5e100PY5f5e100*
G04 #@! TF.FileFunction,Legend,Top*
G04 #@! TF.FilePolarity,Positive*
%FSLAX46Y46*%
G04 Gerber Fmt 4.6, Leading zero omitted, Abs format (unit mm)*
G04 Created by KiCad (PCBNEW (5.1.5)-3) date 2020-03-25 11:39:43*
%MOMM*%
%LPD*%
G04 APERTURE LIST*
%ADD10C,0.050000*%
%ADD11C,0.150000*%
%ADD12C,0.127000*%
%ADD13C,0.120000*%
%ADD14C,0.010000*%
%ADD15C,0.100000*%
G04 APERTURE END LIST*
D10*
X0Y21520000D02*
G75*
G02X700000Y22220000I700000J0D01*
G01*
X61300000Y22220000D02*
G75*
G02X62000000Y21520000I0J-700000D01*
G01*
X62000000Y700000D02*
G75*
G02X61300000Y0I-700000J0D01*
G01*
X700000Y0D02*
G75*
G02X0Y700000I0J700000D01*
G01*
D11*
X53572904Y10090477D02*
X54220523Y10090477D01*
X54296714Y10128572D01*
X54334809Y10166667D01*
X54372904Y10242858D01*
X54372904Y10395239D01*
X54334809Y10471429D01*
X54296714Y10509524D01*
X54220523Y10547620D01*
X53572904Y10547620D01*
X54334809Y10890477D02*
X54372904Y11004762D01*
X54372904Y11195239D01*
X54334809Y11271429D01*
X54296714Y11309524D01*
X54220523Y11347620D01*
X54144333Y11347620D01*
X54068142Y11309524D01*
X54030047Y11271429D01*
X53991952Y11195239D01*
X53953857Y11042858D01*
X53915761Y10966667D01*
X53877666Y10928572D01*
X53801476Y10890477D01*
X53725285Y10890477D01*
X53649095Y10928572D01*
X53611000Y10966667D01*
X53572904Y11042858D01*
X53572904Y11233334D01*
X53611000Y11347620D01*
X53953857Y11957143D02*
X53991952Y12071429D01*
X54030047Y12109524D01*
X54106238Y12147620D01*
X54220523Y12147620D01*
X54296714Y12109524D01*
X54334809Y12071429D01*
X54372904Y11995239D01*
X54372904Y11690477D01*
X53572904Y11690477D01*
X53572904Y11957143D01*
X53611000Y12033334D01*
X53649095Y12071429D01*
X53725285Y12109524D01*
X53801476Y12109524D01*
X53877666Y12071429D01*
X53915761Y12033334D01*
X53953857Y11957143D01*
X53953857Y11690477D01*
X55303857Y10014286D02*
X55341952Y10128572D01*
X55380047Y10166667D01*
X55456238Y10204762D01*
X55570523Y10204762D01*
X55646714Y10166667D01*
X55684809Y10128572D01*
X55722904Y10052381D01*
X55722904Y9747620D01*
X54922904Y9747620D01*
X54922904Y10014286D01*
X54961000Y10090477D01*
X54999095Y10128572D01*
X55075285Y10166667D01*
X55151476Y10166667D01*
X55227666Y10128572D01*
X55265761Y10090477D01*
X55303857Y10014286D01*
X55303857Y9747620D01*
X54922904Y10700000D02*
X54922904Y10852381D01*
X54961000Y10928572D01*
X55037190Y11004762D01*
X55189571Y11042858D01*
X55456238Y11042858D01*
X55608619Y11004762D01*
X55684809Y10928572D01*
X55722904Y10852381D01*
X55722904Y10700000D01*
X55684809Y10623810D01*
X55608619Y10547620D01*
X55456238Y10509524D01*
X55189571Y10509524D01*
X55037190Y10547620D01*
X54961000Y10623810D01*
X54922904Y10700000D01*
X54922904Y11538096D02*
X54922904Y11690477D01*
X54961000Y11766667D01*
X55037190Y11842858D01*
X55189571Y11880953D01*
X55456238Y11880953D01*
X55608619Y11842858D01*
X55684809Y11766667D01*
X55722904Y11690477D01*
X55722904Y11538096D01*
X55684809Y11461905D01*
X55608619Y11385715D01*
X55456238Y11347620D01*
X55189571Y11347620D01*
X55037190Y11385715D01*
X54961000Y11461905D01*
X54922904Y11538096D01*
X54922904Y12109524D02*
X54922904Y12566667D01*
X55722904Y12338096D02*
X54922904Y12338096D01*
X52812857Y4172096D02*
X52965238Y4172096D01*
X53041428Y4134000D01*
X53117619Y4057810D01*
X53155714Y3905429D01*
X53155714Y3638762D01*
X53117619Y3486381D01*
X53041428Y3410191D01*
X52965238Y3372096D01*
X52812857Y3372096D01*
X52736666Y3410191D01*
X52660476Y3486381D01*
X52622380Y3638762D01*
X52622380Y3905429D01*
X52660476Y4057810D01*
X52736666Y4134000D01*
X52812857Y4172096D01*
X53460476Y3410191D02*
X53574761Y3372096D01*
X53765238Y3372096D01*
X53841428Y3410191D01*
X53879523Y3448286D01*
X53917619Y3524477D01*
X53917619Y3600667D01*
X53879523Y3676858D01*
X53841428Y3714953D01*
X53765238Y3753048D01*
X53612857Y3791143D01*
X53536666Y3829239D01*
X53498571Y3867334D01*
X53460476Y3943524D01*
X53460476Y4019715D01*
X53498571Y4095905D01*
X53536666Y4134000D01*
X53612857Y4172096D01*
X53803333Y4172096D01*
X53917619Y4134000D01*
X54717619Y3448286D02*
X54679523Y3410191D01*
X54565238Y3372096D01*
X54489047Y3372096D01*
X54374761Y3410191D01*
X54298571Y3486381D01*
X54260476Y3562572D01*
X54222380Y3714953D01*
X54222380Y3829239D01*
X54260476Y3981620D01*
X54298571Y4057810D01*
X54374761Y4134000D01*
X54489047Y4172096D01*
X54565238Y4172096D01*
X54679523Y4134000D01*
X54717619Y4095905D01*
X28740000Y13811429D02*
X28740000Y13011429D01*
X28740000Y13316191D02*
X28663809Y13278096D01*
X28511428Y13278096D01*
X28435238Y13316191D01*
X28397142Y13354286D01*
X28359047Y13430477D01*
X28359047Y13659048D01*
X28397142Y13735239D01*
X28435238Y13773334D01*
X28511428Y13811429D01*
X28663809Y13811429D01*
X28740000Y13773334D01*
X29082857Y13316191D02*
X29197142Y13278096D01*
X29387619Y13278096D01*
X29463809Y13316191D01*
X29501904Y13354286D01*
X29540000Y13430477D01*
X29540000Y13506667D01*
X29501904Y13582858D01*
X29463809Y13620953D01*
X29387619Y13659048D01*
X29235238Y13697143D01*
X29159047Y13735239D01*
X29120952Y13773334D01*
X29082857Y13849524D01*
X29082857Y13925715D01*
X29120952Y14001905D01*
X29159047Y14040000D01*
X29235238Y14078096D01*
X29425714Y14078096D01*
X29540000Y14040000D01*
X29882857Y13278096D02*
X29882857Y14078096D01*
X30187619Y14078096D01*
X30263809Y14040000D01*
X30301904Y14001905D01*
X30340000Y13925715D01*
X30340000Y13811429D01*
X30301904Y13735239D01*
X30263809Y13697143D01*
X30187619Y13659048D01*
X29882857Y13659048D01*
X30682857Y13278096D02*
X30682857Y14078096D01*
X6719047Y9638096D02*
X7214285Y9638096D01*
X6947619Y9333334D01*
X7061904Y9333334D01*
X7138095Y9295239D01*
X7176190Y9257143D01*
X7214285Y9180953D01*
X7214285Y8990477D01*
X7176190Y8914286D01*
X7138095Y8876191D01*
X7061904Y8838096D01*
X6833333Y8838096D01*
X6757142Y8876191D01*
X6719047Y8914286D01*
X7557142Y8914286D02*
X7595238Y8876191D01*
X7557142Y8838096D01*
X7519047Y8876191D01*
X7557142Y8914286D01*
X7557142Y8838096D01*
X7861904Y9638096D02*
X8357142Y9638096D01*
X8090476Y9333334D01*
X8204761Y9333334D01*
X8280952Y9295239D01*
X8319047Y9257143D01*
X8357142Y9180953D01*
X8357142Y8990477D01*
X8319047Y8914286D01*
X8280952Y8876191D01*
X8204761Y8838096D01*
X7976190Y8838096D01*
X7900000Y8876191D01*
X7861904Y8914286D01*
X8585714Y9638096D02*
X8852380Y8838096D01*
X9119047Y9638096D01*
X3823809Y9760096D02*
X4090476Y8960096D01*
X4357142Y9760096D01*
X4623809Y8960096D02*
X4623809Y9760096D01*
X5157142Y9760096D02*
X5309523Y9760096D01*
X5385714Y9722000D01*
X5461904Y9645810D01*
X5500000Y9493429D01*
X5500000Y9226762D01*
X5461904Y9074381D01*
X5385714Y8998191D01*
X5309523Y8960096D01*
X5157142Y8960096D01*
X5080952Y8998191D01*
X5004761Y9074381D01*
X4966666Y9226762D01*
X4966666Y9493429D01*
X5004761Y9645810D01*
X5080952Y9722000D01*
X5157142Y9760096D01*
X2895428Y10953905D02*
X2933523Y10992000D01*
X3009714Y11030096D01*
X3200190Y11030096D01*
X3276380Y10992000D01*
X3314476Y10953905D01*
X3352571Y10877715D01*
X3352571Y10801524D01*
X3314476Y10687239D01*
X2857333Y10230096D01*
X3352571Y10230096D01*
X3085904Y12554096D02*
X3162095Y12554096D01*
X3238285Y12516000D01*
X3276380Y12477905D01*
X3314476Y12401715D01*
X3352571Y12249334D01*
X3352571Y12058858D01*
X3314476Y11906477D01*
X3276380Y11830286D01*
X3238285Y11792191D01*
X3162095Y11754096D01*
X3085904Y11754096D01*
X3009714Y11792191D01*
X2971619Y11830286D01*
X2933523Y11906477D01*
X2895428Y12058858D01*
X2895428Y12249334D01*
X2933523Y12401715D01*
X2971619Y12477905D01*
X3009714Y12516000D01*
X3085904Y12554096D01*
X1409523Y13657143D02*
X1523809Y13619048D01*
X1561904Y13580953D01*
X1600000Y13504762D01*
X1600000Y13390477D01*
X1561904Y13314286D01*
X1523809Y13276191D01*
X1447619Y13238096D01*
X1142857Y13238096D01*
X1142857Y14038096D01*
X1409523Y14038096D01*
X1485714Y14000000D01*
X1523809Y13961905D01*
X1561904Y13885715D01*
X1561904Y13809524D01*
X1523809Y13733334D01*
X1485714Y13695239D01*
X1409523Y13657143D01*
X1142857Y13657143D01*
X2285714Y13238096D02*
X2285714Y13657143D01*
X2247619Y13733334D01*
X2171428Y13771429D01*
X2019047Y13771429D01*
X1942857Y13733334D01*
X2285714Y13276191D02*
X2209523Y13238096D01*
X2019047Y13238096D01*
X1942857Y13276191D01*
X1904761Y13352381D01*
X1904761Y13428572D01*
X1942857Y13504762D01*
X2019047Y13542858D01*
X2209523Y13542858D01*
X2285714Y13580953D01*
X2666666Y13771429D02*
X2666666Y13238096D01*
X2666666Y13695239D02*
X2704761Y13733334D01*
X2780952Y13771429D01*
X2895238Y13771429D01*
X2971428Y13733334D01*
X3009523Y13657143D01*
X3009523Y13238096D01*
X3390476Y13238096D02*
X3390476Y14038096D01*
X3466666Y13542858D02*
X3695238Y13238096D01*
X3695238Y13771429D02*
X3390476Y13466667D01*
X4285714Y13938096D02*
X4552380Y13138096D01*
X4819047Y13938096D01*
X5085714Y13138096D02*
X5085714Y13938096D01*
X5619047Y13938096D02*
X5771428Y13938096D01*
X5847619Y13900000D01*
X5923809Y13823810D01*
X5961904Y13671429D01*
X5961904Y13404762D01*
X5923809Y13252381D01*
X5847619Y13176191D01*
X5771428Y13138096D01*
X5619047Y13138096D01*
X5542857Y13176191D01*
X5466666Y13252381D01*
X5428571Y13404762D01*
X5428571Y13671429D01*
X5466666Y13823810D01*
X5542857Y13900000D01*
X5619047Y13938096D01*
X6876190Y13176191D02*
X6990476Y13138096D01*
X7180952Y13138096D01*
X7257142Y13176191D01*
X7295238Y13214286D01*
X7333333Y13290477D01*
X7333333Y13366667D01*
X7295238Y13442858D01*
X7257142Y13480953D01*
X7180952Y13519048D01*
X7028571Y13557143D01*
X6952380Y13595239D01*
X6914285Y13633334D01*
X6876190Y13709524D01*
X6876190Y13785715D01*
X6914285Y13861905D01*
X6952380Y13900000D01*
X7028571Y13938096D01*
X7219047Y13938096D01*
X7333333Y13900000D01*
X7980952Y13176191D02*
X7904761Y13138096D01*
X7752380Y13138096D01*
X7676190Y13176191D01*
X7638095Y13252381D01*
X7638095Y13557143D01*
X7676190Y13633334D01*
X7752380Y13671429D01*
X7904761Y13671429D01*
X7980952Y13633334D01*
X8019047Y13557143D01*
X8019047Y13480953D01*
X7638095Y13404762D01*
X8476190Y13138096D02*
X8400000Y13176191D01*
X8361904Y13252381D01*
X8361904Y13938096D01*
D12*
X416666Y8376667D02*
X416666Y8043334D01*
X750000Y8010000D01*
X716666Y8043334D01*
X683333Y8110000D01*
X683333Y8276667D01*
X716666Y8343334D01*
X750000Y8376667D01*
X816666Y8410000D01*
X983333Y8410000D01*
X1050000Y8376667D01*
X1083333Y8343334D01*
X1116666Y8276667D01*
X1116666Y8110000D01*
X1083333Y8043334D01*
X1050000Y8010000D01*
X416666Y8610000D02*
X1116666Y8843334D01*
X416666Y9076667D01*
X440000Y4846667D02*
X406666Y4780000D01*
X406666Y4680000D01*
X440000Y4580000D01*
X506666Y4513334D01*
X573333Y4480000D01*
X706666Y4446667D01*
X806666Y4446667D01*
X940000Y4480000D01*
X1006666Y4513334D01*
X1073333Y4580000D01*
X1106666Y4680000D01*
X1106666Y4746667D01*
X1073333Y4846667D01*
X1040000Y4880000D01*
X806666Y4880000D01*
X806666Y4746667D01*
X1106666Y5180000D02*
X406666Y5180000D01*
X1106666Y5580000D01*
X406666Y5580000D01*
X1106666Y5913334D02*
X406666Y5913334D01*
X406666Y6080000D01*
X440000Y6180000D01*
X506666Y6246667D01*
X573333Y6280000D01*
X706666Y6313334D01*
X806666Y6313334D01*
X940000Y6280000D01*
X1006666Y6246667D01*
X1073333Y6180000D01*
X1106666Y6080000D01*
X1106666Y5913334D01*
D13*
X34425000Y11500000D02*
G75*
G03X34425000Y11500000I-125000J0D01*
G01*
X47106066Y9275000D02*
G75*
G03X47106066Y9275000I-106066J0D01*
G01*
X43170774Y7450000D02*
G75*
G03X43170774Y7450000I-145774J0D01*
G01*
X27784629Y15325000D02*
G75*
G03X27784629Y15325000I-134629J0D01*
G01*
X14700000Y7700000D02*
G75*
G03X14700000Y7700000I-125000J0D01*
G01*
D12*
X49676666Y1076667D02*
X49710000Y1110000D01*
X49776666Y1143334D01*
X49943333Y1143334D01*
X50010000Y1110000D01*
X50043333Y1076667D01*
X50076666Y1010000D01*
X50076666Y943334D01*
X50043333Y843334D01*
X49643333Y443334D01*
X50076666Y443334D01*
X50510000Y1143334D02*
X50576666Y1143334D01*
X50643333Y1110000D01*
X50676666Y1076667D01*
X50710000Y1010000D01*
X50743333Y876667D01*
X50743333Y710000D01*
X50710000Y576667D01*
X50676666Y510000D01*
X50643333Y476667D01*
X50576666Y443334D01*
X50510000Y443334D01*
X50443333Y476667D01*
X50410000Y510000D01*
X50376666Y576667D01*
X50343333Y710000D01*
X50343333Y876667D01*
X50376666Y1010000D01*
X50410000Y1076667D01*
X50443333Y1110000D01*
X50510000Y1143334D01*
X47516666Y393334D02*
X47116666Y393334D01*
X47316666Y393334D02*
X47316666Y1093334D01*
X47250000Y993334D01*
X47183333Y926667D01*
X47116666Y893334D01*
X47950000Y1093334D02*
X48016666Y1093334D01*
X48083333Y1060000D01*
X48116666Y1026667D01*
X48150000Y960000D01*
X48183333Y826667D01*
X48183333Y660000D01*
X48150000Y526667D01*
X48116666Y460000D01*
X48083333Y426667D01*
X48016666Y393334D01*
X47950000Y393334D01*
X47883333Y426667D01*
X47850000Y460000D01*
X47816666Y526667D01*
X47783333Y660000D01*
X47783333Y826667D01*
X47816666Y960000D01*
X47850000Y1026667D01*
X47883333Y1060000D01*
X47950000Y1093334D01*
X44636666Y423334D02*
X44236666Y423334D01*
X44436666Y423334D02*
X44436666Y1123334D01*
X44370000Y1023334D01*
X44303333Y956667D01*
X44236666Y923334D01*
X44903333Y1056667D02*
X44936666Y1090000D01*
X45003333Y1123334D01*
X45170000Y1123334D01*
X45236666Y1090000D01*
X45270000Y1056667D01*
X45303333Y990000D01*
X45303333Y923334D01*
X45270000Y823334D01*
X44870000Y423334D01*
X45303333Y423334D01*
X45603333Y423334D02*
X45603333Y1123334D01*
X45836666Y623334D01*
X46070000Y1123334D01*
X46070000Y423334D01*
X52173333Y466667D02*
X52273333Y433334D01*
X52440000Y433334D01*
X52506666Y466667D01*
X52540000Y500000D01*
X52573333Y566667D01*
X52573333Y633334D01*
X52540000Y700000D01*
X52506666Y733334D01*
X52440000Y766667D01*
X52306666Y800000D01*
X52240000Y833334D01*
X52206666Y866667D01*
X52173333Y933334D01*
X52173333Y1000000D01*
X52206666Y1066667D01*
X52240000Y1100000D01*
X52306666Y1133334D01*
X52473333Y1133334D01*
X52573333Y1100000D01*
X53006666Y1133334D02*
X53140000Y1133334D01*
X53206666Y1100000D01*
X53273333Y1033334D01*
X53306666Y900000D01*
X53306666Y666667D01*
X53273333Y533334D01*
X53206666Y466667D01*
X53140000Y433334D01*
X53006666Y433334D01*
X52940000Y466667D01*
X52873333Y533334D01*
X52840000Y666667D01*
X52840000Y900000D01*
X52873333Y1033334D01*
X52940000Y1100000D01*
X53006666Y1133334D01*
X54793333Y446667D02*
X54893333Y413334D01*
X55060000Y413334D01*
X55126666Y446667D01*
X55160000Y480000D01*
X55193333Y546667D01*
X55193333Y613334D01*
X55160000Y680000D01*
X55126666Y713334D01*
X55060000Y746667D01*
X54926666Y780000D01*
X54860000Y813334D01*
X54826666Y846667D01*
X54793333Y913334D01*
X54793333Y980000D01*
X54826666Y1046667D01*
X54860000Y1080000D01*
X54926666Y1113334D01*
X55093333Y1113334D01*
X55193333Y1080000D01*
X55493333Y413334D02*
X55493333Y1113334D01*
X56860000Y436667D02*
X56960000Y403334D01*
X57126666Y403334D01*
X57193333Y436667D01*
X57226666Y470000D01*
X57260000Y536667D01*
X57260000Y603334D01*
X57226666Y670000D01*
X57193333Y703334D01*
X57126666Y736667D01*
X56993333Y770000D01*
X56926666Y803334D01*
X56893333Y836667D01*
X56860000Y903334D01*
X56860000Y970000D01*
X56893333Y1036667D01*
X56926666Y1070000D01*
X56993333Y1103334D01*
X57160000Y1103334D01*
X57260000Y1070000D01*
X57960000Y470000D02*
X57926666Y436667D01*
X57826666Y403334D01*
X57760000Y403334D01*
X57660000Y436667D01*
X57593333Y503334D01*
X57560000Y570000D01*
X57526666Y703334D01*
X57526666Y803334D01*
X57560000Y936667D01*
X57593333Y1003334D01*
X57660000Y1070000D01*
X57760000Y1103334D01*
X57826666Y1103334D01*
X57926666Y1070000D01*
X57960000Y1036667D01*
X58260000Y403334D02*
X58260000Y1103334D01*
X58660000Y403334D02*
X58360000Y803334D01*
X58660000Y1103334D02*
X58260000Y703334D01*
X59766666Y396667D02*
X59866666Y363334D01*
X60033333Y363334D01*
X60100000Y396667D01*
X60133333Y430000D01*
X60166666Y496667D01*
X60166666Y563334D01*
X60133333Y630000D01*
X60100000Y663334D01*
X60033333Y696667D01*
X59900000Y730000D01*
X59833333Y763334D01*
X59800000Y796667D01*
X59766666Y863334D01*
X59766666Y930000D01*
X59800000Y996667D01*
X59833333Y1030000D01*
X59900000Y1063334D01*
X60066666Y1063334D01*
X60166666Y1030000D01*
X60433333Y396667D02*
X60533333Y363334D01*
X60700000Y363334D01*
X60766666Y396667D01*
X60800000Y430000D01*
X60833333Y496667D01*
X60833333Y563334D01*
X60800000Y630000D01*
X60766666Y663334D01*
X60700000Y696667D01*
X60566666Y730000D01*
X60500000Y763334D01*
X60466666Y796667D01*
X60433333Y863334D01*
X60433333Y930000D01*
X60466666Y996667D01*
X60500000Y1030000D01*
X60566666Y1063334D01*
X60733333Y1063334D01*
X60833333Y1030000D01*
X41956666Y1100000D02*
X41890000Y1133334D01*
X41790000Y1133334D01*
X41690000Y1100000D01*
X41623333Y1033334D01*
X41590000Y966667D01*
X41556666Y833334D01*
X41556666Y733334D01*
X41590000Y600000D01*
X41623333Y533334D01*
X41690000Y466667D01*
X41790000Y433334D01*
X41856666Y433334D01*
X41956666Y466667D01*
X41990000Y500000D01*
X41990000Y733334D01*
X41856666Y733334D01*
X42290000Y433334D02*
X42290000Y1133334D01*
X42690000Y433334D01*
X42690000Y1133334D01*
X43023333Y433334D02*
X43023333Y1133334D01*
X43190000Y1133334D01*
X43290000Y1100000D01*
X43356666Y1033334D01*
X43390000Y966667D01*
X43423333Y833334D01*
X43423333Y733334D01*
X43390000Y600000D01*
X43356666Y533334D01*
X43290000Y466667D01*
X43190000Y433334D01*
X43023333Y433334D01*
X39836666Y433334D02*
X39436666Y433334D01*
X39636666Y433334D02*
X39636666Y1133334D01*
X39570000Y1033334D01*
X39503333Y966667D01*
X39436666Y933334D01*
X40103333Y1066667D02*
X40136666Y1100000D01*
X40203333Y1133334D01*
X40370000Y1133334D01*
X40436666Y1100000D01*
X40470000Y1066667D01*
X40503333Y1000000D01*
X40503333Y933334D01*
X40470000Y833334D01*
X40070000Y433334D01*
X40503333Y433334D01*
X36986666Y1076667D02*
X37020000Y1110000D01*
X37086666Y1143334D01*
X37253333Y1143334D01*
X37320000Y1110000D01*
X37353333Y1076667D01*
X37386666Y1010000D01*
X37386666Y943334D01*
X37353333Y843334D01*
X36953333Y443334D01*
X37386666Y443334D01*
X38053333Y443334D02*
X37653333Y443334D01*
X37853333Y443334D02*
X37853333Y1143334D01*
X37786666Y1043334D01*
X37720000Y976667D01*
X37653333Y943334D01*
X34736666Y423334D02*
X34336666Y423334D01*
X34536666Y423334D02*
X34536666Y1123334D01*
X34470000Y1023334D01*
X34403333Y956667D01*
X34336666Y923334D01*
X34970000Y1123334D02*
X35403333Y1123334D01*
X35170000Y856667D01*
X35270000Y856667D01*
X35336666Y823334D01*
X35370000Y790000D01*
X35403333Y723334D01*
X35403333Y556667D01*
X35370000Y490000D01*
X35336666Y456667D01*
X35270000Y423334D01*
X35070000Y423334D01*
X35003333Y456667D01*
X34970000Y490000D01*
X32216666Y453334D02*
X31816666Y453334D01*
X32016666Y453334D02*
X32016666Y1153334D01*
X31950000Y1053334D01*
X31883333Y986667D01*
X31816666Y953334D01*
X32550000Y453334D02*
X32683333Y453334D01*
X32750000Y486667D01*
X32783333Y520000D01*
X32850000Y620000D01*
X32883333Y753334D01*
X32883333Y1020000D01*
X32850000Y1086667D01*
X32816666Y1120000D01*
X32750000Y1153334D01*
X32616666Y1153334D01*
X32550000Y1120000D01*
X32516666Y1086667D01*
X32483333Y1020000D01*
X32483333Y853334D01*
X32516666Y786667D01*
X32550000Y753334D01*
X32616666Y720000D01*
X32750000Y720000D01*
X32816666Y753334D01*
X32850000Y786667D01*
X32883333Y853334D01*
X29646666Y433334D02*
X29246666Y433334D01*
X29446666Y433334D02*
X29446666Y1133334D01*
X29380000Y1033334D01*
X29313333Y966667D01*
X29246666Y933334D01*
X30046666Y833334D02*
X29980000Y866667D01*
X29946666Y900000D01*
X29913333Y966667D01*
X29913333Y1000000D01*
X29946666Y1066667D01*
X29980000Y1100000D01*
X30046666Y1133334D01*
X30180000Y1133334D01*
X30246666Y1100000D01*
X30280000Y1066667D01*
X30313333Y1000000D01*
X30313333Y966667D01*
X30280000Y900000D01*
X30246666Y866667D01*
X30180000Y833334D01*
X30046666Y833334D01*
X29980000Y800000D01*
X29946666Y766667D01*
X29913333Y700000D01*
X29913333Y566667D01*
X29946666Y500000D01*
X29980000Y466667D01*
X30046666Y433334D01*
X30180000Y433334D01*
X30246666Y466667D01*
X30280000Y500000D01*
X30313333Y566667D01*
X30313333Y700000D01*
X30280000Y766667D01*
X30246666Y800000D01*
X30180000Y833334D01*
X27186666Y423334D02*
X26786666Y423334D01*
X26986666Y423334D02*
X26986666Y1123334D01*
X26920000Y1023334D01*
X26853333Y956667D01*
X26786666Y923334D01*
X27853333Y423334D02*
X27453333Y423334D01*
X27653333Y423334D02*
X27653333Y1123334D01*
X27586666Y1023334D01*
X27520000Y956667D01*
X27453333Y923334D01*
X24616666Y413334D02*
X24750000Y413334D01*
X24816666Y446667D01*
X24850000Y480000D01*
X24916666Y580000D01*
X24950000Y713334D01*
X24950000Y980000D01*
X24916666Y1046667D01*
X24883333Y1080000D01*
X24816666Y1113334D01*
X24683333Y1113334D01*
X24616666Y1080000D01*
X24583333Y1046667D01*
X24550000Y980000D01*
X24550000Y813334D01*
X24583333Y746667D01*
X24616666Y713334D01*
X24683333Y680000D01*
X24816666Y680000D01*
X24883333Y713334D01*
X24916666Y746667D01*
X24950000Y813334D01*
X22383333Y1123334D02*
X22250000Y1123334D01*
X22183333Y1090000D01*
X22150000Y1056667D01*
X22083333Y956667D01*
X22050000Y823334D01*
X22050000Y556667D01*
X22083333Y490000D01*
X22116666Y456667D01*
X22183333Y423334D01*
X22316666Y423334D01*
X22383333Y456667D01*
X22416666Y490000D01*
X22450000Y556667D01*
X22450000Y723334D01*
X22416666Y790000D01*
X22383333Y823334D01*
X22316666Y856667D01*
X22183333Y856667D01*
X22116666Y823334D01*
X22083333Y790000D01*
X22050000Y723334D01*
X19480000Y900000D02*
X19480000Y433334D01*
X19313333Y1166667D02*
X19146666Y666667D01*
X19580000Y666667D01*
X20146666Y900000D02*
X20146666Y433334D01*
X19980000Y1166667D02*
X19813333Y666667D01*
X20246666Y666667D01*
X17263333Y840000D02*
X17263333Y373334D01*
X17096666Y1106667D02*
X16930000Y606667D01*
X17363333Y606667D01*
X14406666Y1143334D02*
X14840000Y1143334D01*
X14606666Y876667D01*
X14706666Y876667D01*
X14773333Y843334D01*
X14806666Y810000D01*
X14840000Y743334D01*
X14840000Y576667D01*
X14806666Y510000D01*
X14773333Y476667D01*
X14706666Y443334D01*
X14506666Y443334D01*
X14440000Y476667D01*
X14406666Y510000D01*
X11820000Y910000D02*
X11820000Y443334D01*
X11653333Y1176667D02*
X11486666Y676667D01*
X11920000Y676667D01*
X12286666Y843334D02*
X12220000Y876667D01*
X12186666Y910000D01*
X12153333Y976667D01*
X12153333Y1010000D01*
X12186666Y1076667D01*
X12220000Y1110000D01*
X12286666Y1143334D01*
X12420000Y1143334D01*
X12486666Y1110000D01*
X12520000Y1076667D01*
X12553333Y1010000D01*
X12553333Y976667D01*
X12520000Y910000D01*
X12486666Y876667D01*
X12420000Y843334D01*
X12286666Y843334D01*
X12220000Y810000D01*
X12186666Y776667D01*
X12153333Y710000D01*
X12153333Y576667D01*
X12186666Y510000D01*
X12220000Y476667D01*
X12286666Y443334D01*
X12420000Y443334D01*
X12486666Y476667D01*
X12520000Y510000D01*
X12553333Y576667D01*
X12553333Y710000D01*
X12520000Y776667D01*
X12486666Y810000D01*
X12420000Y843334D01*
X9310000Y860000D02*
X9310000Y393334D01*
X9143333Y1126667D02*
X8976666Y626667D01*
X9410000Y626667D01*
X10010000Y1093334D02*
X9676666Y1093334D01*
X9643333Y760000D01*
X9676666Y793334D01*
X9743333Y826667D01*
X9910000Y826667D01*
X9976666Y793334D01*
X10010000Y760000D01*
X10043333Y693334D01*
X10043333Y526667D01*
X10010000Y460000D01*
X9976666Y426667D01*
X9910000Y393334D01*
X9743333Y393334D01*
X9676666Y426667D01*
X9643333Y460000D01*
X6780000Y860000D02*
X6780000Y393334D01*
X6613333Y1126667D02*
X6446666Y626667D01*
X6880000Y626667D01*
X7080000Y1093334D02*
X7546666Y1093334D01*
X7246666Y393334D01*
X4250000Y880000D02*
X4250000Y413334D01*
X4083333Y1146667D02*
X3916666Y646667D01*
X4350000Y646667D01*
X4916666Y1113334D02*
X4783333Y1113334D01*
X4716666Y1080000D01*
X4683333Y1046667D01*
X4616666Y946667D01*
X4583333Y813334D01*
X4583333Y546667D01*
X4616666Y480000D01*
X4650000Y446667D01*
X4716666Y413334D01*
X4850000Y413334D01*
X4916666Y446667D01*
X4950000Y480000D01*
X4983333Y546667D01*
X4983333Y713334D01*
X4950000Y780000D01*
X4916666Y813334D01*
X4850000Y846667D01*
X4716666Y846667D01*
X4650000Y813334D01*
X4616666Y780000D01*
X4583333Y713334D01*
X1700000Y1066667D02*
X1733333Y1100000D01*
X1800000Y1133334D01*
X1966666Y1133334D01*
X2033333Y1100000D01*
X2066666Y1066667D01*
X2100000Y1000000D01*
X2100000Y933334D01*
X2066666Y833334D01*
X1666666Y433334D01*
X2100000Y433334D01*
X59776666Y21760000D02*
X59710000Y21793334D01*
X59610000Y21793334D01*
X59510000Y21760000D01*
X59443333Y21693334D01*
X59410000Y21626667D01*
X59376666Y21493334D01*
X59376666Y21393334D01*
X59410000Y21260000D01*
X59443333Y21193334D01*
X59510000Y21126667D01*
X59610000Y21093334D01*
X59676666Y21093334D01*
X59776666Y21126667D01*
X59810000Y21160000D01*
X59810000Y21393334D01*
X59676666Y21393334D01*
X60110000Y21093334D02*
X60110000Y21793334D01*
X60510000Y21093334D01*
X60510000Y21793334D01*
X60843333Y21093334D02*
X60843333Y21793334D01*
X61010000Y21793334D01*
X61110000Y21760000D01*
X61176666Y21693334D01*
X61210000Y21626667D01*
X61243333Y21493334D01*
X61243333Y21393334D01*
X61210000Y21260000D01*
X61176666Y21193334D01*
X61110000Y21126667D01*
X61010000Y21093334D01*
X60843333Y21093334D01*
X56993333Y21783334D02*
X57226666Y21083334D01*
X57460000Y21783334D01*
X57693333Y21083334D02*
X57693333Y21783334D01*
X58160000Y21783334D02*
X58293333Y21783334D01*
X58360000Y21750000D01*
X58426666Y21683334D01*
X58460000Y21550000D01*
X58460000Y21316667D01*
X58426666Y21183334D01*
X58360000Y21116667D01*
X58293333Y21083334D01*
X58160000Y21083334D01*
X58093333Y21116667D01*
X58026666Y21183334D01*
X57993333Y21316667D01*
X57993333Y21550000D01*
X58026666Y21683334D01*
X58093333Y21750000D01*
X58160000Y21783334D01*
X54936666Y21123334D02*
X54703333Y21456667D01*
X54536666Y21123334D02*
X54536666Y21823334D01*
X54803333Y21823334D01*
X54870000Y21790000D01*
X54903333Y21756667D01*
X54936666Y21690000D01*
X54936666Y21590000D01*
X54903333Y21523334D01*
X54870000Y21490000D01*
X54803333Y21456667D01*
X54536666Y21456667D01*
X55203333Y21156667D02*
X55303333Y21123334D01*
X55470000Y21123334D01*
X55536666Y21156667D01*
X55570000Y21190000D01*
X55603333Y21256667D01*
X55603333Y21323334D01*
X55570000Y21390000D01*
X55536666Y21423334D01*
X55470000Y21456667D01*
X55336666Y21490000D01*
X55270000Y21523334D01*
X55236666Y21556667D01*
X55203333Y21623334D01*
X55203333Y21690000D01*
X55236666Y21756667D01*
X55270000Y21790000D01*
X55336666Y21823334D01*
X55503333Y21823334D01*
X55603333Y21790000D01*
X55803333Y21823334D02*
X56203333Y21823334D01*
X56003333Y21123334D02*
X56003333Y21823334D01*
X51396666Y21093334D02*
X51396666Y21793334D01*
X51563333Y21793334D01*
X51663333Y21760000D01*
X51730000Y21693334D01*
X51763333Y21626667D01*
X51796666Y21493334D01*
X51796666Y21393334D01*
X51763333Y21260000D01*
X51730000Y21193334D01*
X51663333Y21126667D01*
X51563333Y21093334D01*
X51396666Y21093334D01*
X52230000Y21793334D02*
X52363333Y21793334D01*
X52430000Y21760000D01*
X52496666Y21693334D01*
X52530000Y21560000D01*
X52530000Y21326667D01*
X52496666Y21193334D01*
X52430000Y21126667D01*
X52363333Y21093334D01*
X52230000Y21093334D01*
X52163333Y21126667D01*
X52096666Y21193334D01*
X52063333Y21326667D01*
X52063333Y21560000D01*
X52096666Y21693334D01*
X52163333Y21760000D01*
X52230000Y21793334D01*
X52830000Y21093334D02*
X52830000Y21793334D01*
X53230000Y21093334D01*
X53230000Y21793334D01*
X53563333Y21460000D02*
X53796666Y21460000D01*
X53896666Y21093334D02*
X53563333Y21093334D01*
X53563333Y21793334D01*
X53896666Y21793334D01*
X50416666Y21133334D02*
X50183333Y21466667D01*
X50016666Y21133334D02*
X50016666Y21833334D01*
X50283333Y21833334D01*
X50350000Y21800000D01*
X50383333Y21766667D01*
X50416666Y21700000D01*
X50416666Y21600000D01*
X50383333Y21533334D01*
X50350000Y21500000D01*
X50283333Y21466667D01*
X50016666Y21466667D01*
X47803333Y21810000D02*
X47736666Y21843334D01*
X47636666Y21843334D01*
X47536666Y21810000D01*
X47470000Y21743334D01*
X47436666Y21676667D01*
X47403333Y21543334D01*
X47403333Y21443334D01*
X47436666Y21310000D01*
X47470000Y21243334D01*
X47536666Y21176667D01*
X47636666Y21143334D01*
X47703333Y21143334D01*
X47803333Y21176667D01*
X47836666Y21210000D01*
X47836666Y21443334D01*
X47703333Y21443334D01*
X45125000Y21470000D02*
X45225000Y21436667D01*
X45258333Y21403334D01*
X45291666Y21336667D01*
X45291666Y21236667D01*
X45258333Y21170000D01*
X45225000Y21136667D01*
X45158333Y21103334D01*
X44891666Y21103334D01*
X44891666Y21803334D01*
X45125000Y21803334D01*
X45191666Y21770000D01*
X45225000Y21736667D01*
X45258333Y21670000D01*
X45258333Y21603334D01*
X45225000Y21536667D01*
X45191666Y21503334D01*
X45125000Y21470000D01*
X44891666Y21470000D01*
X42441666Y21803334D02*
X42108333Y21803334D01*
X42075000Y21470000D01*
X42108333Y21503334D01*
X42175000Y21536667D01*
X42341666Y21536667D01*
X42408333Y21503334D01*
X42441666Y21470000D01*
X42475000Y21403334D01*
X42475000Y21236667D01*
X42441666Y21170000D01*
X42408333Y21136667D01*
X42341666Y21103334D01*
X42175000Y21103334D01*
X42108333Y21136667D01*
X42075000Y21170000D01*
X42675000Y21803334D02*
X42908333Y21103334D01*
X43141666Y21803334D01*
X39183333Y21803334D02*
X39616666Y21803334D01*
X39383333Y21536667D01*
X39483333Y21536667D01*
X39550000Y21503334D01*
X39583333Y21470000D01*
X39616666Y21403334D01*
X39616666Y21236667D01*
X39583333Y21170000D01*
X39550000Y21136667D01*
X39483333Y21103334D01*
X39283333Y21103334D01*
X39216666Y21136667D01*
X39183333Y21170000D01*
X39816666Y21803334D02*
X40050000Y21103334D01*
X40283333Y21803334D01*
X40450000Y21803334D02*
X40883333Y21803334D01*
X40650000Y21536667D01*
X40750000Y21536667D01*
X40816666Y21503334D01*
X40850000Y21470000D01*
X40883333Y21403334D01*
X40883333Y21236667D01*
X40850000Y21170000D01*
X40816666Y21136667D01*
X40750000Y21103334D01*
X40550000Y21103334D01*
X40483333Y21136667D01*
X40450000Y21170000D01*
X36876666Y21770000D02*
X36810000Y21803334D01*
X36710000Y21803334D01*
X36610000Y21770000D01*
X36543333Y21703334D01*
X36510000Y21636667D01*
X36476666Y21503334D01*
X36476666Y21403334D01*
X36510000Y21270000D01*
X36543333Y21203334D01*
X36610000Y21136667D01*
X36710000Y21103334D01*
X36776666Y21103334D01*
X36876666Y21136667D01*
X36910000Y21170000D01*
X36910000Y21403334D01*
X36776666Y21403334D01*
X37210000Y21103334D02*
X37210000Y21803334D01*
X37610000Y21103334D01*
X37610000Y21803334D01*
X37943333Y21103334D02*
X37943333Y21803334D01*
X38110000Y21803334D01*
X38210000Y21770000D01*
X38276666Y21703334D01*
X38310000Y21636667D01*
X38343333Y21503334D01*
X38343333Y21403334D01*
X38310000Y21270000D01*
X38276666Y21203334D01*
X38210000Y21136667D01*
X38110000Y21103334D01*
X37943333Y21103334D01*
X34406666Y21736667D02*
X34440000Y21770000D01*
X34506666Y21803334D01*
X34673333Y21803334D01*
X34740000Y21770000D01*
X34773333Y21736667D01*
X34806666Y21670000D01*
X34806666Y21603334D01*
X34773333Y21503334D01*
X34373333Y21103334D01*
X34806666Y21103334D01*
X35040000Y21803334D02*
X35473333Y21803334D01*
X35240000Y21536667D01*
X35340000Y21536667D01*
X35406666Y21503334D01*
X35440000Y21470000D01*
X35473333Y21403334D01*
X35473333Y21236667D01*
X35440000Y21170000D01*
X35406666Y21136667D01*
X35340000Y21103334D01*
X35140000Y21103334D01*
X35073333Y21136667D01*
X35040000Y21170000D01*
X31856666Y21746667D02*
X31890000Y21780000D01*
X31956666Y21813334D01*
X32123333Y21813334D01*
X32190000Y21780000D01*
X32223333Y21746667D01*
X32256666Y21680000D01*
X32256666Y21613334D01*
X32223333Y21513334D01*
X31823333Y21113334D01*
X32256666Y21113334D01*
X32890000Y21813334D02*
X32556666Y21813334D01*
X32523333Y21480000D01*
X32556666Y21513334D01*
X32623333Y21546667D01*
X32790000Y21546667D01*
X32856666Y21513334D01*
X32890000Y21480000D01*
X32923333Y21413334D01*
X32923333Y21246667D01*
X32890000Y21180000D01*
X32856666Y21146667D01*
X32790000Y21113334D01*
X32623333Y21113334D01*
X32556666Y21146667D01*
X32523333Y21180000D01*
X29286666Y21736667D02*
X29320000Y21770000D01*
X29386666Y21803334D01*
X29553333Y21803334D01*
X29620000Y21770000D01*
X29653333Y21736667D01*
X29686666Y21670000D01*
X29686666Y21603334D01*
X29653333Y21503334D01*
X29253333Y21103334D01*
X29686666Y21103334D01*
X30286666Y21803334D02*
X30153333Y21803334D01*
X30086666Y21770000D01*
X30053333Y21736667D01*
X29986666Y21636667D01*
X29953333Y21503334D01*
X29953333Y21236667D01*
X29986666Y21170000D01*
X30020000Y21136667D01*
X30086666Y21103334D01*
X30220000Y21103334D01*
X30286666Y21136667D01*
X30320000Y21170000D01*
X30353333Y21236667D01*
X30353333Y21403334D01*
X30320000Y21470000D01*
X30286666Y21503334D01*
X30220000Y21536667D01*
X30086666Y21536667D01*
X30020000Y21503334D01*
X29986666Y21470000D01*
X29953333Y21403334D01*
X26736666Y21746667D02*
X26770000Y21780000D01*
X26836666Y21813334D01*
X27003333Y21813334D01*
X27070000Y21780000D01*
X27103333Y21746667D01*
X27136666Y21680000D01*
X27136666Y21613334D01*
X27103333Y21513334D01*
X26703333Y21113334D01*
X27136666Y21113334D01*
X27370000Y21813334D02*
X27836666Y21813334D01*
X27536666Y21113334D01*
X24193333Y21823334D02*
X24626666Y21823334D01*
X24393333Y21556667D01*
X24493333Y21556667D01*
X24560000Y21523334D01*
X24593333Y21490000D01*
X24626666Y21423334D01*
X24626666Y21256667D01*
X24593333Y21190000D01*
X24560000Y21156667D01*
X24493333Y21123334D01*
X24293333Y21123334D01*
X24226666Y21156667D01*
X24193333Y21190000D01*
X24893333Y21756667D02*
X24926666Y21790000D01*
X24993333Y21823334D01*
X25160000Y21823334D01*
X25226666Y21790000D01*
X25260000Y21756667D01*
X25293333Y21690000D01*
X25293333Y21623334D01*
X25260000Y21523334D01*
X24860000Y21123334D01*
X25293333Y21123334D01*
X21643333Y21783334D02*
X22076666Y21783334D01*
X21843333Y21516667D01*
X21943333Y21516667D01*
X22010000Y21483334D01*
X22043333Y21450000D01*
X22076666Y21383334D01*
X22076666Y21216667D01*
X22043333Y21150000D01*
X22010000Y21116667D01*
X21943333Y21083334D01*
X21743333Y21083334D01*
X21676666Y21116667D01*
X21643333Y21150000D01*
X22710000Y21783334D02*
X22376666Y21783334D01*
X22343333Y21450000D01*
X22376666Y21483334D01*
X22443333Y21516667D01*
X22610000Y21516667D01*
X22676666Y21483334D01*
X22710000Y21450000D01*
X22743333Y21383334D01*
X22743333Y21216667D01*
X22710000Y21150000D01*
X22676666Y21116667D01*
X22610000Y21083334D01*
X22443333Y21083334D01*
X22376666Y21116667D01*
X22343333Y21150000D01*
X19143333Y21823334D02*
X19576666Y21823334D01*
X19343333Y21556667D01*
X19443333Y21556667D01*
X19510000Y21523334D01*
X19543333Y21490000D01*
X19576666Y21423334D01*
X19576666Y21256667D01*
X19543333Y21190000D01*
X19510000Y21156667D01*
X19443333Y21123334D01*
X19243333Y21123334D01*
X19176666Y21156667D01*
X19143333Y21190000D01*
X20243333Y21123334D02*
X19843333Y21123334D01*
X20043333Y21123334D02*
X20043333Y21823334D01*
X19976666Y21723334D01*
X19910000Y21656667D01*
X19843333Y21623334D01*
X16593333Y21773334D02*
X17026666Y21773334D01*
X16793333Y21506667D01*
X16893333Y21506667D01*
X16960000Y21473334D01*
X16993333Y21440000D01*
X17026666Y21373334D01*
X17026666Y21206667D01*
X16993333Y21140000D01*
X16960000Y21106667D01*
X16893333Y21073334D01*
X16693333Y21073334D01*
X16626666Y21106667D01*
X16593333Y21140000D01*
X17260000Y21773334D02*
X17726666Y21773334D01*
X17426666Y21073334D01*
X14033333Y21793334D02*
X14466666Y21793334D01*
X14233333Y21526667D01*
X14333333Y21526667D01*
X14400000Y21493334D01*
X14433333Y21460000D01*
X14466666Y21393334D01*
X14466666Y21226667D01*
X14433333Y21160000D01*
X14400000Y21126667D01*
X14333333Y21093334D01*
X14133333Y21093334D01*
X14066666Y21126667D01*
X14033333Y21160000D01*
X15066666Y21560000D02*
X15066666Y21093334D01*
X14900000Y21826667D02*
X14733333Y21326667D01*
X15166666Y21326667D01*
X11830000Y21570000D02*
X11830000Y21103334D01*
X11663333Y21836667D02*
X11496666Y21336667D01*
X11930000Y21336667D01*
X12130000Y21803334D02*
X12563333Y21803334D01*
X12330000Y21536667D01*
X12430000Y21536667D01*
X12496666Y21503334D01*
X12530000Y21470000D01*
X12563333Y21403334D01*
X12563333Y21236667D01*
X12530000Y21170000D01*
X12496666Y21136667D01*
X12430000Y21103334D01*
X12230000Y21103334D01*
X12163333Y21136667D01*
X12130000Y21170000D01*
X8943333Y21793334D02*
X9376666Y21793334D01*
X9143333Y21526667D01*
X9243333Y21526667D01*
X9310000Y21493334D01*
X9343333Y21460000D01*
X9376666Y21393334D01*
X9376666Y21226667D01*
X9343333Y21160000D01*
X9310000Y21126667D01*
X9243333Y21093334D01*
X9043333Y21093334D01*
X8976666Y21126667D01*
X8943333Y21160000D01*
X9976666Y21793334D02*
X9843333Y21793334D01*
X9776666Y21760000D01*
X9743333Y21726667D01*
X9676666Y21626667D01*
X9643333Y21493334D01*
X9643333Y21226667D01*
X9676666Y21160000D01*
X9710000Y21126667D01*
X9776666Y21093334D01*
X9910000Y21093334D01*
X9976666Y21126667D01*
X10010000Y21160000D01*
X10043333Y21226667D01*
X10043333Y21393334D01*
X10010000Y21460000D01*
X9976666Y21493334D01*
X9910000Y21526667D01*
X9776666Y21526667D01*
X9710000Y21493334D01*
X9676666Y21460000D01*
X9643333Y21393334D01*
X6750000Y21590000D02*
X6750000Y21123334D01*
X6583333Y21856667D02*
X6416666Y21356667D01*
X6850000Y21356667D01*
X7083333Y21756667D02*
X7116666Y21790000D01*
X7183333Y21823334D01*
X7350000Y21823334D01*
X7416666Y21790000D01*
X7450000Y21756667D01*
X7483333Y21690000D01*
X7483333Y21623334D01*
X7450000Y21523334D01*
X7050000Y21123334D01*
X7483333Y21123334D01*
X3843333Y21803334D02*
X4276666Y21803334D01*
X4043333Y21536667D01*
X4143333Y21536667D01*
X4210000Y21503334D01*
X4243333Y21470000D01*
X4276666Y21403334D01*
X4276666Y21236667D01*
X4243333Y21170000D01*
X4210000Y21136667D01*
X4143333Y21103334D01*
X3943333Y21103334D01*
X3876666Y21136667D01*
X3843333Y21170000D01*
X4676666Y21503334D02*
X4610000Y21536667D01*
X4576666Y21570000D01*
X4543333Y21636667D01*
X4543333Y21670000D01*
X4576666Y21736667D01*
X4610000Y21770000D01*
X4676666Y21803334D01*
X4810000Y21803334D01*
X4876666Y21770000D01*
X4910000Y21736667D01*
X4943333Y21670000D01*
X4943333Y21636667D01*
X4910000Y21570000D01*
X4876666Y21536667D01*
X4810000Y21503334D01*
X4676666Y21503334D01*
X4610000Y21470000D01*
X4576666Y21436667D01*
X4543333Y21370000D01*
X4543333Y21236667D01*
X4576666Y21170000D01*
X4610000Y21136667D01*
X4676666Y21103334D01*
X4810000Y21103334D01*
X4876666Y21136667D01*
X4910000Y21170000D01*
X4943333Y21236667D01*
X4943333Y21370000D01*
X4910000Y21436667D01*
X4876666Y21470000D01*
X4810000Y21503334D01*
X1276666Y21791667D02*
X1310000Y21825000D01*
X1376666Y21858334D01*
X1543333Y21858334D01*
X1610000Y21825000D01*
X1643333Y21791667D01*
X1676666Y21725000D01*
X1676666Y21658334D01*
X1643333Y21558334D01*
X1243333Y21158334D01*
X1676666Y21158334D01*
X2076666Y21558334D02*
X2010000Y21591667D01*
X1976666Y21625000D01*
X1943333Y21691667D01*
X1943333Y21725000D01*
X1976666Y21791667D01*
X2010000Y21825000D01*
X2076666Y21858334D01*
X2210000Y21858334D01*
X2276666Y21825000D01*
X2310000Y21791667D01*
X2343333Y21725000D01*
X2343333Y21691667D01*
X2310000Y21625000D01*
X2276666Y21591667D01*
X2210000Y21558334D01*
X2076666Y21558334D01*
X2010000Y21525000D01*
X1976666Y21491667D01*
X1943333Y21425000D01*
X1943333Y21291667D01*
X1976666Y21225000D01*
X2010000Y21191667D01*
X2076666Y21158334D01*
X2210000Y21158334D01*
X2276666Y21191667D01*
X2310000Y21225000D01*
X2343333Y21291667D01*
X2343333Y21425000D01*
X2310000Y21491667D01*
X2276666Y21525000D01*
X2210000Y21558334D01*
D10*
X62000000Y6800000D02*
X61000000Y6800000D01*
X62000000Y15500000D02*
X61000000Y15500000D01*
X61000000Y6800000D02*
X61000000Y15500000D01*
X62000000Y700000D02*
X62000000Y6800000D01*
X0Y21520000D02*
X0Y700000D01*
X61300000Y22220000D02*
X700000Y22220000D01*
X62000000Y15500000D02*
X62000000Y21520000D01*
X700000Y0D02*
X61300000Y0D01*
D14*
G36*
X9793898Y4701714D02*
G01*
X9866282Y4701714D01*
X9915939Y4552708D01*
X9935203Y4493923D01*
X9951890Y4441178D01*
X9964319Y4399915D01*
X9970808Y4375577D01*
X9971061Y4374303D01*
X9976466Y4354586D01*
X9988556Y4315738D01*
X10006118Y4261492D01*
X10027935Y4195581D01*
X10052792Y4121738D01*
X10064526Y4087265D01*
X10152524Y3829625D01*
X10167727Y3881646D01*
X10181490Y3923644D01*
X10196559Y3962564D01*
X10199857Y3969952D01*
X10213661Y4003605D01*
X10229101Y4046978D01*
X10235457Y4066714D01*
X10256318Y4131843D01*
X10276680Y4191097D01*
X10294271Y4238045D01*
X10303767Y4260238D01*
X10314092Y4285741D01*
X10327465Y4323481D01*
X10334496Y4344905D01*
X10356770Y4410774D01*
X10383662Y4484271D01*
X10410439Y4552632D01*
X10420425Y4576542D01*
X10431603Y4606084D01*
X10436727Y4626464D01*
X10436762Y4627378D01*
X10441433Y4647086D01*
X10450799Y4670907D01*
X10464836Y4701714D01*
X10686656Y4701714D01*
X10756642Y4701247D01*
X10817230Y4699947D01*
X10864708Y4697969D01*
X10895362Y4695466D01*
X10905498Y4692643D01*
X10907222Y4675095D01*
X10916134Y4639264D01*
X10931002Y4589548D01*
X10950592Y4530341D01*
X10952681Y4524304D01*
X10965282Y4484346D01*
X10974748Y4447948D01*
X10976197Y4440790D01*
X10985925Y4405592D01*
X10995763Y4382343D01*
X11004818Y4361524D01*
X11005521Y4353378D01*
X11006933Y4340412D01*
X11015078Y4308878D01*
X11028702Y4263041D01*
X11046553Y4207165D01*
X11062330Y4160155D01*
X11078161Y4110236D01*
X11086737Y4072151D01*
X11089639Y4048571D01*
X11094132Y4048977D01*
X11104038Y4065898D01*
X11116604Y4093080D01*
X11129074Y4124268D01*
X11138694Y4153207D01*
X11142083Y4167657D01*
X11147129Y4187985D01*
X11158283Y4227133D01*
X11174268Y4280889D01*
X11193806Y4345040D01*
X11215616Y4415370D01*
X11238422Y4487667D01*
X11252743Y4532381D01*
X11268015Y4581720D01*
X11281043Y4627310D01*
X11289235Y4660047D01*
X11289717Y4662405D01*
X11297446Y4701714D01*
X11423485Y4701714D01*
X11481311Y4700608D01*
X11523338Y4697501D01*
X11546256Y4692710D01*
X11549524Y4689619D01*
X11542173Y4677858D01*
X11539937Y4677524D01*
X11531514Y4666942D01*
X11520861Y4640027D01*
X11515384Y4621565D01*
X11503581Y4582191D01*
X11486487Y4530812D01*
X11467619Y4477957D01*
X11465920Y4473398D01*
X11446356Y4419934D01*
X11427367Y4366101D01*
X11412863Y4322997D01*
X11412131Y4320714D01*
X11403103Y4293133D01*
X11387538Y4246374D01*
X11366687Y4184161D01*
X11341802Y4110218D01*
X11314133Y4028270D01*
X11286193Y3945762D01*
X11179546Y3631286D01*
X11057245Y3627851D01*
X10934944Y3624417D01*
X10883804Y3779042D01*
X10864221Y3837051D01*
X10846593Y3887061D01*
X10832618Y3924409D01*
X10823995Y3944427D01*
X10822984Y3946044D01*
X10815501Y3962920D01*
X10804198Y3996787D01*
X10791186Y4041183D01*
X10787524Y4054619D01*
X10774410Y4100805D01*
X10762413Y4138271D01*
X10753644Y4160555D01*
X10752054Y4163194D01*
X10744377Y4179288D01*
X10731990Y4211334D01*
X10717379Y4252189D01*
X10703033Y4294712D01*
X10691441Y4331760D01*
X10685436Y4354428D01*
X10678786Y4375973D01*
X10669237Y4401021D01*
X10659829Y4426817D01*
X10645926Y4468454D01*
X10629953Y4518591D01*
X10623302Y4540117D01*
X10607922Y4588319D01*
X10594159Y4627773D01*
X10584091Y4652671D01*
X10581130Y4657807D01*
X10572063Y4654810D01*
X10561551Y4634053D01*
X10559423Y4627569D01*
X10540610Y4569531D01*
X10518793Y4508433D01*
X10498063Y4455561D01*
X10492078Y4441667D01*
X10477654Y4405188D01*
X10463366Y4363025D01*
X10461538Y4357000D01*
X10449618Y4319876D01*
X10438284Y4289175D01*
X10436247Y4284429D01*
X10420561Y4245578D01*
X10400240Y4189058D01*
X10377248Y4120471D01*
X10362018Y4072762D01*
X10348188Y4031159D01*
X10335845Y3998448D01*
X10327860Y3982048D01*
X10318152Y3962992D01*
X10306915Y3932230D01*
X10305483Y3927619D01*
X10290332Y3880386D01*
X10273723Y3832813D01*
X10257957Y3791038D01*
X10245329Y3761201D01*
X10238969Y3749984D01*
X10232592Y3732716D01*
X10231143Y3716356D01*
X10226378Y3690117D01*
X10220172Y3679062D01*
X10209643Y3660379D01*
X10198310Y3629766D01*
X10196957Y3625238D01*
X10177234Y3563915D01*
X10153029Y3503468D01*
X10120497Y3434542D01*
X10110112Y3413905D01*
X10082568Y3364455D01*
X10056251Y3330304D01*
X10024716Y3303812D01*
X10008077Y3292953D01*
X9975579Y3274485D01*
X9946050Y3263219D01*
X9911260Y3257188D01*
X9862973Y3254427D01*
X9844774Y3253945D01*
X9796170Y3253787D01*
X9756645Y3255432D01*
X9732574Y3258546D01*
X9728876Y3259993D01*
X9721578Y3276374D01*
X9717445Y3307283D01*
X9717095Y3319982D01*
X9717095Y3371536D01*
X9765476Y3363895D01*
X9841478Y3357917D01*
X9901640Y3367454D01*
X9949396Y3393407D01*
X9974758Y3418710D01*
X9986827Y3437901D01*
X10005394Y3472306D01*
X10027065Y3515065D01*
X10048448Y3559318D01*
X10066150Y3598203D01*
X10076777Y3624860D01*
X10076900Y3625238D01*
X10076817Y3651267D01*
X10072737Y3662882D01*
X10063577Y3688439D01*
X10055806Y3721751D01*
X10045574Y3760865D01*
X10032878Y3792965D01*
X10024531Y3813621D01*
X10010185Y3853472D01*
X9991164Y3908659D01*
X9968791Y3975320D01*
X9944388Y4049595D01*
X9934924Y4078809D01*
X9910453Y4153686D01*
X9887797Y4221203D01*
X9868199Y4277807D01*
X9852899Y4319941D01*
X9843138Y4344048D01*
X9841000Y4347929D01*
X9834057Y4360957D01*
X9835846Y4363048D01*
X9835416Y4373647D01*
X9827435Y4402819D01*
X9813208Y4446625D01*
X9794039Y4501124D01*
X9771230Y4562378D01*
X9761800Y4586809D01*
X9741504Y4638923D01*
X9730379Y4672345D01*
X9729581Y4691206D01*
X9740262Y4699637D01*
X9763577Y4701769D01*
X9793898Y4701714D01*
G37*
X9793898Y4701714D02*
X9866282Y4701714D01*
X9915939Y4552708D01*
X9935203Y4493923D01*
X9951890Y4441178D01*
X9964319Y4399915D01*
X9970808Y4375577D01*
X9971061Y4374303D01*
X9976466Y4354586D01*
X9988556Y4315738D01*
X10006118Y4261492D01*
X10027935Y4195581D01*
X10052792Y4121738D01*
X10064526Y4087265D01*
X10152524Y3829625D01*
X10167727Y3881646D01*
X10181490Y3923644D01*
X10196559Y3962564D01*
X10199857Y3969952D01*
X10213661Y4003605D01*
X10229101Y4046978D01*
X10235457Y4066714D01*
X10256318Y4131843D01*
X10276680Y4191097D01*
X10294271Y4238045D01*
X10303767Y4260238D01*
X10314092Y4285741D01*
X10327465Y4323481D01*
X10334496Y4344905D01*
X10356770Y4410774D01*
X10383662Y4484271D01*
X10410439Y4552632D01*
X10420425Y4576542D01*
X10431603Y4606084D01*
X10436727Y4626464D01*
X10436762Y4627378D01*
X10441433Y4647086D01*
X10450799Y4670907D01*
X10464836Y4701714D01*
X10686656Y4701714D01*
X10756642Y4701247D01*
X10817230Y4699947D01*
X10864708Y4697969D01*
X10895362Y4695466D01*
X10905498Y4692643D01*
X10907222Y4675095D01*
X10916134Y4639264D01*
X10931002Y4589548D01*
X10950592Y4530341D01*
X10952681Y4524304D01*
X10965282Y4484346D01*
X10974748Y4447948D01*
X10976197Y4440790D01*
X10985925Y4405592D01*
X10995763Y4382343D01*
X11004818Y4361524D01*
X11005521Y4353378D01*
X11006933Y4340412D01*
X11015078Y4308878D01*
X11028702Y4263041D01*
X11046553Y4207165D01*
X11062330Y4160155D01*
X11078161Y4110236D01*
X11086737Y4072151D01*
X11089639Y4048571D01*
X11094132Y4048977D01*
X11104038Y4065898D01*
X11116604Y4093080D01*
X11129074Y4124268D01*
X11138694Y4153207D01*
X11142083Y4167657D01*
X11147129Y4187985D01*
X11158283Y4227133D01*
X11174268Y4280889D01*
X11193806Y4345040D01*
X11215616Y4415370D01*
X11238422Y4487667D01*
X11252743Y4532381D01*
X11268015Y4581720D01*
X11281043Y4627310D01*
X11289235Y4660047D01*
X11289717Y4662405D01*
X11297446Y4701714D01*
X11423485Y4701714D01*
X11481311Y4700608D01*
X11523338Y4697501D01*
X11546256Y4692710D01*
X11549524Y4689619D01*
X11542173Y4677858D01*
X11539937Y4677524D01*
X11531514Y4666942D01*
X11520861Y4640027D01*
X11515384Y4621565D01*
X11503581Y4582191D01*
X11486487Y4530812D01*
X11467619Y4477957D01*
X11465920Y4473398D01*
X11446356Y4419934D01*
X11427367Y4366101D01*
X11412863Y4322997D01*
X11412131Y4320714D01*
X11403103Y4293133D01*
X11387538Y4246374D01*
X11366687Y4184161D01*
X11341802Y4110218D01*
X11314133Y4028270D01*
X11286193Y3945762D01*
X11179546Y3631286D01*
X11057245Y3627851D01*
X10934944Y3624417D01*
X10883804Y3779042D01*
X10864221Y3837051D01*
X10846593Y3887061D01*
X10832618Y3924409D01*
X10823995Y3944427D01*
X10822984Y3946044D01*
X10815501Y3962920D01*
X10804198Y3996787D01*
X10791186Y4041183D01*
X10787524Y4054619D01*
X10774410Y4100805D01*
X10762413Y4138271D01*
X10753644Y4160555D01*
X10752054Y4163194D01*
X10744377Y4179288D01*
X10731990Y4211334D01*
X10717379Y4252189D01*
X10703033Y4294712D01*
X10691441Y4331760D01*
X10685436Y4354428D01*
X10678786Y4375973D01*
X10669237Y4401021D01*
X10659829Y4426817D01*
X10645926Y4468454D01*
X10629953Y4518591D01*
X10623302Y4540117D01*
X10607922Y4588319D01*
X10594159Y4627773D01*
X10584091Y4652671D01*
X10581130Y4657807D01*
X10572063Y4654810D01*
X10561551Y4634053D01*
X10559423Y4627569D01*
X10540610Y4569531D01*
X10518793Y4508433D01*
X10498063Y4455561D01*
X10492078Y4441667D01*
X10477654Y4405188D01*
X10463366Y4363025D01*
X10461538Y4357000D01*
X10449618Y4319876D01*
X10438284Y4289175D01*
X10436247Y4284429D01*
X10420561Y4245578D01*
X10400240Y4189058D01*
X10377248Y4120471D01*
X10362018Y4072762D01*
X10348188Y4031159D01*
X10335845Y3998448D01*
X10327860Y3982048D01*
X10318152Y3962992D01*
X10306915Y3932230D01*
X10305483Y3927619D01*
X10290332Y3880386D01*
X10273723Y3832813D01*
X10257957Y3791038D01*
X10245329Y3761201D01*
X10238969Y3749984D01*
X10232592Y3732716D01*
X10231143Y3716356D01*
X10226378Y3690117D01*
X10220172Y3679062D01*
X10209643Y3660379D01*
X10198310Y3629766D01*
X10196957Y3625238D01*
X10177234Y3563915D01*
X10153029Y3503468D01*
X10120497Y3434542D01*
X10110112Y3413905D01*
X10082568Y3364455D01*
X10056251Y3330304D01*
X10024716Y3303812D01*
X10008077Y3292953D01*
X9975579Y3274485D01*
X9946050Y3263219D01*
X9911260Y3257188D01*
X9862973Y3254427D01*
X9844774Y3253945D01*
X9796170Y3253787D01*
X9756645Y3255432D01*
X9732574Y3258546D01*
X9728876Y3259993D01*
X9721578Y3276374D01*
X9717445Y3307283D01*
X9717095Y3319982D01*
X9717095Y3371536D01*
X9765476Y3363895D01*
X9841478Y3357917D01*
X9901640Y3367454D01*
X9949396Y3393407D01*
X9974758Y3418710D01*
X9986827Y3437901D01*
X10005394Y3472306D01*
X10027065Y3515065D01*
X10048448Y3559318D01*
X10066150Y3598203D01*
X10076777Y3624860D01*
X10076900Y3625238D01*
X10076817Y3651267D01*
X10072737Y3662882D01*
X10063577Y3688439D01*
X10055806Y3721751D01*
X10045574Y3760865D01*
X10032878Y3792965D01*
X10024531Y3813621D01*
X10010185Y3853472D01*
X9991164Y3908659D01*
X9968791Y3975320D01*
X9944388Y4049595D01*
X9934924Y4078809D01*
X9910453Y4153686D01*
X9887797Y4221203D01*
X9868199Y4277807D01*
X9852899Y4319941D01*
X9843138Y4344048D01*
X9841000Y4347929D01*
X9834057Y4360957D01*
X9835846Y4363048D01*
X9835416Y4373647D01*
X9827435Y4402819D01*
X9813208Y4446625D01*
X9794039Y4501124D01*
X9771230Y4562378D01*
X9761800Y4586809D01*
X9741504Y4638923D01*
X9730379Y4672345D01*
X9729581Y4691206D01*
X9740262Y4699637D01*
X9763577Y4701769D01*
X9793898Y4701714D01*
G36*
X7849232Y4837786D02*
G01*
X7847069Y4701714D01*
X7971701Y4701724D01*
X8096334Y4701733D01*
X8093414Y4590359D01*
X7973921Y4588584D01*
X7854429Y4586809D01*
X7851219Y4230659D01*
X7850455Y4113701D01*
X7850758Y4018335D01*
X7852539Y3941967D01*
X7856211Y3882007D01*
X7862186Y3835863D01*
X7870877Y3800945D01*
X7882696Y3774661D01*
X7898055Y3754419D01*
X7917366Y3737628D01*
X7931197Y3728017D01*
X7957715Y3712827D01*
X7984580Y3704405D01*
X8019802Y3701219D01*
X8069119Y3701672D01*
X8162857Y3704386D01*
X8162857Y3652717D01*
X8160669Y3618871D01*
X8152574Y3603228D01*
X8141691Y3600020D01*
X8065553Y3597124D01*
X8001646Y3596278D01*
X7953422Y3597443D01*
X7924332Y3600579D01*
X7918459Y3602589D01*
X7901149Y3608291D01*
X7897212Y3607373D01*
X7884136Y3611048D01*
X7858471Y3625086D01*
X7842206Y3635481D01*
X7800079Y3674834D01*
X7763594Y3729071D01*
X7738409Y3788888D01*
X7732032Y3816624D01*
X7730540Y3837426D01*
X7729030Y3879089D01*
X7727568Y3938283D01*
X7726221Y4011678D01*
X7725057Y4095945D01*
X7724143Y4187753D01*
X7723905Y4219494D01*
X7721381Y4586809D01*
X7509715Y4593799D01*
X7509715Y4701714D01*
X7715334Y4701714D01*
X7715334Y4831738D01*
X7715554Y4889078D01*
X7716810Y4926512D01*
X7719993Y4948326D01*
X7725992Y4958805D01*
X7735698Y4962234D01*
X7742548Y4962654D01*
X7774134Y4964833D01*
X7810579Y4968702D01*
X7851395Y4973857D01*
X7849232Y4837786D01*
G37*
X7849232Y4837786D02*
X7847069Y4701714D01*
X7971701Y4701724D01*
X8096334Y4701733D01*
X8093414Y4590359D01*
X7973921Y4588584D01*
X7854429Y4586809D01*
X7851219Y4230659D01*
X7850455Y4113701D01*
X7850758Y4018335D01*
X7852539Y3941967D01*
X7856211Y3882007D01*
X7862186Y3835863D01*
X7870877Y3800945D01*
X7882696Y3774661D01*
X7898055Y3754419D01*
X7917366Y3737628D01*
X7931197Y3728017D01*
X7957715Y3712827D01*
X7984580Y3704405D01*
X8019802Y3701219D01*
X8069119Y3701672D01*
X8162857Y3704386D01*
X8162857Y3652717D01*
X8160669Y3618871D01*
X8152574Y3603228D01*
X8141691Y3600020D01*
X8065553Y3597124D01*
X8001646Y3596278D01*
X7953422Y3597443D01*
X7924332Y3600579D01*
X7918459Y3602589D01*
X7901149Y3608291D01*
X7897212Y3607373D01*
X7884136Y3611048D01*
X7858471Y3625086D01*
X7842206Y3635481D01*
X7800079Y3674834D01*
X7763594Y3729071D01*
X7738409Y3788888D01*
X7732032Y3816624D01*
X7730540Y3837426D01*
X7729030Y3879089D01*
X7727568Y3938283D01*
X7726221Y4011678D01*
X7725057Y4095945D01*
X7724143Y4187753D01*
X7723905Y4219494D01*
X7721381Y4586809D01*
X7509715Y4593799D01*
X7509715Y4701714D01*
X7715334Y4701714D01*
X7715334Y4831738D01*
X7715554Y4889078D01*
X7716810Y4926512D01*
X7719993Y4948326D01*
X7725992Y4958805D01*
X7735698Y4962234D01*
X7742548Y4962654D01*
X7774134Y4964833D01*
X7810579Y4968702D01*
X7851395Y4973857D01*
X7849232Y4837786D01*
G36*
X12665758Y4714209D02*
G01*
X12712061Y4711935D01*
X12747254Y4706589D01*
X12777878Y4696898D01*
X12810469Y4681592D01*
X12832624Y4669762D01*
X12902507Y4621165D01*
X12958753Y4557331D01*
X12994519Y4496857D01*
X13024326Y4438036D01*
X12997520Y4431309D01*
X12970958Y4425075D01*
X12958619Y4422603D01*
X12938924Y4417022D01*
X12916286Y4408905D01*
X12886355Y4398230D01*
X12867905Y4392691D01*
X12841059Y4385499D01*
X12825062Y4380917D01*
X12805461Y4381220D01*
X12786064Y4397447D01*
X12770633Y4418799D01*
X12732861Y4467501D01*
X12693133Y4496956D01*
X12644061Y4511097D01*
X12591851Y4514028D01*
X12522265Y4507508D01*
X12472584Y4488505D01*
X12443277Y4457241D01*
X12437357Y4441322D01*
X12439392Y4404534D01*
X12461006Y4371888D01*
X12497639Y4349109D01*
X12514700Y4344200D01*
X12549171Y4337041D01*
X12575197Y4331541D01*
X12577619Y4331016D01*
X12600940Y4326949D01*
X12635728Y4321883D01*
X12644143Y4320765D01*
X12683936Y4315045D01*
X12718671Y4309192D01*
X12722762Y4308396D01*
X12759964Y4301143D01*
X12784201Y4296590D01*
X12877944Y4270114D01*
X12952719Y4228662D01*
X13008460Y4172307D01*
X13045103Y4101129D01*
X13062582Y4015201D01*
X13064161Y3969952D01*
X13059889Y3906760D01*
X13046648Y3855181D01*
X13021331Y3803356D01*
X13019826Y3800774D01*
X12964198Y3729065D01*
X12890032Y3672389D01*
X12796979Y3630511D01*
X12746953Y3615955D01*
X12727152Y3613540D01*
X12691082Y3611224D01*
X12644683Y3609172D01*
X12593897Y3607547D01*
X12544666Y3606515D01*
X12502932Y3606239D01*
X12474637Y3606884D01*
X12465660Y3608181D01*
X12451546Y3613826D01*
X12437790Y3617035D01*
X12343073Y3645588D01*
X12262521Y3693264D01*
X12199029Y3755164D01*
X12175934Y3787295D01*
X12153343Y3825801D01*
X12134208Y3864523D01*
X12121481Y3897306D01*
X12118113Y3917991D01*
X12119502Y3921057D01*
X12133477Y3925465D01*
X12162957Y3930791D01*
X12178701Y3932989D01*
X12225870Y3939195D01*
X12273174Y3945667D01*
X12281286Y3946812D01*
X12331059Y3953664D01*
X12361569Y3956936D01*
X12377464Y3956725D01*
X12383389Y3953130D01*
X12384095Y3948990D01*
X12393810Y3922892D01*
X12418808Y3892075D01*
X12452869Y3862901D01*
X12488378Y3842321D01*
X12533581Y3829814D01*
X12589961Y3823709D01*
X12648555Y3824033D01*
X12700397Y3830812D01*
X12732342Y3841606D01*
X12764522Y3867444D01*
X12785604Y3900799D01*
X12790769Y3933428D01*
X12789432Y3939255D01*
X12769644Y3965938D01*
X12732059Y3988485D01*
X12683060Y4003460D01*
X12665056Y4006202D01*
X12571107Y4018533D01*
X12498924Y4031806D01*
X12446087Y4046469D01*
X12444572Y4047008D01*
X12413638Y4057422D01*
X12373720Y4070035D01*
X12362135Y4073557D01*
X12291735Y4106755D01*
X12233752Y4158306D01*
X12190666Y4224510D01*
X12164955Y4301664D01*
X12158716Y4377260D01*
X12172065Y4465625D01*
X12206387Y4542009D01*
X12261745Y4606501D01*
X12338201Y4659190D01*
X12367700Y4673832D01*
X12407880Y4691452D01*
X12441324Y4703128D01*
X12474985Y4710070D01*
X12515812Y4713494D01*
X12570756Y4714611D01*
X12601810Y4714685D01*
X12665758Y4714209D01*
G37*
X12665758Y4714209D02*
X12712061Y4711935D01*
X12747254Y4706589D01*
X12777878Y4696898D01*
X12810469Y4681592D01*
X12832624Y4669762D01*
X12902507Y4621165D01*
X12958753Y4557331D01*
X12994519Y4496857D01*
X13024326Y4438036D01*
X12997520Y4431309D01*
X12970958Y4425075D01*
X12958619Y4422603D01*
X12938924Y4417022D01*
X12916286Y4408905D01*
X12886355Y4398230D01*
X12867905Y4392691D01*
X12841059Y4385499D01*
X12825062Y4380917D01*
X12805461Y4381220D01*
X12786064Y4397447D01*
X12770633Y4418799D01*
X12732861Y4467501D01*
X12693133Y4496956D01*
X12644061Y4511097D01*
X12591851Y4514028D01*
X12522265Y4507508D01*
X12472584Y4488505D01*
X12443277Y4457241D01*
X12437357Y4441322D01*
X12439392Y4404534D01*
X12461006Y4371888D01*
X12497639Y4349109D01*
X12514700Y4344200D01*
X12549171Y4337041D01*
X12575197Y4331541D01*
X12577619Y4331016D01*
X12600940Y4326949D01*
X12635728Y4321883D01*
X12644143Y4320765D01*
X12683936Y4315045D01*
X12718671Y4309192D01*
X12722762Y4308396D01*
X12759964Y4301143D01*
X12784201Y4296590D01*
X12877944Y4270114D01*
X12952719Y4228662D01*
X13008460Y4172307D01*
X13045103Y4101129D01*
X13062582Y4015201D01*
X13064161Y3969952D01*
X13059889Y3906760D01*
X13046648Y3855181D01*
X13021331Y3803356D01*
X13019826Y3800774D01*
X12964198Y3729065D01*
X12890032Y3672389D01*
X12796979Y3630511D01*
X12746953Y3615955D01*
X12727152Y3613540D01*
X12691082Y3611224D01*
X12644683Y3609172D01*
X12593897Y3607547D01*
X12544666Y3606515D01*
X12502932Y3606239D01*
X12474637Y3606884D01*
X12465660Y3608181D01*
X12451546Y3613826D01*
X12437790Y3617035D01*
X12343073Y3645588D01*
X12262521Y3693264D01*
X12199029Y3755164D01*
X12175934Y3787295D01*
X12153343Y3825801D01*
X12134208Y3864523D01*
X12121481Y3897306D01*
X12118113Y3917991D01*
X12119502Y3921057D01*
X12133477Y3925465D01*
X12162957Y3930791D01*
X12178701Y3932989D01*
X12225870Y3939195D01*
X12273174Y3945667D01*
X12281286Y3946812D01*
X12331059Y3953664D01*
X12361569Y3956936D01*
X12377464Y3956725D01*
X12383389Y3953130D01*
X12384095Y3948990D01*
X12393810Y3922892D01*
X12418808Y3892075D01*
X12452869Y3862901D01*
X12488378Y3842321D01*
X12533581Y3829814D01*
X12589961Y3823709D01*
X12648555Y3824033D01*
X12700397Y3830812D01*
X12732342Y3841606D01*
X12764522Y3867444D01*
X12785604Y3900799D01*
X12790769Y3933428D01*
X12789432Y3939255D01*
X12769644Y3965938D01*
X12732059Y3988485D01*
X12683060Y4003460D01*
X12665056Y4006202D01*
X12571107Y4018533D01*
X12498924Y4031806D01*
X12446087Y4046469D01*
X12444572Y4047008D01*
X12413638Y4057422D01*
X12373720Y4070035D01*
X12362135Y4073557D01*
X12291735Y4106755D01*
X12233752Y4158306D01*
X12190666Y4224510D01*
X12164955Y4301664D01*
X12158716Y4377260D01*
X12172065Y4465625D01*
X12206387Y4542009D01*
X12261745Y4606501D01*
X12338201Y4659190D01*
X12367700Y4673832D01*
X12407880Y4691452D01*
X12441324Y4703128D01*
X12474985Y4710070D01*
X12515812Y4713494D01*
X12570756Y4714611D01*
X12601810Y4714685D01*
X12665758Y4714209D01*
G36*
X14295228Y4714707D02*
G01*
X14345215Y4712070D01*
X14379810Y4708028D01*
X14408999Y4700057D01*
X14425391Y4690402D01*
X14426175Y4688980D01*
X14440050Y4678667D01*
X14448316Y4677524D01*
X14473956Y4669512D01*
X14510527Y4648368D01*
X14552229Y4618433D01*
X14593261Y4584045D01*
X14627823Y4549546D01*
X14641104Y4533286D01*
X14674187Y4479840D01*
X14706095Y4413765D01*
X14731651Y4346289D01*
X14739120Y4320714D01*
X14744059Y4287178D01*
X14747083Y4236865D01*
X14748228Y4177108D01*
X14747528Y4115243D01*
X14745020Y4058604D01*
X14740737Y4014526D01*
X14737575Y3998052D01*
X14697336Y3886904D01*
X14640449Y3792743D01*
X14567423Y3716169D01*
X14478771Y3657783D01*
X14429942Y3636057D01*
X14372954Y3620448D01*
X14302725Y3610387D01*
X14228057Y3606310D01*
X14157751Y3608653D01*
X14100609Y3617852D01*
X14094914Y3619480D01*
X13999421Y3660855D01*
X13915401Y3721943D01*
X13845335Y3799999D01*
X13791704Y3892280D01*
X13757822Y3992389D01*
X13752005Y4031475D01*
X13748112Y4085704D01*
X13746194Y4147895D01*
X13746250Y4181619D01*
X14071418Y4181619D01*
X14074747Y4075291D01*
X14085212Y3990001D01*
X14103402Y3923498D01*
X14129908Y3873533D01*
X14160606Y3841434D01*
X14186388Y3825964D01*
X14217070Y3820234D01*
X14255646Y3821576D01*
X14303564Y3829975D01*
X14338273Y3844884D01*
X14343426Y3848912D01*
X14374852Y3886715D01*
X14397669Y3936971D01*
X14412610Y4002616D01*
X14420409Y4086588D01*
X14422013Y4163476D01*
X14418557Y4269063D01*
X14407899Y4352911D01*
X14389186Y4416624D01*
X14361567Y4461807D01*
X14324190Y4490062D01*
X14276203Y4502995D01*
X14241091Y4504035D01*
X14186667Y4495147D01*
X14143910Y4471970D01*
X14111919Y4432794D01*
X14089794Y4375908D01*
X14076637Y4299604D01*
X14071547Y4202171D01*
X14071418Y4181619D01*
X13746250Y4181619D01*
X13746300Y4210866D01*
X13748481Y4267436D01*
X13752787Y4310425D01*
X13755516Y4323738D01*
X13764089Y4357170D01*
X13768314Y4375186D01*
X13783512Y4417040D01*
X13810514Y4468317D01*
X13844324Y4521039D01*
X13879941Y4567227D01*
X13904394Y4592395D01*
X13957129Y4631651D01*
X14021402Y4669230D01*
X14085662Y4698707D01*
X14111587Y4707644D01*
X14140053Y4712030D01*
X14185148Y4714677D01*
X14239373Y4715573D01*
X14295228Y4714707D01*
G37*
X14295228Y4714707D02*
X14345215Y4712070D01*
X14379810Y4708028D01*
X14408999Y4700057D01*
X14425391Y4690402D01*
X14426175Y4688980D01*
X14440050Y4678667D01*
X14448316Y4677524D01*
X14473956Y4669512D01*
X14510527Y4648368D01*
X14552229Y4618433D01*
X14593261Y4584045D01*
X14627823Y4549546D01*
X14641104Y4533286D01*
X14674187Y4479840D01*
X14706095Y4413765D01*
X14731651Y4346289D01*
X14739120Y4320714D01*
X14744059Y4287178D01*
X14747083Y4236865D01*
X14748228Y4177108D01*
X14747528Y4115243D01*
X14745020Y4058604D01*
X14740737Y4014526D01*
X14737575Y3998052D01*
X14697336Y3886904D01*
X14640449Y3792743D01*
X14567423Y3716169D01*
X14478771Y3657783D01*
X14429942Y3636057D01*
X14372954Y3620448D01*
X14302725Y3610387D01*
X14228057Y3606310D01*
X14157751Y3608653D01*
X14100609Y3617852D01*
X14094914Y3619480D01*
X13999421Y3660855D01*
X13915401Y3721943D01*
X13845335Y3799999D01*
X13791704Y3892280D01*
X13757822Y3992389D01*
X13752005Y4031475D01*
X13748112Y4085704D01*
X13746194Y4147895D01*
X13746250Y4181619D01*
X14071418Y4181619D01*
X14074747Y4075291D01*
X14085212Y3990001D01*
X14103402Y3923498D01*
X14129908Y3873533D01*
X14160606Y3841434D01*
X14186388Y3825964D01*
X14217070Y3820234D01*
X14255646Y3821576D01*
X14303564Y3829975D01*
X14338273Y3844884D01*
X14343426Y3848912D01*
X14374852Y3886715D01*
X14397669Y3936971D01*
X14412610Y4002616D01*
X14420409Y4086588D01*
X14422013Y4163476D01*
X14418557Y4269063D01*
X14407899Y4352911D01*
X14389186Y4416624D01*
X14361567Y4461807D01*
X14324190Y4490062D01*
X14276203Y4502995D01*
X14241091Y4504035D01*
X14186667Y4495147D01*
X14143910Y4471970D01*
X14111919Y4432794D01*
X14089794Y4375908D01*
X14076637Y4299604D01*
X14071547Y4202171D01*
X14071418Y4181619D01*
X13746250Y4181619D01*
X13746300Y4210866D01*
X13748481Y4267436D01*
X13752787Y4310425D01*
X13755516Y4323738D01*
X13764089Y4357170D01*
X13768314Y4375186D01*
X13783512Y4417040D01*
X13810514Y4468317D01*
X13844324Y4521039D01*
X13879941Y4567227D01*
X13904394Y4592395D01*
X13957129Y4631651D01*
X14021402Y4669230D01*
X14085662Y4698707D01*
X14111587Y4707644D01*
X14140053Y4712030D01*
X14185148Y4714677D01*
X14239373Y4715573D01*
X14295228Y4714707D01*
G36*
X17193455Y4714314D02*
G01*
X17250356Y4709944D01*
X17297011Y4701323D01*
X17340350Y4687357D01*
X17366418Y4676500D01*
X17438327Y4637247D01*
X17492626Y4591766D01*
X17520901Y4552922D01*
X17530598Y4533720D01*
X17538467Y4514639D01*
X17544714Y4492993D01*
X17549546Y4466091D01*
X17553170Y4431244D01*
X17555790Y4385763D01*
X17557615Y4326959D01*
X17558851Y4252144D01*
X17559704Y4158627D01*
X17560381Y4043721D01*
X17560408Y4038467D01*
X17561246Y3946851D01*
X17562715Y3862010D01*
X17564702Y3787270D01*
X17567096Y3725958D01*
X17569785Y3681400D01*
X17572656Y3656923D01*
X17573345Y3654443D01*
X17584449Y3625238D01*
X17427510Y3625238D01*
X17362970Y3625534D01*
X17318788Y3626761D01*
X17291138Y3629433D01*
X17276193Y3634060D01*
X17270125Y3641154D01*
X17269176Y3646405D01*
X17266435Y3671622D01*
X17264971Y3679667D01*
X17262563Y3699217D01*
X17260466Y3730613D01*
X17260319Y3733832D01*
X17258476Y3775901D01*
X17206235Y3719000D01*
X17146343Y3665309D01*
X17079998Y3630041D01*
X17001895Y3610967D01*
X16937513Y3606060D01*
X16882287Y3606882D01*
X16831707Y3611505D01*
X16795396Y3619043D01*
X16794821Y3619238D01*
X16721873Y3653388D01*
X16665488Y3698918D01*
X16630259Y3750624D01*
X16612464Y3795600D01*
X16597996Y3842881D01*
X16588729Y3885040D01*
X16586672Y3912802D01*
X16926566Y3912802D01*
X16944818Y3869430D01*
X16977924Y3835451D01*
X17021302Y3814120D01*
X17070372Y3808690D01*
X17120552Y3822414D01*
X17123006Y3823660D01*
X17178560Y3864872D01*
X17217269Y3922321D01*
X17239550Y3996804D01*
X17245563Y4058535D01*
X17248165Y4135023D01*
X17195868Y4128559D01*
X17101793Y4111281D01*
X17029001Y4084854D01*
X16976037Y4048375D01*
X16941442Y4000940D01*
X16927751Y3962315D01*
X16926566Y3912802D01*
X16586672Y3912802D01*
X16586535Y3914648D01*
X16587557Y3920037D01*
X16592110Y3940136D01*
X16597729Y3972835D01*
X16599039Y3981561D01*
X16616941Y4041467D01*
X16650090Y4101455D01*
X16692250Y4150945D01*
X16705389Y4161912D01*
X16759053Y4197417D01*
X16815612Y4226592D01*
X16866023Y4244942D01*
X16877476Y4247470D01*
X16915331Y4254457D01*
X16944000Y4260015D01*
X16975621Y4265191D01*
X17023650Y4271739D01*
X17080412Y4278757D01*
X17138232Y4285344D01*
X17189434Y4290596D01*
X17226343Y4293614D01*
X17232570Y4293918D01*
X17241810Y4300408D01*
X17245417Y4321863D01*
X17244069Y4362586D01*
X17243855Y4365599D01*
X17233087Y4426969D01*
X17209613Y4468853D01*
X17171072Y4493632D01*
X17115104Y4503685D01*
X17106597Y4504030D01*
X17055747Y4501332D01*
X17012839Y4491641D01*
X17003031Y4487514D01*
X16969412Y4462278D01*
X16940443Y4426309D01*
X16922594Y4388643D01*
X16919855Y4371316D01*
X16917434Y4359785D01*
X16906743Y4354103D01*
X16882552Y4353307D01*
X16839630Y4356436D01*
X16839149Y4356479D01*
X16793594Y4361047D01*
X16754834Y4365883D01*
X16733315Y4369529D01*
X16703623Y4374953D01*
X16666806Y4379851D01*
X16665810Y4379958D01*
X16635160Y4387570D01*
X16625616Y4400878D01*
X16625628Y4400973D01*
X16648156Y4484315D01*
X16691204Y4557327D01*
X16752157Y4616753D01*
X16828402Y4659334D01*
X16834993Y4661881D01*
X16868209Y4675171D01*
X16890785Y4685775D01*
X16895619Y4688998D01*
X16911887Y4697419D01*
X16915688Y4698325D01*
X16967629Y4707281D01*
X17013340Y4712538D01*
X17063375Y4714987D01*
X17119381Y4715527D01*
X17193455Y4714314D01*
G37*
X17193455Y4714314D02*
X17250356Y4709944D01*
X17297011Y4701323D01*
X17340350Y4687357D01*
X17366418Y4676500D01*
X17438327Y4637247D01*
X17492626Y4591766D01*
X17520901Y4552922D01*
X17530598Y4533720D01*
X17538467Y4514639D01*
X17544714Y4492993D01*
X17549546Y4466091D01*
X17553170Y4431244D01*
X17555790Y4385763D01*
X17557615Y4326959D01*
X17558851Y4252144D01*
X17559704Y4158627D01*
X17560381Y4043721D01*
X17560408Y4038467D01*
X17561246Y3946851D01*
X17562715Y3862010D01*
X17564702Y3787270D01*
X17567096Y3725958D01*
X17569785Y3681400D01*
X17572656Y3656923D01*
X17573345Y3654443D01*
X17584449Y3625238D01*
X17427510Y3625238D01*
X17362970Y3625534D01*
X17318788Y3626761D01*
X17291138Y3629433D01*
X17276193Y3634060D01*
X17270125Y3641154D01*
X17269176Y3646405D01*
X17266435Y3671622D01*
X17264971Y3679667D01*
X17262563Y3699217D01*
X17260466Y3730613D01*
X17260319Y3733832D01*
X17258476Y3775901D01*
X17206235Y3719000D01*
X17146343Y3665309D01*
X17079998Y3630041D01*
X17001895Y3610967D01*
X16937513Y3606060D01*
X16882287Y3606882D01*
X16831707Y3611505D01*
X16795396Y3619043D01*
X16794821Y3619238D01*
X16721873Y3653388D01*
X16665488Y3698918D01*
X16630259Y3750624D01*
X16612464Y3795600D01*
X16597996Y3842881D01*
X16588729Y3885040D01*
X16586672Y3912802D01*
X16926566Y3912802D01*
X16944818Y3869430D01*
X16977924Y3835451D01*
X17021302Y3814120D01*
X17070372Y3808690D01*
X17120552Y3822414D01*
X17123006Y3823660D01*
X17178560Y3864872D01*
X17217269Y3922321D01*
X17239550Y3996804D01*
X17245563Y4058535D01*
X17248165Y4135023D01*
X17195868Y4128559D01*
X17101793Y4111281D01*
X17029001Y4084854D01*
X16976037Y4048375D01*
X16941442Y4000940D01*
X16927751Y3962315D01*
X16926566Y3912802D01*
X16586672Y3912802D01*
X16586535Y3914648D01*
X16587557Y3920037D01*
X16592110Y3940136D01*
X16597729Y3972835D01*
X16599039Y3981561D01*
X16616941Y4041467D01*
X16650090Y4101455D01*
X16692250Y4150945D01*
X16705389Y4161912D01*
X16759053Y4197417D01*
X16815612Y4226592D01*
X16866023Y4244942D01*
X16877476Y4247470D01*
X16915331Y4254457D01*
X16944000Y4260015D01*
X16975621Y4265191D01*
X17023650Y4271739D01*
X17080412Y4278757D01*
X17138232Y4285344D01*
X17189434Y4290596D01*
X17226343Y4293614D01*
X17232570Y4293918D01*
X17241810Y4300408D01*
X17245417Y4321863D01*
X17244069Y4362586D01*
X17243855Y4365599D01*
X17233087Y4426969D01*
X17209613Y4468853D01*
X17171072Y4493632D01*
X17115104Y4503685D01*
X17106597Y4504030D01*
X17055747Y4501332D01*
X17012839Y4491641D01*
X17003031Y4487514D01*
X16969412Y4462278D01*
X16940443Y4426309D01*
X16922594Y4388643D01*
X16919855Y4371316D01*
X16917434Y4359785D01*
X16906743Y4354103D01*
X16882552Y4353307D01*
X16839630Y4356436D01*
X16839149Y4356479D01*
X16793594Y4361047D01*
X16754834Y4365883D01*
X16733315Y4369529D01*
X16703623Y4374953D01*
X16666806Y4379851D01*
X16665810Y4379958D01*
X16635160Y4387570D01*
X16625616Y4400878D01*
X16625628Y4400973D01*
X16648156Y4484315D01*
X16691204Y4557327D01*
X16752157Y4616753D01*
X16828402Y4659334D01*
X16834993Y4661881D01*
X16868209Y4675171D01*
X16890785Y4685775D01*
X16895619Y4688998D01*
X16911887Y4697419D01*
X16915688Y4698325D01*
X16967629Y4707281D01*
X17013340Y4712538D01*
X17063375Y4714987D01*
X17119381Y4715527D01*
X17193455Y4714314D01*
G36*
X8465238Y3625238D02*
G01*
X8332191Y3625238D01*
X8332191Y4701714D01*
X8465238Y4701714D01*
X8465238Y3625238D01*
G37*
X8465238Y3625238D02*
X8332191Y3625238D01*
X8332191Y4701714D01*
X8465238Y4701714D01*
X8465238Y3625238D01*
G36*
X9376031Y4714677D02*
G01*
X9396572Y4708571D01*
X9448829Y4681189D01*
X9500125Y4636188D01*
X9545044Y4579726D01*
X9578170Y4517962D01*
X9587338Y4491659D01*
X9589201Y4473801D01*
X9591144Y4434730D01*
X9593089Y4377422D01*
X9594958Y4304852D01*
X9596671Y4219997D01*
X9598151Y4125833D01*
X9599116Y4045548D01*
X9603489Y3625238D01*
X9475191Y3625238D01*
X9475191Y3985071D01*
X9474961Y4108548D01*
X9474058Y4210401D01*
X9472161Y4293195D01*
X9468952Y4359495D01*
X9464109Y4411865D01*
X9457314Y4452870D01*
X9448245Y4485074D01*
X9436583Y4511042D01*
X9422009Y4533338D01*
X9404201Y4554527D01*
X9404132Y4554604D01*
X9354840Y4592283D01*
X9295991Y4611135D01*
X9231568Y4612375D01*
X9165554Y4597223D01*
X9101933Y4566896D01*
X9044688Y4522610D01*
X8997802Y4465585D01*
X8975315Y4423524D01*
X8962633Y4392720D01*
X8952607Y4362882D01*
X8944929Y4330716D01*
X8939292Y4292929D01*
X8935386Y4246229D01*
X8932904Y4187324D01*
X8931538Y4112920D01*
X8930980Y4019725D01*
X8930905Y3948786D01*
X8930905Y3625238D01*
X8791810Y3625238D01*
X8791810Y4701714D01*
X8861357Y4701722D01*
X8930905Y4701729D01*
X8926864Y4643466D01*
X8925238Y4600080D01*
X8925974Y4560584D01*
X8926864Y4549720D01*
X8930905Y4514238D01*
X8970559Y4571346D01*
X9032578Y4640719D01*
X9107250Y4690742D01*
X9191459Y4720411D01*
X9282090Y4728724D01*
X9376031Y4714677D01*
G37*
X9376031Y4714677D02*
X9396572Y4708571D01*
X9448829Y4681189D01*
X9500125Y4636188D01*
X9545044Y4579726D01*
X9578170Y4517962D01*
X9587338Y4491659D01*
X9589201Y4473801D01*
X9591144Y4434730D01*
X9593089Y4377422D01*
X9594958Y4304852D01*
X9596671Y4219997D01*
X9598151Y4125833D01*
X9599116Y4045548D01*
X9603489Y3625238D01*
X9475191Y3625238D01*
X9475191Y3985071D01*
X9474961Y4108548D01*
X9474058Y4210401D01*
X9472161Y4293195D01*
X9468952Y4359495D01*
X9464109Y4411865D01*
X9457314Y4452870D01*
X9448245Y4485074D01*
X9436583Y4511042D01*
X9422009Y4533338D01*
X9404201Y4554527D01*
X9404132Y4554604D01*
X9354840Y4592283D01*
X9295991Y4611135D01*
X9231568Y4612375D01*
X9165554Y4597223D01*
X9101933Y4566896D01*
X9044688Y4522610D01*
X8997802Y4465585D01*
X8975315Y4423524D01*
X8962633Y4392720D01*
X8952607Y4362882D01*
X8944929Y4330716D01*
X8939292Y4292929D01*
X8935386Y4246229D01*
X8932904Y4187324D01*
X8931538Y4112920D01*
X8930980Y4019725D01*
X8930905Y3948786D01*
X8930905Y3625238D01*
X8791810Y3625238D01*
X8791810Y4701714D01*
X8861357Y4701722D01*
X8930905Y4701729D01*
X8926864Y4643466D01*
X8925238Y4600080D01*
X8925974Y4560584D01*
X8926864Y4549720D01*
X8930905Y4514238D01*
X8970559Y4571346D01*
X9032578Y4640719D01*
X9107250Y4690742D01*
X9191459Y4720411D01*
X9282090Y4728724D01*
X9376031Y4714677D01*
G36*
X11984953Y3625238D02*
G01*
X11670476Y3625238D01*
X11670476Y4701714D01*
X11984953Y4701714D01*
X11984953Y3625238D01*
G37*
X11984953Y3625238D02*
X11670476Y3625238D01*
X11670476Y4701714D01*
X11984953Y4701714D01*
X11984953Y3625238D01*
G36*
X13551286Y3625238D02*
G01*
X13236810Y3625238D01*
X13236810Y4701714D01*
X13551286Y4701714D01*
X13551286Y3625238D01*
G37*
X13551286Y3625238D02*
X13236810Y3625238D01*
X13236810Y4701714D01*
X13551286Y4701714D01*
X13551286Y3625238D01*
G36*
X15585940Y4713751D02*
G01*
X15622658Y4712291D01*
X15639671Y4710534D01*
X15660396Y4702299D01*
X15693269Y4684993D01*
X15721930Y4668017D01*
X15764288Y4637280D01*
X15793418Y4602693D01*
X15814946Y4561975D01*
X15825431Y4537994D01*
X15834004Y4514546D01*
X15840877Y4488946D01*
X15846258Y4458507D01*
X15850360Y4420545D01*
X15853391Y4372374D01*
X15855563Y4311308D01*
X15857085Y4234661D01*
X15858169Y4139748D01*
X15859024Y4023884D01*
X15859191Y3997166D01*
X15861476Y3625237D01*
X15704238Y3625238D01*
X15547000Y3625238D01*
X15547000Y3966929D01*
X15546716Y4058066D01*
X15545914Y4143531D01*
X15544670Y4219677D01*
X15543060Y4282856D01*
X15541160Y4329423D01*
X15539046Y4355731D01*
X15538874Y4356825D01*
X15519769Y4408791D01*
X15484799Y4446133D01*
X15438109Y4465303D01*
X15410320Y4466900D01*
X15360654Y4458387D01*
X15324003Y4436603D01*
X15296090Y4397746D01*
X15275608Y4347159D01*
X15267839Y4322403D01*
X15261864Y4298317D01*
X15257492Y4271483D01*
X15254533Y4238483D01*
X15252794Y4195900D01*
X15252086Y4140315D01*
X15252218Y4068311D01*
X15252998Y3976469D01*
X15253298Y3947538D01*
X15256715Y3625222D01*
X15099476Y3625230D01*
X14942238Y3625238D01*
X14942238Y4701714D01*
X15087381Y4701722D01*
X15232524Y4701729D01*
X15228444Y4642889D01*
X15226812Y4601373D01*
X15227471Y4565532D01*
X15228444Y4555191D01*
X15231960Y4540936D01*
X15238984Y4540608D01*
X15252920Y4556437D01*
X15272676Y4584166D01*
X15306816Y4624701D01*
X15349242Y4663014D01*
X15392719Y4693373D01*
X15430014Y4710044D01*
X15432095Y4710527D01*
X15455022Y4712691D01*
X15493831Y4713950D01*
X15540234Y4714304D01*
X15585940Y4713751D01*
G37*
X15585940Y4713751D02*
X15622658Y4712291D01*
X15639671Y4710534D01*
X15660396Y4702299D01*
X15693269Y4684993D01*
X15721930Y4668017D01*
X15764288Y4637280D01*
X15793418Y4602693D01*
X15814946Y4561975D01*
X15825431Y4537994D01*
X15834004Y4514546D01*
X15840877Y4488946D01*
X15846258Y4458507D01*
X15850360Y4420545D01*
X15853391Y4372374D01*
X15855563Y4311308D01*
X15857085Y4234661D01*
X15858169Y4139748D01*
X15859024Y4023884D01*
X15859191Y3997166D01*
X15861476Y3625237D01*
X15704238Y3625238D01*
X15547000Y3625238D01*
X15547000Y3966929D01*
X15546716Y4058066D01*
X15545914Y4143531D01*
X15544670Y4219677D01*
X15543060Y4282856D01*
X15541160Y4329423D01*
X15539046Y4355731D01*
X15538874Y4356825D01*
X15519769Y4408791D01*
X15484799Y4446133D01*
X15438109Y4465303D01*
X15410320Y4466900D01*
X15360654Y4458387D01*
X15324003Y4436603D01*
X15296090Y4397746D01*
X15275608Y4347159D01*
X15267839Y4322403D01*
X15261864Y4298317D01*
X15257492Y4271483D01*
X15254533Y4238483D01*
X15252794Y4195900D01*
X15252086Y4140315D01*
X15252218Y4068311D01*
X15252998Y3976469D01*
X15253298Y3947538D01*
X15256715Y3625222D01*
X15099476Y3625230D01*
X14942238Y3625238D01*
X14942238Y4701714D01*
X15087381Y4701722D01*
X15232524Y4701729D01*
X15228444Y4642889D01*
X15226812Y4601373D01*
X15227471Y4565532D01*
X15228444Y4555191D01*
X15231960Y4540936D01*
X15238984Y4540608D01*
X15252920Y4556437D01*
X15272676Y4584166D01*
X15306816Y4624701D01*
X15349242Y4663014D01*
X15392719Y4693373D01*
X15430014Y4710044D01*
X15432095Y4710527D01*
X15455022Y4712691D01*
X15493831Y4713950D01*
X15540234Y4714304D01*
X15585940Y4713751D01*
G36*
X16415554Y3789302D02*
G01*
X16417857Y3625235D01*
X16091286Y3625235D01*
X16093590Y3789302D01*
X16095893Y3953370D01*
X16413250Y3953370D01*
X16415554Y3789302D01*
G37*
X16415554Y3789302D02*
X16417857Y3625235D01*
X16091286Y3625235D01*
X16093590Y3789302D01*
X16095893Y3953370D01*
X16413250Y3953370D01*
X16415554Y3789302D01*
G36*
X18123286Y3625238D02*
G01*
X17808810Y3625238D01*
X17808810Y4701714D01*
X18123286Y4701714D01*
X18123286Y3625238D01*
G37*
X18123286Y3625238D02*
X17808810Y3625238D01*
X17808810Y4701714D01*
X18123286Y4701714D01*
X18123286Y3625238D01*
G36*
X11984953Y4786381D02*
G01*
X11670476Y4786381D01*
X11670476Y5106905D01*
X11984953Y5106905D01*
X11984953Y4786381D01*
G37*
X11984953Y4786381D02*
X11670476Y4786381D01*
X11670476Y5106905D01*
X11984953Y5106905D01*
X11984953Y4786381D01*
G36*
X13549005Y4944424D02*
G01*
X13551286Y4786377D01*
X13236810Y4786377D01*
X13239091Y4944424D01*
X13241372Y5102470D01*
X13546723Y5102470D01*
X13549005Y4944424D01*
G37*
X13549005Y4944424D02*
X13551286Y4786377D01*
X13236810Y4786377D01*
X13239091Y4944424D01*
X13241372Y5102470D01*
X13546723Y5102470D01*
X13549005Y4944424D01*
G36*
X18121005Y4944424D02*
G01*
X18123286Y4786377D01*
X17808810Y4786377D01*
X17811091Y4944424D01*
X17813372Y5102470D01*
X18118723Y5102470D01*
X18121005Y4944424D01*
G37*
X18121005Y4944424D02*
X18123286Y4786377D01*
X17808810Y4786377D01*
X17811091Y4944424D01*
X17813372Y5102470D01*
X18118723Y5102470D01*
X18121005Y4944424D01*
G36*
X8469505Y4996744D02*
G01*
X8467723Y4916807D01*
X8320081Y4913381D01*
X8320095Y5076667D01*
X8395691Y5076673D01*
X8471286Y5076680D01*
X8469505Y4996744D01*
G37*
X8469505Y4996744D02*
X8467723Y4916807D01*
X8320081Y4913381D01*
X8320095Y5076667D01*
X8395691Y5076673D01*
X8471286Y5076680D01*
X8469505Y4996744D01*
G36*
X13010010Y7689087D02*
G01*
X13064009Y7687666D01*
X13104360Y7685439D01*
X13121905Y7683272D01*
X13157615Y7676093D01*
X13187411Y7670445D01*
X13215355Y7664247D01*
X13230762Y7659000D01*
X13247234Y7653660D01*
X13276440Y7647390D01*
X13279309Y7646876D01*
X13313052Y7636605D01*
X13362782Y7615895D01*
X13423950Y7587092D01*
X13492006Y7552542D01*
X13562402Y7514592D01*
X13630589Y7475586D01*
X13692017Y7437872D01*
X13718763Y7420240D01*
X13778353Y7375877D01*
X13848828Y7316929D01*
X13925585Y7247392D01*
X13993785Y7181495D01*
X14065087Y7109926D01*
X14123538Y7049602D01*
X14173936Y6995225D01*
X14221080Y6941498D01*
X14269768Y6883123D01*
X14316474Y6825239D01*
X14364132Y6765573D01*
X14290328Y6662074D01*
X14253155Y6614292D01*
X14202355Y6555152D01*
X14141621Y6488410D01*
X14074646Y6417825D01*
X14005121Y6347154D01*
X13936739Y6280155D01*
X13873192Y6220586D01*
X13818172Y6172204D01*
X13777872Y6140529D01*
X13655359Y6057838D01*
X13537047Y5986651D01*
X13425907Y5928510D01*
X13324908Y5884958D01*
X13237021Y5857536D01*
X13229510Y5855836D01*
X13185497Y5846196D01*
X13156407Y5839646D01*
X13133512Y5834197D01*
X13121905Y5831325D01*
X13100993Y5828637D01*
X13062875Y5825959D01*
X13012682Y5823442D01*
X12955544Y5821237D01*
X12896591Y5819493D01*
X12840954Y5818362D01*
X12793764Y5817992D01*
X12760150Y5818536D01*
X12745244Y5820142D01*
X12745050Y5820282D01*
X12731427Y5824866D01*
X12704619Y5830217D01*
X12555877Y5866332D01*
X12406315Y5925964D01*
X12256757Y6008494D01*
X12108023Y6113303D01*
X11960935Y6239773D01*
X11816314Y6387286D01*
X11674983Y6555222D01*
X11588791Y6670134D01*
X11525826Y6757744D01*
X11527674Y6760435D01*
X11779647Y6760435D01*
X11874447Y6641241D01*
X11933278Y6571312D01*
X12002109Y6496001D01*
X12075686Y6420583D01*
X12148752Y6350331D01*
X12216054Y6290518D01*
X12255811Y6258525D01*
X12287688Y6234947D01*
X12311201Y6218685D01*
X12320327Y6213619D01*
X12316795Y6222065D01*
X12301857Y6243581D01*
X12290112Y6258976D01*
X12266218Y6294380D01*
X12238226Y6343201D01*
X12209365Y6398875D01*
X12182864Y6454835D01*
X12161951Y6504517D01*
X12149856Y6541356D01*
X12148842Y6546238D01*
X12141742Y6584112D01*
X12135899Y6612762D01*
X12132627Y6641494D01*
X12130521Y6687328D01*
X12129575Y6743202D01*
X12129782Y6802055D01*
X12131137Y6856826D01*
X12133632Y6900454D01*
X12136168Y6921190D01*
X12164484Y7027566D01*
X12205338Y7123786D01*
X12347855Y7123786D01*
X12353623Y7108222D01*
X12367674Y7082128D01*
X12369888Y7078429D01*
X12387945Y7047582D01*
X12411418Y7006141D01*
X12428331Y6975619D01*
X12443697Y6947977D01*
X12469145Y6902667D01*
X12502783Y6843036D01*
X12542717Y6772436D01*
X12587054Y6694215D01*
X12633902Y6611724D01*
X12643628Y6594619D01*
X12692011Y6509507D01*
X12739419Y6426047D01*
X12783707Y6348016D01*
X12822734Y6279194D01*
X12854355Y6223358D01*
X12876428Y6184285D01*
X12878449Y6180696D01*
X12903480Y6137631D01*
X12924597Y6103886D01*
X12938799Y6084126D01*
X12942591Y6080910D01*
X12951449Y6090676D01*
X12969034Y6117353D01*
X12992581Y6156562D01*
X13012990Y6192452D01*
X13040265Y6241488D01*
X13064295Y6284695D01*
X13068269Y6291843D01*
X13625542Y6291843D01*
X13628443Y6289288D01*
X13651359Y6307863D01*
X13677974Y6329897D01*
X13782590Y6419889D01*
X13869791Y6500486D01*
X13942850Y6574836D01*
X13999582Y6639456D01*
X14035009Y6683262D01*
X14063865Y6720850D01*
X14083058Y6748061D01*
X14089524Y6760452D01*
X14081390Y6776271D01*
X14058984Y6805797D01*
X14025298Y6845793D01*
X13983326Y6893023D01*
X13936061Y6944248D01*
X13886495Y6996234D01*
X13837622Y7045742D01*
X13792434Y7089537D01*
X13753925Y7124381D01*
X13749618Y7128040D01*
X13696908Y7172151D01*
X13660829Y7201173D01*
X13639620Y7215729D01*
X13631520Y7216442D01*
X13634766Y7203936D01*
X13647598Y7178833D01*
X13657732Y7160545D01*
X13698194Y7074671D01*
X13730641Y6979621D01*
X13744640Y6921190D01*
X13748016Y6890240D01*
X13750248Y6842928D01*
X13751328Y6786333D01*
X13751246Y6727537D01*
X13749992Y6673618D01*
X13747557Y6631657D01*
X13745054Y6612762D01*
X13737951Y6577343D01*
X13732278Y6546238D01*
X13724383Y6520436D01*
X13707999Y6479470D01*
X13685769Y6429651D01*
X13667752Y6392098D01*
X13646164Y6346517D01*
X13631630Y6311887D01*
X13625542Y6291843D01*
X13068269Y6291843D01*
X13081912Y6316378D01*
X13088661Y6328524D01*
X13099514Y6347690D01*
X13119760Y6383116D01*
X13146707Y6430104D01*
X13177666Y6483959D01*
X13184572Y6495956D01*
X13214614Y6548408D01*
X13239761Y6592834D01*
X13257811Y6625306D01*
X13266563Y6641897D01*
X13267048Y6643169D01*
X13272702Y6654640D01*
X13287933Y6682341D01*
X13310140Y6721597D01*
X13326895Y6750768D01*
X13360735Y6809984D01*
X13397461Y6875227D01*
X13430421Y6934657D01*
X13437866Y6948270D01*
X13464051Y6995875D01*
X13488603Y7039690D01*
X13507241Y7072099D01*
X13511021Y7078429D01*
X13525832Y7105169D01*
X13532981Y7122683D01*
X13533098Y7123786D01*
X13521397Y7125579D01*
X13487820Y7127255D01*
X13434678Y7128777D01*
X13364285Y7130111D01*
X13278953Y7131221D01*
X13180997Y7132072D01*
X13072729Y7132628D01*
X12956462Y7132854D01*
X12940476Y7132857D01*
X12823317Y7132678D01*
X12713849Y7132164D01*
X12614384Y7131350D01*
X12527235Y7130273D01*
X12454716Y7128967D01*
X12399140Y7127467D01*
X12362820Y7125810D01*
X12348068Y7124030D01*
X12347855Y7123786D01*
X12205338Y7123786D01*
X12210250Y7135353D01*
X12255055Y7216641D01*
X12266798Y7237746D01*
X12269091Y7247674D01*
X12259900Y7245517D01*
X12237196Y7230364D01*
X12198946Y7201309D01*
X12169871Y7178543D01*
X12126870Y7141759D01*
X12073675Y7091841D01*
X12014981Y7033651D01*
X11955484Y6972054D01*
X11899881Y6911913D01*
X11852868Y6858090D01*
X11819141Y6815450D01*
X11818800Y6814976D01*
X11779647Y6760435D01*
X11527674Y6760435D01*
X11598431Y6863460D01*
X11724124Y7029968D01*
X11863130Y7183965D01*
X12011671Y7321635D01*
X12165968Y7439158D01*
X12172429Y7443536D01*
X12240005Y7485559D01*
X12319058Y7529068D01*
X12403356Y7571113D01*
X12486670Y7608742D01*
X12562772Y7639004D01*
X12625430Y7658947D01*
X12629024Y7659850D01*
X12682045Y7672180D01*
X12726362Y7680581D01*
X12746953Y7683808D01*
X12778484Y7686544D01*
X12826603Y7688432D01*
X12885261Y7689479D01*
X12948412Y7689695D01*
X13010010Y7689087D01*
G37*
X13010010Y7689087D02*
X13064009Y7687666D01*
X13104360Y7685439D01*
X13121905Y7683272D01*
X13157615Y7676093D01*
X13187411Y7670445D01*
X13215355Y7664247D01*
X13230762Y7659000D01*
X13247234Y7653660D01*
X13276440Y7647390D01*
X13279309Y7646876D01*
X13313052Y7636605D01*
X13362782Y7615895D01*
X13423950Y7587092D01*
X13492006Y7552542D01*
X13562402Y7514592D01*
X13630589Y7475586D01*
X13692017Y7437872D01*
X13718763Y7420240D01*
X13778353Y7375877D01*
X13848828Y7316929D01*
X13925585Y7247392D01*
X13993785Y7181495D01*
X14065087Y7109926D01*
X14123538Y7049602D01*
X14173936Y6995225D01*
X14221080Y6941498D01*
X14269768Y6883123D01*
X14316474Y6825239D01*
X14364132Y6765573D01*
X14290328Y6662074D01*
X14253155Y6614292D01*
X14202355Y6555152D01*
X14141621Y6488410D01*
X14074646Y6417825D01*
X14005121Y6347154D01*
X13936739Y6280155D01*
X13873192Y6220586D01*
X13818172Y6172204D01*
X13777872Y6140529D01*
X13655359Y6057838D01*
X13537047Y5986651D01*
X13425907Y5928510D01*
X13324908Y5884958D01*
X13237021Y5857536D01*
X13229510Y5855836D01*
X13185497Y5846196D01*
X13156407Y5839646D01*
X13133512Y5834197D01*
X13121905Y5831325D01*
X13100993Y5828637D01*
X13062875Y5825959D01*
X13012682Y5823442D01*
X12955544Y5821237D01*
X12896591Y5819493D01*
X12840954Y5818362D01*
X12793764Y5817992D01*
X12760150Y5818536D01*
X12745244Y5820142D01*
X12745050Y5820282D01*
X12731427Y5824866D01*
X12704619Y5830217D01*
X12555877Y5866332D01*
X12406315Y5925964D01*
X12256757Y6008494D01*
X12108023Y6113303D01*
X11960935Y6239773D01*
X11816314Y6387286D01*
X11674983Y6555222D01*
X11588791Y6670134D01*
X11525826Y6757744D01*
X11527674Y6760435D01*
X11779647Y6760435D01*
X11874447Y6641241D01*
X11933278Y6571312D01*
X12002109Y6496001D01*
X12075686Y6420583D01*
X12148752Y6350331D01*
X12216054Y6290518D01*
X12255811Y6258525D01*
X12287688Y6234947D01*
X12311201Y6218685D01*
X12320327Y6213619D01*
X12316795Y6222065D01*
X12301857Y6243581D01*
X12290112Y6258976D01*
X12266218Y6294380D01*
X12238226Y6343201D01*
X12209365Y6398875D01*
X12182864Y6454835D01*
X12161951Y6504517D01*
X12149856Y6541356D01*
X12148842Y6546238D01*
X12141742Y6584112D01*
X12135899Y6612762D01*
X12132627Y6641494D01*
X12130521Y6687328D01*
X12129575Y6743202D01*
X12129782Y6802055D01*
X12131137Y6856826D01*
X12133632Y6900454D01*
X12136168Y6921190D01*
X12164484Y7027566D01*
X12205338Y7123786D01*
X12347855Y7123786D01*
X12353623Y7108222D01*
X12367674Y7082128D01*
X12369888Y7078429D01*
X12387945Y7047582D01*
X12411418Y7006141D01*
X12428331Y6975619D01*
X12443697Y6947977D01*
X12469145Y6902667D01*
X12502783Y6843036D01*
X12542717Y6772436D01*
X12587054Y6694215D01*
X12633902Y6611724D01*
X12643628Y6594619D01*
X12692011Y6509507D01*
X12739419Y6426047D01*
X12783707Y6348016D01*
X12822734Y6279194D01*
X12854355Y6223358D01*
X12876428Y6184285D01*
X12878449Y6180696D01*
X12903480Y6137631D01*
X12924597Y6103886D01*
X12938799Y6084126D01*
X12942591Y6080910D01*
X12951449Y6090676D01*
X12969034Y6117353D01*
X12992581Y6156562D01*
X13012990Y6192452D01*
X13040265Y6241488D01*
X13064295Y6284695D01*
X13068269Y6291843D01*
X13625542Y6291843D01*
X13628443Y6289288D01*
X13651359Y6307863D01*
X13677974Y6329897D01*
X13782590Y6419889D01*
X13869791Y6500486D01*
X13942850Y6574836D01*
X13999582Y6639456D01*
X14035009Y6683262D01*
X14063865Y6720850D01*
X14083058Y6748061D01*
X14089524Y6760452D01*
X14081390Y6776271D01*
X14058984Y6805797D01*
X14025298Y6845793D01*
X13983326Y6893023D01*
X13936061Y6944248D01*
X13886495Y6996234D01*
X13837622Y7045742D01*
X13792434Y7089537D01*
X13753925Y7124381D01*
X13749618Y7128040D01*
X13696908Y7172151D01*
X13660829Y7201173D01*
X13639620Y7215729D01*
X13631520Y7216442D01*
X13634766Y7203936D01*
X13647598Y7178833D01*
X13657732Y7160545D01*
X13698194Y7074671D01*
X13730641Y6979621D01*
X13744640Y6921190D01*
X13748016Y6890240D01*
X13750248Y6842928D01*
X13751328Y6786333D01*
X13751246Y6727537D01*
X13749992Y6673618D01*
X13747557Y6631657D01*
X13745054Y6612762D01*
X13737951Y6577343D01*
X13732278Y6546238D01*
X13724383Y6520436D01*
X13707999Y6479470D01*
X13685769Y6429651D01*
X13667752Y6392098D01*
X13646164Y6346517D01*
X13631630Y6311887D01*
X13625542Y6291843D01*
X13068269Y6291843D01*
X13081912Y6316378D01*
X13088661Y6328524D01*
X13099514Y6347690D01*
X13119760Y6383116D01*
X13146707Y6430104D01*
X13177666Y6483959D01*
X13184572Y6495956D01*
X13214614Y6548408D01*
X13239761Y6592834D01*
X13257811Y6625306D01*
X13266563Y6641897D01*
X13267048Y6643169D01*
X13272702Y6654640D01*
X13287933Y6682341D01*
X13310140Y6721597D01*
X13326895Y6750768D01*
X13360735Y6809984D01*
X13397461Y6875227D01*
X13430421Y6934657D01*
X13437866Y6948270D01*
X13464051Y6995875D01*
X13488603Y7039690D01*
X13507241Y7072099D01*
X13511021Y7078429D01*
X13525832Y7105169D01*
X13532981Y7122683D01*
X13533098Y7123786D01*
X13521397Y7125579D01*
X13487820Y7127255D01*
X13434678Y7128777D01*
X13364285Y7130111D01*
X13278953Y7131221D01*
X13180997Y7132072D01*
X13072729Y7132628D01*
X12956462Y7132854D01*
X12940476Y7132857D01*
X12823317Y7132678D01*
X12713849Y7132164D01*
X12614384Y7131350D01*
X12527235Y7130273D01*
X12454716Y7128967D01*
X12399140Y7127467D01*
X12362820Y7125810D01*
X12348068Y7124030D01*
X12347855Y7123786D01*
X12205338Y7123786D01*
X12210250Y7135353D01*
X12255055Y7216641D01*
X12266798Y7237746D01*
X12269091Y7247674D01*
X12259900Y7245517D01*
X12237196Y7230364D01*
X12198946Y7201309D01*
X12169871Y7178543D01*
X12126870Y7141759D01*
X12073675Y7091841D01*
X12014981Y7033651D01*
X11955484Y6972054D01*
X11899881Y6911913D01*
X11852868Y6858090D01*
X11819141Y6815450D01*
X11818800Y6814976D01*
X11779647Y6760435D01*
X11527674Y6760435D01*
X11598431Y6863460D01*
X11724124Y7029968D01*
X11863130Y7183965D01*
X12011671Y7321635D01*
X12165968Y7439158D01*
X12172429Y7443536D01*
X12240005Y7485559D01*
X12319058Y7529068D01*
X12403356Y7571113D01*
X12486670Y7608742D01*
X12562772Y7639004D01*
X12625430Y7658947D01*
X12629024Y7659850D01*
X12682045Y7672180D01*
X12726362Y7680581D01*
X12746953Y7683808D01*
X12778484Y7686544D01*
X12826603Y7688432D01*
X12885261Y7689479D01*
X12948412Y7689695D01*
X13010010Y7689087D01*
D13*
X30400000Y15600000D02*
G75*
G03X30400000Y15600000I-100000J0D01*
G01*
X30300000Y15600000D02*
X31440000Y15600000D01*
X47598400Y9298800D02*
G75*
G03X47598400Y9298800I-100000J0D01*
G01*
X47298400Y8998800D02*
X47298400Y9298800D01*
X46698400Y8398800D02*
X47298400Y8998800D01*
X46398400Y8398800D02*
X46698400Y8398800D01*
X39298400Y16398800D02*
X39298400Y15598800D01*
X40098400Y16398800D02*
X39298400Y16398800D01*
X47298400Y16398800D02*
X47298400Y15598800D01*
X46498400Y16398800D02*
X47298400Y16398800D01*
X39298400Y8398800D02*
X39298400Y9198800D01*
X40098400Y8398800D02*
X39298400Y8398800D01*
X42619443Y7172000D02*
G75*
G03X42619443Y7172000I-89443J0D01*
G01*
X45000000Y7182000D02*
X42550000Y7182000D01*
X43200000Y3962000D02*
X45000000Y3962000D01*
X14169800Y8361600D02*
X14169800Y7886600D01*
X21389800Y15106600D02*
X20914800Y15106600D01*
X21389800Y14631600D02*
X21389800Y15106600D01*
X21389800Y7886600D02*
X20914800Y7886600D01*
X21389800Y8361600D02*
X21389800Y7886600D01*
X14169800Y15106600D02*
X14644800Y15106600D01*
X14169800Y14631600D02*
X14169800Y15106600D01*
X40387221Y16990000D02*
X40712779Y16990000D01*
X40387221Y18010000D02*
X40712779Y18010000D01*
X39200000Y16450000D02*
G75*
G03X39200000Y16450000I-700000J0D01*
G01*
X52022000Y4900000D02*
X52022000Y3700000D01*
X49222000Y4900000D02*
X52022000Y4900000D01*
X49222000Y3700000D02*
X49222000Y4900000D01*
X52022000Y3700000D02*
X49222000Y3700000D01*
X1370000Y9290000D02*
X2700000Y9290000D01*
X1370000Y7960000D02*
X1370000Y9290000D01*
X1370000Y6690000D02*
X4030000Y6690000D01*
X4030000Y6690000D02*
X4030000Y4090000D01*
X1370000Y6690000D02*
X1370000Y4090000D01*
X1370000Y4090000D02*
X4030000Y4090000D01*
X36146000Y10429221D02*
X36146000Y10754779D01*
X35126000Y10429221D02*
X35126000Y10754779D01*
X27672800Y13427800D02*
X27672800Y15102800D01*
X27932800Y13427800D02*
X27672800Y13427800D01*
X27932800Y10702800D02*
X27932800Y13427800D01*
X27932800Y7977800D02*
X27672800Y7977800D01*
X27932800Y10702800D02*
X27932800Y7977800D01*
X22482800Y13427800D02*
X22742800Y13427800D01*
X22482800Y10702800D02*
X22482800Y13427800D01*
X22482800Y7977800D02*
X22742800Y7977800D01*
X22482800Y10702800D02*
X22482800Y7977800D01*
X51850000Y18250000D02*
G75*
G03X51850000Y18250000I-700000J0D01*
G01*
X31960000Y10650000D02*
X31960000Y11150000D01*
X34240000Y10650000D02*
X34240000Y11150000D01*
X47601721Y3790000D02*
X47927279Y3790000D01*
X47601721Y4810000D02*
X47927279Y4810000D01*
X47863779Y6276000D02*
X47538221Y6276000D01*
X47863779Y5256000D02*
X47538221Y5256000D01*
X26075221Y5002000D02*
X26400779Y5002000D01*
X26075221Y6022000D02*
X26400779Y6022000D01*
X25108200Y16788421D02*
X25108200Y17113979D01*
X24088200Y16788421D02*
X24088200Y17113979D01*
X31862779Y15166000D02*
X31537221Y15166000D01*
X31862779Y14146000D02*
X31537221Y14146000D01*
X29090000Y7962779D02*
X29090000Y7637221D01*
X30110000Y7962779D02*
X30110000Y7637221D01*
X27648200Y16788421D02*
X27648200Y17113979D01*
X26628200Y16788421D02*
X26628200Y17113979D01*
X26062521Y3528800D02*
X26388079Y3528800D01*
X26062521Y4548800D02*
X26388079Y4548800D01*
X40878779Y7010000D02*
X40553221Y7010000D01*
X40878779Y5990000D02*
X40553221Y5990000D01*
X34662779Y13134000D02*
X34337221Y13134000D01*
X34662779Y12114000D02*
X34337221Y12114000D01*
X40878779Y5160000D02*
X40553221Y5160000D01*
X40878779Y4140000D02*
X40553221Y4140000D01*
X53761221Y8558000D02*
X54086779Y8558000D01*
X53761221Y9578000D02*
X54086779Y9578000D01*
X51983221Y12622000D02*
X52308779Y12622000D01*
X51983221Y13642000D02*
X52308779Y13642000D01*
X21315000Y3585000D02*
X23600000Y3585000D01*
X21315000Y5055000D02*
X21315000Y3585000D01*
X23600000Y5055000D02*
X21315000Y5055000D01*
X38162779Y18510000D02*
X37837221Y18510000D01*
X38162779Y17490000D02*
X37837221Y17490000D01*
X30808000Y6362779D02*
X30808000Y6037221D01*
X31828000Y6362779D02*
X31828000Y6037221D01*
X50660000Y13849721D02*
X50660000Y14175279D01*
X49640000Y13849721D02*
X49640000Y14175279D01*
X58404779Y5768000D02*
X58079221Y5768000D01*
X58404779Y4748000D02*
X58079221Y4748000D01*
X10950000Y15767221D02*
X10950000Y16092779D01*
X9930000Y15767221D02*
X9930000Y16092779D01*
X28890000Y17062779D02*
X28890000Y16737221D01*
X29910000Y17062779D02*
X29910000Y16737221D01*
X28268000Y5420779D02*
X28268000Y5095221D01*
X29288000Y5420779D02*
X29288000Y5095221D01*
X49410000Y13837221D02*
X49410000Y14162779D01*
X48390000Y13837221D02*
X48390000Y14162779D01*
X49137221Y15640000D02*
X49462779Y15640000D01*
X49137221Y16660000D02*
X49462779Y16660000D01*
X47411221Y7034000D02*
X47736779Y7034000D01*
X47411221Y8054000D02*
X47736779Y8054000D01*
X38062779Y9310000D02*
X37737221Y9310000D01*
X38062779Y8290000D02*
X37737221Y8290000D01*
X49604000Y6365221D02*
X49604000Y6690779D01*
X50624000Y6365221D02*
X50624000Y6690779D01*
X38062779Y8010000D02*
X37737221Y8010000D01*
X38062779Y6990000D02*
X37737221Y6990000D01*
X50848279Y9324000D02*
X50522721Y9324000D01*
X50848279Y8304000D02*
X50522721Y8304000D01*
D15*
X56200000Y9510000D02*
X56000000Y9510000D01*
X56000000Y9510000D02*
X56000000Y9810000D01*
X56200000Y9510000D02*
X57400000Y9510000D01*
X61600000Y15310000D02*
X61100000Y15310000D01*
X61600000Y14810000D02*
X61600000Y15310000D01*
X61600000Y6910000D02*
X61100000Y6910000D01*
X61600000Y6910000D02*
X61600000Y7410000D01*
X56350000Y6910000D02*
X56850000Y6910000D01*
X56350000Y7410000D02*
X56350000Y6910000D01*
X56350000Y15310000D02*
X56850000Y15310000D01*
X56350000Y15310000D02*
X56350000Y14810000D01*
D13*
X3817500Y11554000D02*
X3817500Y12754000D01*
X6617500Y11554000D02*
X3817500Y11554000D01*
X6617500Y12754000D02*
X6617500Y11554000D01*
X3817500Y12754000D02*
X6617500Y12754000D01*
X30146500Y13033500D02*
X31346500Y13033500D01*
X30146500Y10233500D02*
X30146500Y13033500D01*
X31346500Y10233500D02*
X30146500Y10233500D01*
X31346500Y13033500D02*
X31346500Y10233500D01*
X28800000Y10208000D02*
X28800000Y13008000D01*
X28800000Y13008000D02*
X30000000Y13008000D01*
X30000000Y13008000D02*
X30000000Y10208000D01*
X30000000Y10208000D02*
X28800000Y10208000D01*
X3830000Y11254000D02*
X6630000Y11254000D01*
X6630000Y11254000D02*
X6630000Y10054000D01*
X6630000Y10054000D02*
X3830000Y10054000D01*
X3830000Y10054000D02*
X3830000Y11254000D01*
X41950000Y18750000D02*
G75*
G03X41950000Y18750000I-700000J0D01*
G01*
X36600000Y18100000D02*
G75*
G03X36600000Y18100000I-700000J0D01*
G01*
X35050000Y18050000D02*
G75*
G03X35050000Y18050000I-700000J0D01*
G01*
X36336000Y15926000D02*
G75*
G03X36336000Y15926000I-700000J0D01*
G01*
X34558000Y15545000D02*
G75*
G03X34558000Y15545000I-700000J0D01*
G01*
X35193000Y14148000D02*
G75*
G03X35193000Y14148000I-700000J0D01*
G01*
X36850000Y13650000D02*
G75*
G03X36850000Y13650000I-700000J0D01*
G01*
X37350000Y12200000D02*
G75*
G03X37350000Y12200000I-700000J0D01*
G01*
X38100000Y10850000D02*
G75*
G03X38100000Y10850000I-700000J0D01*
G01*
X49290000Y18212000D02*
G75*
G03X49290000Y18212000I-700000J0D01*
G01*
X12350000Y14520000D02*
X11600000Y14520000D01*
X10650000Y12520000D02*
X10650000Y14520000D01*
X12350000Y12520000D02*
X12350000Y14520000D01*
X12450000Y14520000D02*
G75*
G03X12450000Y14520000I-100000J0D01*
G01*
D12*
X32360000Y7560000D02*
X32360000Y4960000D01*
X32360000Y7560000D02*
X36360000Y7560000D01*
X36360000Y7560000D02*
X36360000Y4960000D01*
X36360000Y4960000D02*
X32360000Y4960000D01*
X32360000Y6760000D02*
G75*
G02X32360000Y5760000I0J-500000D01*
G01*
D13*
X32546302Y4363510D02*
G75*
G03X32546302Y4363510I-141421J0D01*
G01*
X8401100Y11304000D02*
X8401100Y10004000D01*
X5601100Y11304000D02*
X8401100Y11304000D01*
X5601100Y10004000D02*
X5601100Y11304000D01*
X8401100Y10004000D02*
X5601100Y10004000D01*
X11600000Y14560000D02*
X11600000Y17360000D01*
X11600000Y17360000D02*
X12900000Y17360000D01*
X12900000Y17360000D02*
X12900000Y14560000D01*
X12900000Y14560000D02*
X11600000Y14560000D01*
X8401100Y12804000D02*
X8401100Y11504000D01*
X5601100Y12804000D02*
X8401100Y12804000D01*
X5601100Y11504000D02*
X5601100Y12804000D01*
X8401100Y11504000D02*
X5601100Y11504000D01*
X50600000Y11150000D02*
X53400000Y11150000D01*
X53400000Y11150000D02*
X53400000Y9850000D01*
X53400000Y9850000D02*
X50600000Y9850000D01*
X50600000Y9850000D02*
X50600000Y11150000D01*
X50600000Y11150000D02*
X50600000Y12450000D01*
X53400000Y11150000D02*
X50600000Y11150000D01*
X53400000Y12450000D02*
X53400000Y11150000D01*
X50600000Y12450000D02*
X53400000Y12450000D01*
D11*
X44778095Y18247620D02*
X44778095Y17438096D01*
X44825714Y17342858D01*
X44873333Y17295239D01*
X44968571Y17247620D01*
X45159047Y17247620D01*
X45254285Y17295239D01*
X45301904Y17342858D01*
X45349523Y17438096D01*
X45349523Y18247620D01*
X45730476Y18247620D02*
X46349523Y18247620D01*
X46016190Y17866667D01*
X46159047Y17866667D01*
X46254285Y17819048D01*
X46301904Y17771429D01*
X46349523Y17676191D01*
X46349523Y17438096D01*
X46301904Y17342858D01*
X46254285Y17295239D01*
X46159047Y17247620D01*
X45873333Y17247620D01*
X45778095Y17295239D01*
X45730476Y17342858D01*
X12020476Y9818096D02*
X12020476Y9170477D01*
X12058571Y9094286D01*
X12096666Y9056191D01*
X12172857Y9018096D01*
X12325238Y9018096D01*
X12401428Y9056191D01*
X12439523Y9094286D01*
X12477619Y9170477D01*
X12477619Y9818096D01*
X12820476Y9741905D02*
X12858571Y9780000D01*
X12934761Y9818096D01*
X13125238Y9818096D01*
X13201428Y9780000D01*
X13239523Y9741905D01*
X13277619Y9665715D01*
X13277619Y9589524D01*
X13239523Y9475239D01*
X12782380Y9018096D01*
X13277619Y9018096D01*
X4381333Y8236096D02*
X4381333Y7664667D01*
X4343238Y7550381D01*
X4267047Y7474191D01*
X4152761Y7436096D01*
X4076571Y7436096D01*
X5105142Y7969429D02*
X5105142Y7436096D01*
X4914666Y8274191D02*
X4724190Y7702762D01*
X5219428Y7702762D01*
X21465476Y7488096D02*
X21465476Y6840477D01*
X21503571Y6764286D01*
X21541666Y6726191D01*
X21617857Y6688096D01*
X21770238Y6688096D01*
X21846428Y6726191D01*
X21884523Y6764286D01*
X21922619Y6840477D01*
X21922619Y7488096D01*
X22684523Y7488096D02*
X22303571Y7488096D01*
X22265476Y7107143D01*
X22303571Y7145239D01*
X22379761Y7183334D01*
X22570238Y7183334D01*
X22646428Y7145239D01*
X22684523Y7107143D01*
X22722619Y7030953D01*
X22722619Y6840477D01*
X22684523Y6764286D01*
X22646428Y6726191D01*
X22570238Y6688096D01*
X22379761Y6688096D01*
X22303571Y6726191D01*
X22265476Y6764286D01*
X19830923Y3854696D02*
X19830923Y4654696D01*
X20021400Y4654696D01*
X20135685Y4616600D01*
X20211876Y4540410D01*
X20249971Y4464220D01*
X20288066Y4311839D01*
X20288066Y4197553D01*
X20249971Y4045172D01*
X20211876Y3968981D01*
X20135685Y3892791D01*
X20021400Y3854696D01*
X19830923Y3854696D01*
X21049971Y3854696D02*
X20592828Y3854696D01*
X20821400Y3854696D02*
X20821400Y4654696D01*
X20745209Y4540410D01*
X20669019Y4464220D01*
X20592828Y4426124D01*
X60563333Y6318096D02*
X60563333Y5746667D01*
X60525238Y5632381D01*
X60449047Y5556191D01*
X60334761Y5518096D01*
X60258571Y5518096D01*
X61363333Y5518096D02*
X60906190Y5518096D01*
X61134761Y5518096D02*
X61134761Y6318096D01*
X61058571Y6203810D01*
X60982380Y6127620D01*
X60906190Y6089524D01*
X58153333Y18458096D02*
X58153333Y17886667D01*
X58115238Y17772381D01*
X58039047Y17696191D01*
X57924761Y17658096D01*
X57848571Y17658096D01*
X58496190Y18381905D02*
X58534285Y18420000D01*
X58610476Y18458096D01*
X58800952Y18458096D01*
X58877142Y18420000D01*
X58915238Y18381905D01*
X58953333Y18305715D01*
X58953333Y18229524D01*
X58915238Y18115239D01*
X58458095Y17658096D01*
X58953333Y17658096D01*
X60083333Y4488096D02*
X60083333Y3916667D01*
X60045238Y3802381D01*
X59969047Y3726191D01*
X59854761Y3688096D01*
X59778571Y3688096D01*
X60388095Y4488096D02*
X60883333Y4488096D01*
X60616666Y4183334D01*
X60730952Y4183334D01*
X60807142Y4145239D01*
X60845238Y4107143D01*
X60883333Y4030953D01*
X60883333Y3840477D01*
X60845238Y3764286D01*
X60807142Y3726191D01*
X60730952Y3688096D01*
X60502380Y3688096D01*
X60426190Y3726191D01*
X60388095Y3764286D01*
X11589523Y11418096D02*
X11589523Y12218096D01*
X11780000Y12218096D01*
X11894285Y12180000D01*
X11970476Y12103810D01*
X12008571Y12027620D01*
X12046666Y11875239D01*
X12046666Y11760953D01*
X12008571Y11608572D01*
X11970476Y11532381D01*
X11894285Y11456191D01*
X11780000Y11418096D01*
X11589523Y11418096D01*
X12313333Y12218096D02*
X12808571Y12218096D01*
X12541904Y11913334D01*
X12656190Y11913334D01*
X12732380Y11875239D01*
X12770476Y11837143D01*
X12808571Y11760953D01*
X12808571Y11570477D01*
X12770476Y11494286D01*
X12732380Y11456191D01*
X12656190Y11418096D01*
X12427619Y11418096D01*
X12351428Y11456191D01*
X12313333Y11494286D01*
X11675714Y17788096D02*
X11409047Y18169048D01*
X11218571Y17788096D02*
X11218571Y18588096D01*
X11523333Y18588096D01*
X11599523Y18550000D01*
X11637619Y18511905D01*
X11675714Y18435715D01*
X11675714Y18321429D01*
X11637619Y18245239D01*
X11599523Y18207143D01*
X11523333Y18169048D01*
X11218571Y18169048D01*
X11980476Y18511905D02*
X12018571Y18550000D01*
X12094761Y18588096D01*
X12285238Y18588096D01*
X12361428Y18550000D01*
X12399523Y18511905D01*
X12437619Y18435715D01*
X12437619Y18359524D01*
X12399523Y18245239D01*
X11942380Y17788096D01*
X12437619Y17788096D01*
X12894761Y18245239D02*
X12818571Y18283334D01*
X12780476Y18321429D01*
X12742380Y18397620D01*
X12742380Y18435715D01*
X12780476Y18511905D01*
X12818571Y18550000D01*
X12894761Y18588096D01*
X13047142Y18588096D01*
X13123333Y18550000D01*
X13161428Y18511905D01*
X13199523Y18435715D01*
X13199523Y18397620D01*
X13161428Y18321429D01*
X13123333Y18283334D01*
X13047142Y18245239D01*
X12894761Y18245239D01*
X12818571Y18207143D01*
X12780476Y18169048D01*
X12742380Y18092858D01*
X12742380Y17940477D01*
X12780476Y17864286D01*
X12818571Y17826191D01*
X12894761Y17788096D01*
X13047142Y17788096D01*
X13123333Y17826191D01*
X13161428Y17864286D01*
X13199523Y17940477D01*
X13199523Y18092858D01*
X13161428Y18169048D01*
X13123333Y18207143D01*
X13047142Y18245239D01*
M02*
